<svg width="700" height="450" viewBox="0 0 700 450" fill="none" xmlns="http://www.w3.org/2000/svg">
<rect width="700" height="450" fill="#282929"/>
<rect opacity="0.5" x="54.5" y="189.5" width="255" height="164" fill="#1A1A1A" stroke="#41413F"/>
<g opacity="0.5">
<rect x="54.5" y="58.5" width="206" height="131" fill="#262626" stroke="#41413F"/>
<rect x="88" y="157" width="43" height="16" fill="#262626" stroke="#41413F"/>
<rect x="88" y="76" width="43" height="16" fill="#262626" stroke="#41413F"/>
<rect x="88" y="103" width="43" height="16" fill="#262626" stroke="#41413F"/>
<rect x="88" y="130" width="43" height="16" fill="#262626" stroke="#41413F"/>
<rect x="198" y="157" width="43" height="16" fill="#262626" stroke="#41413F"/>
<rect x="198" y="76" width="43" height="16" fill="#262626" stroke="#41413F"/>
<rect x="198" y="103" width="43" height="16" fill="#262626" stroke="#41413F"/>
<rect x="198" y="130" width="43" height="16" fill="#262626" stroke="#41413F"/>
<rect x="143" y="157" width="43" height="16" fill="#262626" stroke="#41413F"/>
<rect x="143" y="76" width="43" height="16" fill="#262626" stroke="#41413F"/>
<rect x="143" y="103" width="43" height="16" fill="#262626" stroke="#41413F"/>
<rect x="143" y="130" width="43" height="16" fill="#262626" stroke="#41413F"/>
<g opacity="0.5">
<mask id="path-16-inside-1_13_1134" fill="white">
<path d="M54 189.943H212V251H54V189.943Z"/>
</mask>
<path d="M54 189.943H212V251H54V189.943Z" fill="#262626"/>
<path d="M212 251V252H213V251H212ZM54 251H53V252H54V251ZM212 189.943H211V251H212H213V189.943H212ZM212 251V250H54V251V252H212V251ZM54 251H55V189.943H54H53V251H54Z" fill="#41413F" mask="url(#path-16-inside-1_13_1134)"/>
</g>
<line x1="131.5" y1="189.943" x2="131.5" y2="251" stroke="#41413F"/>
<rect x="58.5" y="193.5" width="25" height="53" fill="#1E1E1E" stroke="#41413F"/>
<rect x="86.5" y="214.5" width="14" height="32" fill="#1E1E1E" stroke="#41413F"/>
<rect opacity="0.5" x="103.5" y="193.5" width="25" height="53" fill="#1E1E1E" stroke="#41413F"/>
<line x1="109.5" y1="76" x2="109.5" y2="92" stroke="#41413F"/>
<line x1="109.5" y1="103" x2="109.5" y2="119" stroke="#41413F"/>
<line x1="109.5" y1="130" x2="109.5" y2="146" stroke="#41413F"/>
<line x1="109.5" y1="157" x2="109.5" y2="173" stroke="#41413F"/>
<line x1="164.5" y1="76" x2="164.5" y2="92" stroke="#41413F"/>
<line x1="164.5" y1="103" x2="164.5" y2="119" stroke="#41413F"/>
<line x1="164.5" y1="157" x2="164.5" y2="173" stroke="#41413F"/>
<line x1="164.5" y1="130" x2="164.5" y2="146" stroke="#41413F"/>
<line x1="219.5" y1="76" x2="219.5" y2="92" stroke="#41413F"/>
<line x1="219.5" y1="103" x2="219.5" y2="119" stroke="#41413F"/>
<line x1="219.5" y1="130" x2="219.5" y2="146" stroke="#41413F"/>
<line x1="219.5" y1="157" x2="219.5" y2="172" stroke="#41413F"/>
<line x1="211" y1="211.5" x2="157" y2="211.5" stroke="#41413F"/>
<line x1="132" y1="211.5" x2="144" y2="211.5" stroke="#41413F"/>
<mask id="path-36-inside-2_13_1134" fill="white">
<path d="M265 168H283V189H265V168Z"/>
</mask>
<path d="M265 168H283V189H265V168Z" fill="#262626"/>
<path d="M265 168V167H264V168H265ZM283 168H284V167H283V168ZM265 168V169H283V168V167H265V168ZM283 168H282V189H283H284V168H283ZM265 189H266V168H265H264V189H265Z" fill="#41413F" mask="url(#path-36-inside-2_13_1134)"/>
<mask id="path-38-inside-3_13_1134" fill="white">
<path d="M288 148H306V190H288V148Z"/>
</mask>
<path d="M288 148H306V190H288V148Z" fill="#262626"/>
<path d="M288 148V147H287V148H288ZM306 148H307V147H306V148ZM288 148V149H306V148V147H288V148ZM306 148H305V190H306H307V148H306ZM288 190H289V148H288H287V190H288Z" fill="#41413F" mask="url(#path-38-inside-3_13_1134)"/>
<mask id="path-40-inside-4_13_1134" fill="white">
<path d="M267 148H306V164H267V148Z"/>
</mask>
<path d="M267 148H306V164H267V148Z" fill="#262626"/>
<path d="M306 148H307V147H306V148ZM306 164V165H307V164H306ZM267 148V149H306V148V147H267V148ZM306 148H305V164H306H307V148H306ZM306 164V163H267V164V165H306V164Z" fill="#41413F" mask="url(#path-40-inside-4_13_1134)"/>
<rect x="270" y="150" width="2" height="12" fill="#41413F"/>
<rect x="274" y="150" width="2" height="12" fill="#41413F"/>
<rect x="278" y="150" width="2" height="12" fill="#41413F"/>
<rect x="282" y="150" width="2" height="12" fill="#41413F"/>
<rect x="286" y="150" width="2" height="12" fill="#41413F"/>
<rect x="290" y="164" width="14" height="2" fill="#41413F"/>
<rect x="290" y="168" width="14" height="2" fill="#41413F"/>
<rect x="290" y="172" width="14" height="2" fill="#41413F"/>
<rect x="290" y="176" width="14" height="2" fill="#41413F"/>
<rect x="290" y="180" width="14" height="2" fill="#41413F"/>
<rect x="290" y="184" width="14" height="2" fill="#41413F"/>
</g>
<rect x="349.5" y="140.5" width="297" height="148" fill="#262626" stroke="#41413F"/>
<mask id="path-54-inside-5_13_1134" fill="white">
<path d="M350 141H646V197H350V141Z"/>
</mask>
<path d="M350 141H646V197H350V141Z" fill="#1A1A1A"/>
<path d="M646 197V196H350V197V198H646V197Z" fill="#41413F" mask="url(#path-54-inside-5_13_1134)"/>
<mask id="path-56-inside-6_13_1134" fill="white">
<path d="M350 153H393V197H350V153Z"/>
</mask>
<path d="M350 153H393V197H350V153Z" fill="#262626"/>
<path d="M393 153H394V152H393V153ZM350 153V154H393V153V152H350V153ZM393 153H392V197H393H394V153H393Z" fill="#41413F" mask="url(#path-56-inside-6_13_1134)"/>
<mask id="path-58-inside-7_13_1134" fill="white">
<path d="M603 153H646V197H603V153Z"/>
</mask>
<path d="M603 153H646V197H603V153Z" fill="#262626"/>
<path d="M603 153V152H602V153H603ZM603 153V154H646V153V152H603V153ZM603 197H604V153H603H602V197H603Z" fill="#41413F" mask="url(#path-58-inside-7_13_1134)"/>
<mask id="path-60-inside-8_13_1134" fill="white">
<path d="M445 161H550V197H445V161Z"/>
</mask>
<path d="M445 161H550V197H445V161Z" fill="#262626"/>
<path d="M445 161V160H444V161H445ZM550 161H551V160H550V161ZM445 161V162H550V161V160H445V161ZM550 161H549V197H550H551V161H550ZM445 197H446V161H445H444V197H445Z" fill="#41413F" mask="url(#path-60-inside-8_13_1134)"/>
<mask id="path-62-inside-9_13_1134" fill="white">
<path d="M509 173H525V197H509V173Z"/>
</mask>
<path d="M509 173H525V197H509V173Z" fill="#282929"/>
<path d="M509 173V172H508V173H509ZM525 173H526V172H525V173ZM525 197V198H526V197H525ZM509 197H508V198H509V197ZM509 173V174H525V173V172H509V173ZM525 173H524V197H525H526V173H525ZM525 197V196H509V197V198H525V197ZM509 197H510V173H509H508V197H509Z" fill="#41413F" mask="url(#path-62-inside-9_13_1134)"/>
<mask id="path-64-inside-10_13_1134" fill="white">
<path d="M527 173H543V197H527V173Z"/>
</mask>
<path d="M527 173H543V197H527V173Z" fill="#282929"/>
<path d="M527 173V172H526V173H527ZM543 173H544V172H543V173ZM543 197V198H544V197H543ZM527 197H526V198H527V197ZM527 173V174H543V173V172H527V173ZM543 173H542V197H543H544V173H543ZM543 197V196H527V197V198H543V197ZM527 197H528V173H527H526V197H527Z" fill="#41413F" mask="url(#path-64-inside-10_13_1134)"/>
<mask id="path-66-inside-11_13_1134" fill="white">
<path d="M355 227H384V284H355V227Z"/>
</mask>
<path d="M355 227H384V284H355V227Z" fill="#41413F"/>
<path d="M355 227V226H354V227H355ZM384 227H385V226H384V227ZM384 284V285H385V284H384ZM355 284H354V285H355V284ZM355 227V228H384V227V226H355V227ZM384 227H383V284H384H385V227H384ZM384 284V283H355V284V285H384V284ZM355 284H356V227H355H354V284H355Z" fill="#1E1E1E" mask="url(#path-66-inside-11_13_1134)"/>
<mask id="path-68-inside-12_13_1134" fill="white">
<path d="M389 227H418V284H389V227Z"/>
</mask>
<path d="M389 227H418V284H389V227Z" fill="#41413F"/>
<path d="M389 227V226H388V227H389ZM418 227H419V226H418V227ZM418 284V285H419V284H418ZM389 284H388V285H389V284ZM389 227V228H418V227V226H389V227ZM418 227H417V284H418H419V227H418ZM418 284V283H389V284V285H418V284ZM389 284H390V227H389H388V284H389Z" fill="#1E1E1E" mask="url(#path-68-inside-12_13_1134)"/>
<mask id="path-70-inside-13_13_1134" fill="white">
<path d="M423 227H452V284H423V227Z"/>
</mask>
<path d="M423 227H452V284H423V227Z" fill="#41413F"/>
<path d="M423 227V226H422V227H423ZM452 227H453V226H452V227ZM452 284V285H453V284H452ZM423 284H422V285H423V284ZM423 227V228H452V227V226H423V227ZM452 227H451V284H452H453V227H452ZM452 284V283H423V284V285H452V284ZM423 284H424V227H423H422V284H423Z" fill="#1E1E1E" mask="url(#path-70-inside-13_13_1134)"/>
<mask id="path-72-inside-14_13_1134" fill="white">
<path d="M543 227H572V282H543V227Z"/>
</mask>
<path d="M543 227H572V282H543V227Z" fill="#41413F"/>
<path d="M543 227V226H542V227H543ZM572 227H573V226H572V227ZM572 282V283H573V282H572ZM543 282H542V283H543V282ZM543 227V228H572V227V226H543V227ZM572 227H571V282H572H573V227H572ZM572 282V281H543V282V283H572V282ZM543 282H544V227H543H542V282H543Z" fill="#1E1E1E" mask="url(#path-72-inside-14_13_1134)"/>
<mask id="path-74-inside-15_13_1134" fill="white">
<path d="M577 227H606V282H577V227Z"/>
</mask>
<path d="M577 227H606V282H577V227Z" fill="#41413F"/>
<path d="M577 227V226H576V227H577ZM606 227H607V226H606V227ZM606 282V283H607V282H606ZM577 282H576V283H577V282ZM577 227V228H606V227V226H577V227ZM606 227H605V282H606H607V227H606ZM606 282V281H577V282V283H606V282ZM577 282H578V227H577H576V282H577Z" fill="#1E1E1E" mask="url(#path-74-inside-15_13_1134)"/>
<mask id="path-76-inside-16_13_1134" fill="white">
<path d="M612 227H641V282H612V227Z"/>
</mask>
<path d="M612 227H641V282H612V227Z" fill="#41413F"/>
<path d="M612 227V226H611V227H612ZM641 227H642V226H641V227ZM641 282V283H642V282H641ZM612 282H611V283H612V282ZM612 227V228H641V227V226H612V227ZM641 227H640V282H641H642V227H641ZM641 282V281H612V282V283H641V282ZM612 282H613V227H612H611V282H612Z" fill="#1E1E1E" mask="url(#path-76-inside-16_13_1134)"/>
<mask id="path-78-inside-17_13_1134" fill="white">
<path d="M615 157H635V197H615V157Z"/>
</mask>
<path d="M615 157H635V197H615V157Z" fill="#282929"/>
<path d="M635 157H634V197H635H636V157H635ZM615 197H616V157H615H614V197H615Z" fill="#41413F" mask="url(#path-78-inside-17_13_1134)"/>
<mask id="path-80-inside-18_13_1134" fill="white">
<path d="M617 192H633V194H617V192Z"/>
</mask>
<path d="M617 192H633V194H617V192Z" fill="#262626"/>
<path d="M617 192V191H616V192H617ZM633 192H634V191H633V192ZM633 194V195H634V194H633ZM617 194H616V195H617V194ZM617 192V193H633V192V191H617V192ZM633 192H632V194H633H634V192H633ZM633 194V193H617V194V195H633V194ZM617 194H618V192H617H616V194H617Z" fill="#41413F" mask="url(#path-80-inside-18_13_1134)"/>
<mask id="path-82-inside-19_13_1134" fill="white">
<path d="M617 178H633V176H617V178Z"/>
</mask>
<path d="M617 178H633V176H617V178Z" fill="#262626"/>
<path d="M617 178V179H616V178H617ZM633 178H634V179H633V178ZM633 176V175H634V176H633ZM617 176H616V175H617V176ZM617 178V177H633V178V179H617V178ZM633 178H632V176H633H634V178H633ZM633 176V177H617V176V175H633V176ZM617 176H618V178H617H616V176H617Z" fill="#41413F" mask="url(#path-82-inside-19_13_1134)"/>
<mask id="path-84-inside-20_13_1134" fill="white">
<path d="M617 180H633V182H617V180Z"/>
</mask>
<path d="M617 180H633V182H617V180Z" fill="#262626"/>
<path d="M617 180V179H616V180H617ZM633 180H634V179H633V180ZM633 182V183H634V182H633ZM617 182H616V183H617V182ZM617 180V181H633V180V179H617V180ZM633 180H632V182H633H634V180H633ZM633 182V181H617V182V183H633V182ZM617 182H618V180H617H616V182H617Z" fill="#41413F" mask="url(#path-84-inside-20_13_1134)"/>
<mask id="path-86-inside-21_13_1134" fill="white">
<path d="M617 184H633V186H617V184Z"/>
</mask>
<path d="M617 184H633V186H617V184Z" fill="#262626"/>
<path d="M617 184V183H616V184H617ZM633 184H634V183H633V184ZM633 186V187H634V186H633ZM617 186H616V187H617V186ZM617 184V185H633V184V183H617V184ZM633 184H632V186H633H634V184H633ZM633 186V185H617V186V187H633V186ZM617 186H618V184H617H616V186H617Z" fill="#41413F" mask="url(#path-86-inside-21_13_1134)"/>
<mask id="path-88-inside-22_13_1134" fill="white">
<path d="M617 188H633V190H617V188Z"/>
</mask>
<path d="M617 188H633V190H617V188Z" fill="#262626"/>
<path d="M617 188V187H616V188H617ZM633 188H634V187H633V188ZM633 190V191H634V190H633ZM617 190H616V191H617V190ZM617 188V189H633V188V187H617V188ZM633 188H632V190H633H634V188H633ZM633 190V189H617V190V191H633V190ZM617 190H618V188H617H616V190H617Z" fill="#41413F" mask="url(#path-88-inside-22_13_1134)"/>
<mask id="path-90-inside-23_13_1134" fill="white">
<path d="M617 172H633V174H617V172Z"/>
</mask>
<path d="M617 172H633V174H617V172Z" fill="#262626"/>
<path d="M617 172V171H616V172H617ZM633 172H634V171H633V172ZM633 174V175H634V174H633ZM617 174H616V175H617V174ZM617 172V173H633V172V171H617V172ZM633 172H632V174H633H634V172H633ZM633 174V173H617V174V175H633V174ZM617 174H618V172H617H616V174H617Z" fill="#41413F" mask="url(#path-90-inside-23_13_1134)"/>
<mask id="path-92-inside-24_13_1134" fill="white">
<path d="M617 160H633V162H617V160Z"/>
</mask>
<path d="M617 160H633V162H617V160Z" fill="#262626"/>
<path d="M617 160V159H616V160H617ZM633 160H634V159H633V160ZM633 162V163H634V162H633ZM617 162H616V163H617V162ZM617 160V161H633V160V159H617V160ZM633 160H632V162H633H634V160H633ZM633 162V161H617V162V163H633V162ZM617 162H618V160H617H616V162H617Z" fill="#41413F" mask="url(#path-92-inside-24_13_1134)"/>
<mask id="path-94-inside-25_13_1134" fill="white">
<path d="M617 164H633V166H617V164Z"/>
</mask>
<path d="M617 164H633V166H617V164Z" fill="#262626"/>
<path d="M617 164V163H616V164H617ZM633 164H634V163H633V164ZM633 166V167H634V166H633ZM617 166H616V167H617V166ZM617 164V165H633V164V163H617V164ZM633 164H632V166H633H634V164H633ZM633 166V165H617V166V167H633V166ZM617 166H618V164H617H616V166H617Z" fill="#41413F" mask="url(#path-94-inside-25_13_1134)"/>
<mask id="path-96-inside-26_13_1134" fill="white">
<path d="M617 168H633V170H617V168Z"/>
</mask>
<path d="M617 168H633V170H617V168Z" fill="#262626"/>
<path d="M617 168V167H616V168H617ZM633 168H634V167H633V168ZM633 170V171H634V170H633ZM617 170H616V171H617V170ZM617 168V169H633V168V167H617V168ZM633 168H632V170H633H634V168H633ZM633 170V169H617V170V171H633V170ZM617 170H618V168H617H616V170H617Z" fill="#41413F" mask="url(#path-96-inside-26_13_1134)"/>
<mask id="path-98-inside-27_13_1134" fill="white">
<path d="M361 157H381V197H361V157Z"/>
</mask>
<path d="M361 157H381V197H361V157Z" fill="#282929"/>
<path d="M381 157H380V197H381H382V157H381ZM361 197H362V157H361H360V197H361Z" fill="#41413F" mask="url(#path-98-inside-27_13_1134)"/>
<mask id="path-100-inside-28_13_1134" fill="white">
<path d="M363 192H379V194H363V192Z"/>
</mask>
<path d="M363 192H379V194H363V192Z" fill="#262626"/>
<path d="M363 192V191H362V192H363ZM379 192H380V191H379V192ZM379 194V195H380V194H379ZM363 194H362V195H363V194ZM363 192V193H379V192V191H363V192ZM379 192H378V194H379H380V192H379ZM379 194V193H363V194V195H379V194ZM363 194H364V192H363H362V194H363Z" fill="#41413F" mask="url(#path-100-inside-28_13_1134)"/>
<mask id="path-102-inside-29_13_1134" fill="white">
<path d="M363 178H379V176H363V178Z"/>
</mask>
<path d="M363 178H379V176H363V178Z" fill="#262626"/>
<path d="M363 178V179H362V178H363ZM379 178H380V179H379V178ZM379 176V175H380V176H379ZM363 176H362V175H363V176ZM363 178V177H379V178V179H363V178ZM379 178H378V176H379H380V178H379ZM379 176V177H363V176V175H379V176ZM363 176H364V178H363H362V176H363Z" fill="#41413F" mask="url(#path-102-inside-29_13_1134)"/>
<mask id="path-104-inside-30_13_1134" fill="white">
<path d="M363 180H379V182H363V180Z"/>
</mask>
<path d="M363 180H379V182H363V180Z" fill="#262626"/>
<path d="M363 180V179H362V180H363ZM379 180H380V179H379V180ZM379 182V183H380V182H379ZM363 182H362V183H363V182ZM363 180V181H379V180V179H363V180ZM379 180H378V182H379H380V180H379ZM379 182V181H363V182V183H379V182ZM363 182H364V180H363H362V182H363Z" fill="#41413F" mask="url(#path-104-inside-30_13_1134)"/>
<mask id="path-106-inside-31_13_1134" fill="white">
<path d="M363 184H379V186H363V184Z"/>
</mask>
<path d="M363 184H379V186H363V184Z" fill="#262626"/>
<path d="M363 184V183H362V184H363ZM379 184H380V183H379V184ZM379 186V187H380V186H379ZM363 186H362V187H363V186ZM363 184V185H379V184V183H363V184ZM379 184H378V186H379H380V184H379ZM379 186V185H363V186V187H379V186ZM363 186H364V184H363H362V186H363Z" fill="#41413F" mask="url(#path-106-inside-31_13_1134)"/>
<mask id="path-108-inside-32_13_1134" fill="white">
<path d="M363 188H379V190H363V188Z"/>
</mask>
<path d="M363 188H379V190H363V188Z" fill="#262626"/>
<path d="M363 188V187H362V188H363ZM379 188H380V187H379V188ZM379 190V191H380V190H379ZM363 190H362V191H363V190ZM363 188V189H379V188V187H363V188ZM379 188H378V190H379H380V188H379ZM379 190V189H363V190V191H379V190ZM363 190H364V188H363H362V190H363Z" fill="#41413F" mask="url(#path-108-inside-32_13_1134)"/>
<mask id="path-110-inside-33_13_1134" fill="white">
<path d="M363 172H379V174H363V172Z"/>
</mask>
<path d="M363 172H379V174H363V172Z" fill="#262626"/>
<path d="M363 172V171H362V172H363ZM379 172H380V171H379V172ZM379 174V175H380V174H379ZM363 174H362V175H363V174ZM363 172V173H379V172V171H363V172ZM379 172H378V174H379H380V172H379ZM379 174V173H363V174V175H379V174ZM363 174H364V172H363H362V174H363Z" fill="#41413F" mask="url(#path-110-inside-33_13_1134)"/>
<mask id="path-112-inside-34_13_1134" fill="white">
<path d="M363 160H379V162H363V160Z"/>
</mask>
<path d="M363 160H379V162H363V160Z" fill="#262626"/>
<path d="M363 160V159H362V160H363ZM379 160H380V159H379V160ZM379 162V163H380V162H379ZM363 162H362V163H363V162ZM363 160V161H379V160V159H363V160ZM379 160H378V162H379H380V160H379ZM379 162V161H363V162V163H379V162ZM363 162H364V160H363H362V162H363Z" fill="#41413F" mask="url(#path-112-inside-34_13_1134)"/>
<mask id="path-114-inside-35_13_1134" fill="white">
<path d="M363 164H379V166H363V164Z"/>
</mask>
<path d="M363 164H379V166H363V164Z" fill="#262626"/>
<path d="M363 164V163H362V164H363ZM379 164H380V163H379V164ZM379 166V167H380V166H379ZM363 166H362V167H363V166ZM363 164V165H379V164V163H363V164ZM379 164H378V166H379H380V164H379ZM379 166V165H363V166V167H379V166ZM363 166H364V164H363H362V166H363Z" fill="#41413F" mask="url(#path-114-inside-35_13_1134)"/>
<mask id="path-116-inside-36_13_1134" fill="white">
<path d="M363 168H379V170H363V168Z"/>
</mask>
<path d="M363 168H379V170H363V168Z" fill="#262626"/>
<path d="M363 168V167H362V168H363ZM379 168H380V167H379V168ZM379 170V171H380V170H379ZM363 170H362V171H363V170ZM363 168V169H379V168V167H363V168ZM379 168H378V170H379H380V168H379ZM379 170V169H363V170V171H379V170ZM363 170H364V168H363H362V170H363Z" fill="#41413F" mask="url(#path-116-inside-36_13_1134)"/>
<g opacity="0.5">
<mask id="path-118-inside-37_13_1134" fill="white">
<path d="M452 289H543V385H452V289Z"/>
</mask>
<path d="M452 289H543V385H452V289Z" fill="#262626"/>
<path d="M543 385V386H544V385H543ZM452 385H451V386H452V385ZM543 289H542V385H543H544V289H543ZM543 385V384H452V385V386H543V385ZM452 385H453V289H452H451V385H452Z" fill="#41413F" mask="url(#path-118-inside-37_13_1134)"/>
<mask id="path-120-inside-38_13_1134" fill="white">
<path d="M455 380H540V382H455V380Z"/>
</mask>
<path d="M455 380H540V382H455V380Z" fill="#262626"/>
<path d="M455 380V379H454V380H455ZM540 380H541V379H540V380ZM540 382V383H541V382H540ZM455 382H454V383H455V382ZM455 380V381H540V380V379H455V380ZM540 380H539V382H540H541V380H540ZM540 382V381H455V382V383H540V382ZM455 382H456V380H455H454V382H455Z" fill="#41413F" mask="url(#path-120-inside-38_13_1134)"/>
<mask id="path-122-inside-39_13_1134" fill="white">
<path d="M455 375H540V377H455V375Z"/>
</mask>
<path d="M455 375H540V377H455V375Z" fill="#262626"/>
<path d="M455 375V374H454V375H455ZM540 375H541V374H540V375ZM540 377V378H541V377H540ZM455 377H454V378H455V377ZM455 375V376H540V375V374H455V375ZM540 375H539V377H540H541V375H540ZM540 377V376H455V377V378H540V377ZM455 377H456V375H455H454V377H455Z" fill="#41413F" mask="url(#path-122-inside-39_13_1134)"/>
<mask id="path-124-inside-40_13_1134" fill="white">
<path d="M455 360H540V362H455V360Z"/>
</mask>
<path d="M455 360H540V362H455V360Z" fill="#262626"/>
<path d="M455 360V359H454V360H455ZM540 360H541V359H540V360ZM540 362V363H541V362H540ZM455 362H454V363H455V362ZM455 360V361H540V360V359H455V360ZM540 360H539V362H540H541V360H540ZM540 362V361H455V362V363H540V362ZM455 362H456V360H455H454V362H455Z" fill="#41413F" mask="url(#path-124-inside-40_13_1134)"/>
<mask id="path-126-inside-41_13_1134" fill="white">
<path d="M455 370H540V372H455V370Z"/>
</mask>
<path d="M455 370H540V372H455V370Z" fill="#262626"/>
<path d="M455 370V369H454V370H455ZM540 370H541V369H540V370ZM540 372V373H541V372H540ZM455 372H454V373H455V372ZM455 370V371H540V370V369H455V370ZM540 370H539V372H540H541V370H540ZM540 372V371H455V372V373H540V372ZM455 372H456V370H455H454V372H455Z" fill="#41413F" mask="url(#path-126-inside-41_13_1134)"/>
<mask id="path-128-inside-42_13_1134" fill="white">
<path d="M455 365H540V367H455V365Z"/>
</mask>
<path d="M455 365H540V367H455V365Z" fill="#262626"/>
<path d="M455 365V364H454V365H455ZM540 365H541V364H540V365ZM540 367V368H541V367H540ZM455 367H454V368H455V367ZM455 365V366H540V365V364H455V365ZM540 365H539V367H540H541V365H540ZM540 367V366H455V367V368H540V367ZM455 367H456V365H455H454V367H455Z" fill="#41413F" mask="url(#path-128-inside-42_13_1134)"/>
<mask id="path-130-inside-43_13_1134" fill="white">
<path d="M310 300H452V322H310V300Z"/>
</mask>
<path d="M310 300H452V322H310V300Z" fill="#262626"/>
<path d="M310 300V301H452V300V299H310V300ZM452 322V321H310V322V323H452V322Z" fill="#41413F" mask="url(#path-130-inside-43_13_1134)"/>
</g>
<g opacity="0.5">
<mask id="path-132-inside-44_13_1134" fill="white">
<path d="M310 203H349V225H310V203Z"/>
</mask>
<path d="M310 203H349V225H310V203Z" fill="#262626"/>
<path d="M310 203V204H349V203V202H310V203ZM349 225V224H310V225V226H349V225Z" fill="#41413F" mask="url(#path-132-inside-44_13_1134)"/>
</g>
<path d="M472.861 219V210.273H476.134C476.804 210.273 477.366 210.398 477.821 210.648C478.278 210.898 478.624 211.241 478.857 211.679C479.092 212.114 479.21 212.608 479.21 213.162C479.21 213.722 479.092 214.219 478.857 214.653C478.621 215.088 478.273 215.43 477.812 215.68C477.352 215.928 476.786 216.051 476.112 216.051H473.943V214.751H475.899C476.291 214.751 476.612 214.683 476.862 214.547C477.112 214.411 477.297 214.223 477.416 213.984C477.538 213.746 477.599 213.472 477.599 213.162C477.599 212.852 477.538 212.58 477.416 212.344C477.297 212.108 477.111 211.925 476.858 211.794C476.608 211.661 476.286 211.594 475.891 211.594H474.442V219H472.861ZM480.515 219V212.455H482.058V219H480.515ZM481.291 211.526C481.047 211.526 480.836 211.445 480.66 211.283C480.484 211.118 480.396 210.92 480.396 210.69C480.396 210.457 480.484 210.26 480.66 210.098C480.836 209.933 481.047 209.851 481.291 209.851C481.538 209.851 481.748 209.933 481.922 210.098C482.098 210.26 482.186 210.457 482.186 210.69C482.186 210.92 482.098 211.118 481.922 211.283C481.748 211.445 481.538 211.526 481.291 211.526ZM488.817 214.185L487.411 214.338C487.371 214.196 487.302 214.062 487.202 213.938C487.106 213.812 486.975 213.712 486.81 213.635C486.646 213.558 486.444 213.52 486.205 213.52C485.884 213.52 485.614 213.589 485.396 213.729C485.18 213.868 485.073 214.048 485.076 214.27C485.073 214.46 485.143 214.615 485.285 214.734C485.43 214.854 485.668 214.952 486.001 215.028L487.117 215.267C487.737 215.401 488.197 215.612 488.498 215.902C488.802 216.192 488.955 216.571 488.958 217.04C488.955 217.452 488.835 217.815 488.596 218.131C488.36 218.443 488.032 218.687 487.612 218.864C487.191 219.04 486.708 219.128 486.163 219.128C485.362 219.128 484.717 218.96 484.228 218.625C483.739 218.287 483.448 217.817 483.354 217.214L484.859 217.07C484.927 217.365 485.072 217.588 485.293 217.739C485.515 217.889 485.803 217.964 486.158 217.964C486.525 217.964 486.819 217.889 487.04 217.739C487.265 217.588 487.377 217.402 487.377 217.18C487.377 216.993 487.305 216.838 487.16 216.716C487.018 216.594 486.796 216.5 486.495 216.435L485.379 216.2C484.751 216.07 484.286 215.849 483.985 215.54C483.684 215.227 483.535 214.832 483.538 214.355C483.535 213.952 483.644 213.602 483.866 213.307C484.09 213.009 484.401 212.778 484.799 212.616C485.2 212.452 485.661 212.369 486.184 212.369C486.951 212.369 487.555 212.533 487.995 212.859C488.438 213.186 488.712 213.628 488.817 214.185ZM493.085 219.128C492.446 219.128 491.892 218.987 491.423 218.706C490.955 218.425 490.591 218.031 490.332 217.526C490.077 217.02 489.949 216.429 489.949 215.753C489.949 215.077 490.077 214.484 490.332 213.976C490.591 213.467 490.955 213.072 491.423 212.791C491.892 212.51 492.446 212.369 493.085 212.369C493.724 212.369 494.278 212.51 494.747 212.791C495.216 213.072 495.578 213.467 495.834 213.976C496.092 214.484 496.222 215.077 496.222 215.753C496.222 216.429 496.092 217.02 495.834 217.526C495.578 218.031 495.216 218.425 494.747 218.706C494.278 218.987 493.724 219.128 493.085 219.128ZM493.094 217.892C493.44 217.892 493.73 217.797 493.963 217.607C494.196 217.413 494.369 217.155 494.483 216.831C494.599 216.507 494.658 216.146 494.658 215.749C494.658 215.348 494.599 214.986 494.483 214.662C494.369 214.335 494.196 214.075 493.963 213.882C493.73 213.689 493.44 213.592 493.094 213.592C492.739 213.592 492.443 213.689 492.207 213.882C491.974 214.075 491.8 214.335 491.683 214.662C491.57 214.986 491.513 215.348 491.513 215.749C491.513 216.146 491.57 216.507 491.683 216.831C491.8 217.155 491.974 217.413 492.207 217.607C492.443 217.797 492.739 217.892 493.094 217.892ZM503.797 219L505.229 210.273H506.422L504.99 219H503.797ZM499.864 216.75L500.064 215.557H506.78L506.58 216.75H499.864ZM500.729 219L502.161 210.273H503.354L501.922 219H500.729ZM500.371 213.716L500.567 212.523H507.283L507.087 213.716H500.371ZM511.439 219.166C510.737 219.166 510.135 218.989 509.632 218.634C509.132 218.276 508.747 217.76 508.477 217.087C508.21 216.411 508.077 215.597 508.077 214.645C508.08 213.693 508.214 212.884 508.482 212.216C508.751 211.545 509.136 211.034 509.636 210.682C510.139 210.33 510.74 210.153 511.439 210.153C512.138 210.153 512.739 210.33 513.241 210.682C513.744 211.034 514.129 211.545 514.396 212.216C514.666 212.886 514.801 213.696 514.801 214.645C514.801 215.599 514.666 216.415 514.396 217.091C514.129 217.764 513.744 218.278 513.241 218.634C512.741 218.989 512.141 219.166 511.439 219.166ZM511.439 217.832C511.984 217.832 512.415 217.564 512.73 217.027C513.048 216.487 513.207 215.693 513.207 214.645C513.207 213.952 513.135 213.369 512.99 212.898C512.845 212.426 512.641 212.071 512.376 211.832C512.112 211.591 511.8 211.47 511.439 211.47C510.896 211.47 510.467 211.74 510.152 212.28C509.837 212.817 509.678 213.605 509.675 214.645C509.672 215.341 509.741 215.926 509.884 216.401C510.028 216.875 510.233 217.233 510.497 217.474C510.761 217.713 511.075 217.832 511.439 217.832ZM519.251 219.119C518.683 219.119 518.174 219.013 517.725 218.8C517.277 218.584 516.92 218.288 516.656 217.913C516.395 217.538 516.255 217.109 516.238 216.626H517.772C517.801 216.984 517.956 217.277 518.237 217.504C518.518 217.729 518.856 217.841 519.251 217.841C519.561 217.841 519.836 217.77 520.078 217.628C520.319 217.486 520.51 217.288 520.649 217.036C520.788 216.783 520.856 216.494 520.853 216.17C520.856 215.841 520.787 215.548 520.645 215.293C520.502 215.037 520.308 214.837 520.061 214.692C519.814 214.544 519.529 214.47 519.208 214.47C518.947 214.467 518.69 214.516 518.437 214.615C518.184 214.714 517.984 214.845 517.836 215.007L516.409 214.773L516.865 210.273H521.927V211.594H518.173L517.922 213.908H517.973C518.135 213.717 518.363 213.56 518.659 213.435C518.954 213.307 519.278 213.243 519.63 213.243C520.159 213.243 520.63 213.368 521.045 213.618C521.46 213.865 521.787 214.206 522.025 214.641C522.264 215.075 522.383 215.572 522.383 216.132C522.383 216.709 522.25 217.223 521.983 217.675C521.718 218.124 521.35 218.477 520.879 218.736C520.41 218.991 519.868 219.119 519.251 219.119Z" fill="#41413F"/>
<rect opacity="0.5" x="54.5" y="69.5" width="22" height="109" fill="#1E1E1E" stroke="#41413F"/>
<rect opacity="0.5" x="138.5" y="189.5" width="66" height="7" fill="#1E1E1E" stroke="#41413F"/>
<rect opacity="0.5" x="160.5" y="207.5" width="9" height="4" fill="#1E1E1E" stroke="#41413F"/>
<rect opacity="0.5" x="177.5" y="207.5" width="9" height="4" fill="#1E1E1E" stroke="#41413F"/>
<rect opacity="0.5" x="194.5" y="207.5" width="10" height="4" fill="#1E1E1E" stroke="#41413F"/>
<rect opacity="0.5" x="59" y="194" width="24" height="5" fill="#606060"/>
<rect opacity="0.5" x="104" y="194" width="24" height="5" fill="#606060"/>
<line x1="273.5" y1="169" x2="273.5" y2="189" stroke="#41413F"/>
<line x1="274.5" y1="169" x2="274.5" y2="189" stroke="#41413F"/>
<line x1="289" y1="163.5" x2="305" y2="163.5" stroke="#262626"/>
<line x1="235" y1="188.5" x2="248" y2="188.5" stroke="#41413F"/>
<g opacity="0.5">
<mask id="path-146-inside-45_13_1134" fill="white">
<path d="M63 319H80V346H63V319Z"/>
</mask>
<path d="M63 319H80V346H63V319Z" fill="#1E1E1E"/>
<path d="M80 319H79V346H80H81V319H80ZM63 346H64V319H63H62V346H63Z" fill="#41413F" mask="url(#path-146-inside-45_13_1134)"/>
</g>
<g opacity="0.5">
<mask id="path-148-inside-46_13_1134" fill="white">
<path d="M163 269H180V296H163V269Z"/>
</mask>
<path d="M163 269H180V296H163V269Z" fill="#1E1E1E"/>
<path d="M180 269H179V296H180H181V269H180ZM163 296H164V269H163H162V296H163Z" fill="#41413F" mask="url(#path-148-inside-46_13_1134)"/>
</g>
<g opacity="0.5">
<mask id="path-150-inside-47_13_1134" fill="white">
<path d="M138 269H155V296H138V269Z"/>
</mask>
<path d="M138 269H155V296H138V269Z" fill="#1E1E1E"/>
<path d="M155 269H154V296H155H156V269H155ZM138 296H139V269H138H137V296H138Z" fill="#41413F" mask="url(#path-150-inside-47_13_1134)"/>
</g>
<g opacity="0.5">
<mask id="path-152-inside-48_13_1134" fill="white">
<path d="M113 269H130V296H113V269Z"/>
</mask>
<path d="M113 269H130V296H113V269Z" fill="#1E1E1E"/>
<path d="M130 269H129V296H130H131V269H130ZM113 296H114V269H113H112V296H113Z" fill="#41413F" mask="url(#path-152-inside-48_13_1134)"/>
</g>
<g opacity="0.5">
<mask id="path-154-inside-49_13_1134" fill="white">
<path d="M88 269H105V296H88V269Z"/>
</mask>
<path d="M88 269H105V296H88V269Z" fill="#1E1E1E"/>
<path d="M105 269H104V296H105H106V269H105ZM88 296H89V269H88H87V296H88Z" fill="#41413F" mask="url(#path-154-inside-49_13_1134)"/>
</g>
<g opacity="0.5">
<mask id="path-156-inside-50_13_1134" fill="white">
<path d="M63 269H80V296H63V269Z"/>
</mask>
<path d="M63 269H80V296H63V269Z" fill="#1E1E1E"/>
<path d="M80 269H79V296H80H81V269H80ZM63 296H64V269H63H62V296H63Z" fill="#41413F" mask="url(#path-156-inside-50_13_1134)"/>
</g>
<g opacity="0.5">
<mask id="path-158-inside-51_13_1134" fill="white">
<path d="M188 319H205V346H188V319Z"/>
</mask>
<path d="M188 319H205V346H188V319Z" fill="#1E1E1E"/>
<path d="M205 319H204V346H205H206V319H205ZM188 346H189V319H188H187V346H188Z" fill="#41413F" mask="url(#path-158-inside-51_13_1134)"/>
</g>
<g opacity="0.5">
<mask id="path-160-inside-52_13_1134" fill="white">
<path d="M163 319H180V346H163V319Z"/>
</mask>
<path d="M163 319H180V346H163V319Z" fill="#1E1E1E"/>
<path d="M180 319H179V346H180H181V319H180ZM163 346H164V319H163H162V346H163Z" fill="#41413F" mask="url(#path-160-inside-52_13_1134)"/>
</g>
<g opacity="0.5">
<mask id="path-162-inside-53_13_1134" fill="white">
<path d="M138 319H155V346H138V319Z"/>
</mask>
<path d="M138 319H155V346H138V319Z" fill="#1E1E1E"/>
<path d="M155 319H154V346H155H156V319H155ZM138 346H139V319H138H137V346H138Z" fill="#41413F" mask="url(#path-162-inside-53_13_1134)"/>
</g>
<g opacity="0.5">
<mask id="path-164-inside-54_13_1134" fill="white">
<path d="M113 319H130V346H113V319Z"/>
</mask>
<path d="M113 319H130V346H113V319Z" fill="#1E1E1E"/>
<path d="M130 319H129V346H130H131V319H130ZM113 346H114V319H113H112V346H113Z" fill="#41413F" mask="url(#path-164-inside-54_13_1134)"/>
</g>
<g opacity="0.5">
<mask id="path-166-inside-55_13_1134" fill="white">
<path d="M88 319H105V346H88V319Z"/>
</mask>
<path d="M88 319H105V346H88V319Z" fill="#1E1E1E"/>
<path d="M105 319H104V346H105H106V319H105ZM88 346H89V319H88H87V346H88Z" fill="#41413F" mask="url(#path-166-inside-55_13_1134)"/>
</g>
<rect x="516" y="174" width="2" height="22" fill="#41413F"/>
<rect x="534" y="174" width="2" height="22" fill="#41413F"/>
<line x1="375" y1="228.5" x2="380" y2="228.5" stroke="#1E1E1E"/>
<line x1="414" y1="228.5" x2="409" y2="228.5" stroke="#1E1E1E"/>
<line x1="427" y1="228.5" x2="432" y2="228.5" stroke="#1E1E1E"/>
<line x1="547" y1="228.5" x2="552" y2="228.5" stroke="#1E1E1E"/>
<line x1="597" y1="228.5" x2="602" y2="228.5" stroke="#1E1E1E"/>
<line x1="616" y1="228.5" x2="621" y2="228.5" stroke="#1E1E1E"/>
<rect x="457.5" y="227.5" width="80" height="56" fill="#41413F" stroke="#1E1E1E"/>
<rect x="460.5" y="230.5" width="26" height="50" fill="#1E1E1E" stroke="#41413F"/>
<rect x="508.5" y="230.5" width="26" height="50" fill="#1E1E1E" stroke="#41413F"/>
<rect x="508.5" y="230.5" width="26" height="50" fill="#1E1E1E" stroke="#41413F"/>
<rect x="487.5" y="249.5" width="20" height="31" fill="#1E1E1E" stroke="#41413F"/>
<rect x="462" y="232" width="23" height="5" fill="#606060"/>
<rect x="510" y="232" width="23" height="5" fill="#606060"/>
<circle cx="464" cy="188" r="4.5" fill="#1E1E1E" stroke="#41413F"/>
<circle cx="486" cy="188" r="4.5" fill="#1E1E1E" stroke="#41413F"/>
<circle cx="464" cy="172" r="4.5" fill="#1E1E1E" stroke="#41413F"/>
<circle cx="486" cy="172" r="4.5" fill="#1E1E1E" stroke="#41413F"/>
<path d="M364.605 259.08C364.196 259.08 363.832 259.009 363.514 258.869C363.198 258.729 362.948 258.534 362.764 258.284C362.58 258.034 362.483 257.745 362.472 257.418H363.54C363.549 257.575 363.601 257.712 363.696 257.83C363.791 257.945 363.917 258.035 364.074 258.099C364.231 258.164 364.407 258.196 364.602 258.196C364.811 258.196 364.995 258.16 365.156 258.088C365.317 258.014 365.443 257.912 365.534 257.781C365.625 257.651 365.67 257.5 365.668 257.33C365.67 257.153 365.624 256.998 365.531 256.864C365.438 256.729 365.304 256.624 365.128 256.548C364.954 256.473 364.743 256.435 364.497 256.435H363.983V255.622H364.497C364.7 255.622 364.877 255.587 365.028 255.517C365.182 255.447 365.302 255.348 365.389 255.222C365.476 255.093 365.519 254.944 365.517 254.776C365.519 254.611 365.482 254.468 365.406 254.347C365.332 254.223 365.227 254.128 365.091 254.06C364.956 253.991 364.798 253.957 364.616 253.957C364.438 253.957 364.274 253.99 364.122 254.054C363.971 254.118 363.848 254.21 363.756 254.33C363.663 254.447 363.614 254.587 363.608 254.75H362.594C362.601 254.424 362.695 254.138 362.875 253.892C363.057 253.644 363.299 253.451 363.602 253.312C363.905 253.172 364.245 253.102 364.622 253.102C365.01 253.102 365.348 253.175 365.634 253.321C365.921 253.465 366.144 253.659 366.301 253.903C366.458 254.148 366.537 254.418 366.537 254.713C366.539 255.041 366.442 255.315 366.247 255.537C366.054 255.759 365.8 255.903 365.486 255.972V256.017C365.895 256.074 366.208 256.225 366.426 256.472C366.646 256.716 366.755 257.02 366.753 257.384C366.753 257.709 366.66 258.001 366.474 258.259C366.291 258.514 366.037 258.715 365.713 258.861C365.391 259.007 365.022 259.08 364.605 259.08ZM367.728 259V258.239L369.748 256.259C369.941 256.063 370.102 255.89 370.231 255.739C370.36 255.587 370.456 255.44 370.521 255.298C370.585 255.156 370.617 255.005 370.617 254.844C370.617 254.66 370.576 254.503 370.492 254.372C370.409 254.24 370.294 254.137 370.148 254.065C370.003 253.993 369.837 253.957 369.651 253.957C369.46 253.957 369.292 253.997 369.148 254.077C369.004 254.154 368.893 254.265 368.813 254.409C368.736 254.553 368.697 254.724 368.697 254.923H367.694C367.694 254.554 367.778 254.233 367.947 253.96C368.115 253.687 368.347 253.476 368.643 253.327C368.94 253.177 369.281 253.102 369.665 253.102C370.056 253.102 370.398 253.175 370.694 253.321C370.989 253.467 371.219 253.667 371.381 253.92C371.546 254.174 371.629 254.464 371.629 254.79C371.629 255.008 371.587 255.222 371.504 255.432C371.42 255.642 371.273 255.875 371.063 256.131C370.855 256.386 370.562 256.696 370.185 257.06L369.183 258.08V258.119H371.717V259H367.728ZM372.467 257.92V257.082L374.935 253.182H375.634V254.375H375.208L373.546 257.009V257.054H376.992V257.92H372.467ZM375.242 259V257.665L375.254 257.29V253.182H376.248V259H375.242Z" fill="#262626"/>
<path d="M432.605 259.08C432.196 259.08 431.832 259.009 431.514 258.869C431.198 258.729 430.948 258.534 430.764 258.284C430.58 258.034 430.483 257.745 430.472 257.418H431.54C431.549 257.575 431.601 257.712 431.696 257.83C431.791 257.945 431.917 258.035 432.074 258.099C432.231 258.164 432.407 258.196 432.602 258.196C432.811 258.196 432.995 258.16 433.156 258.088C433.317 258.014 433.443 257.912 433.534 257.781C433.625 257.651 433.67 257.5 433.668 257.33C433.67 257.153 433.624 256.998 433.531 256.864C433.438 256.729 433.304 256.624 433.128 256.548C432.954 256.473 432.743 256.435 432.497 256.435H431.983V255.622H432.497C432.7 255.622 432.877 255.587 433.028 255.517C433.182 255.447 433.302 255.348 433.389 255.222C433.476 255.093 433.519 254.944 433.517 254.776C433.519 254.611 433.482 254.468 433.406 254.347C433.332 254.223 433.227 254.128 433.091 254.06C432.956 253.991 432.798 253.957 432.616 253.957C432.438 253.957 432.274 253.99 432.122 254.054C431.971 254.118 431.848 254.21 431.756 254.33C431.663 254.447 431.614 254.587 431.608 254.75H430.594C430.601 254.424 430.695 254.138 430.875 253.892C431.057 253.644 431.299 253.451 431.602 253.312C431.905 253.172 432.245 253.102 432.622 253.102C433.01 253.102 433.348 253.175 433.634 253.321C433.921 253.465 434.144 253.659 434.301 253.903C434.458 254.148 434.537 254.418 434.537 254.713C434.539 255.041 434.442 255.315 434.247 255.537C434.054 255.759 433.8 255.903 433.486 255.972V256.017C433.895 256.074 434.208 256.225 434.426 256.472C434.646 256.716 434.755 257.02 434.753 257.384C434.753 257.709 434.66 258.001 434.474 258.259C434.291 258.514 434.037 258.715 433.713 258.861C433.391 259.007 433.022 259.08 432.605 259.08ZM435.728 259V258.239L437.748 256.259C437.941 256.063 438.102 255.89 438.231 255.739C438.36 255.587 438.456 255.44 438.521 255.298C438.585 255.156 438.617 255.005 438.617 254.844C438.617 254.66 438.576 254.503 438.492 254.372C438.409 254.24 438.294 254.137 438.148 254.065C438.003 253.993 437.837 253.957 437.651 253.957C437.46 253.957 437.292 253.997 437.148 254.077C437.004 254.154 436.893 254.265 436.813 254.409C436.736 254.553 436.697 254.724 436.697 254.923H435.694C435.694 254.554 435.778 254.233 435.947 253.96C436.115 253.687 436.347 253.476 436.643 253.327C436.94 253.177 437.281 253.102 437.665 253.102C438.056 253.102 438.398 253.175 438.694 253.321C438.989 253.467 439.219 253.667 439.381 253.92C439.546 254.174 439.629 254.464 439.629 254.79C439.629 255.008 439.587 255.222 439.504 255.432C439.42 255.642 439.273 255.875 439.063 256.131C438.855 256.386 438.562 256.696 438.185 257.06L437.183 258.08V258.119H439.717V259H435.728ZM440.697 259V258.239L442.717 256.259C442.91 256.063 443.071 255.89 443.2 255.739C443.328 255.587 443.425 255.44 443.489 255.298C443.554 255.156 443.586 255.005 443.586 254.844C443.586 254.66 443.544 254.503 443.461 254.372C443.378 254.24 443.263 254.137 443.117 254.065C442.971 253.993 442.806 253.957 442.62 253.957C442.429 253.957 442.261 253.997 442.117 254.077C441.973 254.154 441.862 254.265 441.782 254.409C441.704 254.553 441.665 254.724 441.665 254.923H440.663C440.663 254.554 440.747 254.233 440.915 253.96C441.084 253.687 441.316 253.476 441.612 253.327C441.909 253.177 442.25 253.102 442.634 253.102C443.024 253.102 443.367 253.175 443.663 253.321C443.958 253.467 444.187 253.667 444.35 253.92C444.515 254.174 444.597 254.464 444.597 254.79C444.597 255.008 444.556 255.222 444.472 255.432C444.389 255.642 444.242 255.875 444.032 256.131C443.824 256.386 443.531 256.696 443.154 257.06L442.151 258.08V258.119H444.685V259H440.697Z" fill="#262626"/>
<path d="M621.605 259.08C621.196 259.08 620.832 259.009 620.514 258.869C620.198 258.729 619.948 258.534 619.764 258.284C619.58 258.034 619.483 257.745 619.472 257.418H620.54C620.549 257.575 620.601 257.712 620.696 257.83C620.791 257.945 620.917 258.035 621.074 258.099C621.231 258.164 621.407 258.196 621.602 258.196C621.811 258.196 621.995 258.16 622.156 258.088C622.317 258.014 622.443 257.912 622.534 257.781C622.625 257.651 622.67 257.5 622.668 257.33C622.67 257.153 622.624 256.998 622.531 256.864C622.438 256.729 622.304 256.624 622.128 256.548C621.954 256.473 621.743 256.435 621.497 256.435H620.983V255.622H621.497C621.7 255.622 621.877 255.587 622.028 255.517C622.182 255.447 622.302 255.348 622.389 255.222C622.476 255.093 622.519 254.944 622.517 254.776C622.519 254.611 622.482 254.468 622.406 254.347C622.332 254.223 622.227 254.128 622.091 254.06C621.956 253.991 621.798 253.957 621.616 253.957C621.438 253.957 621.274 253.99 621.122 254.054C620.971 254.118 620.848 254.21 620.756 254.33C620.663 254.447 620.614 254.587 620.608 254.75H619.594C619.601 254.424 619.695 254.138 619.875 253.892C620.057 253.644 620.299 253.451 620.602 253.312C620.905 253.172 621.245 253.102 621.622 253.102C622.01 253.102 622.348 253.175 622.634 253.321C622.921 253.465 623.144 253.659 623.301 253.903C623.458 254.148 623.537 254.418 623.537 254.713C623.539 255.041 623.442 255.315 623.247 255.537C623.054 255.759 622.8 255.903 622.486 255.972V256.017C622.895 256.074 623.208 256.225 623.426 256.472C623.646 256.716 623.755 257.02 623.753 257.384C623.753 257.709 623.66 258.001 623.474 258.259C623.291 258.514 623.037 258.715 622.713 258.861C622.391 259.007 622.022 259.08 621.605 259.08ZM627.094 253.182V259H626.04V254.207H626.006L624.646 255.077V254.111L626.092 253.182H627.094ZM630.592 253.102C630.87 253.104 631.141 253.153 631.404 253.25C631.669 253.345 631.908 253.5 632.12 253.716C632.332 253.93 632.501 254.217 632.626 254.577C632.751 254.937 632.813 255.382 632.813 255.912C632.815 256.412 632.762 256.859 632.654 257.253C632.548 257.645 632.396 257.976 632.197 258.247C631.998 258.518 631.758 258.724 631.478 258.866C631.198 259.009 630.882 259.08 630.532 259.08C630.165 259.08 629.839 259.008 629.555 258.864C629.272 258.72 629.044 258.523 628.87 258.273C628.696 258.023 628.589 257.737 628.549 257.415H629.586C629.639 257.646 629.747 257.83 629.91 257.966C630.075 258.1 630.282 258.168 630.532 258.168C630.935 258.168 631.246 257.992 631.464 257.642C631.682 257.292 631.79 256.805 631.79 256.182H631.751C631.658 256.348 631.538 256.492 631.39 256.614C631.242 256.733 631.075 256.825 630.887 256.889C630.701 256.954 630.504 256.986 630.296 256.986C629.955 256.986 629.648 256.904 629.376 256.741C629.105 256.579 628.89 256.355 628.731 256.071C628.574 255.787 628.494 255.462 628.492 255.097C628.492 254.718 628.579 254.378 628.754 254.077C628.93 253.774 629.175 253.535 629.489 253.361C629.804 253.185 630.171 253.098 630.592 253.102ZM630.594 253.955C630.39 253.955 630.205 254.005 630.04 254.105C629.878 254.204 629.749 254.338 629.654 254.509C629.561 254.677 629.515 254.866 629.515 255.074C629.517 255.28 629.563 255.468 629.654 255.636C629.747 255.805 629.873 255.938 630.032 256.037C630.193 256.135 630.377 256.185 630.583 256.185C630.737 256.185 630.879 256.155 631.012 256.097C631.145 256.038 631.26 255.956 631.359 255.852C631.459 255.746 631.537 255.626 631.592 255.491C631.648 255.357 631.676 255.215 631.674 255.065C631.674 254.866 631.627 254.683 631.532 254.514C631.439 254.346 631.311 254.21 631.148 254.108C630.987 254.006 630.803 253.955 630.594 253.955Z" fill="#262626"/>
<path d="M586.605 259.08C586.196 259.08 585.832 259.009 585.514 258.869C585.198 258.729 584.948 258.534 584.764 258.284C584.58 258.034 584.483 257.745 584.472 257.418H585.54C585.549 257.575 585.601 257.712 585.696 257.83C585.791 257.945 585.917 258.035 586.074 258.099C586.231 258.164 586.407 258.196 586.602 258.196C586.811 258.196 586.995 258.16 587.156 258.088C587.317 258.014 587.443 257.912 587.534 257.781C587.625 257.651 587.67 257.5 587.668 257.33C587.67 257.153 587.624 256.998 587.531 256.864C587.438 256.729 587.304 256.624 587.128 256.548C586.954 256.473 586.743 256.435 586.497 256.435H585.983V255.622H586.497C586.7 255.622 586.877 255.587 587.028 255.517C587.182 255.447 587.302 255.348 587.389 255.222C587.476 255.093 587.519 254.944 587.517 254.776C587.519 254.611 587.482 254.468 587.406 254.347C587.332 254.223 587.227 254.128 587.091 254.06C586.956 253.991 586.798 253.957 586.616 253.957C586.438 253.957 586.274 253.99 586.122 254.054C585.971 254.118 585.848 254.21 585.756 254.33C585.663 254.447 585.614 254.587 585.608 254.75H584.594C584.601 254.424 584.695 254.138 584.875 253.892C585.057 253.644 585.299 253.451 585.602 253.312C585.905 253.172 586.245 253.102 586.622 253.102C587.01 253.102 587.348 253.175 587.634 253.321C587.921 253.465 588.144 253.659 588.301 253.903C588.458 254.148 588.537 254.418 588.537 254.713C588.539 255.041 588.442 255.315 588.247 255.537C588.054 255.759 587.8 255.903 587.486 255.972V256.017C587.895 256.074 588.208 256.225 588.426 256.472C588.646 256.716 588.755 257.02 588.753 257.384C588.753 257.709 588.66 258.001 588.474 258.259C588.291 258.514 588.037 258.715 587.713 258.861C587.391 259.007 587.022 259.08 586.605 259.08ZM589.728 259V258.239L591.748 256.259C591.941 256.063 592.102 255.89 592.231 255.739C592.36 255.587 592.456 255.44 592.521 255.298C592.585 255.156 592.617 255.005 592.617 254.844C592.617 254.66 592.576 254.503 592.492 254.372C592.409 254.24 592.294 254.137 592.148 254.065C592.003 253.993 591.837 253.957 591.651 253.957C591.46 253.957 591.292 253.997 591.148 254.077C591.004 254.154 590.893 254.265 590.813 254.409C590.736 254.553 590.697 254.724 590.697 254.923H589.694C589.694 254.554 589.778 254.233 589.947 253.96C590.115 253.687 590.347 253.476 590.643 253.327C590.94 253.177 591.281 253.102 591.665 253.102C592.056 253.102 592.398 253.175 592.694 253.321C592.989 253.467 593.219 253.667 593.381 253.92C593.546 254.174 593.629 254.464 593.629 254.79C593.629 255.008 593.587 255.222 593.504 255.432C593.42 255.642 593.273 255.875 593.063 256.131C592.855 256.386 592.562 256.696 592.185 257.06L591.183 258.08V258.119H593.717V259H589.728ZM596.847 259.111C596.379 259.111 595.978 258.992 595.643 258.756C595.309 258.517 595.053 258.173 594.873 257.724C594.695 257.274 594.606 256.731 594.606 256.097C594.608 255.462 594.698 254.922 594.876 254.477C595.056 254.03 595.312 253.689 595.646 253.455C595.981 253.22 596.381 253.102 596.847 253.102C597.313 253.102 597.714 253.22 598.049 253.455C598.384 253.689 598.641 254.03 598.819 254.477C598.999 254.924 599.089 255.464 599.089 256.097C599.089 256.733 598.999 257.277 598.819 257.727C598.641 258.176 598.384 258.519 598.049 258.756C597.716 258.992 597.315 259.111 596.847 259.111ZM596.847 258.222C597.211 258.222 597.498 258.043 597.708 257.685C597.92 257.325 598.026 256.795 598.026 256.097C598.026 255.634 597.978 255.246 597.881 254.932C597.785 254.617 597.648 254.381 597.472 254.222C597.296 254.061 597.088 253.98 596.847 253.98C596.486 253.98 596.2 254.16 595.989 254.52C595.779 254.878 595.673 255.403 595.671 256.097C595.669 256.561 595.716 256.951 595.81 257.267C595.907 257.583 596.043 257.822 596.219 257.983C596.396 258.142 596.605 258.222 596.847 258.222Z" fill="#262626"/>
<path d="M552.605 259.08C552.196 259.08 551.832 259.009 551.514 258.869C551.198 258.729 550.948 258.534 550.764 258.284C550.58 258.034 550.483 257.745 550.472 257.418H551.54C551.549 257.575 551.601 257.712 551.696 257.83C551.791 257.945 551.917 258.035 552.074 258.099C552.231 258.164 552.407 258.196 552.602 258.196C552.811 258.196 552.995 258.16 553.156 258.088C553.317 258.014 553.443 257.912 553.534 257.781C553.625 257.651 553.67 257.5 553.668 257.33C553.67 257.153 553.624 256.998 553.531 256.864C553.438 256.729 553.304 256.624 553.128 256.548C552.954 256.473 552.743 256.435 552.497 256.435H551.983V255.622H552.497C552.7 255.622 552.877 255.587 553.028 255.517C553.182 255.447 553.302 255.348 553.389 255.222C553.476 255.093 553.519 254.944 553.517 254.776C553.519 254.611 553.482 254.468 553.406 254.347C553.332 254.223 553.227 254.128 553.091 254.06C552.956 253.991 552.798 253.957 552.616 253.957C552.438 253.957 552.274 253.99 552.122 254.054C551.971 254.118 551.848 254.21 551.756 254.33C551.663 254.447 551.614 254.587 551.608 254.75H550.594C550.601 254.424 550.695 254.138 550.875 253.892C551.057 253.644 551.299 253.451 551.602 253.312C551.905 253.172 552.245 253.102 552.622 253.102C553.01 253.102 553.348 253.175 553.634 253.321C553.921 253.465 554.144 253.659 554.301 253.903C554.458 254.148 554.537 254.418 554.537 254.713C554.539 255.041 554.442 255.315 554.247 255.537C554.054 255.759 553.8 255.903 553.486 255.972V256.017C553.895 256.074 554.208 256.225 554.426 256.472C554.646 256.716 554.755 257.02 554.753 257.384C554.753 257.709 554.66 258.001 554.474 258.259C554.291 258.514 554.037 258.715 553.713 258.861C553.391 259.007 553.022 259.08 552.605 259.08ZM555.728 259V258.239L557.748 256.259C557.941 256.063 558.102 255.89 558.231 255.739C558.36 255.587 558.456 255.44 558.521 255.298C558.585 255.156 558.617 255.005 558.617 254.844C558.617 254.66 558.576 254.503 558.492 254.372C558.409 254.24 558.294 254.137 558.148 254.065C558.003 253.993 557.837 253.957 557.651 253.957C557.46 253.957 557.292 253.997 557.148 254.077C557.004 254.154 556.893 254.265 556.813 254.409C556.736 254.553 556.697 254.724 556.697 254.923H555.694C555.694 254.554 555.778 254.233 555.947 253.96C556.115 253.687 556.347 253.476 556.643 253.327C556.94 253.177 557.281 253.102 557.665 253.102C558.056 253.102 558.398 253.175 558.694 253.321C558.989 253.467 559.219 253.667 559.381 253.92C559.546 254.174 559.629 254.464 559.629 254.79C559.629 255.008 559.587 255.222 559.504 255.432C559.42 255.642 559.273 255.875 559.063 256.131C558.855 256.386 558.562 256.696 558.185 257.06L557.183 258.08V258.119H559.717V259H555.728ZM563.063 253.182V259H562.009V254.207H561.975L560.614 255.077V254.111L562.06 253.182H563.063Z" fill="#262626"/>
<path d="M398.605 259.08C398.196 259.08 397.832 259.009 397.514 258.869C397.198 258.729 396.948 258.534 396.764 258.284C396.58 258.034 396.483 257.745 396.472 257.418H397.54C397.549 257.575 397.601 257.712 397.696 257.83C397.791 257.945 397.917 258.035 398.074 258.099C398.231 258.164 398.407 258.196 398.602 258.196C398.811 258.196 398.995 258.16 399.156 258.088C399.317 258.014 399.443 257.912 399.534 257.781C399.625 257.651 399.67 257.5 399.668 257.33C399.67 257.153 399.624 256.998 399.531 256.864C399.438 256.729 399.304 256.624 399.128 256.548C398.954 256.473 398.743 256.435 398.497 256.435H397.983V255.622H398.497C398.7 255.622 398.877 255.587 399.028 255.517C399.182 255.447 399.302 255.348 399.389 255.222C399.476 255.093 399.519 254.944 399.517 254.776C399.519 254.611 399.482 254.468 399.406 254.347C399.332 254.223 399.227 254.128 399.091 254.06C398.956 253.991 398.798 253.957 398.616 253.957C398.438 253.957 398.274 253.99 398.122 254.054C397.971 254.118 397.848 254.21 397.756 254.33C397.663 254.447 397.614 254.587 397.608 254.75H396.594C396.601 254.424 396.695 254.138 396.875 253.892C397.057 253.644 397.299 253.451 397.602 253.312C397.905 253.172 398.245 253.102 398.622 253.102C399.01 253.102 399.348 253.175 399.634 253.321C399.921 253.465 400.144 253.659 400.301 253.903C400.458 254.148 400.537 254.418 400.537 254.713C400.539 255.041 400.442 255.315 400.247 255.537C400.054 255.759 399.8 255.903 399.486 255.972V256.017C399.895 256.074 400.208 256.225 400.426 256.472C400.646 256.716 400.755 257.02 400.753 257.384C400.753 257.709 400.66 258.001 400.474 258.259C400.291 258.514 400.037 258.715 399.713 258.861C399.391 259.007 399.022 259.08 398.605 259.08ZM401.728 259V258.239L403.748 256.259C403.941 256.063 404.102 255.89 404.231 255.739C404.36 255.587 404.456 255.44 404.521 255.298C404.585 255.156 404.617 255.005 404.617 254.844C404.617 254.66 404.576 254.503 404.492 254.372C404.409 254.24 404.294 254.137 404.148 254.065C404.003 253.993 403.837 253.957 403.651 253.957C403.46 253.957 403.292 253.997 403.148 254.077C403.004 254.154 402.893 254.265 402.813 254.409C402.736 254.553 402.697 254.724 402.697 254.923H401.694C401.694 254.554 401.778 254.233 401.947 253.96C402.115 253.687 402.347 253.476 402.643 253.327C402.94 253.177 403.281 253.102 403.665 253.102C404.056 253.102 404.398 253.175 404.694 253.321C404.989 253.467 405.219 253.667 405.381 253.92C405.546 254.174 405.629 254.464 405.629 254.79C405.629 255.008 405.587 255.222 405.504 255.432C405.42 255.642 405.273 255.875 405.063 256.131C404.855 256.386 404.562 256.696 404.185 257.06L403.183 258.08V258.119H405.717V259H401.728ZM408.785 259.08C408.376 259.08 408.012 259.009 407.694 258.869C407.378 258.729 407.128 258.534 406.944 258.284C406.76 258.034 406.663 257.745 406.651 257.418H407.719C407.729 257.575 407.781 257.712 407.876 257.83C407.97 257.945 408.096 258.035 408.254 258.099C408.411 258.164 408.587 258.196 408.782 258.196C408.99 258.196 409.175 258.16 409.336 258.088C409.497 258.014 409.623 257.912 409.714 257.781C409.805 257.651 409.849 257.5 409.847 257.33C409.849 257.153 409.804 256.998 409.711 256.864C409.618 256.729 409.484 256.624 409.308 256.548C409.133 256.473 408.923 256.435 408.677 256.435H408.163V255.622H408.677C408.879 255.622 409.057 255.587 409.208 255.517C409.362 255.447 409.482 255.348 409.569 255.222C409.656 255.093 409.699 254.944 409.697 254.776C409.699 254.611 409.662 254.468 409.586 254.347C409.512 254.223 409.407 254.128 409.271 254.06C409.136 253.991 408.978 253.957 408.796 253.957C408.618 253.957 408.453 253.99 408.302 254.054C408.15 254.118 408.028 254.21 407.935 254.33C407.843 254.447 407.793 254.587 407.788 254.75H406.773C406.781 254.424 406.875 254.138 407.055 253.892C407.237 253.644 407.479 253.451 407.782 253.312C408.085 253.172 408.425 253.102 408.802 253.102C409.19 253.102 409.527 253.175 409.813 253.321C410.101 253.465 410.324 253.659 410.481 253.903C410.638 254.148 410.717 254.418 410.717 254.713C410.719 255.041 410.622 255.315 410.427 255.537C410.234 255.759 409.98 255.903 409.665 255.972V256.017C410.075 256.074 410.388 256.225 410.606 256.472C410.826 256.716 410.934 257.02 410.933 257.384C410.933 257.709 410.84 258.001 410.654 258.259C410.47 258.514 410.217 258.715 409.893 258.861C409.571 259.007 409.201 259.08 408.785 259.08Z" fill="#262626"/>
<path d="M470.574 253.182H471.864L473.591 257.398H473.659L475.386 253.182H476.676V259H475.665V255.003H475.611L474.003 258.983H473.247L471.639 254.994H471.585V259H470.574V253.182Z" fill="#41413F"/>
<path d="M519.574 259V253.182H523.301V254.065H520.628V255.645H523.045V256.528H520.628V259H519.574Z" fill="#41413F"/>
</svg>
