<svg width="700" height="450" viewBox="0 0 700 450" fill="none" xmlns="http://www.w3.org/2000/svg">
<rect width="700" height="450" fill="#282929"/>
<rect opacity="0.5" x="54.5" y="189.5" width="255" height="164" fill="#1A1A1A" stroke="#41413F"/>
<g opacity="0.5">
<rect x="54.5" y="58.5" width="206" height="131" fill="#262626" stroke="#41413F"/>
<rect x="88" y="157" width="43" height="16" fill="#262626" stroke="#41413F"/>
<rect x="88" y="76" width="43" height="16" fill="#262626" stroke="#41413F"/>
<rect x="88" y="103" width="43" height="16" fill="#262626" stroke="#41413F"/>
<rect x="88" y="130" width="43" height="16" fill="#262626" stroke="#41413F"/>
<rect x="198" y="157" width="43" height="16" fill="#262626" stroke="#41413F"/>
<rect x="198" y="76" width="43" height="16" fill="#262626" stroke="#41413F"/>
<rect x="198" y="103" width="43" height="16" fill="#262626" stroke="#41413F"/>
<rect x="198" y="130" width="43" height="16" fill="#262626" stroke="#41413F"/>
<rect x="143" y="157" width="43" height="16" fill="#262626" stroke="#41413F"/>
<rect x="143" y="76" width="43" height="16" fill="#262626" stroke="#41413F"/>
<rect x="143" y="103" width="43" height="16" fill="#262626" stroke="#41413F"/>
<rect x="143" y="130" width="43" height="16" fill="#262626" stroke="#41413F"/>
<g opacity="0.5">
<mask id="path-16-inside-1_21_215" fill="white">
<path d="M54 189.943H212V251H54V189.943Z"/>
</mask>
<path d="M54 189.943H212V251H54V189.943Z" fill="#262626"/>
<path d="M212 251V252H213V251H212ZM54 251H53V252H54V251ZM212 189.943H211V251H212H213V189.943H212ZM212 251V250H54V251V252H212V251ZM54 251H55V189.943H54H53V251H54Z" fill="#41413F" mask="url(#path-16-inside-1_21_215)"/>
</g>
<line x1="131.5" y1="189.943" x2="131.5" y2="251" stroke="#41413F"/>
<rect x="58.5" y="193.5" width="25" height="53" fill="#1E1E1E" stroke="#41413F"/>
<rect x="86.5" y="214.5" width="14" height="32" fill="#1E1E1E" stroke="#41413F"/>
<rect opacity="0.5" x="103.5" y="193.5" width="25" height="53" fill="#1E1E1E" stroke="#41413F"/>
<line x1="109.5" y1="76" x2="109.5" y2="92" stroke="#41413F"/>
<line x1="109.5" y1="103" x2="109.5" y2="119" stroke="#41413F"/>
<line x1="109.5" y1="130" x2="109.5" y2="146" stroke="#41413F"/>
<line x1="109.5" y1="157" x2="109.5" y2="173" stroke="#41413F"/>
<line x1="164.5" y1="76" x2="164.5" y2="92" stroke="#41413F"/>
<line x1="164.5" y1="103" x2="164.5" y2="119" stroke="#41413F"/>
<line x1="164.5" y1="157" x2="164.5" y2="173" stroke="#41413F"/>
<line x1="164.5" y1="130" x2="164.5" y2="146" stroke="#41413F"/>
<line x1="219.5" y1="76" x2="219.5" y2="92" stroke="#41413F"/>
<line x1="219.5" y1="103" x2="219.5" y2="119" stroke="#41413F"/>
<line x1="219.5" y1="130" x2="219.5" y2="146" stroke="#41413F"/>
<line x1="219.5" y1="157" x2="219.5" y2="172" stroke="#41413F"/>
<line x1="211" y1="211.5" x2="157" y2="211.5" stroke="#41413F"/>
<line x1="132" y1="211.5" x2="144" y2="211.5" stroke="#41413F"/>
<mask id="path-36-inside-2_21_215" fill="white">
<path d="M265 168H283V189H265V168Z"/>
</mask>
<path d="M265 168H283V189H265V168Z" fill="#262626"/>
<path d="M265 168V167H264V168H265ZM283 168H284V167H283V168ZM265 168V169H283V168V167H265V168ZM283 168H282V189H283H284V168H283ZM265 189H266V168H265H264V189H265Z" fill="#41413F" mask="url(#path-36-inside-2_21_215)"/>
<mask id="path-38-inside-3_21_215" fill="white">
<path d="M288 148H306V190H288V148Z"/>
</mask>
<path d="M288 148H306V190H288V148Z" fill="#262626"/>
<path d="M288 148V147H287V148H288ZM306 148H307V147H306V148ZM288 148V149H306V148V147H288V148ZM306 148H305V190H306H307V148H306ZM288 190H289V148H288H287V190H288Z" fill="#41413F" mask="url(#path-38-inside-3_21_215)"/>
<mask id="path-40-inside-4_21_215" fill="white">
<path d="M267 148H306V164H267V148Z"/>
</mask>
<path d="M267 148H306V164H267V148Z" fill="#262626"/>
<path d="M306 148H307V147H306V148ZM306 164V165H307V164H306ZM267 148V149H306V148V147H267V148ZM306 148H305V164H306H307V148H306ZM306 164V163H267V164V165H306V164Z" fill="#41413F" mask="url(#path-40-inside-4_21_215)"/>
<rect x="270" y="150" width="2" height="12" fill="#41413F"/>
<rect x="274" y="150" width="2" height="12" fill="#41413F"/>
<rect x="278" y="150" width="2" height="12" fill="#41413F"/>
<rect x="282" y="150" width="2" height="12" fill="#41413F"/>
<rect x="286" y="150" width="2" height="12" fill="#41413F"/>
<rect x="290" y="164" width="14" height="2" fill="#41413F"/>
<rect x="290" y="168" width="14" height="2" fill="#41413F"/>
<rect x="290" y="172" width="14" height="2" fill="#41413F"/>
<rect x="290" y="176" width="14" height="2" fill="#41413F"/>
<rect x="290" y="180" width="14" height="2" fill="#41413F"/>
<rect x="290" y="184" width="14" height="2" fill="#41413F"/>
</g>
<rect x="349.5" y="140.5" width="297" height="148" fill="#262626" stroke="#41413F"/>
<mask id="path-54-inside-5_21_215" fill="white">
<path d="M350 141H646V197H350V141Z"/>
</mask>
<path d="M350 141H646V197H350V141Z" fill="#1A1A1A"/>
<path d="M646 197V196H350V197V198H646V197Z" fill="#41413F" mask="url(#path-54-inside-5_21_215)"/>
<mask id="path-56-inside-6_21_215" fill="white">
<path d="M350 153H393V197H350V153Z"/>
</mask>
<path d="M350 153H393V197H350V153Z" fill="#262626"/>
<path d="M393 153H394V152H393V153ZM350 153V154H393V153V152H350V153ZM393 153H392V197H393H394V153H393Z" fill="#41413F" mask="url(#path-56-inside-6_21_215)"/>
<mask id="path-58-inside-7_21_215" fill="white">
<path d="M603 153H646V197H603V153Z"/>
</mask>
<path d="M603 153H646V197H603V153Z" fill="#262626"/>
<path d="M603 153V152H602V153H603ZM603 153V154H646V153V152H603V153ZM603 197H604V153H603H602V197H603Z" fill="#41413F" mask="url(#path-58-inside-7_21_215)"/>
<mask id="path-60-inside-8_21_215" fill="white">
<path d="M445 161H550V197H445V161Z"/>
</mask>
<path d="M445 161H550V197H445V161Z" fill="#262626"/>
<path d="M445 161V160H444V161H445ZM550 161H551V160H550V161ZM445 161V162H550V161V160H445V161ZM550 161H549V197H550H551V161H550ZM445 197H446V161H445H444V197H445Z" fill="#41413F" mask="url(#path-60-inside-8_21_215)"/>
<mask id="path-62-inside-9_21_215" fill="white">
<path d="M509 173H525V197H509V173Z"/>
</mask>
<path d="M509 173H525V197H509V173Z" fill="#282929"/>
<path d="M509 173V172H508V173H509ZM525 173H526V172H525V173ZM525 197V198H526V197H525ZM509 197H508V198H509V197ZM509 173V174H525V173V172H509V173ZM525 173H524V197H525H526V173H525ZM525 197V196H509V197V198H525V197ZM509 197H510V173H509H508V197H509Z" fill="#41413F" mask="url(#path-62-inside-9_21_215)"/>
<mask id="path-64-inside-10_21_215" fill="white">
<path d="M527 173H543V197H527V173Z"/>
</mask>
<path d="M527 173H543V197H527V173Z" fill="#282929"/>
<path d="M527 173V172H526V173H527ZM543 173H544V172H543V173ZM543 197V198H544V197H543ZM527 197H526V198H527V197ZM527 173V174H543V173V172H527V173ZM543 173H542V197H543H544V173H543ZM543 197V196H527V197V198H543V197ZM527 197H528V173H527H526V197H527Z" fill="#41413F" mask="url(#path-64-inside-10_21_215)"/>
<mask id="path-66-inside-11_21_215" fill="white">
<path d="M355 227H384V284H355V227Z"/>
</mask>
<path d="M355 227H384V284H355V227Z" fill="#41413F"/>
<path d="M355 227V226H354V227H355ZM384 227H385V226H384V227ZM384 284V285H385V284H384ZM355 284H354V285H355V284ZM355 227V228H384V227V226H355V227ZM384 227H383V284H384H385V227H384ZM384 284V283H355V284V285H384V284ZM355 284H356V227H355H354V284H355Z" fill="#1E1E1E" mask="url(#path-66-inside-11_21_215)"/>
<mask id="path-68-inside-12_21_215" fill="white">
<path d="M389 227H418V284H389V227Z"/>
</mask>
<path d="M389 227H418V284H389V227Z" fill="#41413F"/>
<path d="M389 227V226H388V227H389ZM418 227H419V226H418V227ZM418 284V285H419V284H418ZM389 284H388V285H389V284ZM389 227V228H418V227V226H389V227ZM418 227H417V284H418H419V227H418ZM418 284V283H389V284V285H418V284ZM389 284H390V227H389H388V284H389Z" fill="#1E1E1E" mask="url(#path-68-inside-12_21_215)"/>
<mask id="path-70-inside-13_21_215" fill="white">
<path d="M423 227H452V284H423V227Z"/>
</mask>
<path d="M423 227H452V284H423V227Z" fill="#41413F"/>
<path d="M423 227V226H422V227H423ZM452 227H453V226H452V227ZM452 284V285H453V284H452ZM423 284H422V285H423V284ZM423 227V228H452V227V226H423V227ZM452 227H451V284H452H453V227H452ZM452 284V283H423V284V285H452V284ZM423 284H424V227H423H422V284H423Z" fill="#1E1E1E" mask="url(#path-70-inside-13_21_215)"/>
<mask id="path-72-inside-14_21_215" fill="white">
<path d="M543 227H600V282H543V227Z"/>
</mask>
<path d="M543 227H600V282H543V227Z" fill="#41413F"/>
<path d="M543 227V226H542V227H543ZM600 227H601V226H600V227ZM600 282V283H601V282H600ZM543 282H542V283H543V282ZM543 227V228H600V227V226H543V227ZM600 227H599V282H600H601V227H600ZM600 282V281H543V282V283H600V282ZM543 282H544V227H543H542V282H543Z" fill="#1E1E1E" mask="url(#path-72-inside-14_21_215)"/>
<mask id="path-74-inside-15_21_215" fill="white">
<path d="M598 227H641V282H598V227Z"/>
</mask>
<path d="M598 227H641V282H598V227Z" fill="#41413F"/>
<path d="M641 227H642V226H641V227ZM641 282V283H642V282H641ZM598 227V228H641V227V226H598V227ZM641 227H640V282H641H642V227H641ZM641 282V281H598V282V283H641V282Z" fill="#1E1E1E" mask="url(#path-74-inside-15_21_215)"/>
<g opacity="0.5">
<mask id="path-76-inside-16_21_215" fill="white">
<path d="M452 289H543V385H452V289Z"/>
</mask>
<path d="M452 289H543V385H452V289Z" fill="#262626"/>
<path d="M543 385V386H544V385H543ZM452 385H451V386H452V385ZM543 289H542V385H543H544V289H543ZM543 385V384H452V385V386H543V385ZM452 385H453V289H452H451V385H452Z" fill="#41413F" mask="url(#path-76-inside-16_21_215)"/>
<mask id="path-78-inside-17_21_215" fill="white">
<path d="M455 380H540V382H455V380Z"/>
</mask>
<path d="M455 380H540V382H455V380Z" fill="#262626"/>
<path d="M455 380V379H454V380H455ZM540 380H541V379H540V380ZM540 382V383H541V382H540ZM455 382H454V383H455V382ZM455 380V381H540V380V379H455V380ZM540 380H539V382H540H541V380H540ZM540 382V381H455V382V383H540V382ZM455 382H456V380H455H454V382H455Z" fill="#41413F" mask="url(#path-78-inside-17_21_215)"/>
<mask id="path-80-inside-18_21_215" fill="white">
<path d="M455 375H540V377H455V375Z"/>
</mask>
<path d="M455 375H540V377H455V375Z" fill="#262626"/>
<path d="M455 375V374H454V375H455ZM540 375H541V374H540V375ZM540 377V378H541V377H540ZM455 377H454V378H455V377ZM455 375V376H540V375V374H455V375ZM540 375H539V377H540H541V375H540ZM540 377V376H455V377V378H540V377ZM455 377H456V375H455H454V377H455Z" fill="#41413F" mask="url(#path-80-inside-18_21_215)"/>
<mask id="path-82-inside-19_21_215" fill="white">
<path d="M455 360H540V362H455V360Z"/>
</mask>
<path d="M455 360H540V362H455V360Z" fill="#262626"/>
<path d="M455 360V359H454V360H455ZM540 360H541V359H540V360ZM540 362V363H541V362H540ZM455 362H454V363H455V362ZM455 360V361H540V360V359H455V360ZM540 360H539V362H540H541V360H540ZM540 362V361H455V362V363H540V362ZM455 362H456V360H455H454V362H455Z" fill="#41413F" mask="url(#path-82-inside-19_21_215)"/>
<mask id="path-84-inside-20_21_215" fill="white">
<path d="M455 370H540V372H455V370Z"/>
</mask>
<path d="M455 370H540V372H455V370Z" fill="#262626"/>
<path d="M455 370V369H454V370H455ZM540 370H541V369H540V370ZM540 372V373H541V372H540ZM455 372H454V373H455V372ZM455 370V371H540V370V369H455V370ZM540 370H539V372H540H541V370H540ZM540 372V371H455V372V373H540V372ZM455 372H456V370H455H454V372H455Z" fill="#41413F" mask="url(#path-84-inside-20_21_215)"/>
<mask id="path-86-inside-21_21_215" fill="white">
<path d="M455 365H540V367H455V365Z"/>
</mask>
<path d="M455 365H540V367H455V365Z" fill="#262626"/>
<path d="M455 365V364H454V365H455ZM540 365H541V364H540V365ZM540 367V368H541V367H540ZM455 367H454V368H455V367ZM455 365V366H540V365V364H455V365ZM540 365H539V367H540H541V365H540ZM540 367V366H455V367V368H540V367ZM455 367H456V365H455H454V367H455Z" fill="#41413F" mask="url(#path-86-inside-21_21_215)"/>
<mask id="path-88-inside-22_21_215" fill="white">
<path d="M310 300H452V322H310V300Z"/>
</mask>
<path d="M310 300H452V322H310V300Z" fill="#262626"/>
<path d="M310 300V301H452V300V299H310V300ZM452 322V321H310V322V323H452V322Z" fill="#41413F" mask="url(#path-88-inside-22_21_215)"/>
</g>
<g opacity="0.5">
<mask id="path-90-inside-23_21_215" fill="white">
<path d="M310 203H349V225H310V203Z"/>
</mask>
<path d="M310 203H349V225H310V203Z" fill="#262626"/>
<path d="M310 203V204H349V203V202H310V203ZM349 225V224H310V225V226H349V225Z" fill="#41413F" mask="url(#path-90-inside-23_21_215)"/>
</g>
<path d="M472.861 219V210.273H476.134C476.804 210.273 477.366 210.398 477.821 210.648C478.278 210.898 478.624 211.241 478.857 211.679C479.092 212.114 479.21 212.608 479.21 213.162C479.21 213.722 479.092 214.219 478.857 214.653C478.621 215.088 478.273 215.43 477.812 215.68C477.352 215.928 476.786 216.051 476.112 216.051H473.943V214.751H475.899C476.291 214.751 476.612 214.683 476.862 214.547C477.112 214.411 477.297 214.223 477.416 213.984C477.538 213.746 477.599 213.472 477.599 213.162C477.599 212.852 477.538 212.58 477.416 212.344C477.297 212.108 477.111 211.925 476.858 211.794C476.608 211.661 476.286 211.594 475.891 211.594H474.442V219H472.861ZM480.515 219V212.455H482.058V219H480.515ZM481.291 211.526C481.047 211.526 480.836 211.445 480.66 211.283C480.484 211.118 480.396 210.92 480.396 210.69C480.396 210.457 480.484 210.26 480.66 210.098C480.836 209.933 481.047 209.851 481.291 209.851C481.538 209.851 481.748 209.933 481.922 210.098C482.098 210.26 482.186 210.457 482.186 210.69C482.186 210.92 482.098 211.118 481.922 211.283C481.748 211.445 481.538 211.526 481.291 211.526ZM488.817 214.185L487.411 214.338C487.371 214.196 487.302 214.062 487.202 213.938C487.106 213.812 486.975 213.712 486.81 213.635C486.646 213.558 486.444 213.52 486.205 213.52C485.884 213.52 485.614 213.589 485.396 213.729C485.18 213.868 485.073 214.048 485.076 214.27C485.073 214.46 485.143 214.615 485.285 214.734C485.43 214.854 485.668 214.952 486.001 215.028L487.117 215.267C487.737 215.401 488.197 215.612 488.498 215.902C488.802 216.192 488.955 216.571 488.958 217.04C488.955 217.452 488.835 217.815 488.596 218.131C488.36 218.443 488.032 218.687 487.612 218.864C487.191 219.04 486.708 219.128 486.163 219.128C485.362 219.128 484.717 218.96 484.228 218.625C483.739 218.287 483.448 217.817 483.354 217.214L484.859 217.07C484.927 217.365 485.072 217.588 485.293 217.739C485.515 217.889 485.803 217.964 486.158 217.964C486.525 217.964 486.819 217.889 487.04 217.739C487.265 217.588 487.377 217.402 487.377 217.18C487.377 216.993 487.305 216.838 487.16 216.716C487.018 216.594 486.796 216.5 486.495 216.435L485.379 216.2C484.751 216.07 484.286 215.849 483.985 215.54C483.684 215.227 483.535 214.832 483.538 214.355C483.535 213.952 483.644 213.602 483.866 213.307C484.09 213.009 484.401 212.778 484.799 212.616C485.2 212.452 485.661 212.369 486.184 212.369C486.951 212.369 487.555 212.533 487.995 212.859C488.438 213.186 488.712 213.628 488.817 214.185ZM493.085 219.128C492.446 219.128 491.892 218.987 491.423 218.706C490.955 218.425 490.591 218.031 490.332 217.526C490.077 217.02 489.949 216.429 489.949 215.753C489.949 215.077 490.077 214.484 490.332 213.976C490.591 213.467 490.955 213.072 491.423 212.791C491.892 212.51 492.446 212.369 493.085 212.369C493.724 212.369 494.278 212.51 494.747 212.791C495.216 213.072 495.578 213.467 495.834 213.976C496.092 214.484 496.222 215.077 496.222 215.753C496.222 216.429 496.092 217.02 495.834 217.526C495.578 218.031 495.216 218.425 494.747 218.706C494.278 218.987 493.724 219.128 493.085 219.128ZM493.094 217.892C493.44 217.892 493.73 217.797 493.963 217.607C494.196 217.413 494.369 217.155 494.483 216.831C494.599 216.507 494.658 216.146 494.658 215.749C494.658 215.348 494.599 214.986 494.483 214.662C494.369 214.335 494.196 214.075 493.963 213.882C493.73 213.689 493.44 213.592 493.094 213.592C492.739 213.592 492.443 213.689 492.207 213.882C491.974 214.075 491.8 214.335 491.683 214.662C491.57 214.986 491.513 215.348 491.513 215.749C491.513 216.146 491.57 216.507 491.683 216.831C491.8 217.155 491.974 217.413 492.207 217.607C492.443 217.797 492.739 217.892 493.094 217.892ZM503.797 219L505.229 210.273H506.422L504.99 219H503.797ZM499.864 216.75L500.064 215.557H506.78L506.58 216.75H499.864ZM500.729 219L502.161 210.273H503.354L501.922 219H500.729ZM500.371 213.716L500.567 212.523H507.283L507.087 213.716H500.371ZM511.439 219.166C510.737 219.166 510.135 218.989 509.632 218.634C509.132 218.276 508.747 217.76 508.477 217.087C508.21 216.411 508.077 215.597 508.077 214.645C508.08 213.693 508.214 212.884 508.482 212.216C508.751 211.545 509.136 211.034 509.636 210.682C510.139 210.33 510.74 210.153 511.439 210.153C512.138 210.153 512.739 210.33 513.241 210.682C513.744 211.034 514.129 211.545 514.396 212.216C514.666 212.886 514.801 213.696 514.801 214.645C514.801 215.599 514.666 216.415 514.396 217.091C514.129 217.764 513.744 218.278 513.241 218.634C512.741 218.989 512.141 219.166 511.439 219.166ZM511.439 217.832C511.984 217.832 512.415 217.564 512.73 217.027C513.048 216.487 513.207 215.693 513.207 214.645C513.207 213.952 513.135 213.369 512.99 212.898C512.845 212.426 512.641 212.071 512.376 211.832C512.112 211.591 511.8 211.47 511.439 211.47C510.896 211.47 510.467 211.74 510.152 212.28C509.837 212.817 509.678 213.605 509.675 214.645C509.672 215.341 509.741 215.926 509.884 216.401C510.028 216.875 510.233 217.233 510.497 217.474C510.761 217.713 511.075 217.832 511.439 217.832ZM516.217 219V217.858L519.247 214.888C519.537 214.595 519.778 214.335 519.971 214.108C520.164 213.881 520.309 213.661 520.406 213.447C520.502 213.234 520.551 213.007 520.551 212.766C520.551 212.49 520.488 212.254 520.363 212.058C520.238 211.859 520.066 211.706 519.848 211.598C519.629 211.49 519.38 211.436 519.102 211.436C518.815 211.436 518.564 211.496 518.348 211.615C518.132 211.732 517.964 211.898 517.845 212.114C517.728 212.33 517.67 212.587 517.67 212.885H516.166C516.166 212.331 516.292 211.849 516.545 211.44C516.798 211.031 517.146 210.714 517.589 210.49C518.035 210.266 518.547 210.153 519.123 210.153C519.708 210.153 520.223 210.263 520.666 210.482C521.109 210.7 521.453 211 521.697 211.381C521.944 211.761 522.068 212.196 522.068 212.685C522.068 213.011 522.005 213.332 521.88 213.648C521.755 213.963 521.535 214.312 521.22 214.696C520.907 215.08 520.468 215.544 519.903 216.089L518.399 217.619V217.679H522.2V219H516.217Z" fill="#41413F"/>
<rect opacity="0.5" x="54.5" y="69.5" width="22" height="109" fill="#1E1E1E" stroke="#41413F"/>
<rect opacity="0.5" x="138.5" y="189.5" width="66" height="7" fill="#1E1E1E" stroke="#41413F"/>
<rect opacity="0.5" x="160.5" y="207.5" width="9" height="4" fill="#1E1E1E" stroke="#41413F"/>
<rect opacity="0.5" x="177.5" y="207.5" width="9" height="4" fill="#1E1E1E" stroke="#41413F"/>
<rect opacity="0.5" x="194.5" y="207.5" width="10" height="4" fill="#1E1E1E" stroke="#41413F"/>
<rect opacity="0.5" x="59" y="194" width="24" height="5" fill="#606060"/>
<rect opacity="0.5" x="104" y="194" width="24" height="5" fill="#606060"/>
<line x1="273.5" y1="169" x2="273.5" y2="189" stroke="#41413F"/>
<line x1="274.5" y1="169" x2="274.5" y2="189" stroke="#41413F"/>
<line x1="289" y1="163.5" x2="305" y2="163.5" stroke="#262626"/>
<line x1="235" y1="188.5" x2="248" y2="188.5" stroke="#41413F"/>
<g opacity="0.5">
<mask id="path-104-inside-24_21_215" fill="white">
<path d="M63 319H80V346H63V319Z"/>
</mask>
<path d="M63 319H80V346H63V319Z" fill="#1E1E1E"/>
<path d="M80 319H79V346H80H81V319H80ZM63 346H64V319H63H62V346H63Z" fill="#41413F" mask="url(#path-104-inside-24_21_215)"/>
</g>
<g opacity="0.5">
<mask id="path-106-inside-25_21_215" fill="white">
<path d="M163 269H180V296H163V269Z"/>
</mask>
<path d="M163 269H180V296H163V269Z" fill="#1E1E1E"/>
<path d="M180 269H179V296H180H181V269H180ZM163 296H164V269H163H162V296H163Z" fill="#41413F" mask="url(#path-106-inside-25_21_215)"/>
</g>
<g opacity="0.5">
<mask id="path-108-inside-26_21_215" fill="white">
<path d="M138 269H155V296H138V269Z"/>
</mask>
<path d="M138 269H155V296H138V269Z" fill="#1E1E1E"/>
<path d="M155 269H154V296H155H156V269H155ZM138 296H139V269H138H137V296H138Z" fill="#41413F" mask="url(#path-108-inside-26_21_215)"/>
</g>
<g opacity="0.5">
<mask id="path-110-inside-27_21_215" fill="white">
<path d="M113 269H130V296H113V269Z"/>
</mask>
<path d="M113 269H130V296H113V269Z" fill="#1E1E1E"/>
<path d="M130 269H129V296H130H131V269H130ZM113 296H114V269H113H112V296H113Z" fill="#41413F" mask="url(#path-110-inside-27_21_215)"/>
</g>
<g opacity="0.5">
<mask id="path-112-inside-28_21_215" fill="white">
<path d="M88 269H105V296H88V269Z"/>
</mask>
<path d="M88 269H105V296H88V269Z" fill="#1E1E1E"/>
<path d="M105 269H104V296H105H106V269H105ZM88 296H89V269H88H87V296H88Z" fill="#41413F" mask="url(#path-112-inside-28_21_215)"/>
</g>
<g opacity="0.5">
<mask id="path-114-inside-29_21_215" fill="white">
<path d="M63 269H80V296H63V269Z"/>
</mask>
<path d="M63 269H80V296H63V269Z" fill="#1E1E1E"/>
<path d="M80 269H79V296H80H81V269H80ZM63 296H64V269H63H62V296H63Z" fill="#41413F" mask="url(#path-114-inside-29_21_215)"/>
</g>
<g opacity="0.5">
<mask id="path-116-inside-30_21_215" fill="white">
<path d="M188 319H205V346H188V319Z"/>
</mask>
<path d="M188 319H205V346H188V319Z" fill="#1E1E1E"/>
<path d="M205 319H204V346H205H206V319H205ZM188 346H189V319H188H187V346H188Z" fill="#41413F" mask="url(#path-116-inside-30_21_215)"/>
</g>
<g opacity="0.5">
<mask id="path-118-inside-31_21_215" fill="white">
<path d="M163 319H180V346H163V319Z"/>
</mask>
<path d="M163 319H180V346H163V319Z" fill="#1E1E1E"/>
<path d="M180 319H179V346H180H181V319H180ZM163 346H164V319H163H162V346H163Z" fill="#41413F" mask="url(#path-118-inside-31_21_215)"/>
</g>
<g opacity="0.5">
<mask id="path-120-inside-32_21_215" fill="white">
<path d="M138 319H155V346H138V319Z"/>
</mask>
<path d="M138 319H155V346H138V319Z" fill="#1E1E1E"/>
<path d="M155 319H154V346H155H156V319H155ZM138 346H139V319H138H137V346H138Z" fill="#41413F" mask="url(#path-120-inside-32_21_215)"/>
</g>
<g opacity="0.5">
<mask id="path-122-inside-33_21_215" fill="white">
<path d="M113 319H130V346H113V319Z"/>
</mask>
<path d="M113 319H130V346H113V319Z" fill="#1E1E1E"/>
<path d="M130 319H129V346H130H131V319H130ZM113 346H114V319H113H112V346H113Z" fill="#41413F" mask="url(#path-122-inside-33_21_215)"/>
</g>
<g opacity="0.5">
<mask id="path-124-inside-34_21_215" fill="white">
<path d="M88 319H105V346H88V319Z"/>
</mask>
<path d="M88 319H105V346H88V319Z" fill="#1E1E1E"/>
<path d="M105 319H104V346H105H106V319H105ZM88 346H89V319H88H87V346H88Z" fill="#41413F" mask="url(#path-124-inside-34_21_215)"/>
</g>
<rect x="516" y="174" width="2" height="22" fill="#41413F"/>
<rect x="534" y="174" width="2" height="22" fill="#41413F"/>
<line x1="375" y1="228.5" x2="380" y2="228.5" stroke="#1E1E1E"/>
<line x1="414" y1="228.5" x2="409" y2="228.5" stroke="#1E1E1E"/>
<line x1="427" y1="228.5" x2="432" y2="228.5" stroke="#1E1E1E"/>
<path d="M556 228.5H561" stroke="#1E1E1E"/>
<line x1="616" y1="228.5" x2="621" y2="228.5" stroke="#1E1E1E"/>
<rect x="457.5" y="227.5" width="80" height="56" fill="#41413F" stroke="#1E1E1E"/>
<rect x="460.5" y="230.5" width="26" height="50" fill="#1E1E1E" stroke="#41413F"/>
<rect x="508.5" y="230.5" width="26" height="50" fill="#1E1E1E" stroke="#41413F"/>
<rect x="508.5" y="230.5" width="26" height="50" fill="#1E1E1E" stroke="#41413F"/>
<rect x="487.5" y="249.5" width="20" height="31" fill="#1E1E1E" stroke="#41413F"/>
<rect x="462" y="232" width="23" height="5" fill="#606060"/>
<rect x="510" y="232" width="23" height="5" fill="#606060"/>
<path d="M364.605 259.08C364.196 259.08 363.832 259.009 363.514 258.869C363.198 258.729 362.948 258.534 362.764 258.284C362.58 258.034 362.483 257.745 362.472 257.418H363.54C363.549 257.575 363.601 257.712 363.696 257.83C363.791 257.945 363.917 258.035 364.074 258.099C364.231 258.164 364.407 258.196 364.602 258.196C364.811 258.196 364.995 258.16 365.156 258.088C365.317 258.014 365.443 257.912 365.534 257.781C365.625 257.651 365.67 257.5 365.668 257.33C365.67 257.153 365.624 256.998 365.531 256.864C365.438 256.729 365.304 256.624 365.128 256.548C364.954 256.473 364.743 256.435 364.497 256.435H363.983V255.622H364.497C364.7 255.622 364.877 255.587 365.028 255.517C365.182 255.447 365.302 255.348 365.389 255.222C365.476 255.093 365.519 254.944 365.517 254.776C365.519 254.611 365.482 254.468 365.406 254.347C365.332 254.223 365.227 254.128 365.091 254.06C364.956 253.991 364.798 253.957 364.616 253.957C364.438 253.957 364.274 253.99 364.122 254.054C363.971 254.118 363.848 254.21 363.756 254.33C363.663 254.447 363.614 254.587 363.608 254.75H362.594C362.601 254.424 362.695 254.138 362.875 253.892C363.057 253.644 363.299 253.451 363.602 253.312C363.905 253.172 364.245 253.102 364.622 253.102C365.01 253.102 365.348 253.175 365.634 253.321C365.921 253.465 366.144 253.659 366.301 253.903C366.458 254.148 366.537 254.418 366.537 254.713C366.539 255.041 366.442 255.315 366.247 255.537C366.054 255.759 365.8 255.903 365.486 255.972V256.017C365.895 256.074 366.208 256.225 366.426 256.472C366.646 256.716 366.755 257.02 366.753 257.384C366.753 257.709 366.66 258.001 366.474 258.259C366.291 258.514 366.037 258.715 365.713 258.861C365.391 259.007 365.022 259.08 364.605 259.08ZM369.879 259.111C369.411 259.111 369.009 258.992 368.674 258.756C368.341 258.517 368.084 258.173 367.904 257.724C367.726 257.274 367.637 256.731 367.637 256.097C367.639 255.462 367.729 254.922 367.907 254.477C368.087 254.03 368.344 253.689 368.677 253.455C369.012 253.22 369.413 253.102 369.879 253.102C370.344 253.102 370.745 253.22 371.08 253.455C371.415 253.689 371.672 254.03 371.85 254.477C372.03 254.924 372.12 255.464 372.12 256.097C372.12 256.733 372.03 257.277 371.85 257.727C371.672 258.176 371.415 258.519 371.08 258.756C370.747 258.992 370.346 259.111 369.879 259.111ZM369.879 258.222C370.242 258.222 370.529 258.043 370.739 257.685C370.951 257.325 371.058 256.795 371.058 256.097C371.058 255.634 371.009 255.246 370.913 254.932C370.816 254.617 370.68 254.381 370.504 254.222C370.327 254.061 370.119 253.98 369.879 253.98C369.517 253.98 369.231 254.16 369.021 254.52C368.81 254.878 368.704 255.403 368.702 256.097C368.701 256.561 368.747 256.951 368.842 257.267C368.938 257.583 369.075 257.822 369.251 257.983C369.427 258.142 369.636 258.222 369.879 258.222ZM375.084 253.102C375.362 253.104 375.633 253.153 375.896 253.25C376.161 253.345 376.4 253.5 376.612 253.716C376.824 253.93 376.993 254.217 377.118 254.577C377.243 254.937 377.305 255.382 377.305 255.912C377.307 256.412 377.254 256.859 377.146 257.253C377.04 257.645 376.888 257.976 376.689 258.247C376.49 258.518 376.25 258.724 375.97 258.866C375.69 259.009 375.375 259.08 375.024 259.08C374.657 259.08 374.331 259.008 374.047 258.864C373.765 258.72 373.536 258.523 373.362 258.273C373.188 258.023 373.081 257.737 373.041 257.415H374.078C374.131 257.646 374.239 257.83 374.402 257.966C374.567 258.1 374.774 258.168 375.024 258.168C375.428 258.168 375.738 257.992 375.956 257.642C376.174 257.292 376.283 256.805 376.283 256.182H376.243C376.15 256.348 376.03 256.492 375.882 256.614C375.734 256.733 375.567 256.825 375.379 256.889C375.194 256.954 374.997 256.986 374.788 256.986C374.447 256.986 374.141 256.904 373.868 256.741C373.597 256.579 373.382 256.355 373.223 256.071C373.066 255.787 372.986 255.462 372.984 255.097C372.984 254.718 373.071 254.378 373.246 254.077C373.422 253.774 373.667 253.535 373.982 253.361C374.296 253.185 374.663 253.098 375.084 253.102ZM375.087 253.955C374.882 253.955 374.697 254.005 374.533 254.105C374.37 254.204 374.241 254.338 374.146 254.509C374.054 254.677 374.007 254.866 374.007 255.074C374.009 255.28 374.055 255.468 374.146 255.636C374.239 255.805 374.365 255.938 374.524 256.037C374.685 256.135 374.869 256.185 375.075 256.185C375.229 256.185 375.372 256.155 375.504 256.097C375.637 256.038 375.752 255.956 375.851 255.852C375.951 255.746 376.029 255.626 376.084 255.491C376.141 255.357 376.168 255.215 376.166 255.065C376.166 254.866 376.119 254.683 376.024 254.514C375.931 254.346 375.804 254.21 375.641 254.108C375.48 254.006 375.295 253.955 375.087 253.955Z" fill="#262626"/>
<path d="M432.605 259.08C432.196 259.08 431.832 259.009 431.514 258.869C431.198 258.729 430.948 258.534 430.764 258.284C430.58 258.034 430.483 257.745 430.472 257.418H431.54C431.549 257.575 431.601 257.712 431.696 257.83C431.791 257.945 431.917 258.035 432.074 258.099C432.231 258.164 432.407 258.196 432.602 258.196C432.811 258.196 432.995 258.16 433.156 258.088C433.317 258.014 433.443 257.912 433.534 257.781C433.625 257.651 433.67 257.5 433.668 257.33C433.67 257.153 433.624 256.998 433.531 256.864C433.438 256.729 433.304 256.624 433.128 256.548C432.954 256.473 432.743 256.435 432.497 256.435H431.983V255.622H432.497C432.7 255.622 432.877 255.587 433.028 255.517C433.182 255.447 433.302 255.348 433.389 255.222C433.476 255.093 433.519 254.944 433.517 254.776C433.519 254.611 433.482 254.468 433.406 254.347C433.332 254.223 433.227 254.128 433.091 254.06C432.956 253.991 432.798 253.957 432.616 253.957C432.438 253.957 432.274 253.99 432.122 254.054C431.971 254.118 431.848 254.21 431.756 254.33C431.663 254.447 431.614 254.587 431.608 254.75H430.594C430.601 254.424 430.695 254.138 430.875 253.892C431.057 253.644 431.299 253.451 431.602 253.312C431.905 253.172 432.245 253.102 432.622 253.102C433.01 253.102 433.348 253.175 433.634 253.321C433.921 253.465 434.144 253.659 434.301 253.903C434.458 254.148 434.537 254.418 434.537 254.713C434.539 255.041 434.442 255.315 434.247 255.537C434.054 255.759 433.8 255.903 433.486 255.972V256.017C433.895 256.074 434.208 256.225 434.426 256.472C434.646 256.716 434.755 257.02 434.753 257.384C434.753 257.709 434.66 258.001 434.474 258.259C434.291 258.514 434.037 258.715 433.713 258.861C433.391 259.007 433.022 259.08 432.605 259.08ZM437.879 259.111C437.411 259.111 437.009 258.992 436.674 258.756C436.341 258.517 436.084 258.173 435.904 257.724C435.726 257.274 435.637 256.731 435.637 256.097C435.639 255.462 435.729 254.922 435.907 254.477C436.087 254.03 436.344 253.689 436.677 253.455C437.012 253.22 437.413 253.102 437.879 253.102C438.344 253.102 438.745 253.22 439.08 253.455C439.415 253.689 439.672 254.03 439.85 254.477C440.03 254.924 440.12 255.464 440.12 256.097C440.12 256.733 440.03 257.277 439.85 257.727C439.672 258.176 439.415 258.519 439.08 258.756C438.747 258.992 438.346 259.111 437.879 259.111ZM437.879 258.222C438.242 258.222 438.529 258.043 438.739 257.685C438.951 257.325 439.058 256.795 439.058 256.097C439.058 255.634 439.009 255.246 438.913 254.932C438.816 254.617 438.68 254.381 438.504 254.222C438.327 254.061 438.119 253.98 437.879 253.98C437.517 253.98 437.231 254.16 437.021 254.52C436.81 254.878 436.704 255.403 436.702 256.097C436.701 256.561 436.747 256.951 436.842 257.267C436.938 257.583 437.075 257.822 437.251 257.983C437.427 258.142 437.636 258.222 437.879 258.222ZM441.121 259L443.595 254.102V254.062H440.723V253.182H444.686V254.082L442.214 259H441.121Z" fill="#262626"/>
<path d="M574.321 259H573.196L575.244 253.182H576.545L578.597 259H577.472L575.918 254.375H575.872L574.321 259ZM574.358 256.719H577.426V257.565H574.358V256.719ZM582.099 257.165V254.636H583.127V259H582.13V258.224H582.085C581.986 258.469 581.824 258.669 581.599 258.824C581.375 258.979 581.1 259.057 580.772 259.057C580.486 259.057 580.233 258.993 580.013 258.866C579.796 258.738 579.625 258.551 579.502 258.307C579.379 258.061 579.317 257.763 579.317 257.415V254.636H580.346V257.256C580.346 257.532 580.422 257.752 580.573 257.915C580.725 258.078 580.924 258.159 581.17 258.159C581.321 258.159 581.468 258.122 581.61 258.048C581.752 257.974 581.869 257.865 581.96 257.719C582.052 257.571 582.099 257.386 582.099 257.165ZM585.804 259.077C585.461 259.077 585.154 258.989 584.884 258.812C584.613 258.636 584.399 258.381 584.241 258.045C584.084 257.71 584.006 257.303 584.006 256.824C584.006 256.339 584.085 255.93 584.244 255.597C584.405 255.261 584.622 255.009 584.895 254.838C585.168 254.666 585.472 254.58 585.807 254.58C586.063 254.58 586.273 254.623 586.438 254.71C586.602 254.795 586.733 254.899 586.83 255.02C586.926 255.139 587.001 255.252 587.054 255.358H587.097V253.182H588.128V259H587.116V258.312H587.054C587.001 258.419 586.924 258.531 586.824 258.651C586.723 258.768 586.591 258.868 586.426 258.952C586.261 259.035 586.054 259.077 585.804 259.077ZM586.091 258.233C586.309 258.233 586.494 258.174 586.648 258.057C586.801 257.937 586.918 257.772 586.997 257.56C587.077 257.348 587.116 257.1 587.116 256.818C587.116 256.536 587.077 256.291 586.997 256.082C586.92 255.874 586.804 255.712 586.651 255.597C586.499 255.481 586.313 255.423 586.091 255.423C585.862 255.423 585.67 255.483 585.517 255.602C585.364 255.722 585.248 255.886 585.17 256.097C585.093 256.307 585.054 256.547 585.054 256.818C585.054 257.091 585.093 257.334 585.17 257.548C585.25 257.76 585.366 257.928 585.52 258.051C585.675 258.172 585.866 258.233 586.091 258.233ZM589.224 259V254.636H590.252V259H589.224ZM589.741 254.017C589.578 254.017 589.438 253.963 589.32 253.855C589.203 253.745 589.144 253.614 589.144 253.46C589.144 253.305 589.203 253.173 589.32 253.065C589.438 252.955 589.578 252.901 589.741 252.901C589.906 252.901 590.046 252.955 590.161 253.065C590.279 253.173 590.337 253.305 590.337 253.46C590.337 253.614 590.279 253.745 590.161 253.855C590.046 253.963 589.906 254.017 589.741 254.017ZM593.489 254.636V255.432H590.98V254.636H593.489ZM591.599 253.591H592.628V257.688C592.628 257.826 592.649 257.932 592.69 258.006C592.734 258.078 592.791 258.127 592.861 258.153C592.931 258.18 593.009 258.193 593.094 258.193C593.158 258.193 593.217 258.188 593.27 258.179C593.325 258.17 593.366 258.161 593.395 258.153L593.568 258.957C593.513 258.976 593.435 258.997 593.332 259.02C593.232 259.043 593.109 259.056 592.963 259.06C592.705 259.067 592.473 259.028 592.267 258.943C592.061 258.856 591.897 258.722 591.776 258.54C591.656 258.358 591.598 258.131 591.599 257.858V253.591ZM596.205 259.085C595.779 259.085 595.41 258.991 595.097 258.804C594.785 258.616 594.542 258.354 594.37 258.017C594.2 257.68 594.114 257.286 594.114 256.835C594.114 256.384 594.2 255.99 594.37 255.651C594.542 255.312 594.785 255.048 595.097 254.861C595.41 254.673 595.779 254.58 596.205 254.58C596.631 254.58 597.001 254.673 597.313 254.861C597.626 255.048 597.867 255.312 598.038 255.651C598.21 255.99 598.296 256.384 598.296 256.835C598.296 257.286 598.21 257.68 598.038 258.017C597.867 258.354 597.626 258.616 597.313 258.804C597.001 258.991 596.631 259.085 596.205 259.085ZM596.211 258.261C596.442 258.261 596.635 258.198 596.79 258.071C596.946 257.942 597.061 257.77 597.137 257.554C597.215 257.338 597.254 257.098 597.254 256.832C597.254 256.565 597.215 256.324 597.137 256.108C597.061 255.89 596.946 255.717 596.79 255.588C596.635 255.459 596.442 255.395 596.211 255.395C595.974 255.395 595.777 255.459 595.62 255.588C595.465 255.717 595.348 255.89 595.271 256.108C595.195 256.324 595.157 256.565 595.157 256.832C595.157 257.098 595.195 257.338 595.271 257.554C595.348 257.77 595.465 257.942 595.62 258.071C595.777 258.198 595.974 258.261 596.211 258.261ZM599.169 259V254.636H600.166V255.364H600.212C600.291 255.112 600.428 254.918 600.621 254.781C600.816 254.643 601.038 254.574 601.288 254.574C601.345 254.574 601.409 254.577 601.479 254.582C601.551 254.586 601.61 254.593 601.658 254.602V255.548C601.614 255.533 601.545 255.52 601.45 255.509C601.357 255.495 601.268 255.489 601.18 255.489C600.993 255.489 600.824 255.529 600.675 255.611C600.527 255.69 600.411 255.801 600.325 255.943C600.24 256.085 600.197 256.249 600.197 256.435V259H599.169ZM602.341 259V254.636H603.369V259H602.341ZM602.858 254.017C602.695 254.017 602.555 253.963 602.438 253.855C602.32 253.745 602.261 253.614 602.261 253.46C602.261 253.305 602.32 253.173 602.438 253.065C602.555 252.955 602.695 252.901 602.858 252.901C603.023 252.901 603.163 252.955 603.278 253.065C603.396 253.173 603.455 253.305 603.455 253.46C603.455 253.614 603.396 253.745 603.278 253.855C603.163 253.963 603.023 254.017 602.858 254.017ZM606.33 259.085C605.904 259.085 605.535 258.991 605.222 258.804C604.91 258.616 604.667 258.354 604.495 258.017C604.325 257.68 604.239 257.286 604.239 256.835C604.239 256.384 604.325 255.99 604.495 255.651C604.667 255.312 604.91 255.048 605.222 254.861C605.535 254.673 605.904 254.58 606.33 254.58C606.756 254.58 607.126 254.673 607.438 254.861C607.751 255.048 607.992 255.312 608.163 255.651C608.335 255.99 608.421 256.384 608.421 256.835C608.421 257.286 608.335 257.68 608.163 258.017C607.992 258.354 607.751 258.616 607.438 258.804C607.126 258.991 606.756 259.085 606.33 259.085ZM606.336 258.261C606.567 258.261 606.76 258.198 606.915 258.071C607.071 257.942 607.186 257.77 607.262 257.554C607.34 257.338 607.379 257.098 607.379 256.832C607.379 256.565 607.34 256.324 607.262 256.108C607.186 255.89 607.071 255.717 606.915 255.588C606.76 255.459 606.567 255.395 606.336 255.395C606.099 255.395 605.902 255.459 605.745 255.588C605.59 255.717 605.473 255.89 605.396 256.108C605.32 256.324 605.282 256.565 605.282 256.832C605.282 257.098 605.32 257.338 605.396 257.554C605.473 257.77 605.59 257.942 605.745 258.071C605.902 258.198 606.099 258.261 606.336 258.261Z" fill="#262626"/>
<path d="M398.605 259.08C398.196 259.08 397.832 259.009 397.514 258.869C397.198 258.729 396.948 258.534 396.764 258.284C396.58 258.034 396.483 257.745 396.472 257.418H397.54C397.549 257.575 397.601 257.712 397.696 257.83C397.791 257.945 397.917 258.035 398.074 258.099C398.231 258.164 398.407 258.196 398.602 258.196C398.811 258.196 398.995 258.16 399.156 258.088C399.317 258.014 399.443 257.912 399.534 257.781C399.625 257.651 399.67 257.5 399.668 257.33C399.67 257.153 399.624 256.998 399.531 256.864C399.438 256.729 399.304 256.624 399.128 256.548C398.954 256.473 398.743 256.435 398.497 256.435H397.983V255.622H398.497C398.7 255.622 398.877 255.587 399.028 255.517C399.182 255.447 399.302 255.348 399.389 255.222C399.476 255.093 399.519 254.944 399.517 254.776C399.519 254.611 399.482 254.468 399.406 254.347C399.332 254.223 399.227 254.128 399.091 254.06C398.956 253.991 398.798 253.957 398.616 253.957C398.438 253.957 398.274 253.99 398.122 254.054C397.971 254.118 397.848 254.21 397.756 254.33C397.663 254.447 397.614 254.587 397.608 254.75H396.594C396.601 254.424 396.695 254.138 396.875 253.892C397.057 253.644 397.299 253.451 397.602 253.312C397.905 253.172 398.245 253.102 398.622 253.102C399.01 253.102 399.348 253.175 399.634 253.321C399.921 253.465 400.144 253.659 400.301 253.903C400.458 254.148 400.537 254.418 400.537 254.713C400.539 255.041 400.442 255.315 400.247 255.537C400.054 255.759 399.8 255.903 399.486 255.972V256.017C399.895 256.074 400.208 256.225 400.426 256.472C400.646 256.716 400.755 257.02 400.753 257.384C400.753 257.709 400.66 258.001 400.474 258.259C400.291 258.514 400.037 258.715 399.713 258.861C399.391 259.007 399.022 259.08 398.605 259.08ZM403.879 259.111C403.411 259.111 403.009 258.992 402.674 258.756C402.341 258.517 402.084 258.173 401.904 257.724C401.726 257.274 401.637 256.731 401.637 256.097C401.639 255.462 401.729 254.922 401.907 254.477C402.087 254.03 402.344 253.689 402.677 253.455C403.012 253.22 403.413 253.102 403.879 253.102C404.344 253.102 404.745 253.22 405.08 253.455C405.415 253.689 405.672 254.03 405.85 254.477C406.03 254.924 406.12 255.464 406.12 256.097C406.12 256.733 406.03 257.277 405.85 257.727C405.672 258.176 405.415 258.519 405.08 258.756C404.747 258.992 404.346 259.111 403.879 259.111ZM403.879 258.222C404.242 258.222 404.529 258.043 404.739 257.685C404.951 257.325 405.058 256.795 405.058 256.097C405.058 255.634 405.009 255.246 404.913 254.932C404.816 254.617 404.68 254.381 404.504 254.222C404.327 254.061 404.119 253.98 403.879 253.98C403.517 253.98 403.231 254.16 403.021 254.52C402.81 254.878 402.704 255.403 402.702 256.097C402.701 256.561 402.747 256.951 402.842 257.267C402.938 257.583 403.075 257.822 403.251 257.983C403.427 258.142 403.636 258.222 403.879 258.222ZM409.132 259.08C408.71 259.08 408.335 259.009 408.007 258.866C407.681 258.724 407.426 258.53 407.24 258.284C407.056 258.036 406.965 257.755 406.967 257.44C406.965 257.196 407.018 256.972 407.126 256.767C407.234 256.562 407.38 256.392 407.564 256.256C407.75 256.117 407.956 256.029 408.183 255.991V255.952C407.884 255.885 407.642 255.733 407.456 255.494C407.272 255.254 407.181 254.976 407.183 254.662C407.181 254.363 407.265 254.096 407.433 253.861C407.602 253.626 407.833 253.441 408.126 253.307C408.42 253.17 408.755 253.102 409.132 253.102C409.505 253.102 409.838 253.17 410.129 253.307C410.423 253.441 410.654 253.626 410.822 253.861C410.993 254.096 411.078 254.363 411.078 254.662C411.078 254.976 410.984 255.254 410.797 255.494C410.611 255.733 410.372 255.885 410.078 255.952V255.991C410.305 256.029 410.51 256.117 410.692 256.256C410.875 256.392 411.021 256.562 411.129 256.767C411.239 256.972 411.294 257.196 411.294 257.44C411.294 257.755 411.201 258.036 411.016 258.284C410.83 258.53 410.574 258.724 410.249 258.866C409.925 259.009 409.553 259.08 409.132 259.08ZM409.132 258.267C409.35 258.267 409.539 258.23 409.7 258.156C409.861 258.08 409.986 257.974 410.075 257.838C410.164 257.702 410.21 257.545 410.212 257.366C410.21 257.181 410.161 257.017 410.067 256.875C409.974 256.731 409.846 256.618 409.683 256.537C409.522 256.455 409.339 256.415 409.132 256.415C408.924 256.415 408.738 256.455 408.575 256.537C408.412 256.618 408.284 256.731 408.189 256.875C408.096 257.017 408.051 257.181 408.053 257.366C408.051 257.545 408.094 257.702 408.183 257.838C408.272 257.973 408.397 258.078 408.558 258.153C408.721 258.229 408.912 258.267 409.132 258.267ZM409.132 255.616C409.31 255.616 409.467 255.58 409.604 255.509C409.742 255.437 409.851 255.336 409.93 255.207C410.01 255.079 410.051 254.93 410.053 254.761C410.051 254.595 410.011 254.449 409.933 254.324C409.856 254.197 409.748 254.099 409.609 254.031C409.471 253.961 409.312 253.926 409.132 253.926C408.948 253.926 408.786 253.961 408.646 254.031C408.508 254.099 408.4 254.197 408.322 254.324C408.247 254.449 408.21 254.595 408.212 254.761C408.21 254.93 408.248 255.079 408.325 255.207C408.405 255.334 408.514 255.435 408.652 255.509C408.792 255.58 408.952 255.616 409.132 255.616Z" fill="#262626"/>
<path d="M470.574 253.182H471.864L473.591 257.398H473.659L475.386 253.182H476.676V259H475.665V255.003H475.611L474.003 258.983H473.247L471.639 254.994H471.585V259H470.574V253.182Z" fill="#41413F"/>
<path d="M519.574 259V253.182H523.301V254.065H520.628V255.645H523.045V256.528H520.628V259H519.574Z" fill="#41413F"/>
<mask id="path-146-inside-35_21_215" fill="white">
<path d="M592 153H646V197H592V153Z"/>
</mask>
<path d="M592 153H646V197H592V153Z" fill="#262626"/>
<path d="M592 153V152H591V153H592ZM592 153V154H646V153V152H592V153ZM592 197H593V153H592H591V197H592Z" fill="#41413F" mask="url(#path-146-inside-35_21_215)"/>
<mask id="path-148-inside-36_21_215" fill="white">
<path d="M350 153H404V197H350V153Z"/>
</mask>
<path d="M350 153H404V197H350V153Z" fill="#262626"/>
<path d="M404 153H405V152H404V153ZM350 153V154H404V153V152H350V153ZM404 153H403V197H404H405V153H404Z" fill="#41413F" mask="url(#path-148-inside-36_21_215)"/>
<mask id="path-150-inside-37_21_215" fill="white">
<path d="M355 157H375V197H355V157Z"/>
</mask>
<path d="M355 157H375V197H355V157Z" fill="#282929"/>
<path d="M375 157H374V197H375H376V157H375ZM355 197H356V157H355H354V197H355Z" fill="#41413F" mask="url(#path-150-inside-37_21_215)"/>
<mask id="path-152-inside-38_21_215" fill="white">
<path d="M357 192H373V194H357V192Z"/>
</mask>
<path d="M357 192H373V194H357V192Z" fill="#262626"/>
<path d="M357 192V191H356V192H357ZM373 192H374V191H373V192ZM373 194V195H374V194H373ZM357 194H356V195H357V194ZM357 192V193H373V192V191H357V192ZM373 192H372V194H373H374V192H373ZM373 194V193H357V194V195H373V194ZM357 194H358V192H357H356V194H357Z" fill="#41413F" mask="url(#path-152-inside-38_21_215)"/>
<mask id="path-154-inside-39_21_215" fill="white">
<path d="M357 178H373V176H357V178Z"/>
</mask>
<path d="M357 178H373V176H357V178Z" fill="#262626"/>
<path d="M357 178V179H356V178H357ZM373 178H374V179H373V178ZM373 176V175H374V176H373ZM357 176H356V175H357V176ZM357 178V177H373V178V179H357V178ZM373 178H372V176H373H374V178H373ZM373 176V177H357V176V175H373V176ZM357 176H358V178H357H356V176H357Z" fill="#41413F" mask="url(#path-154-inside-39_21_215)"/>
<mask id="path-156-inside-40_21_215" fill="white">
<path d="M357 180H373V182H357V180Z"/>
</mask>
<path d="M357 180H373V182H357V180Z" fill="#262626"/>
<path d="M357 180V179H356V180H357ZM373 180H374V179H373V180ZM373 182V183H374V182H373ZM357 182H356V183H357V182ZM357 180V181H373V180V179H357V180ZM373 180H372V182H373H374V180H373ZM373 182V181H357V182V183H373V182ZM357 182H358V180H357H356V182H357Z" fill="#41413F" mask="url(#path-156-inside-40_21_215)"/>
<mask id="path-158-inside-41_21_215" fill="white">
<path d="M357 184H373V186H357V184Z"/>
</mask>
<path d="M357 184H373V186H357V184Z" fill="#262626"/>
<path d="M357 184V183H356V184H357ZM373 184H374V183H373V184ZM373 186V187H374V186H373ZM357 186H356V187H357V186ZM357 184V185H373V184V183H357V184ZM373 184H372V186H373H374V184H373ZM373 186V185H357V186V187H373V186ZM357 186H358V184H357H356V186H357Z" fill="#41413F" mask="url(#path-158-inside-41_21_215)"/>
<mask id="path-160-inside-42_21_215" fill="white">
<path d="M357 188H373V190H357V188Z"/>
</mask>
<path d="M357 188H373V190H357V188Z" fill="#262626"/>
<path d="M357 188V187H356V188H357ZM373 188H374V187H373V188ZM373 190V191H374V190H373ZM357 190H356V191H357V190ZM357 188V189H373V188V187H357V188ZM373 188H372V190H373H374V188H373ZM373 190V189H357V190V191H373V190ZM357 190H358V188H357H356V190H357Z" fill="#41413F" mask="url(#path-160-inside-42_21_215)"/>
<mask id="path-162-inside-43_21_215" fill="white">
<path d="M357 172H373V174H357V172Z"/>
</mask>
<path d="M357 172H373V174H357V172Z" fill="#262626"/>
<path d="M357 172V171H356V172H357ZM373 172H374V171H373V172ZM373 174V175H374V174H373ZM357 174H356V175H357V174ZM357 172V173H373V172V171H357V172ZM373 172H372V174H373H374V172H373ZM373 174V173H357V174V175H373V174ZM357 174H358V172H357H356V174H357Z" fill="#41413F" mask="url(#path-162-inside-43_21_215)"/>
<mask id="path-164-inside-44_21_215" fill="white">
<path d="M357 160H373V162H357V160Z"/>
</mask>
<path d="M357 160H373V162H357V160Z" fill="#262626"/>
<path d="M357 160V159H356V160H357ZM373 160H374V159H373V160ZM373 162V163H374V162H373ZM357 162H356V163H357V162ZM357 160V161H373V160V159H357V160ZM373 160H372V162H373H374V160H373ZM373 162V161H357V162V163H373V162ZM357 162H358V160H357H356V162H357Z" fill="#41413F" mask="url(#path-164-inside-44_21_215)"/>
<mask id="path-166-inside-45_21_215" fill="white">
<path d="M357 164H373V166H357V164Z"/>
</mask>
<path d="M357 164H373V166H357V164Z" fill="#262626"/>
<path d="M357 164V163H356V164H357ZM373 164H374V163H373V164ZM373 166V167H374V166H373ZM357 166H356V167H357V166ZM357 164V165H373V164V163H357V164ZM373 164H372V166H373H374V164H373ZM373 166V165H357V166V167H373V166ZM357 166H358V164H357H356V166H357Z" fill="#41413F" mask="url(#path-166-inside-45_21_215)"/>
<mask id="path-168-inside-46_21_215" fill="white">
<path d="M357 168H373V170H357V168Z"/>
</mask>
<path d="M357 168H373V170H357V168Z" fill="#262626"/>
<path d="M357 168V167H356V168H357ZM373 168H374V167H373V168ZM373 170V171H374V170H373ZM357 170H356V171H357V170ZM357 168V169H373V168V167H357V168ZM373 168H372V170H373H374V168H373ZM373 170V169H357V170V171H373V170ZM357 170H358V168H357H356V170H357Z" fill="#41413F" mask="url(#path-168-inside-46_21_215)"/>
<mask id="path-170-inside-47_21_215" fill="white">
<path d="M378 157H398V197H378V157Z"/>
</mask>
<path d="M378 157H398V197H378V157Z" fill="#282929"/>
<path d="M398 157H397V197H398H399V157H398ZM378 197H379V157H378H377V197H378Z" fill="#41413F" mask="url(#path-170-inside-47_21_215)"/>
<mask id="path-172-inside-48_21_215" fill="white">
<path d="M380 192H396V194H380V192Z"/>
</mask>
<path d="M380 192H396V194H380V192Z" fill="#262626"/>
<path d="M380 192V191H379V192H380ZM396 192H397V191H396V192ZM396 194V195H397V194H396ZM380 194H379V195H380V194ZM380 192V193H396V192V191H380V192ZM396 192H395V194H396H397V192H396ZM396 194V193H380V194V195H396V194ZM380 194H381V192H380H379V194H380Z" fill="#41413F" mask="url(#path-172-inside-48_21_215)"/>
<mask id="path-174-inside-49_21_215" fill="white">
<path d="M380 178H396V176H380V178Z"/>
</mask>
<path d="M380 178H396V176H380V178Z" fill="#262626"/>
<path d="M380 178V179H379V178H380ZM396 178H397V179H396V178ZM396 176V175H397V176H396ZM380 176H379V175H380V176ZM380 178V177H396V178V179H380V178ZM396 178H395V176H396H397V178H396ZM396 176V177H380V176V175H396V176ZM380 176H381V178H380H379V176H380Z" fill="#41413F" mask="url(#path-174-inside-49_21_215)"/>
<mask id="path-176-inside-50_21_215" fill="white">
<path d="M380 180H396V182H380V180Z"/>
</mask>
<path d="M380 180H396V182H380V180Z" fill="#262626"/>
<path d="M380 180V179H379V180H380ZM396 180H397V179H396V180ZM396 182V183H397V182H396ZM380 182H379V183H380V182ZM380 180V181H396V180V179H380V180ZM396 180H395V182H396H397V180H396ZM396 182V181H380V182V183H396V182ZM380 182H381V180H380H379V182H380Z" fill="#41413F" mask="url(#path-176-inside-50_21_215)"/>
<mask id="path-178-inside-51_21_215" fill="white">
<path d="M380 184H396V186H380V184Z"/>
</mask>
<path d="M380 184H396V186H380V184Z" fill="#262626"/>
<path d="M380 184V183H379V184H380ZM396 184H397V183H396V184ZM396 186V187H397V186H396ZM380 186H379V187H380V186ZM380 184V185H396V184V183H380V184ZM396 184H395V186H396H397V184H396ZM396 186V185H380V186V187H396V186ZM380 186H381V184H380H379V186H380Z" fill="#41413F" mask="url(#path-178-inside-51_21_215)"/>
<mask id="path-180-inside-52_21_215" fill="white">
<path d="M380 188H396V190H380V188Z"/>
</mask>
<path d="M380 188H396V190H380V188Z" fill="#262626"/>
<path d="M380 188V187H379V188H380ZM396 188H397V187H396V188ZM396 190V191H397V190H396ZM380 190H379V191H380V190ZM380 188V189H396V188V187H380V188ZM396 188H395V190H396H397V188H396ZM396 190V189H380V190V191H396V190ZM380 190H381V188H380H379V190H380Z" fill="#41413F" mask="url(#path-180-inside-52_21_215)"/>
<mask id="path-182-inside-53_21_215" fill="white">
<path d="M380 172H396V174H380V172Z"/>
</mask>
<path d="M380 172H396V174H380V172Z" fill="#262626"/>
<path d="M380 172V171H379V172H380ZM396 172H397V171H396V172ZM396 174V175H397V174H396ZM380 174H379V175H380V174ZM380 172V173H396V172V171H380V172ZM396 172H395V174H396H397V172H396ZM396 174V173H380V174V175H396V174ZM380 174H381V172H380H379V174H380Z" fill="#41413F" mask="url(#path-182-inside-53_21_215)"/>
<mask id="path-184-inside-54_21_215" fill="white">
<path d="M380 160H396V162H380V160Z"/>
</mask>
<path d="M380 160H396V162H380V160Z" fill="#262626"/>
<path d="M380 160V159H379V160H380ZM396 160H397V159H396V160ZM396 162V163H397V162H396ZM380 162H379V163H380V162ZM380 160V161H396V160V159H380V160ZM396 160H395V162H396H397V160H396ZM396 162V161H380V162V163H396V162ZM380 162H381V160H380H379V162H380Z" fill="#41413F" mask="url(#path-184-inside-54_21_215)"/>
<mask id="path-186-inside-55_21_215" fill="white">
<path d="M380 164H396V166H380V164Z"/>
</mask>
<path d="M380 164H396V166H380V164Z" fill="#262626"/>
<path d="M380 164V163H379V164H380ZM396 164H397V163H396V164ZM396 166V167H397V166H396ZM380 166H379V167H380V166ZM380 164V165H396V164V163H380V164ZM396 164H395V166H396H397V164H396ZM396 166V165H380V166V167H396V166ZM380 166H381V164H380H379V166H380Z" fill="#41413F" mask="url(#path-186-inside-55_21_215)"/>
<mask id="path-188-inside-56_21_215" fill="white">
<path d="M380 168H396V170H380V168Z"/>
</mask>
<path d="M380 168H396V170H380V168Z" fill="#262626"/>
<path d="M380 168V167H379V168H380ZM396 168H397V167H396V168ZM396 170V171H397V170H396ZM380 170H379V171H380V170ZM380 168V169H396V168V167H380V168ZM396 168H395V170H396H397V168H396ZM396 170V169H380V170V171H396V170ZM380 170H381V168H380H379V170H380Z" fill="#41413F" mask="url(#path-188-inside-56_21_215)"/>
<mask id="path-190-inside-57_21_215" fill="white">
<path d="M598 157H618V197H598V157Z"/>
</mask>
<path d="M598 157H618V197H598V157Z" fill="#282929"/>
<path d="M618 157H617V197H618H619V157H618ZM598 197H599V157H598H597V197H598Z" fill="#41413F" mask="url(#path-190-inside-57_21_215)"/>
<mask id="path-192-inside-58_21_215" fill="white">
<path d="M600 192H616V194H600V192Z"/>
</mask>
<path d="M600 192H616V194H600V192Z" fill="#262626"/>
<path d="M600 192V191H599V192H600ZM616 192H617V191H616V192ZM616 194V195H617V194H616ZM600 194H599V195H600V194ZM600 192V193H616V192V191H600V192ZM616 192H615V194H616H617V192H616ZM616 194V193H600V194V195H616V194ZM600 194H601V192H600H599V194H600Z" fill="#41413F" mask="url(#path-192-inside-58_21_215)"/>
<mask id="path-194-inside-59_21_215" fill="white">
<path d="M600 178H616V176H600V178Z"/>
</mask>
<path d="M600 178H616V176H600V178Z" fill="#262626"/>
<path d="M600 178V179H599V178H600ZM616 178H617V179H616V178ZM616 176V175H617V176H616ZM600 176H599V175H600V176ZM600 178V177H616V178V179H600V178ZM616 178H615V176H616H617V178H616ZM616 176V177H600V176V175H616V176ZM600 176H601V178H600H599V176H600Z" fill="#41413F" mask="url(#path-194-inside-59_21_215)"/>
<mask id="path-196-inside-60_21_215" fill="white">
<path d="M600 180H616V182H600V180Z"/>
</mask>
<path d="M600 180H616V182H600V180Z" fill="#262626"/>
<path d="M600 180V179H599V180H600ZM616 180H617V179H616V180ZM616 182V183H617V182H616ZM600 182H599V183H600V182ZM600 180V181H616V180V179H600V180ZM616 180H615V182H616H617V180H616ZM616 182V181H600V182V183H616V182ZM600 182H601V180H600H599V182H600Z" fill="#41413F" mask="url(#path-196-inside-60_21_215)"/>
<mask id="path-198-inside-61_21_215" fill="white">
<path d="M600 184H616V186H600V184Z"/>
</mask>
<path d="M600 184H616V186H600V184Z" fill="#262626"/>
<path d="M600 184V183H599V184H600ZM616 184H617V183H616V184ZM616 186V187H617V186H616ZM600 186H599V187H600V186ZM600 184V185H616V184V183H600V184ZM616 184H615V186H616H617V184H616ZM616 186V185H600V186V187H616V186ZM600 186H601V184H600H599V186H600Z" fill="#41413F" mask="url(#path-198-inside-61_21_215)"/>
<mask id="path-200-inside-62_21_215" fill="white">
<path d="M600 188H616V190H600V188Z"/>
</mask>
<path d="M600 188H616V190H600V188Z" fill="#262626"/>
<path d="M600 188V187H599V188H600ZM616 188H617V187H616V188ZM616 190V191H617V190H616ZM600 190H599V191H600V190ZM600 188V189H616V188V187H600V188ZM616 188H615V190H616H617V188H616ZM616 190V189H600V190V191H616V190ZM600 190H601V188H600H599V190H600Z" fill="#41413F" mask="url(#path-200-inside-62_21_215)"/>
<mask id="path-202-inside-63_21_215" fill="white">
<path d="M600 172H616V174H600V172Z"/>
</mask>
<path d="M600 172H616V174H600V172Z" fill="#262626"/>
<path d="M600 172V171H599V172H600ZM616 172H617V171H616V172ZM616 174V175H617V174H616ZM600 174H599V175H600V174ZM600 172V173H616V172V171H600V172ZM616 172H615V174H616H617V172H616ZM616 174V173H600V174V175H616V174ZM600 174H601V172H600H599V174H600Z" fill="#41413F" mask="url(#path-202-inside-63_21_215)"/>
<mask id="path-204-inside-64_21_215" fill="white">
<path d="M600 160H616V162H600V160Z"/>
</mask>
<path d="M600 160H616V162H600V160Z" fill="#262626"/>
<path d="M600 160V159H599V160H600ZM616 160H617V159H616V160ZM616 162V163H617V162H616ZM600 162H599V163H600V162ZM600 160V161H616V160V159H600V160ZM616 160H615V162H616H617V160H616ZM616 162V161H600V162V163H616V162ZM600 162H601V160H600H599V162H600Z" fill="#41413F" mask="url(#path-204-inside-64_21_215)"/>
<mask id="path-206-inside-65_21_215" fill="white">
<path d="M600 164H616V166H600V164Z"/>
</mask>
<path d="M600 164H616V166H600V164Z" fill="#262626"/>
<path d="M600 164V163H599V164H600ZM616 164H617V163H616V164ZM616 166V167H617V166H616ZM600 166H599V167H600V166ZM600 164V165H616V164V163H600V164ZM616 164H615V166H616H617V164H616ZM616 166V165H600V166V167H616V166ZM600 166H601V164H600H599V166H600Z" fill="#41413F" mask="url(#path-206-inside-65_21_215)"/>
<mask id="path-208-inside-66_21_215" fill="white">
<path d="M600 168H616V170H600V168Z"/>
</mask>
<path d="M600 168H616V170H600V168Z" fill="#262626"/>
<path d="M600 168V167H599V168H600ZM616 168H617V167H616V168ZM616 170V171H617V170H616ZM600 170H599V171H600V170ZM600 168V169H616V168V167H600V168ZM616 168H615V170H616H617V168H616ZM616 170V169H600V170V171H616V170ZM600 170H601V168H600H599V170H600Z" fill="#41413F" mask="url(#path-208-inside-66_21_215)"/>
<mask id="path-210-inside-67_21_215" fill="white">
<path d="M621 157H641V197H621V157Z"/>
</mask>
<path d="M621 157H641V197H621V157Z" fill="#282929"/>
<path d="M641 157H640V197H641H642V157H641ZM621 197H622V157H621H620V197H621Z" fill="#41413F" mask="url(#path-210-inside-67_21_215)"/>
<mask id="path-212-inside-68_21_215" fill="white">
<path d="M623 192H639V194H623V192Z"/>
</mask>
<path d="M623 192H639V194H623V192Z" fill="#262626"/>
<path d="M623 192V191H622V192H623ZM639 192H640V191H639V192ZM639 194V195H640V194H639ZM623 194H622V195H623V194ZM623 192V193H639V192V191H623V192ZM639 192H638V194H639H640V192H639ZM639 194V193H623V194V195H639V194ZM623 194H624V192H623H622V194H623Z" fill="#41413F" mask="url(#path-212-inside-68_21_215)"/>
<mask id="path-214-inside-69_21_215" fill="white">
<path d="M623 178H639V176H623V178Z"/>
</mask>
<path d="M623 178H639V176H623V178Z" fill="#262626"/>
<path d="M623 178V179H622V178H623ZM639 178H640V179H639V178ZM639 176V175H640V176H639ZM623 176H622V175H623V176ZM623 178V177H639V178V179H623V178ZM639 178H638V176H639H640V178H639ZM639 176V177H623V176V175H639V176ZM623 176H624V178H623H622V176H623Z" fill="#41413F" mask="url(#path-214-inside-69_21_215)"/>
<mask id="path-216-inside-70_21_215" fill="white">
<path d="M623 180H639V182H623V180Z"/>
</mask>
<path d="M623 180H639V182H623V180Z" fill="#262626"/>
<path d="M623 180V179H622V180H623ZM639 180H640V179H639V180ZM639 182V183H640V182H639ZM623 182H622V183H623V182ZM623 180V181H639V180V179H623V180ZM639 180H638V182H639H640V180H639ZM639 182V181H623V182V183H639V182ZM623 182H624V180H623H622V182H623Z" fill="#41413F" mask="url(#path-216-inside-70_21_215)"/>
<mask id="path-218-inside-71_21_215" fill="white">
<path d="M623 184H639V186H623V184Z"/>
</mask>
<path d="M623 184H639V186H623V184Z" fill="#262626"/>
<path d="M623 184V183H622V184H623ZM639 184H640V183H639V184ZM639 186V187H640V186H639ZM623 186H622V187H623V186ZM623 184V185H639V184V183H623V184ZM639 184H638V186H639H640V184H639ZM639 186V185H623V186V187H639V186ZM623 186H624V184H623H622V186H623Z" fill="#41413F" mask="url(#path-218-inside-71_21_215)"/>
<mask id="path-220-inside-72_21_215" fill="white">
<path d="M623 188H639V190H623V188Z"/>
</mask>
<path d="M623 188H639V190H623V188Z" fill="#262626"/>
<path d="M623 188V187H622V188H623ZM639 188H640V187H639V188ZM639 190V191H640V190H639ZM623 190H622V191H623V190ZM623 188V189H639V188V187H623V188ZM639 188H638V190H639H640V188H639ZM639 190V189H623V190V191H639V190ZM623 190H624V188H623H622V190H623Z" fill="#41413F" mask="url(#path-220-inside-72_21_215)"/>
<mask id="path-222-inside-73_21_215" fill="white">
<path d="M623 172H639V174H623V172Z"/>
</mask>
<path d="M623 172H639V174H623V172Z" fill="#262626"/>
<path d="M623 172V171H622V172H623ZM639 172H640V171H639V172ZM639 174V175H640V174H639ZM623 174H622V175H623V174ZM623 172V173H639V172V171H623V172ZM639 172H638V174H639H640V172H639ZM639 174V173H623V174V175H639V174ZM623 174H624V172H623H622V174H623Z" fill="#41413F" mask="url(#path-222-inside-73_21_215)"/>
<mask id="path-224-inside-74_21_215" fill="white">
<path d="M623 160H639V162H623V160Z"/>
</mask>
<path d="M623 160H639V162H623V160Z" fill="#262626"/>
<path d="M623 160V159H622V160H623ZM639 160H640V159H639V160ZM639 162V163H640V162H639ZM623 162H622V163H623V162ZM623 160V161H639V160V159H623V160ZM639 160H638V162H639H640V160H639ZM639 162V161H623V162V163H639V162ZM623 162H624V160H623H622V162H623Z" fill="#41413F" mask="url(#path-224-inside-74_21_215)"/>
<mask id="path-226-inside-75_21_215" fill="white">
<path d="M623 164H639V166H623V164Z"/>
</mask>
<path d="M623 164H639V166H623V164Z" fill="#262626"/>
<path d="M623 164V163H622V164H623ZM639 164H640V163H639V164ZM639 166V167H640V166H639ZM623 166H622V167H623V166ZM623 164V165H639V164V163H623V164ZM639 164H638V166H639H640V164H639ZM639 166V165H623V166V167H639V166ZM623 166H624V164H623H622V166H623Z" fill="#41413F" mask="url(#path-226-inside-75_21_215)"/>
<mask id="path-228-inside-76_21_215" fill="white">
<path d="M623 168H639V170H623V168Z"/>
</mask>
<path d="M623 168H639V170H623V168Z" fill="#262626"/>
<path d="M623 168V167H622V168H623ZM639 168H640V167H639V168ZM639 170V171H640V170H639ZM623 170H622V171H623V170ZM623 168V169H639V168V167H623V168ZM639 168H638V170H639H640V168H639ZM639 170V169H623V170V171H639V170ZM623 170H624V168H623H622V170H623Z" fill="#41413F" mask="url(#path-228-inside-76_21_215)"/>
<mask id="path-230-inside-77_21_215" fill="white">
<path d="M452 166H504V197H452V166Z"/>
</mask>
<path d="M452 166H504V197H452V166Z" fill="#282929"/>
<path d="M452 166V165H451V166H452ZM504 166H505V165H504V166ZM504 197V198H505V197H504ZM452 197H451V198H452V197ZM452 166V167H504V166V165H452V166ZM504 166H503V197H504H505V166H504ZM504 197V196H452V197V198H504V197ZM452 197H453V166H452H451V197H452Z" fill="#41413F" mask="url(#path-230-inside-77_21_215)"/>
</svg>
