<svg width="700" height="450" viewBox="0 0 700 450" fill="none" xmlns="http://www.w3.org/2000/svg">
<rect width="700" height="450" fill="#282929"/>
<rect opacity="0.5" x="54.5" y="189.5" width="255" height="164" fill="#1A1A1A" stroke="#41413F"/>
<g opacity="0.5">
<rect x="54.5" y="58.5" width="206" height="131" fill="#262626" stroke="#41413F"/>
<rect x="88" y="157" width="43" height="16" fill="#262626" stroke="#41413F"/>
<rect x="88" y="76" width="43" height="16" fill="#262626" stroke="#41413F"/>
<rect x="88" y="103" width="43" height="16" fill="#262626" stroke="#41413F"/>
<rect x="88" y="130" width="43" height="16" fill="#262626" stroke="#41413F"/>
<rect x="198" y="157" width="43" height="16" fill="#262626" stroke="#41413F"/>
<rect x="198" y="76" width="43" height="16" fill="#262626" stroke="#41413F"/>
<rect x="198" y="103" width="43" height="16" fill="#262626" stroke="#41413F"/>
<rect x="198" y="130" width="43" height="16" fill="#262626" stroke="#41413F"/>
<rect x="143" y="157" width="43" height="16" fill="#262626" stroke="#41413F"/>
<rect x="143" y="76" width="43" height="16" fill="#262626" stroke="#41413F"/>
<rect x="143" y="103" width="43" height="16" fill="#262626" stroke="#41413F"/>
<rect x="143" y="130" width="43" height="16" fill="#262626" stroke="#41413F"/>
<g opacity="0.5">
<mask id="path-16-inside-1_21_541" fill="white">
<path d="M54 189.943H212V251H54V189.943Z"/>
</mask>
<path d="M54 189.943H212V251H54V189.943Z" fill="#262626"/>
<path d="M212 251V252H213V251H212ZM54 251H53V252H54V251ZM212 189.943H211V251H212H213V189.943H212ZM212 251V250H54V251V252H212V251ZM54 251H55V189.943H54H53V251H54Z" fill="#41413F" mask="url(#path-16-inside-1_21_541)"/>
</g>
<line x1="131.5" y1="189.943" x2="131.5" y2="251" stroke="#41413F"/>
<rect x="58.5" y="193.5" width="25" height="53" fill="#1E1E1E" stroke="#41413F"/>
<rect x="86.5" y="214.5" width="14" height="32" fill="#1E1E1E" stroke="#41413F"/>
<rect opacity="0.5" x="103.5" y="193.5" width="25" height="53" fill="#1E1E1E" stroke="#41413F"/>
<line x1="109.5" y1="76" x2="109.5" y2="92" stroke="#41413F"/>
<line x1="109.5" y1="103" x2="109.5" y2="119" stroke="#41413F"/>
<line x1="109.5" y1="130" x2="109.5" y2="146" stroke="#41413F"/>
<line x1="109.5" y1="157" x2="109.5" y2="173" stroke="#41413F"/>
<line x1="164.5" y1="76" x2="164.5" y2="92" stroke="#41413F"/>
<line x1="164.5" y1="103" x2="164.5" y2="119" stroke="#41413F"/>
<line x1="164.5" y1="157" x2="164.5" y2="173" stroke="#41413F"/>
<line x1="164.5" y1="130" x2="164.5" y2="146" stroke="#41413F"/>
<line x1="219.5" y1="76" x2="219.5" y2="92" stroke="#41413F"/>
<line x1="219.5" y1="103" x2="219.5" y2="119" stroke="#41413F"/>
<line x1="219.5" y1="130" x2="219.5" y2="146" stroke="#41413F"/>
<line x1="219.5" y1="157" x2="219.5" y2="172" stroke="#41413F"/>
<line x1="211" y1="211.5" x2="157" y2="211.5" stroke="#41413F"/>
<line x1="132" y1="211.5" x2="144" y2="211.5" stroke="#41413F"/>
<mask id="path-36-inside-2_21_541" fill="white">
<path d="M265 168H283V189H265V168Z"/>
</mask>
<path d="M265 168H283V189H265V168Z" fill="#262626"/>
<path d="M265 168V167H264V168H265ZM283 168H284V167H283V168ZM265 168V169H283V168V167H265V168ZM283 168H282V189H283H284V168H283ZM265 189H266V168H265H264V189H265Z" fill="#41413F" mask="url(#path-36-inside-2_21_541)"/>
<mask id="path-38-inside-3_21_541" fill="white">
<path d="M288 148H306V190H288V148Z"/>
</mask>
<path d="M288 148H306V190H288V148Z" fill="#262626"/>
<path d="M288 148V147H287V148H288ZM306 148H307V147H306V148ZM288 148V149H306V148V147H288V148ZM306 148H305V190H306H307V148H306ZM288 190H289V148H288H287V190H288Z" fill="#41413F" mask="url(#path-38-inside-3_21_541)"/>
<mask id="path-40-inside-4_21_541" fill="white">
<path d="M267 148H306V164H267V148Z"/>
</mask>
<path d="M267 148H306V164H267V148Z" fill="#262626"/>
<path d="M306 148H307V147H306V148ZM306 164V165H307V164H306ZM267 148V149H306V148V147H267V148ZM306 148H305V164H306H307V148H306ZM306 164V163H267V164V165H306V164Z" fill="#41413F" mask="url(#path-40-inside-4_21_541)"/>
<rect x="270" y="150" width="2" height="12" fill="#41413F"/>
<rect x="274" y="150" width="2" height="12" fill="#41413F"/>
<rect x="278" y="150" width="2" height="12" fill="#41413F"/>
<rect x="282" y="150" width="2" height="12" fill="#41413F"/>
<rect x="286" y="150" width="2" height="12" fill="#41413F"/>
<rect x="290" y="164" width="14" height="2" fill="#41413F"/>
<rect x="290" y="168" width="14" height="2" fill="#41413F"/>
<rect x="290" y="172" width="14" height="2" fill="#41413F"/>
<rect x="290" y="176" width="14" height="2" fill="#41413F"/>
<rect x="290" y="180" width="14" height="2" fill="#41413F"/>
<rect x="290" y="184" width="14" height="2" fill="#41413F"/>
</g>
<rect x="646.68" y="288.137" width="297" height="148" transform="rotate(179.86 646.68 288.137)" fill="#262626" stroke="#41413F"/>
<mask id="path-54-inside-5_21_541" fill="white">
<path d="M646.179 287.639L350.18 288.361L350.043 232.361L646.042 231.639L646.179 287.639Z"/>
</mask>
<path d="M646.179 287.639L350.18 288.361L350.043 232.361L646.042 231.639L646.179 287.639Z" fill="#1A1A1A"/>
<path d="M350.043 232.361L350.046 233.361L646.045 232.639L646.042 231.639L646.04 230.639L350.041 231.361L350.043 232.361Z" fill="#41413F" mask="url(#path-54-inside-5_21_541)"/>
<mask id="path-56-inside-6_21_541" fill="white">
<path d="M646.15 275.639L603.15 275.744L603.042 231.744L646.042 231.639L646.15 275.639Z"/>
</mask>
<path d="M646.15 275.639L603.15 275.744L603.042 231.744L646.042 231.639L646.15 275.639Z" fill="#262626"/>
<path d="M603.15 275.744L602.15 275.746L602.152 276.746L603.152 276.744L603.15 275.744ZM646.15 275.639L646.147 274.639L603.147 274.744L603.15 275.744L603.152 276.744L646.152 276.639L646.15 275.639ZM603.15 275.744L604.15 275.741L604.042 231.741L603.042 231.744L602.042 231.746L602.15 275.746L603.15 275.744Z" fill="#41413F" mask="url(#path-56-inside-6_21_541)"/>
<mask id="path-58-inside-7_21_541" fill="white">
<path d="M393.15 276.256L350.151 276.361L350.043 232.361L393.043 232.256L393.15 276.256Z"/>
</mask>
<path d="M393.15 276.256L350.151 276.361L350.043 232.361L393.043 232.256L393.15 276.256Z" fill="#262626"/>
<path d="M393.15 276.256L393.153 277.256L394.153 277.254L394.15 276.254L393.15 276.256ZM393.15 276.256L393.148 275.256L350.148 275.361L350.151 276.361L350.153 277.361L393.153 277.256L393.15 276.256ZM393.043 232.256L392.043 232.259L392.15 276.258L393.15 276.256L394.15 276.254L394.043 232.254L393.043 232.256Z" fill="#41413F" mask="url(#path-58-inside-7_21_541)"/>
<mask id="path-60-inside-8_21_541" fill="white">
<path d="M551.13 267.871L446.131 268.127L446.043 232.127L551.043 231.871L551.13 267.871Z"/>
</mask>
<path d="M551.13 267.871L446.131 268.127L446.043 232.127L551.043 231.871L551.13 267.871Z" fill="#262626"/>
<path d="M551.13 267.871L551.133 268.871L552.133 268.868L552.13 267.868L551.13 267.871ZM446.131 268.127L445.131 268.129L445.133 269.129L446.133 269.127L446.131 268.127ZM551.13 267.871L551.128 266.871L446.128 267.127L446.131 268.127L446.133 269.127L551.133 268.871L551.13 267.871ZM446.131 268.127L447.131 268.124L447.043 232.124L446.043 232.127L445.043 232.129L445.131 268.129L446.131 268.127ZM551.043 231.871L550.043 231.873L550.13 267.873L551.13 267.871L552.13 267.868L552.043 231.868L551.043 231.871Z" fill="#41413F" mask="url(#path-60-inside-8_21_541)"/>
<mask id="path-62-inside-9_21_541" fill="white">
<path d="M640.969 201.651L611.969 201.722L611.83 144.722L640.83 144.651L640.969 201.651Z"/>
</mask>
<path d="M640.969 201.651L611.969 201.722L611.83 144.722L640.83 144.651L640.969 201.651Z" fill="#41413F"/>
<path d="M640.969 201.651L640.972 202.651L641.972 202.649L641.969 201.649L640.969 201.651ZM611.969 201.722L610.969 201.724L610.972 202.724L611.972 202.722L611.969 201.722ZM611.83 144.722L611.828 143.722L610.828 143.724L610.83 144.724L611.83 144.722ZM640.83 144.651L641.83 144.649L641.828 143.649L640.828 143.651L640.83 144.651ZM640.969 201.651L640.967 200.651L611.967 200.722L611.969 201.722L611.972 202.722L640.972 202.651L640.969 201.651ZM611.969 201.722L612.969 201.719L612.83 144.72L611.83 144.722L610.83 144.724L610.969 201.724L611.969 201.722ZM611.83 144.722L611.833 145.722L640.832 145.651L640.83 144.651L640.828 143.651L611.828 143.722L611.83 144.722ZM640.83 144.651L639.83 144.654L639.969 201.654L640.969 201.651L641.969 201.649L641.83 144.649L640.83 144.651Z" fill="#1E1E1E" mask="url(#path-62-inside-9_21_541)"/>
<mask id="path-64-inside-10_21_541" fill="white">
<path d="M606.969 201.734L577.969 201.805L577.83 144.805L606.83 144.734L606.969 201.734Z"/>
</mask>
<path d="M606.969 201.734L577.969 201.805L577.83 144.805L606.83 144.734L606.969 201.734Z" fill="#41413F"/>
<path d="M606.969 201.734L606.972 202.734L607.972 202.732L607.969 201.732L606.969 201.734ZM577.969 201.805L576.969 201.807L576.972 202.807L577.972 202.805L577.969 201.805ZM577.83 144.805L577.828 143.805L576.828 143.807L576.83 144.807L577.83 144.805ZM606.83 144.734L607.83 144.732L607.828 143.732L606.828 143.734L606.83 144.734ZM606.969 201.734L606.967 200.734L577.967 200.805L577.969 201.805L577.972 202.805L606.972 202.734L606.969 201.734ZM577.969 201.805L578.969 201.802L578.83 144.803L577.83 144.805L576.83 144.807L576.969 201.807L577.969 201.805ZM577.83 144.805L577.833 145.805L606.833 145.734L606.83 144.734L606.828 143.734L577.828 143.805L577.83 144.805ZM606.83 144.734L605.83 144.737L605.969 201.736L606.969 201.734L607.969 201.732L607.83 144.732L606.83 144.734Z" fill="#1E1E1E" mask="url(#path-64-inside-10_21_541)"/>
<mask id="path-66-inside-11_21_541" fill="white">
<path d="M572.969 201.817L543.969 201.888L543.83 144.888L572.83 144.817L572.969 201.817Z"/>
</mask>
<path d="M572.969 201.817L543.969 201.888L543.83 144.888L572.83 144.817L572.969 201.817Z" fill="#41413F"/>
<path d="M572.969 201.817L572.972 202.817L573.972 202.815L573.969 201.815L572.969 201.817ZM543.969 201.888L542.969 201.89L542.972 202.89L543.972 202.888L543.969 201.888ZM543.83 144.888L543.828 143.888L542.828 143.89L542.83 144.89L543.83 144.888ZM572.83 144.817L573.83 144.815L573.828 143.815L572.828 143.817L572.83 144.817ZM572.969 201.817L572.967 200.817L543.967 200.888L543.969 201.888L543.972 202.888L572.972 202.817L572.969 201.817ZM543.969 201.888L544.969 201.885L544.83 144.886L543.83 144.888L542.83 144.89L542.969 201.89L543.969 201.888ZM543.83 144.888L543.833 145.888L572.833 145.817L572.83 144.817L572.828 143.817L543.828 143.888L543.83 144.888ZM572.83 144.817L571.83 144.82L571.969 201.819L572.969 201.817L573.969 201.815L573.83 144.815L572.83 144.817Z" fill="#1E1E1E" mask="url(#path-66-inside-11_21_541)"/>
<mask id="path-68-inside-12_21_541" fill="white">
<path d="M453.139 202L424.139 202.071L424 145.071L453 145L453.139 202Z"/>
</mask>
<path d="M453.139 202L424.139 202.071L424 145.071L453 145L453.139 202Z" fill="#41413F"/>
<path d="M453.139 202L453.141 203L454.141 202.997L454.139 201.997L453.139 202ZM424.139 202.071L423.139 202.073L423.141 203.073L424.141 203.071L424.139 202.071ZM424 145.071L423.997 144.071L422.997 144.073L423 145.073L424 145.071ZM453 145L454 144.998L453.997 143.998L452.997 144L453 145ZM453.139 202L453.136 201L424.136 201.071L424.139 202.071L424.141 203.071L453.141 203L453.139 202ZM424.139 202.071L425.139 202.068L425 145.068L424 145.071L423 145.073L423.139 202.073L424.139 202.071ZM424 145.071L424.002 146.071L453.002 146L453 145L452.997 144L423.997 144.071L424 145.071ZM453 145L452 145.002L452.139 202.002L453.139 202L454.139 201.997L454 144.998L453 145Z" fill="#1E1E1E" mask="url(#path-68-inside-12_21_541)"/>
<mask id="path-70-inside-13_21_541" fill="white">
<path d="M419.139 202.083L390.139 202.154L390 145.154L419 145.083L419.139 202.083Z"/>
</mask>
<path d="M419.139 202.083L390.139 202.154L390 145.154L419 145.083L419.139 202.083Z" fill="#41413F"/>
<path d="M419.139 202.083L419.141 203.083L420.141 203.08L420.139 202.08L419.139 202.083ZM390.139 202.154L389.139 202.156L389.141 203.156L390.141 203.154L390.139 202.154ZM390 145.154L389.997 144.154L388.997 144.156L389 145.156L390 145.154ZM419 145.083L420 145.081L419.997 144.081L418.997 144.083L419 145.083ZM419.139 202.083L419.136 201.083L390.137 201.154L390.139 202.154L390.141 203.154L419.141 203.083L419.139 202.083ZM390.139 202.154L391.139 202.151L391 145.151L390 145.154L389 145.156L389.139 202.156L390.139 202.154ZM390 145.154L390.002 146.154L419.002 146.083L419 145.083L418.997 144.083L389.997 144.154L390 145.154ZM419 145.083L418 145.085L418.139 202.085L419.139 202.083L420.139 202.08L420 145.081L419 145.083Z" fill="#1E1E1E" mask="url(#path-70-inside-13_21_541)"/>
<mask id="path-72-inside-14_21_541" fill="white">
<path d="M385.139 202.166L356.139 202.237L356 145.237L385 145.166L385.139 202.166Z"/>
</mask>
<path d="M385.139 202.166L356.139 202.237L356 145.237L385 145.166L385.139 202.166Z" fill="#41413F"/>
<path d="M385.139 202.166L385.141 203.166L386.141 203.163L386.139 202.163L385.139 202.166ZM356.139 202.237L355.139 202.239L355.142 203.239L356.142 203.237L356.139 202.237ZM356 145.237L355.998 144.237L354.998 144.239L355 145.239L356 145.237ZM385 145.166L386 145.164L385.997 144.164L384.997 144.166L385 145.166ZM385.139 202.166L385.137 201.166L356.137 201.237L356.139 202.237L356.142 203.237L385.141 203.166L385.139 202.166ZM356.139 202.237L357.139 202.234L357 145.234L356 145.237L355 145.239L355.139 202.239L356.139 202.237ZM356 145.237L356.002 146.237L385.002 146.166L385 145.166L384.997 144.166L355.998 144.237L356 145.237ZM385 145.166L384 145.168L384.139 202.168L385.139 202.166L386.139 202.163L386 145.164L385 145.166Z" fill="#1E1E1E" mask="url(#path-72-inside-14_21_541)"/>
<mask id="path-74-inside-15_21_541" fill="white">
<path d="M544.058 256L528.059 256.039L528 232.039L544 232L544.058 256Z"/>
</mask>
<path d="M544.058 256L528.059 256.039L528 232.039L544 232L544.058 256Z" fill="#282929"/>
<path d="M544.058 256L544.061 257L545.061 256.997L545.058 255.997L544.058 256ZM528.059 256.039L527.059 256.041L527.061 257.041L528.061 257.039L528.059 256.039ZM528 232.039L527.998 231.039L526.998 231.041L527 232.041L528 232.039ZM544 232L545 231.998L544.997 230.998L543.997 231L544 232ZM544.058 256L544.056 255L528.056 255.039L528.059 256.039L528.061 257.039L544.061 257L544.058 256ZM528.059 256.039L529.059 256.037L529 232.037L528 232.039L527 232.041L527.059 256.041L528.059 256.039ZM528 232.039L528.002 233.039L544.002 233L544 232L543.997 231L527.998 231.039L528 232.039ZM544 232L543 232.002L543.058 256.002L544.058 256L545.058 255.997L545 231.998L544 232Z" fill="#41413F" mask="url(#path-74-inside-15_21_541)"/>
<mask id="path-76-inside-16_21_541" fill="white">
<path d="M526.059 256.044L510.059 256.083L510 232.083L526 232.044L526.059 256.044Z"/>
</mask>
<path d="M526.059 256.044L510.059 256.083L510 232.083L526 232.044L526.059 256.044Z" fill="#282929"/>
<path d="M526.059 256.044L526.061 257.044L527.061 257.041L527.059 256.041L526.059 256.044ZM510.059 256.083L509.059 256.085L509.061 257.085L510.061 257.083L510.059 256.083ZM510 232.083L509.998 231.083L508.998 231.085L509 232.085L510 232.083ZM526 232.044L527 232.041L526.998 231.041L525.998 231.044L526 232.044ZM526.059 256.044L526.056 255.044L510.056 255.083L510.059 256.083L510.061 257.083L526.061 257.044L526.059 256.044ZM510.059 256.083L511.059 256.08L511 232.081L510 232.083L509 232.085L509.059 256.085L510.059 256.083ZM510 232.083L510.002 233.083L526.002 233.044L526 232.044L525.998 231.044L509.998 231.083L510 232.083ZM526 232.044L525 232.046L525.059 256.046L526.059 256.044L527.059 256.041L527 232.041L526 232.044Z" fill="#41413F" mask="url(#path-76-inside-16_21_541)"/>
<rect x="537.099" y="255.044" width="2" height="22" transform="rotate(179.86 537.099 255.044)" fill="#41413F"/>
<rect x="519.099" y="255.088" width="2" height="22" transform="rotate(179.86 519.099 255.088)" fill="#41413F"/>
<line x1="620.966" y1="200.2" x2="615.966" y2="200.212" stroke="#1E1E1E"/>
<line x1="581.966" y1="200.295" x2="586.966" y2="200.283" stroke="#1E1E1E"/>
<line x1="568.966" y1="200.327" x2="563.966" y2="200.339" stroke="#1E1E1E"/>
<line x1="379.966" y1="200.788" x2="374.966" y2="200.8" stroke="#1E1E1E"/>
<line x1="413.001" y1="200.5" x2="408.001" y2="200.512" stroke="#1E1E1E"/>
<line x1="447.001" y1="200.5" x2="442.001" y2="200.512" stroke="#1E1E1E"/>
<rect x="538.468" y="201.401" width="80" height="56" transform="rotate(179.86 538.468 201.401)" fill="#41413F" stroke="#1E1E1E"/>
<rect x="535.461" y="198.409" width="26" height="50" transform="rotate(179.86 535.461 198.409)" fill="#1E1E1E" stroke="#41413F"/>
<rect x="487.461" y="198.526" width="26" height="50" transform="rotate(179.86 487.461 198.526)" fill="#1E1E1E" stroke="#41413F"/>
<rect x="487.461" y="198.526" width="26" height="50" transform="rotate(179.86 487.461 198.526)" fill="#1E1E1E" stroke="#41413F"/>
<rect x="508.415" y="179.474" width="20" height="31" transform="rotate(179.86 508.415 179.474)" fill="#1E1E1E" stroke="#41413F"/>
<rect x="533.957" y="196.912" width="23" height="5" transform="rotate(179.86 533.957 196.912)" fill="#606060"/>
<rect x="485.957" y="197.029" width="23" height="5" transform="rotate(179.86 485.957 197.029)" fill="#606060"/>
<path d="M620.503 175.767C620.094 175.767 619.731 175.697 619.413 175.557C619.096 175.417 618.846 175.222 618.663 174.972C618.479 174.722 618.381 174.433 618.37 174.105H619.438C619.448 174.263 619.5 174.4 619.594 174.517C619.689 174.633 619.815 174.723 619.972 174.787C620.129 174.852 620.306 174.884 620.501 174.884C620.709 174.884 620.894 174.848 621.055 174.776C621.216 174.702 621.341 174.6 621.432 174.469C621.523 174.338 621.568 174.188 621.566 174.017C621.568 173.841 621.522 173.686 621.43 173.551C621.337 173.417 621.202 173.312 621.026 173.236C620.852 173.16 620.642 173.122 620.395 173.122H619.881V172.31H620.395C620.598 172.31 620.775 172.275 620.927 172.205C621.08 172.135 621.2 172.036 621.288 171.909C621.375 171.781 621.417 171.632 621.415 171.463C621.417 171.299 621.38 171.156 621.305 171.034C621.231 170.911 621.126 170.816 620.989 170.747C620.855 170.679 620.697 170.645 620.515 170.645C620.337 170.645 620.172 170.677 620.02 170.742C619.869 170.806 619.747 170.898 619.654 171.017C619.561 171.135 619.512 171.275 619.506 171.438H618.492C618.5 171.112 618.593 170.826 618.773 170.58C618.955 170.332 619.198 170.139 619.501 170C619.804 169.86 620.144 169.79 620.52 169.79C620.909 169.79 621.246 169.863 621.532 170.009C621.82 170.153 622.042 170.347 622.199 170.591C622.357 170.835 622.435 171.105 622.435 171.401C622.437 171.728 622.341 172.003 622.145 172.225C621.952 172.446 621.699 172.591 621.384 172.659V172.705C621.793 172.762 622.107 172.913 622.324 173.159C622.544 173.404 622.653 173.708 622.651 174.071C622.651 174.397 622.558 174.689 622.373 174.946C622.189 175.202 621.935 175.403 621.611 175.549C621.289 175.694 620.92 175.767 620.503 175.767ZM625.993 169.87V175.688H624.939V170.895H624.905L623.544 171.764V170.799L624.99 169.87H625.993ZM629.493 175.767C629.114 175.767 628.775 175.696 628.476 175.554C628.176 175.41 627.939 175.213 627.763 174.963C627.588 174.713 627.496 174.427 627.484 174.105H628.507C628.526 174.344 628.629 174.539 628.817 174.691C629.004 174.84 629.23 174.915 629.493 174.915C629.699 174.915 629.883 174.868 630.044 174.773C630.205 174.678 630.332 174.547 630.425 174.378C630.517 174.21 630.563 174.017 630.561 173.801C630.563 173.582 630.516 173.387 630.422 173.216C630.327 173.046 630.197 172.912 630.033 172.816C629.868 172.717 629.678 172.668 629.464 172.668C629.29 172.666 629.119 172.698 628.95 172.764C628.782 172.831 628.648 172.918 628.55 173.026L627.598 172.87L627.902 169.87H631.277V170.75H628.774L628.606 172.293H628.641C628.748 172.166 628.901 172.061 629.098 171.978C629.295 171.892 629.511 171.85 629.746 171.85C630.098 171.85 630.412 171.933 630.689 172.1C630.965 172.264 631.183 172.492 631.342 172.782C631.501 173.071 631.581 173.403 631.581 173.776C631.581 174.16 631.492 174.503 631.314 174.804C631.138 175.103 630.892 175.339 630.578 175.512C630.266 175.682 629.904 175.767 629.493 175.767Z" fill="#262626"/>
<path d="M552.504 175.933C552.095 175.933 551.731 175.863 551.413 175.723C551.096 175.583 550.846 175.388 550.663 175.138C550.479 174.888 550.382 174.599 550.37 174.271H551.438C551.448 174.428 551.5 174.566 551.595 174.683C551.689 174.799 551.815 174.889 551.972 174.953C552.13 175.018 552.306 175.05 552.501 175.05C552.709 175.05 552.894 175.014 553.055 174.942C553.216 174.868 553.342 174.766 553.433 174.635C553.524 174.504 553.568 174.354 553.566 174.183C553.568 174.007 553.523 173.852 553.43 173.717C553.337 173.583 553.203 173.478 553.026 173.402C552.852 173.326 552.642 173.288 552.396 173.288H551.882V172.476H552.396C552.598 172.476 552.775 172.441 552.927 172.371C553.08 172.301 553.201 172.202 553.288 172.075C553.375 171.946 553.417 171.798 553.416 171.629C553.417 171.464 553.381 171.321 553.305 171.2C553.231 171.077 553.126 170.982 552.989 170.913C552.855 170.845 552.697 170.811 552.515 170.811C552.337 170.811 552.172 170.843 552.021 170.908C551.869 170.972 551.747 171.064 551.654 171.183C551.561 171.301 551.512 171.441 551.507 171.604H550.492C550.5 171.278 550.594 170.992 550.774 170.746C550.955 170.498 551.198 170.304 551.501 170.166C551.804 170.026 552.144 169.956 552.521 169.956C552.909 169.956 553.246 170.029 553.532 170.175C553.82 170.319 554.042 170.513 554.2 170.757C554.357 171.001 554.435 171.271 554.435 171.567C554.437 171.894 554.341 172.169 554.146 172.391C553.953 172.612 553.699 172.757 553.384 172.825V172.871C553.793 172.928 554.107 173.079 554.325 173.325C554.544 173.57 554.653 173.874 554.651 174.237C554.651 174.563 554.559 174.855 554.373 175.112C554.189 175.368 553.935 175.569 553.612 175.714C553.29 175.86 552.92 175.933 552.504 175.933ZM557.993 170.036V175.854H556.939V171.061H556.905L555.544 171.93V170.964L556.99 170.036H557.993ZM561.558 175.933C561.149 175.933 560.786 175.863 560.467 175.723C560.151 175.583 559.901 175.388 559.717 175.138C559.534 174.888 559.436 174.599 559.425 174.271H560.493C560.502 174.428 560.555 174.566 560.649 174.683C560.744 174.799 560.87 174.889 561.027 174.953C561.184 175.018 561.36 175.05 561.556 175.05C561.764 175.05 561.949 175.014 562.109 174.942C562.27 174.868 562.396 174.766 562.487 174.635C562.578 174.504 562.623 174.354 562.621 174.183C562.623 174.007 562.577 173.852 562.484 173.717C562.392 173.583 562.257 173.478 562.081 173.402C561.907 173.326 561.697 173.288 561.45 173.288H560.936V172.476H561.45C561.653 172.476 561.83 172.441 561.982 172.371C562.135 172.301 562.255 172.202 562.342 172.075C562.43 171.946 562.472 171.798 562.47 171.629C562.472 171.464 562.435 171.321 562.359 171.2C562.286 171.077 562.181 170.982 562.044 170.913C561.91 170.845 561.752 170.811 561.57 170.811C561.392 170.811 561.227 170.843 561.075 170.908C560.924 170.972 560.802 171.064 560.709 171.183C560.616 171.301 560.567 171.441 560.561 171.604H559.547C559.555 171.278 559.648 170.992 559.828 170.746C560.01 170.498 560.252 170.304 560.556 170.166C560.859 170.026 561.199 169.956 561.575 169.956C561.964 169.956 562.301 170.029 562.587 170.175C562.875 170.319 563.097 170.513 563.254 170.757C563.412 171.001 563.49 171.271 563.49 171.567C563.492 171.894 563.395 172.169 563.2 172.391C563.007 172.612 562.753 172.757 562.439 172.825V172.871C562.848 172.928 563.162 173.079 563.379 173.325C563.599 173.57 563.708 173.874 563.706 174.237C563.706 174.563 563.613 174.855 563.428 175.112C563.244 175.368 562.99 175.569 562.666 175.714C562.344 175.86 561.975 175.933 561.558 175.933Z" fill="#262626"/>
<path d="M365.605 175.933C365.196 175.933 364.832 175.863 364.514 175.723C364.198 175.583 363.948 175.388 363.764 175.138C363.58 174.888 363.483 174.599 363.472 174.271H364.54C364.549 174.428 364.601 174.566 364.696 174.683C364.791 174.799 364.917 174.889 365.074 174.953C365.231 175.018 365.407 175.05 365.602 175.05C365.811 175.05 365.995 175.014 366.156 174.942C366.317 174.868 366.443 174.766 366.534 174.635C366.625 174.504 366.67 174.354 366.668 174.183C366.67 174.007 366.624 173.852 366.531 173.717C366.438 173.583 366.304 173.478 366.128 173.402C365.954 173.326 365.743 173.288 365.497 173.288H364.983V172.476H365.497C365.7 172.476 365.877 172.441 366.028 172.371C366.182 172.301 366.302 172.202 366.389 172.075C366.476 171.946 366.519 171.798 366.517 171.629C366.519 171.464 366.482 171.321 366.406 171.2C366.332 171.077 366.227 170.982 366.091 170.913C365.956 170.845 365.798 170.811 365.616 170.811C365.438 170.811 365.274 170.843 365.122 170.908C364.971 170.972 364.848 171.064 364.756 171.183C364.663 171.301 364.614 171.441 364.608 171.604H363.594C363.601 171.278 363.695 170.992 363.875 170.746C364.057 170.498 364.299 170.304 364.602 170.166C364.905 170.026 365.245 169.956 365.622 169.956C366.01 169.956 366.348 170.029 366.634 170.175C366.921 170.319 367.144 170.513 367.301 170.757C367.458 171.001 367.537 171.271 367.537 171.567C367.539 171.894 367.442 172.169 367.247 172.391C367.054 172.612 366.8 172.757 366.486 172.825V172.871C366.895 172.928 367.208 173.079 367.426 173.325C367.646 173.57 367.755 173.874 367.753 174.237C367.753 174.563 367.66 174.855 367.474 175.112C367.291 175.368 367.037 175.569 366.713 175.714C366.391 175.86 366.022 175.933 365.605 175.933ZM371.094 170.036V175.854H370.04V171.061H370.006L368.646 171.93V170.964L370.092 170.036H371.094ZM374.722 175.964C374.254 175.964 373.853 175.846 373.518 175.609C373.184 175.371 372.928 175.027 372.748 174.578C372.57 174.127 372.481 173.585 372.481 172.95C372.483 172.316 372.573 171.776 372.751 171.331C372.931 170.884 373.187 170.543 373.521 170.308C373.856 170.073 374.256 169.956 374.722 169.956C375.188 169.956 375.589 170.073 375.924 170.308C376.259 170.543 376.516 170.884 376.694 171.331C376.874 171.778 376.964 172.318 376.964 172.95C376.964 173.587 376.874 174.13 376.694 174.581C376.516 175.03 376.259 175.373 375.924 175.609C375.591 175.846 375.19 175.964 374.722 175.964ZM374.722 175.075C375.086 175.075 375.373 174.896 375.583 174.538C375.795 174.178 375.901 173.649 375.901 172.95C375.901 172.488 375.853 172.1 375.756 171.786C375.66 171.471 375.523 171.234 375.347 171.075C375.171 170.914 374.963 170.834 374.722 170.834C374.361 170.834 374.075 171.014 373.864 171.374C373.654 171.732 373.548 172.257 373.546 172.95C373.544 173.414 373.591 173.804 373.685 174.121C373.782 174.437 373.918 174.676 374.094 174.837C374.271 174.996 374.48 175.075 374.722 175.075Z" fill="#262626"/>
<path d="M433.605 176.08C433.196 176.08 432.832 176.009 432.514 175.869C432.198 175.729 431.948 175.534 431.764 175.284C431.58 175.034 431.483 174.745 431.472 174.418H432.54C432.549 174.575 432.601 174.712 432.696 174.83C432.791 174.945 432.917 175.035 433.074 175.099C433.231 175.164 433.407 175.196 433.602 175.196C433.811 175.196 433.995 175.16 434.156 175.088C434.317 175.014 434.443 174.912 434.534 174.781C434.625 174.651 434.67 174.5 434.668 174.33C434.67 174.153 434.624 173.998 434.531 173.864C434.438 173.729 434.304 173.624 434.128 173.548C433.954 173.473 433.743 173.435 433.497 173.435H432.983V172.622H433.497C433.7 172.622 433.877 172.587 434.028 172.517C434.182 172.447 434.302 172.348 434.389 172.222C434.476 172.093 434.519 171.944 434.517 171.776C434.519 171.611 434.482 171.468 434.406 171.347C434.332 171.223 434.227 171.128 434.091 171.06C433.956 170.991 433.798 170.957 433.616 170.957C433.438 170.957 433.274 170.99 433.122 171.054C432.971 171.118 432.848 171.21 432.756 171.33C432.663 171.447 432.614 171.587 432.608 171.75H431.594C431.601 171.424 431.695 171.138 431.875 170.892C432.057 170.644 432.299 170.451 432.602 170.312C432.905 170.172 433.245 170.102 433.622 170.102C434.01 170.102 434.348 170.175 434.634 170.321C434.921 170.465 435.144 170.659 435.301 170.903C435.458 171.148 435.537 171.418 435.537 171.713C435.539 172.041 435.442 172.315 435.247 172.537C435.054 172.759 434.8 172.903 434.486 172.972V173.017C434.895 173.074 435.208 173.225 435.426 173.472C435.646 173.716 435.755 174.02 435.753 174.384C435.753 174.709 435.66 175.001 435.474 175.259C435.291 175.514 435.037 175.715 434.713 175.861C434.391 176.007 434.022 176.08 433.605 176.08ZM439.094 170.182V176H438.04V171.207H438.006L436.646 172.077V171.111L438.092 170.182H439.094ZM440.572 176V175.239L442.592 173.259C442.785 173.063 442.946 172.89 443.075 172.739C443.203 172.587 443.3 172.44 443.364 172.298C443.429 172.156 443.461 172.005 443.461 171.844C443.461 171.66 443.419 171.503 443.336 171.372C443.253 171.24 443.138 171.137 442.992 171.065C442.846 170.993 442.681 170.957 442.495 170.957C442.304 170.957 442.136 170.997 441.992 171.077C441.848 171.154 441.737 171.265 441.657 171.409C441.579 171.553 441.54 171.724 441.54 171.923H440.538C440.538 171.554 440.622 171.233 440.79 170.96C440.959 170.687 441.191 170.476 441.487 170.327C441.784 170.177 442.125 170.102 442.509 170.102C442.899 170.102 443.242 170.175 443.538 170.321C443.833 170.467 444.062 170.667 444.225 170.92C444.39 171.174 444.472 171.464 444.472 171.79C444.472 172.008 444.431 172.222 444.347 172.432C444.264 172.642 444.117 172.875 443.907 173.131C443.699 173.386 443.406 173.696 443.029 174.06L442.026 175.08V175.119H444.56V176H440.572Z" fill="#262626"/>
<path d="M401.605 176.08C401.196 176.08 400.832 176.009 400.514 175.869C400.198 175.729 399.948 175.534 399.764 175.284C399.58 175.034 399.483 174.745 399.472 174.418H400.54C400.549 174.575 400.601 174.712 400.696 174.83C400.791 174.945 400.917 175.035 401.074 175.099C401.231 175.164 401.407 175.196 401.602 175.196C401.811 175.196 401.995 175.16 402.156 175.088C402.317 175.014 402.443 174.912 402.534 174.781C402.625 174.651 402.67 174.5 402.668 174.33C402.67 174.153 402.624 173.998 402.531 173.864C402.438 173.729 402.304 173.624 402.128 173.548C401.954 173.473 401.743 173.435 401.497 173.435H400.983V172.622H401.497C401.7 172.622 401.877 172.587 402.028 172.517C402.182 172.447 402.302 172.348 402.389 172.222C402.476 172.093 402.519 171.944 402.517 171.776C402.519 171.611 402.482 171.468 402.406 171.347C402.332 171.223 402.227 171.128 402.091 171.06C401.956 170.991 401.798 170.957 401.616 170.957C401.438 170.957 401.274 170.99 401.122 171.054C400.971 171.118 400.848 171.21 400.756 171.33C400.663 171.447 400.614 171.587 400.608 171.75H399.594C399.601 171.424 399.695 171.138 399.875 170.892C400.057 170.644 400.299 170.451 400.602 170.312C400.905 170.172 401.245 170.102 401.622 170.102C402.01 170.102 402.348 170.175 402.634 170.321C402.921 170.465 403.144 170.659 403.301 170.903C403.458 171.148 403.537 171.418 403.537 171.713C403.539 172.041 403.442 172.315 403.247 172.537C403.054 172.759 402.8 172.903 402.486 172.972V173.017C402.895 173.074 403.208 173.225 403.426 173.472C403.646 173.716 403.755 174.02 403.753 174.384C403.753 174.709 403.66 175.001 403.474 175.259C403.291 175.514 403.037 175.715 402.713 175.861C402.391 176.007 402.022 176.08 401.605 176.08ZM407.094 170.182V176H406.04V171.207H406.006L404.646 172.077V171.111L406.092 170.182H407.094ZM410.938 170.182V176H409.884V171.207H409.85L408.489 172.077V171.111L409.935 170.182H410.938Z" fill="#262626"/>
<path d="M586.504 175.85C586.094 175.85 585.731 175.78 585.413 175.64C585.096 175.5 584.846 175.305 584.663 175.055C584.479 174.805 584.381 174.516 584.37 174.188H585.438C585.448 174.346 585.5 174.483 585.594 174.6C585.689 174.716 585.815 174.806 585.972 174.87C586.129 174.935 586.306 174.967 586.501 174.967C586.709 174.967 586.894 174.931 587.055 174.859C587.216 174.785 587.342 174.683 587.433 174.552C587.523 174.421 587.568 174.271 587.566 174.1C587.568 173.924 587.522 173.769 587.43 173.634C587.337 173.5 587.202 173.395 587.026 173.319C586.852 173.243 586.642 173.205 586.396 173.205H585.881V172.393H586.396C586.598 172.393 586.775 172.358 586.927 172.288C587.08 172.218 587.201 172.119 587.288 171.992C587.375 171.864 587.417 171.715 587.415 171.546C587.417 171.382 587.38 171.239 587.305 171.117C587.231 170.994 587.126 170.899 586.989 170.83C586.855 170.762 586.697 170.728 586.515 170.728C586.337 170.728 586.172 170.76 586.021 170.825C585.869 170.889 585.747 170.981 585.654 171.1C585.561 171.218 585.512 171.358 585.506 171.521H584.492C584.5 171.195 584.594 170.909 584.773 170.663C584.955 170.415 585.198 170.221 585.501 170.083C585.804 169.943 586.144 169.873 586.521 169.873C586.909 169.873 587.246 169.946 587.532 170.092C587.82 170.236 588.042 170.43 588.2 170.674C588.357 170.918 588.435 171.188 588.435 171.484C588.437 171.811 588.341 172.086 588.146 172.308C587.952 172.529 587.699 172.674 587.384 172.742V172.788C587.793 172.845 588.107 172.996 588.325 173.242C588.544 173.487 588.653 173.791 588.651 174.154C588.651 174.48 588.558 174.772 588.373 175.029C588.189 175.285 587.935 175.486 587.612 175.632C587.29 175.777 586.92 175.85 586.504 175.85ZM591.993 169.953V175.771H590.939V170.978H590.905L589.544 171.847V170.882L590.99 169.953H591.993ZM593.365 174.691V173.853L595.834 169.953H596.533V171.146H596.107L594.445 173.779V173.825H597.891V174.691H593.365ZM596.141 175.771V174.435L596.152 174.06V169.953H597.146V175.771H596.141Z" fill="#262626"/>
<path d="M471.574 170.182H472.864L474.591 174.398H474.659L476.386 170.182H477.676V176H476.665V172.003H476.611L475.003 175.983H474.247L472.639 171.994H472.585V176H471.574V170.182Z" fill="#41413F"/>
<path d="M520.586 175.006V169.188H524.313V170.071H521.64V171.651H524.058V172.535H521.64V175.006H520.586Z" fill="#41413F"/>
<mask id="path-101-inside-17_21_541" fill="white">
<path d="M404.15 276.229L350.151 276.361L350.043 232.361L404.043 232.229L404.15 276.229Z"/>
</mask>
<path d="M404.15 276.229L350.151 276.361L350.043 232.361L404.043 232.229L404.15 276.229Z" fill="#262626"/>
<path d="M404.15 276.229L404.153 277.229L405.153 277.227L405.15 276.227L404.15 276.229ZM404.15 276.229L404.148 275.229L350.148 275.361L350.151 276.361L350.153 277.361L404.153 277.229L404.15 276.229ZM404.043 232.229L403.043 232.232L403.15 276.232L404.15 276.229L405.15 276.227L405.043 232.227L404.043 232.229Z" fill="#41413F" mask="url(#path-101-inside-17_21_541)"/>
<circle cx="468" cy="253" r="4.5" fill="#1E1E1E" stroke="#41413F"/>
<circle cx="490" cy="253" r="4.5" fill="#1E1E1E" stroke="#41413F"/>
<circle cx="468" cy="237" r="4.5" fill="#1E1E1E" stroke="#41413F"/>
<circle cx="490" cy="237" r="4.5" fill="#1E1E1E" stroke="#41413F"/>
<mask id="path-107-inside-18_21_541" fill="white">
<path d="M646.15 275.639L592.15 275.77L592.042 231.771L646.042 231.639L646.15 275.639Z"/>
</mask>
<path d="M646.15 275.639L592.15 275.77L592.042 231.771L646.042 231.639L646.15 275.639Z" fill="#262626"/>
<path d="M592.15 275.77L591.15 275.773L591.152 276.773L592.152 276.77L592.15 275.77ZM646.15 275.639L646.147 274.639L592.147 274.77L592.15 275.77L592.152 276.77L646.152 276.639L646.15 275.639ZM592.15 275.77L593.15 275.768L593.042 231.768L592.042 231.771L591.042 231.773L591.15 275.773L592.15 275.77Z" fill="#41413F" mask="url(#path-107-inside-18_21_541)"/>
<mask id="path-109-inside-19_21_541" fill="white">
<path d="M641.14 271.651L621.14 271.7L621.042 231.7L641.042 231.651L641.14 271.651Z"/>
</mask>
<path d="M641.14 271.651L621.14 271.7L621.042 231.7L641.042 231.651L641.14 271.651Z" fill="#282929"/>
<path d="M621.14 271.7L622.14 271.697L622.042 231.697L621.042 231.7L620.042 231.702L620.14 271.702L621.14 271.7ZM641.042 231.651L640.042 231.653L640.14 271.653L641.14 271.651L642.14 271.648L642.042 231.649L641.042 231.651Z" fill="#41413F" mask="url(#path-109-inside-19_21_541)"/>
<mask id="path-111-inside-20_21_541" fill="white">
<path d="M639.055 236.656L623.055 236.695L623.05 234.695L639.05 234.656L639.055 236.656Z"/>
</mask>
<path d="M639.055 236.656L623.055 236.695L623.05 234.695L639.05 234.656L639.055 236.656Z" fill="#262626"/>
<path d="M639.055 236.656L639.057 237.656L640.057 237.653L640.055 236.653L639.055 236.656ZM623.055 236.695L622.055 236.697L622.057 237.697L623.057 237.695L623.055 236.695ZM623.05 234.695L623.047 233.695L622.047 233.697L622.05 234.697L623.05 234.695ZM639.05 234.656L640.05 234.653L640.047 233.653L639.047 233.656L639.05 234.656ZM639.055 236.656L639.052 235.656L623.052 235.695L623.055 236.695L623.057 237.695L639.057 237.656L639.055 236.656ZM623.055 236.695L624.055 236.692L624.05 234.692L623.05 234.695L622.05 234.697L622.055 236.697L623.055 236.695ZM623.05 234.695L623.052 235.695L639.052 235.656L639.05 234.656L639.047 233.656L623.047 233.695L623.05 234.695ZM639.05 234.656L638.05 234.658L638.055 236.658L639.055 236.656L640.055 236.653L640.05 234.653L639.05 234.656Z" fill="#41413F" mask="url(#path-111-inside-20_21_541)"/>
<mask id="path-113-inside-21_21_541" fill="white">
<path d="M639.089 250.656L623.089 250.695L623.094 252.695L639.094 252.656L639.089 250.656Z"/>
</mask>
<path d="M639.089 250.656L623.089 250.695L623.094 252.695L639.094 252.656L639.089 250.656Z" fill="#262626"/>
<path d="M639.089 250.656L639.086 249.656L640.086 249.653L640.089 250.653L639.089 250.656ZM623.089 250.695L622.089 250.697L622.086 249.697L623.086 249.695L623.089 250.695ZM623.094 252.695L623.096 253.695L622.096 253.697L622.094 252.697L623.094 252.695ZM639.094 252.656L640.094 252.653L640.096 253.653L639.096 253.656L639.094 252.656ZM639.089 250.656L639.091 251.656L623.091 251.695L623.089 250.695L623.086 249.695L639.086 249.656L639.089 250.656ZM623.089 250.695L624.089 250.692L624.094 252.692L623.094 252.695L622.094 252.697L622.089 250.697L623.089 250.695ZM623.094 252.695L623.091 251.695L639.091 251.656L639.094 252.656L639.096 253.656L623.096 253.695L623.094 252.695ZM639.094 252.656L638.094 252.658L638.089 250.658L639.089 250.656L640.089 250.653L640.094 252.653L639.094 252.656Z" fill="#41413F" mask="url(#path-113-inside-21_21_541)"/>
<mask id="path-115-inside-22_21_541" fill="white">
<path d="M639.084 248.656L623.084 248.695L623.079 246.695L639.079 246.656L639.084 248.656Z"/>
</mask>
<path d="M639.084 248.656L623.084 248.695L623.079 246.695L639.079 246.656L639.084 248.656Z" fill="#262626"/>
<path d="M639.084 248.656L639.086 249.656L640.086 249.653L640.084 248.653L639.084 248.656ZM623.084 248.695L622.084 248.697L622.086 249.697L623.086 249.695L623.084 248.695ZM623.079 246.695L623.077 245.695L622.077 245.697L622.079 246.697L623.079 246.695ZM639.079 246.656L640.079 246.653L640.076 245.653L639.076 245.656L639.079 246.656ZM639.084 248.656L639.081 247.656L623.081 247.695L623.084 248.695L623.086 249.695L639.086 249.656L639.084 248.656ZM623.084 248.695L624.084 248.692L624.079 246.692L623.079 246.695L622.079 246.697L622.084 248.697L623.084 248.695ZM623.079 246.695L623.081 247.695L639.081 247.656L639.079 246.656L639.076 245.656L623.077 245.695L623.079 246.695ZM639.079 246.656L638.079 246.658L638.084 248.658L639.084 248.656L640.084 248.653L640.079 246.653L639.079 246.656Z" fill="#41413F" mask="url(#path-115-inside-22_21_541)"/>
<mask id="path-117-inside-23_21_541" fill="white">
<path d="M639.074 244.656L623.074 244.695L623.069 242.695L639.069 242.656L639.074 244.656Z"/>
</mask>
<path d="M639.074 244.656L623.074 244.695L623.069 242.695L639.069 242.656L639.074 244.656Z" fill="#262626"/>
<path d="M639.074 244.656L639.076 245.656L640.076 245.653L640.074 244.653L639.074 244.656ZM623.074 244.695L622.074 244.697L622.077 245.697L623.077 245.695L623.074 244.695ZM623.069 242.695L623.067 241.695L622.067 241.697L622.069 242.697L623.069 242.695ZM639.069 242.656L640.069 242.653L640.067 241.653L639.067 241.656L639.069 242.656ZM639.074 244.656L639.072 243.656L623.072 243.695L623.074 244.695L623.077 245.695L639.076 245.656L639.074 244.656ZM623.074 244.695L624.074 244.692L624.069 242.692L623.069 242.695L622.069 242.697L622.074 244.697L623.074 244.695ZM623.069 242.695L623.072 243.695L639.072 243.656L639.069 242.656L639.067 241.656L623.067 241.695L623.069 242.695ZM639.069 242.656L638.069 242.658L638.074 244.658L639.074 244.656L640.074 244.653L640.069 242.653L639.069 242.656Z" fill="#41413F" mask="url(#path-117-inside-23_21_541)"/>
<mask id="path-119-inside-24_21_541" fill="white">
<path d="M639.064 240.656L623.064 240.695L623.059 238.695L639.059 238.656L639.064 240.656Z"/>
</mask>
<path d="M639.064 240.656L623.064 240.695L623.059 238.695L639.059 238.656L639.064 240.656Z" fill="#262626"/>
<path d="M639.064 240.656L639.067 241.656L640.067 241.653L640.064 240.653L639.064 240.656ZM623.064 240.695L622.064 240.697L622.067 241.697L623.067 241.695L623.064 240.695ZM623.059 238.695L623.057 237.695L622.057 237.697L622.059 238.697L623.059 238.695ZM639.059 238.656L640.059 238.653L640.057 237.653L639.057 237.656L639.059 238.656ZM639.064 240.656L639.062 239.656L623.062 239.695L623.064 240.695L623.067 241.695L639.067 241.656L639.064 240.656ZM623.064 240.695L624.064 240.692L624.059 238.692L623.059 238.695L622.059 238.697L622.064 240.697L623.064 240.695ZM623.059 238.695L623.062 239.695L639.062 239.656L639.059 238.656L639.057 237.656L623.057 237.695L623.059 238.695ZM639.059 238.656L638.059 238.658L638.064 240.658L639.064 240.656L640.064 240.653L640.059 238.653L639.059 238.656Z" fill="#41413F" mask="url(#path-119-inside-24_21_541)"/>
<mask id="path-121-inside-25_21_541" fill="white">
<path d="M639.103 256.656L623.103 256.695L623.098 254.695L639.098 254.656L639.103 256.656Z"/>
</mask>
<path d="M639.103 256.656L623.103 256.695L623.098 254.695L639.098 254.656L639.103 256.656Z" fill="#262626"/>
<path d="M639.103 256.656L639.106 257.656L640.106 257.653L640.103 256.653L639.103 256.656ZM623.103 256.695L622.103 256.697L622.106 257.697L623.106 257.695L623.103 256.695ZM623.098 254.695L623.096 253.695L622.096 253.697L622.098 254.697L623.098 254.695ZM639.098 254.656L640.098 254.653L640.096 253.653L639.096 253.656L639.098 254.656ZM639.103 256.656L639.101 255.656L623.101 255.695L623.103 256.695L623.106 257.695L639.106 257.656L639.103 256.656ZM623.103 256.695L624.103 256.692L624.098 254.692L623.098 254.695L622.098 254.697L622.103 256.697L623.103 256.695ZM623.098 254.695L623.101 255.695L639.101 255.656L639.098 254.656L639.096 253.656L623.096 253.695L623.098 254.695ZM639.098 254.656L638.098 254.658L638.103 256.658L639.103 256.656L640.103 256.653L640.098 254.653L639.098 254.656Z" fill="#41413F" mask="url(#path-121-inside-25_21_541)"/>
<mask id="path-123-inside-26_21_541" fill="white">
<path d="M639.133 268.656L623.133 268.695L623.128 266.695L639.128 266.656L639.133 268.656Z"/>
</mask>
<path d="M639.133 268.656L623.133 268.695L623.128 266.695L639.128 266.656L639.133 268.656Z" fill="#262626"/>
<path d="M639.133 268.656L639.135 269.656L640.135 269.653L640.133 268.653L639.133 268.656ZM623.133 268.695L622.133 268.697L622.135 269.697L623.135 269.695L623.133 268.695ZM623.128 266.695L623.125 265.695L622.125 265.697L622.128 266.697L623.128 266.695ZM639.128 266.656L640.128 266.653L640.125 265.653L639.125 265.656L639.128 266.656ZM639.133 268.656L639.13 267.656L623.13 267.695L623.133 268.695L623.135 269.695L639.135 269.656L639.133 268.656ZM623.133 268.695L624.133 268.692L624.128 266.692L623.128 266.695L622.128 266.697L622.133 268.697L623.133 268.695ZM623.128 266.695L623.13 267.695L639.13 267.656L639.128 266.656L639.125 265.656L623.125 265.695L623.128 266.695ZM639.128 266.656L638.128 266.658L638.133 268.658L639.133 268.656L640.133 268.653L640.128 266.653L639.128 266.656Z" fill="#41413F" mask="url(#path-123-inside-26_21_541)"/>
<mask id="path-125-inside-27_21_541" fill="white">
<path d="M639.123 264.656L623.123 264.695L623.118 262.695L639.118 262.656L639.123 264.656Z"/>
</mask>
<path d="M639.123 264.656L623.123 264.695L623.118 262.695L639.118 262.656L639.123 264.656Z" fill="#262626"/>
<path d="M639.123 264.656L639.125 265.656L640.125 265.653L640.123 264.653L639.123 264.656ZM623.123 264.695L622.123 264.697L622.125 265.697L623.125 265.695L623.123 264.695ZM623.118 262.695L623.116 261.695L622.116 261.697L622.118 262.697L623.118 262.695ZM639.118 262.656L640.118 262.653L640.115 261.653L639.115 261.656L639.118 262.656ZM639.123 264.656L639.12 263.656L623.12 263.695L623.123 264.695L623.125 265.695L639.125 265.656L639.123 264.656ZM623.123 264.695L624.123 264.692L624.118 262.692L623.118 262.695L622.118 262.697L622.123 264.697L623.123 264.695ZM623.118 262.695L623.12 263.695L639.12 263.656L639.118 262.656L639.115 261.656L623.116 261.695L623.118 262.695ZM639.118 262.656L638.118 262.658L638.123 264.658L639.123 264.656L640.123 264.653L640.118 262.653L639.118 262.656Z" fill="#41413F" mask="url(#path-125-inside-27_21_541)"/>
<mask id="path-127-inside-28_21_541" fill="white">
<path d="M639.113 260.656L623.113 260.695L623.108 258.695L639.108 258.656L639.113 260.656Z"/>
</mask>
<path d="M639.113 260.656L623.113 260.695L623.108 258.695L639.108 258.656L639.113 260.656Z" fill="#262626"/>
<path d="M639.113 260.656L639.115 261.656L640.115 261.653L640.113 260.653L639.113 260.656ZM623.113 260.695L622.113 260.697L622.116 261.697L623.116 261.695L623.113 260.695ZM623.108 258.695L623.106 257.695L622.106 257.697L622.108 258.697L623.108 258.695ZM639.108 258.656L640.108 258.653L640.106 257.653L639.106 257.656L639.108 258.656ZM639.113 260.656L639.111 259.656L623.111 259.695L623.113 260.695L623.116 261.695L639.115 261.656L639.113 260.656ZM623.113 260.695L624.113 260.692L624.108 258.692L623.108 258.695L622.108 258.697L622.113 260.697L623.113 260.695ZM623.108 258.695L623.111 259.695L639.111 259.656L639.108 258.656L639.106 257.656L623.106 257.695L623.108 258.695ZM639.108 258.656L638.108 258.658L638.113 260.658L639.113 260.656L640.113 260.653L640.108 258.653L639.108 258.656Z" fill="#41413F" mask="url(#path-127-inside-28_21_541)"/>
<mask id="path-129-inside-29_21_541" fill="white">
<path d="M618.14 271.707L598.14 271.756L598.042 231.756L618.042 231.707L618.14 271.707Z"/>
</mask>
<path d="M618.14 271.707L598.14 271.756L598.042 231.756L618.042 231.707L618.14 271.707Z" fill="#282929"/>
<path d="M598.14 271.756L599.14 271.753L599.042 231.753L598.042 231.756L597.042 231.758L597.14 271.758L598.14 271.756ZM618.042 231.707L617.042 231.71L617.14 271.709L618.14 271.707L619.14 271.705L619.042 231.705L618.042 231.707Z" fill="#41413F" mask="url(#path-129-inside-29_21_541)"/>
<mask id="path-131-inside-30_21_541" fill="white">
<path d="M616.055 236.712L600.055 236.751L600.05 234.751L616.05 234.712L616.055 236.712Z"/>
</mask>
<path d="M616.055 236.712L600.055 236.751L600.05 234.751L616.05 234.712L616.055 236.712Z" fill="#262626"/>
<path d="M616.055 236.712L616.057 237.712L617.057 237.71L617.055 236.71L616.055 236.712ZM600.055 236.751L599.055 236.753L599.057 237.753L600.057 237.751L600.055 236.751ZM600.05 234.751L600.047 233.751L599.047 233.753L599.05 234.753L600.05 234.751ZM616.05 234.712L617.05 234.71L617.047 233.71L616.047 233.712L616.05 234.712ZM616.055 236.712L616.052 235.712L600.052 235.751L600.055 236.751L600.057 237.751L616.057 237.712L616.055 236.712ZM600.055 236.751L601.055 236.749L601.05 234.749L600.05 234.751L599.05 234.753L599.055 236.753L600.055 236.751ZM600.05 234.751L600.052 235.751L616.052 235.712L616.05 234.712L616.047 233.712L600.047 233.751L600.05 234.751ZM616.05 234.712L615.05 234.714L615.055 236.714L616.055 236.712L617.055 236.71L617.05 234.71L616.05 234.712Z" fill="#41413F" mask="url(#path-131-inside-30_21_541)"/>
<mask id="path-133-inside-31_21_541" fill="white">
<path d="M616.089 250.712L600.089 250.751L600.094 252.751L616.094 252.712L616.089 250.712Z"/>
</mask>
<path d="M616.089 250.712L600.089 250.751L600.094 252.751L616.094 252.712L616.089 250.712Z" fill="#262626"/>
<path d="M616.089 250.712L616.086 249.712L617.086 249.709L617.089 250.709L616.089 250.712ZM600.089 250.751L599.089 250.753L599.086 249.753L600.086 249.751L600.089 250.751ZM600.094 252.751L600.096 253.751L599.096 253.753L599.094 252.753L600.094 252.751ZM616.094 252.712L617.094 252.709L617.096 253.709L616.096 253.712L616.094 252.712ZM616.089 250.712L616.091 251.712L600.091 251.751L600.089 250.751L600.086 249.751L616.086 249.712L616.089 250.712ZM600.089 250.751L601.089 250.749L601.094 252.749L600.094 252.751L599.094 252.753L599.089 250.753L600.089 250.751ZM600.094 252.751L600.091 251.751L616.091 251.712L616.094 252.712L616.096 253.712L600.096 253.751L600.094 252.751ZM616.094 252.712L615.094 252.714L615.089 250.714L616.089 250.712L617.089 250.709L617.094 252.709L616.094 252.712Z" fill="#41413F" mask="url(#path-133-inside-31_21_541)"/>
<mask id="path-135-inside-32_21_541" fill="white">
<path d="M616.084 248.712L600.084 248.751L600.079 246.751L616.079 246.712L616.084 248.712Z"/>
</mask>
<path d="M616.084 248.712L600.084 248.751L600.079 246.751L616.079 246.712L616.084 248.712Z" fill="#262626"/>
<path d="M616.084 248.712L616.086 249.712L617.086 249.709L617.084 248.709L616.084 248.712ZM600.084 248.751L599.084 248.753L599.086 249.753L600.086 249.751L600.084 248.751ZM600.079 246.751L600.077 245.751L599.077 245.753L599.079 246.753L600.079 246.751ZM616.079 246.712L617.079 246.709L617.077 245.709L616.077 245.712L616.079 246.712ZM616.084 248.712L616.081 247.712L600.081 247.751L600.084 248.751L600.086 249.751L616.086 249.712L616.084 248.712ZM600.084 248.751L601.084 248.749L601.079 246.749L600.079 246.751L599.079 246.753L599.084 248.753L600.084 248.751ZM600.079 246.751L600.081 247.751L616.081 247.712L616.079 246.712L616.077 245.712L600.077 245.751L600.079 246.751ZM616.079 246.712L615.079 246.714L615.084 248.714L616.084 248.712L617.084 248.709L617.079 246.709L616.079 246.712Z" fill="#41413F" mask="url(#path-135-inside-32_21_541)"/>
<mask id="path-137-inside-33_21_541" fill="white">
<path d="M616.074 244.712L600.074 244.751L600.069 242.751L616.069 242.712L616.074 244.712Z"/>
</mask>
<path d="M616.074 244.712L600.074 244.751L600.069 242.751L616.069 242.712L616.074 244.712Z" fill="#262626"/>
<path d="M616.074 244.712L616.077 245.712L617.077 245.709L617.074 244.709L616.074 244.712ZM600.074 244.751L599.074 244.753L599.077 245.753L600.077 245.751L600.074 244.751ZM600.069 242.751L600.067 241.751L599.067 241.753L599.069 242.753L600.069 242.751ZM616.069 242.712L617.069 242.709L617.067 241.709L616.067 241.712L616.069 242.712ZM616.074 244.712L616.072 243.712L600.072 243.751L600.074 244.751L600.077 245.751L616.077 245.712L616.074 244.712ZM600.074 244.751L601.074 244.749L601.069 242.749L600.069 242.751L599.069 242.753L599.074 244.753L600.074 244.751ZM600.069 242.751L600.072 243.751L616.072 243.712L616.069 242.712L616.067 241.712L600.067 241.751L600.069 242.751ZM616.069 242.712L615.069 242.714L615.074 244.714L616.074 244.712L617.074 244.709L617.069 242.709L616.069 242.712Z" fill="#41413F" mask="url(#path-137-inside-33_21_541)"/>
<mask id="path-139-inside-34_21_541" fill="white">
<path d="M616.064 240.712L600.064 240.751L600.059 238.751L616.059 238.712L616.064 240.712Z"/>
</mask>
<path d="M616.064 240.712L600.064 240.751L600.059 238.751L616.059 238.712L616.064 240.712Z" fill="#262626"/>
<path d="M616.064 240.712L616.067 241.712L617.067 241.71L617.064 240.71L616.064 240.712ZM600.064 240.751L599.064 240.753L599.067 241.753L600.067 241.751L600.064 240.751ZM600.059 238.751L600.057 237.751L599.057 237.753L599.06 238.753L600.059 238.751ZM616.059 238.712L617.059 238.71L617.057 237.71L616.057 237.712L616.059 238.712ZM616.064 240.712L616.062 239.712L600.062 239.751L600.064 240.751L600.067 241.751L616.067 241.712L616.064 240.712ZM600.064 240.751L601.064 240.749L601.059 238.749L600.059 238.751L599.06 238.753L599.064 240.753L600.064 240.751ZM600.059 238.751L600.062 239.751L616.062 239.712L616.059 238.712L616.057 237.712L600.057 237.751L600.059 238.751ZM616.059 238.712L615.059 238.714L615.064 240.714L616.064 240.712L617.064 240.71L617.059 238.71L616.059 238.712Z" fill="#41413F" mask="url(#path-139-inside-34_21_541)"/>
<mask id="path-141-inside-35_21_541" fill="white">
<path d="M616.103 256.712L600.103 256.751L600.098 254.751L616.098 254.712L616.103 256.712Z"/>
</mask>
<path d="M616.103 256.712L600.103 256.751L600.098 254.751L616.098 254.712L616.103 256.712Z" fill="#262626"/>
<path d="M616.103 256.712L616.106 257.712L617.106 257.709L617.103 256.709L616.103 256.712ZM600.103 256.751L599.103 256.753L599.106 257.753L600.106 257.751L600.103 256.751ZM600.098 254.751L600.096 253.751L599.096 253.753L599.099 254.753L600.098 254.751ZM616.098 254.712L617.098 254.709L617.096 253.709L616.096 253.712L616.098 254.712ZM616.103 256.712L616.101 255.712L600.101 255.751L600.103 256.751L600.106 257.751L616.106 257.712L616.103 256.712ZM600.103 256.751L601.103 256.748L601.098 254.748L600.098 254.751L599.099 254.753L599.103 256.753L600.103 256.751ZM600.098 254.751L600.101 255.751L616.101 255.712L616.098 254.712L616.096 253.712L600.096 253.751L600.098 254.751ZM616.098 254.712L615.098 254.714L615.103 256.714L616.103 256.712L617.103 256.709L617.098 254.709L616.098 254.712Z" fill="#41413F" mask="url(#path-141-inside-35_21_541)"/>
<mask id="path-143-inside-36_21_541" fill="white">
<path d="M616.133 268.712L600.133 268.751L600.128 266.751L616.128 266.712L616.133 268.712Z"/>
</mask>
<path d="M616.133 268.712L600.133 268.751L600.128 266.751L616.128 266.712L616.133 268.712Z" fill="#262626"/>
<path d="M616.133 268.712L616.135 269.712L617.135 269.709L617.133 268.709L616.133 268.712ZM600.133 268.751L599.133 268.753L599.135 269.753L600.135 269.751L600.133 268.751ZM600.128 266.751L600.125 265.751L599.125 265.753L599.128 266.753L600.128 266.751ZM616.128 266.712L617.128 266.709L617.125 265.709L616.125 265.712L616.128 266.712ZM616.133 268.712L616.13 267.712L600.13 267.751L600.133 268.751L600.135 269.751L616.135 269.712L616.133 268.712ZM600.133 268.751L601.133 268.748L601.128 266.748L600.128 266.751L599.128 266.753L599.133 268.753L600.133 268.751ZM600.128 266.751L600.13 267.751L616.13 267.712L616.128 266.712L616.125 265.712L600.125 265.751L600.128 266.751ZM616.128 266.712L615.128 266.714L615.133 268.714L616.133 268.712L617.133 268.709L617.128 266.709L616.128 266.712Z" fill="#41413F" mask="url(#path-143-inside-36_21_541)"/>
<mask id="path-145-inside-37_21_541" fill="white">
<path d="M616.123 264.712L600.123 264.751L600.118 262.751L616.118 262.712L616.123 264.712Z"/>
</mask>
<path d="M616.123 264.712L600.123 264.751L600.118 262.751L616.118 262.712L616.123 264.712Z" fill="#262626"/>
<path d="M616.123 264.712L616.125 265.712L617.125 265.709L617.123 264.709L616.123 264.712ZM600.123 264.751L599.123 264.753L599.125 265.753L600.125 265.751L600.123 264.751ZM600.118 262.751L600.116 261.751L599.116 261.753L599.118 262.753L600.118 262.751ZM616.118 262.712L617.118 262.709L617.116 261.709L616.116 261.712L616.118 262.712ZM616.123 264.712L616.12 263.712L600.12 263.751L600.123 264.751L600.125 265.751L616.125 265.712L616.123 264.712ZM600.123 264.751L601.123 264.748L601.118 262.748L600.118 262.751L599.118 262.753L599.123 264.753L600.123 264.751ZM600.118 262.751L600.12 263.751L616.12 263.712L616.118 262.712L616.116 261.712L600.116 261.751L600.118 262.751ZM616.118 262.712L615.118 262.714L615.123 264.714L616.123 264.712L617.123 264.709L617.118 262.709L616.118 262.712Z" fill="#41413F" mask="url(#path-145-inside-37_21_541)"/>
<mask id="path-147-inside-38_21_541" fill="white">
<path d="M616.113 260.712L600.113 260.751L600.108 258.751L616.108 258.712L616.113 260.712Z"/>
</mask>
<path d="M616.113 260.712L600.113 260.751L600.108 258.751L616.108 258.712L616.113 260.712Z" fill="#262626"/>
<path d="M616.113 260.712L616.116 261.712L617.116 261.709L617.113 260.709L616.113 260.712ZM600.113 260.751L599.113 260.753L599.116 261.753L600.116 261.751L600.113 260.751ZM600.108 258.751L600.106 257.751L599.106 257.753L599.108 258.753L600.108 258.751ZM616.108 258.712L617.108 258.709L617.106 257.709L616.106 257.712L616.108 258.712ZM616.113 260.712L616.111 259.712L600.111 259.751L600.113 260.751L600.116 261.751L616.116 261.712L616.113 260.712ZM600.113 260.751L601.113 260.748L601.108 258.748L600.108 258.751L599.108 258.753L599.113 260.753L600.113 260.751ZM600.108 258.751L600.111 259.751L616.111 259.712L616.108 258.712L616.106 257.712L600.106 257.751L600.108 258.751ZM616.108 258.712L615.108 258.714L615.113 260.714L616.113 260.712L617.113 260.709L617.108 258.709L616.108 258.712Z" fill="#41413F" mask="url(#path-147-inside-38_21_541)"/>
<mask id="path-149-inside-39_21_541" fill="white">
<path d="M398.141 272.244L378.141 272.293L378.043 232.293L398.043 232.244L398.141 272.244Z"/>
</mask>
<path d="M398.141 272.244L378.141 272.293L378.043 232.293L398.043 232.244L398.141 272.244Z" fill="#282929"/>
<path d="M378.141 272.293L379.141 272.29L379.043 232.29L378.043 232.293L377.043 232.295L377.141 272.295L378.141 272.293ZM398.043 232.244L397.043 232.246L397.141 272.246L398.141 272.244L399.141 272.241L399.043 232.242L398.043 232.244Z" fill="#41413F" mask="url(#path-149-inside-39_21_541)"/>
<mask id="path-151-inside-40_21_541" fill="white">
<path d="M396.055 237.249L380.055 237.288L380.05 235.288L396.05 235.249L396.055 237.249Z"/>
</mask>
<path d="M396.055 237.249L380.055 237.288L380.05 235.288L396.05 235.249L396.055 237.249Z" fill="#262626"/>
<path d="M396.055 237.249L396.058 238.249L397.058 238.246L397.055 237.246L396.055 237.249ZM380.055 237.288L379.055 237.29L379.058 238.29L380.058 238.288L380.055 237.288ZM380.05 235.288L380.048 234.288L379.048 234.29L379.05 235.29L380.05 235.288ZM396.05 235.249L397.05 235.246L397.048 234.246L396.048 234.249L396.05 235.249ZM396.055 237.249L396.053 236.249L380.053 236.288L380.055 237.288L380.058 238.288L396.058 238.249L396.055 237.249ZM380.055 237.288L381.055 237.285L381.05 235.285L380.05 235.288L379.05 235.29L379.055 237.29L380.055 237.288ZM380.05 235.288L380.053 236.288L396.053 236.249L396.05 235.249L396.048 234.249L380.048 234.288L380.05 235.288ZM396.05 235.249L395.05 235.251L395.055 237.251L396.055 237.249L397.055 237.246L397.05 235.246L396.05 235.249Z" fill="#41413F" mask="url(#path-151-inside-40_21_541)"/>
<mask id="path-153-inside-41_21_541" fill="white">
<path d="M396.089 251.249L380.089 251.288L380.094 253.288L396.094 253.249L396.089 251.249Z"/>
</mask>
<path d="M396.089 251.249L380.089 251.288L380.094 253.288L396.094 253.249L396.089 251.249Z" fill="#262626"/>
<path d="M396.089 251.249L396.087 250.249L397.087 250.246L397.089 251.246L396.089 251.249ZM380.089 251.288L379.089 251.29L379.087 250.29L380.087 250.288L380.089 251.288ZM380.094 253.288L380.097 254.288L379.097 254.29L379.094 253.29L380.094 253.288ZM396.094 253.249L397.094 253.246L397.097 254.246L396.097 254.249L396.094 253.249ZM396.089 251.249L396.092 252.249L380.092 252.288L380.089 251.288L380.087 250.288L396.087 250.249L396.089 251.249ZM380.089 251.288L381.089 251.285L381.094 253.285L380.094 253.288L379.094 253.29L379.089 251.29L380.089 251.288ZM380.094 253.288L380.092 252.288L396.092 252.249L396.094 253.249L396.097 254.249L380.097 254.288L380.094 253.288ZM396.094 253.249L395.094 253.251L395.089 251.251L396.089 251.249L397.089 251.246L397.094 253.246L396.094 253.249Z" fill="#41413F" mask="url(#path-153-inside-41_21_541)"/>
<mask id="path-155-inside-42_21_541" fill="white">
<path d="M396.085 249.249L380.085 249.288L380.08 247.288L396.08 247.249L396.085 249.249Z"/>
</mask>
<path d="M396.085 249.249L380.085 249.288L380.08 247.288L396.08 247.249L396.085 249.249Z" fill="#262626"/>
<path d="M396.085 249.249L396.087 250.249L397.087 250.246L397.085 249.246L396.085 249.249ZM380.085 249.288L379.085 249.29L379.087 250.29L380.087 250.288L380.085 249.288ZM380.08 247.288L380.077 246.288L379.077 246.29L379.08 247.29L380.08 247.288ZM396.08 247.249L397.08 247.246L397.077 246.246L396.077 246.249L396.08 247.249ZM396.085 249.249L396.082 248.249L380.082 248.288L380.085 249.288L380.087 250.288L396.087 250.249L396.085 249.249ZM380.085 249.288L381.085 249.285L381.08 247.285L380.08 247.288L379.08 247.29L379.085 249.29L380.085 249.288ZM380.08 247.288L380.082 248.288L396.082 248.249L396.08 247.249L396.077 246.249L380.077 246.288L380.08 247.288ZM396.08 247.249L395.08 247.251L395.085 249.251L396.085 249.249L397.085 249.246L397.08 247.246L396.08 247.249Z" fill="#41413F" mask="url(#path-155-inside-42_21_541)"/>
<mask id="path-157-inside-43_21_541" fill="white">
<path d="M396.075 245.249L380.075 245.288L380.07 243.288L396.07 243.249L396.075 245.249Z"/>
</mask>
<path d="M396.075 245.249L380.075 245.288L380.07 243.288L396.07 243.249L396.075 245.249Z" fill="#262626"/>
<path d="M396.075 245.249L396.077 246.249L397.077 246.246L397.075 245.246L396.075 245.249ZM380.075 245.288L379.075 245.29L379.077 246.29L380.077 246.288L380.075 245.288ZM380.07 243.288L380.067 242.288L379.067 242.29L379.07 243.29L380.07 243.288ZM396.07 243.249L397.07 243.246L397.067 242.246L396.067 242.249L396.07 243.249ZM396.075 245.249L396.072 244.249L380.072 244.288L380.075 245.288L380.077 246.288L396.077 246.249L396.075 245.249ZM380.075 245.288L381.075 245.285L381.07 243.285L380.07 243.288L379.07 243.29L379.075 245.29L380.075 245.288ZM380.07 243.288L380.072 244.288L396.072 244.249L396.07 243.249L396.067 242.249L380.067 242.288L380.07 243.288ZM396.07 243.249L395.07 243.251L395.075 245.251L396.075 245.249L397.075 245.246L397.07 243.246L396.07 243.249Z" fill="#41413F" mask="url(#path-157-inside-43_21_541)"/>
<mask id="path-159-inside-44_21_541" fill="white">
<path d="M396.065 241.249L380.065 241.288L380.06 239.288L396.06 239.249L396.065 241.249Z"/>
</mask>
<path d="M396.065 241.249L380.065 241.288L380.06 239.288L396.06 239.249L396.065 241.249Z" fill="#262626"/>
<path d="M396.065 241.249L396.067 242.249L397.067 242.246L397.065 241.246L396.065 241.249ZM380.065 241.288L379.065 241.29L379.067 242.29L380.067 242.288L380.065 241.288ZM380.06 239.288L380.058 238.288L379.058 238.29L379.06 239.29L380.06 239.288ZM396.06 239.249L397.06 239.246L397.058 238.246L396.058 238.249L396.06 239.249ZM396.065 241.249L396.063 240.249L380.063 240.288L380.065 241.288L380.067 242.288L396.067 242.249L396.065 241.249ZM380.065 241.288L381.065 241.285L381.06 239.285L380.06 239.288L379.06 239.29L379.065 241.29L380.065 241.288ZM380.06 239.288L380.063 240.288L396.063 240.249L396.06 239.249L396.058 238.249L380.058 238.288L380.06 239.288ZM396.06 239.249L395.06 239.251L395.065 241.251L396.065 241.249L397.065 241.246L397.06 239.246L396.06 239.249Z" fill="#41413F" mask="url(#path-159-inside-44_21_541)"/>
<mask id="path-161-inside-45_21_541" fill="white">
<path d="M396.104 257.249L380.104 257.288L380.099 255.288L396.099 255.249L396.104 257.249Z"/>
</mask>
<path d="M396.104 257.249L380.104 257.288L380.099 255.288L396.099 255.249L396.104 257.249Z" fill="#262626"/>
<path d="M396.104 257.249L396.106 258.249L397.106 258.246L397.104 257.246L396.104 257.249ZM380.104 257.288L379.104 257.29L379.107 258.29L380.107 258.288L380.104 257.288ZM380.099 255.288L380.097 254.288L379.097 254.29L379.099 255.29L380.099 255.288ZM396.099 255.249L397.099 255.246L397.097 254.246L396.097 254.249L396.099 255.249ZM396.104 257.249L396.102 256.249L380.102 256.288L380.104 257.288L380.107 258.288L396.106 258.249L396.104 257.249ZM380.104 257.288L381.104 257.285L381.099 255.285L380.099 255.288L379.099 255.29L379.104 257.29L380.104 257.288ZM380.099 255.288L380.102 256.288L396.102 256.249L396.099 255.249L396.097 254.249L380.097 254.288L380.099 255.288ZM396.099 255.249L395.099 255.251L395.104 257.251L396.104 257.249L397.104 257.246L397.099 255.246L396.099 255.249Z" fill="#41413F" mask="url(#path-161-inside-45_21_541)"/>
<mask id="path-163-inside-46_21_541" fill="white">
<path d="M396.133 269.249L380.133 269.288L380.128 267.288L396.128 267.249L396.133 269.249Z"/>
</mask>
<path d="M396.133 269.249L380.133 269.288L380.128 267.288L396.128 267.249L396.133 269.249Z" fill="#262626"/>
<path d="M396.133 269.249L396.136 270.249L397.136 270.246L397.133 269.246L396.133 269.249ZM380.133 269.288L379.133 269.29L379.136 270.29L380.136 270.288L380.133 269.288ZM380.128 267.288L380.126 266.288L379.126 266.29L379.128 267.29L380.128 267.288ZM396.128 267.249L397.128 267.246L397.126 266.246L396.126 266.249L396.128 267.249ZM396.133 269.249L396.131 268.249L380.131 268.288L380.133 269.288L380.136 270.288L396.136 270.249L396.133 269.249ZM380.133 269.288L381.133 269.285L381.128 267.285L380.128 267.288L379.128 267.29L379.133 269.29L380.133 269.288ZM380.128 267.288L380.131 268.288L396.131 268.249L396.128 267.249L396.126 266.249L380.126 266.288L380.128 267.288ZM396.128 267.249L395.128 267.251L395.133 269.251L396.133 269.249L397.133 269.246L397.128 267.246L396.128 267.249Z" fill="#41413F" mask="url(#path-163-inside-46_21_541)"/>
<mask id="path-165-inside-47_21_541" fill="white">
<path d="M396.124 265.249L380.124 265.288L380.119 263.288L396.119 263.249L396.124 265.249Z"/>
</mask>
<path d="M396.124 265.249L380.124 265.288L380.119 263.288L396.119 263.249L396.124 265.249Z" fill="#262626"/>
<path d="M396.124 265.249L396.126 266.249L397.126 266.246L397.124 265.246L396.124 265.249ZM380.124 265.288L379.124 265.29L379.126 266.29L380.126 266.288L380.124 265.288ZM380.119 263.288L380.116 262.288L379.116 262.29L379.119 263.29L380.119 263.288ZM396.119 263.249L397.119 263.246L397.116 262.246L396.116 262.249L396.119 263.249ZM396.124 265.249L396.121 264.249L380.121 264.288L380.124 265.288L380.126 266.288L396.126 266.249L396.124 265.249ZM380.124 265.288L381.124 265.285L381.119 263.285L380.119 263.288L379.119 263.29L379.124 265.29L380.124 265.288ZM380.119 263.288L380.121 264.288L396.121 264.249L396.119 263.249L396.116 262.249L380.116 262.288L380.119 263.288ZM396.119 263.249L395.119 263.251L395.124 265.251L396.124 265.249L397.124 265.246L397.119 263.246L396.119 263.249Z" fill="#41413F" mask="url(#path-165-inside-47_21_541)"/>
<mask id="path-167-inside-48_21_541" fill="white">
<path d="M396.114 261.249L380.114 261.288L380.109 259.288L396.109 259.249L396.114 261.249Z"/>
</mask>
<path d="M396.114 261.249L380.114 261.288L380.109 259.288L396.109 259.249L396.114 261.249Z" fill="#262626"/>
<path d="M396.114 261.249L396.116 262.249L397.116 262.246L397.114 261.246L396.114 261.249ZM380.114 261.288L379.114 261.29L379.116 262.29L380.116 262.288L380.114 261.288ZM380.109 259.288L380.107 258.288L379.107 258.29L379.109 259.29L380.109 259.288ZM396.109 259.249L397.109 259.246L397.106 258.246L396.106 258.249L396.109 259.249ZM396.114 261.249L396.111 260.249L380.111 260.288L380.114 261.288L380.116 262.288L396.116 262.249L396.114 261.249ZM380.114 261.288L381.114 261.285L381.109 259.285L380.109 259.288L379.109 259.29L379.114 261.29L380.114 261.288ZM380.109 259.288L380.111 260.288L396.111 260.249L396.109 259.249L396.106 258.249L380.107 258.288L380.109 259.288ZM396.109 259.249L395.109 259.251L395.114 261.251L396.114 261.249L397.114 261.246L397.109 259.246L396.109 259.249Z" fill="#41413F" mask="url(#path-167-inside-48_21_541)"/>
<mask id="path-169-inside-49_21_541" fill="white">
<path d="M375.141 272.3L355.141 272.349L355.043 232.349L375.043 232.3L375.141 272.3Z"/>
</mask>
<path d="M375.141 272.3L355.141 272.349L355.043 232.349L375.043 232.3L375.141 272.3Z" fill="#282929"/>
<path d="M355.141 272.349L356.141 272.346L356.043 232.346L355.043 232.349L354.043 232.351L354.141 272.351L355.141 272.349ZM375.043 232.3L374.043 232.303L374.141 272.302L375.141 272.3L376.141 272.298L376.043 232.298L375.043 232.3Z" fill="#41413F" mask="url(#path-169-inside-49_21_541)"/>
<mask id="path-171-inside-50_21_541" fill="white">
<path d="M373.055 237.305L357.055 237.344L357.05 235.344L373.05 235.305L373.055 237.305Z"/>
</mask>
<path d="M373.055 237.305L357.055 237.344L357.05 235.344L373.05 235.305L373.055 237.305Z" fill="#262626"/>
<path d="M373.055 237.305L373.058 238.305L374.058 238.303L374.055 237.303L373.055 237.305ZM357.055 237.344L356.055 237.346L356.058 238.346L357.058 238.344L357.055 237.344ZM357.05 235.344L357.048 234.344L356.048 234.346L356.05 235.346L357.05 235.344ZM373.05 235.305L374.05 235.303L374.048 234.303L373.048 234.305L373.05 235.305ZM373.055 237.305L373.053 236.305L357.053 236.344L357.055 237.344L357.058 238.344L373.058 238.305L373.055 237.305ZM357.055 237.344L358.055 237.342L358.05 235.342L357.05 235.344L356.05 235.346L356.055 237.346L357.055 237.344ZM357.05 235.344L357.053 236.344L373.053 236.305L373.05 235.305L373.048 234.305L357.048 234.344L357.05 235.344ZM373.05 235.305L372.05 235.307L372.055 237.307L373.055 237.305L374.055 237.303L374.05 235.303L373.05 235.305Z" fill="#41413F" mask="url(#path-171-inside-50_21_541)"/>
<mask id="path-173-inside-51_21_541" fill="white">
<path d="M373.089 251.305L357.089 251.344L357.094 253.344L373.094 253.305L373.089 251.305Z"/>
</mask>
<path d="M373.089 251.305L357.089 251.344L357.094 253.344L373.094 253.305L373.089 251.305Z" fill="#262626"/>
<path d="M373.089 251.305L373.087 250.305L374.087 250.302L374.089 251.302L373.089 251.305ZM357.089 251.344L356.089 251.346L356.087 250.346L357.087 250.344L357.089 251.344ZM357.094 253.344L357.097 254.344L356.097 254.346L356.094 253.346L357.094 253.344ZM373.094 253.305L374.094 253.302L374.097 254.302L373.097 254.305L373.094 253.305ZM373.089 251.305L373.092 252.305L357.092 252.344L357.089 251.344L357.087 250.344L373.087 250.305L373.089 251.305ZM357.089 251.344L358.089 251.342L358.094 253.341L357.094 253.344L356.094 253.346L356.089 251.346L357.089 251.344ZM357.094 253.344L357.092 252.344L373.092 252.305L373.094 253.305L373.097 254.305L357.097 254.344L357.094 253.344ZM373.094 253.305L372.094 253.307L372.089 251.307L373.089 251.305L374.089 251.302L374.094 253.302L373.094 253.305Z" fill="#41413F" mask="url(#path-173-inside-51_21_541)"/>
<mask id="path-175-inside-52_21_541" fill="white">
<path d="M373.085 249.305L357.085 249.344L357.08 247.344L373.08 247.305L373.085 249.305Z"/>
</mask>
<path d="M373.085 249.305L357.085 249.344L357.08 247.344L373.08 247.305L373.085 249.305Z" fill="#262626"/>
<path d="M373.085 249.305L373.087 250.305L374.087 250.302L374.085 249.302L373.085 249.305ZM357.085 249.344L356.085 249.346L356.087 250.346L357.087 250.344L357.085 249.344ZM357.08 247.344L357.077 246.344L356.077 246.346L356.08 247.346L357.08 247.344ZM373.08 247.305L374.08 247.302L374.077 246.302L373.077 246.305L373.08 247.305ZM373.085 249.305L373.082 248.305L357.082 248.344L357.085 249.344L357.087 250.344L373.087 250.305L373.085 249.305ZM357.085 249.344L358.085 249.342L358.08 247.342L357.08 247.344L356.08 247.346L356.085 249.346L357.085 249.344ZM357.08 247.344L357.082 248.344L373.082 248.305L373.08 247.305L373.077 246.305L357.077 246.344L357.08 247.344ZM373.08 247.305L372.08 247.307L372.085 249.307L373.085 249.305L374.085 249.302L374.08 247.302L373.08 247.305Z" fill="#41413F" mask="url(#path-175-inside-52_21_541)"/>
<mask id="path-177-inside-53_21_541" fill="white">
<path d="M373.075 245.305L357.075 245.344L357.07 243.344L373.07 243.305L373.075 245.305Z"/>
</mask>
<path d="M373.075 245.305L357.075 245.344L357.07 243.344L373.07 243.305L373.075 245.305Z" fill="#262626"/>
<path d="M373.075 245.305L373.077 246.305L374.077 246.302L374.075 245.302L373.075 245.305ZM357.075 245.344L356.075 245.346L356.077 246.346L357.077 246.344L357.075 245.344ZM357.07 243.344L357.068 242.344L356.068 242.346L356.07 243.346L357.07 243.344ZM373.07 243.305L374.07 243.302L374.067 242.302L373.067 242.305L373.07 243.305ZM373.075 245.305L373.072 244.305L357.072 244.344L357.075 245.344L357.077 246.344L373.077 246.305L373.075 245.305ZM357.075 245.344L358.075 245.342L358.07 243.342L357.07 243.344L356.07 243.346L356.075 245.346L357.075 245.344ZM357.07 243.344L357.072 244.344L373.072 244.305L373.07 243.305L373.067 242.305L357.068 242.344L357.07 243.344ZM373.07 243.305L372.07 243.307L372.075 245.307L373.075 245.305L374.075 245.302L374.07 243.302L373.07 243.305Z" fill="#41413F" mask="url(#path-177-inside-53_21_541)"/>
<mask id="path-179-inside-54_21_541" fill="white">
<path d="M373.065 241.305L357.065 241.344L357.06 239.344L373.06 239.305L373.065 241.305Z"/>
</mask>
<path d="M373.065 241.305L357.065 241.344L357.06 239.344L373.06 239.305L373.065 241.305Z" fill="#262626"/>
<path d="M373.065 241.305L373.067 242.305L374.067 242.302L374.065 241.302L373.065 241.305ZM357.065 241.344L356.065 241.346L356.068 242.346L357.068 242.344L357.065 241.344ZM357.06 239.344L357.058 238.344L356.058 238.346L356.06 239.346L357.06 239.344ZM373.06 239.305L374.06 239.302L374.058 238.303L373.058 238.305L373.06 239.305ZM373.065 241.305L373.063 240.305L357.063 240.344L357.065 241.344L357.068 242.344L373.067 242.305L373.065 241.305ZM357.065 241.344L358.065 241.342L358.06 239.342L357.06 239.344L356.06 239.346L356.065 241.346L357.065 241.344ZM357.06 239.344L357.063 240.344L373.063 240.305L373.06 239.305L373.058 238.305L357.058 238.344L357.06 239.344ZM373.06 239.305L372.06 239.307L372.065 241.307L373.065 241.305L374.065 241.302L374.06 239.302L373.06 239.305Z" fill="#41413F" mask="url(#path-179-inside-54_21_541)"/>
<mask id="path-181-inside-55_21_541" fill="white">
<path d="M373.104 257.305L357.104 257.344L357.099 255.344L373.099 255.305L373.104 257.305Z"/>
</mask>
<path d="M373.104 257.305L357.104 257.344L357.099 255.344L373.099 255.305L373.104 257.305Z" fill="#262626"/>
<path d="M373.104 257.305L373.107 258.305L374.107 258.302L374.104 257.302L373.104 257.305ZM357.104 257.344L356.104 257.346L356.107 258.346L357.107 258.344L357.104 257.344ZM357.099 255.344L357.097 254.344L356.097 254.346L356.099 255.346L357.099 255.344ZM373.099 255.305L374.099 255.302L374.097 254.302L373.097 254.305L373.099 255.305ZM373.104 257.305L373.102 256.305L357.102 256.344L357.104 257.344L357.107 258.344L373.107 258.305L373.104 257.305ZM357.104 257.344L358.104 257.341L358.099 255.341L357.099 255.344L356.099 255.346L356.104 257.346L357.104 257.344ZM357.099 255.344L357.102 256.344L373.102 256.305L373.099 255.305L373.097 254.305L357.097 254.344L357.099 255.344ZM373.099 255.305L372.099 255.307L372.104 257.307L373.104 257.305L374.104 257.302L374.099 255.302L373.099 255.305Z" fill="#41413F" mask="url(#path-181-inside-55_21_541)"/>
<mask id="path-183-inside-56_21_541" fill="white">
<path d="M373.133 269.305L357.133 269.344L357.129 267.344L373.128 267.305L373.133 269.305Z"/>
</mask>
<path d="M373.133 269.305L357.133 269.344L357.129 267.344L373.128 267.305L373.133 269.305Z" fill="#262626"/>
<path d="M373.133 269.305L373.136 270.305L374.136 270.302L374.133 269.302L373.133 269.305ZM357.133 269.344L356.133 269.346L356.136 270.346L357.136 270.344L357.133 269.344ZM357.129 267.344L357.126 266.344L356.126 266.346L356.129 267.346L357.129 267.344ZM373.128 267.305L374.128 267.302L374.126 266.302L373.126 266.305L373.128 267.305ZM373.133 269.305L373.131 268.305L357.131 268.344L357.133 269.344L357.136 270.344L373.136 270.305L373.133 269.305ZM357.133 269.344L358.133 269.341L358.129 267.341L357.129 267.344L356.129 267.346L356.133 269.346L357.133 269.344ZM357.129 267.344L357.131 268.344L373.131 268.305L373.128 267.305L373.126 266.305L357.126 266.344L357.129 267.344ZM373.128 267.305L372.128 267.307L372.133 269.307L373.133 269.305L374.133 269.302L374.128 267.302L373.128 267.305Z" fill="#41413F" mask="url(#path-183-inside-56_21_541)"/>
<mask id="path-185-inside-57_21_541" fill="white">
<path d="M373.124 265.305L357.124 265.344L357.119 263.344L373.119 263.305L373.124 265.305Z"/>
</mask>
<path d="M373.124 265.305L357.124 265.344L357.119 263.344L373.119 263.305L373.124 265.305Z" fill="#262626"/>
<path d="M373.124 265.305L373.126 266.305L374.126 266.302L374.124 265.302L373.124 265.305ZM357.124 265.344L356.124 265.346L356.126 266.346L357.126 266.344L357.124 265.344ZM357.119 263.344L357.116 262.344L356.116 262.346L356.119 263.346L357.119 263.344ZM373.119 263.305L374.119 263.302L374.116 262.302L373.116 262.305L373.119 263.305ZM373.124 265.305L373.121 264.305L357.121 264.344L357.124 265.344L357.126 266.344L373.126 266.305L373.124 265.305ZM357.124 265.344L358.124 265.341L358.119 263.341L357.119 263.344L356.119 263.346L356.124 265.346L357.124 265.344ZM357.119 263.344L357.121 264.344L373.121 264.305L373.119 263.305L373.116 262.305L357.116 262.344L357.119 263.344ZM373.119 263.305L372.119 263.307L372.124 265.307L373.124 265.305L374.124 265.302L374.119 263.302L373.119 263.305Z" fill="#41413F" mask="url(#path-185-inside-57_21_541)"/>
<mask id="path-187-inside-58_21_541" fill="white">
<path d="M373.114 261.305L357.114 261.344L357.109 259.344L373.109 259.305L373.114 261.305Z"/>
</mask>
<path d="M373.114 261.305L357.114 261.344L357.109 259.344L373.109 259.305L373.114 261.305Z" fill="#262626"/>
<path d="M373.114 261.305L373.116 262.305L374.116 262.302L374.114 261.302L373.114 261.305ZM357.114 261.344L356.114 261.346L356.116 262.346L357.116 262.344L357.114 261.344ZM357.109 259.344L357.107 258.344L356.107 258.346L356.109 259.346L357.109 259.344ZM373.109 259.305L374.109 259.302L374.107 258.302L373.107 258.305L373.109 259.305ZM373.114 261.305L373.111 260.305L357.111 260.344L357.114 261.344L357.116 262.344L373.116 262.305L373.114 261.305ZM357.114 261.344L358.114 261.341L358.109 259.341L357.109 259.344L356.109 259.346L356.114 261.346L357.114 261.344ZM357.109 259.344L357.111 260.344L373.111 260.305L373.109 259.305L373.107 258.305L357.107 258.344L357.109 259.344ZM373.109 259.305L372.109 259.307L372.114 261.307L373.114 261.305L374.114 261.302L374.109 259.302L373.109 259.305Z" fill="#41413F" mask="url(#path-187-inside-58_21_541)"/>
<g opacity="0.5">
<mask id="path-189-inside-59_21_541" fill="white">
<path d="M310 203H349V225H310V203Z"/>
</mask>
<path d="M310 203H349V225H310V203Z" fill="#262626"/>
<path d="M310 203V204H349V203V202H310V203ZM349 225V224H310V225V226H349V225Z" fill="#41413F" mask="url(#path-189-inside-59_21_541)"/>
</g>
<g opacity="0.5">
<mask id="path-191-inside-60_21_541" fill="white">
<path d="M452 289H543V385H452V289Z"/>
</mask>
<path d="M452 289H543V385H452V289Z" fill="#262626"/>
<path d="M543 385V386H544V385H543ZM452 385H451V386H452V385ZM543 289H542V385H543H544V289H543ZM543 385V384H452V385V386H543V385ZM452 385H453V289H452H451V385H452Z" fill="#41413F" mask="url(#path-191-inside-60_21_541)"/>
<mask id="path-193-inside-61_21_541" fill="white">
<path d="M455 380H540V382H455V380Z"/>
</mask>
<path d="M455 380H540V382H455V380Z" fill="#262626"/>
<path d="M455 380V379H454V380H455ZM540 380H541V379H540V380ZM540 382V383H541V382H540ZM455 382H454V383H455V382ZM455 380V381H540V380V379H455V380ZM540 380H539V382H540H541V380H540ZM540 382V381H455V382V383H540V382ZM455 382H456V380H455H454V382H455Z" fill="#41413F" mask="url(#path-193-inside-61_21_541)"/>
<mask id="path-195-inside-62_21_541" fill="white">
<path d="M455 375H540V377H455V375Z"/>
</mask>
<path d="M455 375H540V377H455V375Z" fill="#262626"/>
<path d="M455 375V374H454V375H455ZM540 375H541V374H540V375ZM540 377V378H541V377H540ZM455 377H454V378H455V377ZM455 375V376H540V375V374H455V375ZM540 375H539V377H540H541V375H540ZM540 377V376H455V377V378H540V377ZM455 377H456V375H455H454V377H455Z" fill="#41413F" mask="url(#path-195-inside-62_21_541)"/>
<mask id="path-197-inside-63_21_541" fill="white">
<path d="M455 360H540V362H455V360Z"/>
</mask>
<path d="M455 360H540V362H455V360Z" fill="#262626"/>
<path d="M455 360V359H454V360H455ZM540 360H541V359H540V360ZM540 362V363H541V362H540ZM455 362H454V363H455V362ZM455 360V361H540V360V359H455V360ZM540 360H539V362H540H541V360H540ZM540 362V361H455V362V363H540V362ZM455 362H456V360H455H454V362H455Z" fill="#41413F" mask="url(#path-197-inside-63_21_541)"/>
<mask id="path-199-inside-64_21_541" fill="white">
<path d="M455 370H540V372H455V370Z"/>
</mask>
<path d="M455 370H540V372H455V370Z" fill="#262626"/>
<path d="M455 370V369H454V370H455ZM540 370H541V369H540V370ZM540 372V373H541V372H540ZM455 372H454V373H455V372ZM455 370V371H540V370V369H455V370ZM540 370H539V372H540H541V370H540ZM540 372V371H455V372V373H540V372ZM455 372H456V370H455H454V372H455Z" fill="#41413F" mask="url(#path-199-inside-64_21_541)"/>
<mask id="path-201-inside-65_21_541" fill="white">
<path d="M455 365H540V367H455V365Z"/>
</mask>
<path d="M455 365H540V367H455V365Z" fill="#262626"/>
<path d="M455 365V364H454V365H455ZM540 365H541V364H540V365ZM540 367V368H541V367H540ZM455 367H454V368H455V367ZM455 365V366H540V365V364H455V365ZM540 365H539V367H540H541V365H540ZM540 367V366H455V367V368H540V367ZM455 367H456V365H455H454V367H455Z" fill="#41413F" mask="url(#path-201-inside-65_21_541)"/>
<mask id="path-203-inside-66_21_541" fill="white">
<path d="M310 300H452V322H310V300Z"/>
</mask>
<path d="M310 300H452V322H310V300Z" fill="#262626"/>
<path d="M310 300V301H452V300V299H310V300ZM452 322V321H310V322V323H452V322Z" fill="#41413F" mask="url(#path-203-inside-66_21_541)"/>
</g>
<path d="M472.861 219V210.273H476.134C476.804 210.273 477.366 210.398 477.821 210.648C478.278 210.898 478.624 211.241 478.857 211.679C479.092 212.114 479.21 212.608 479.21 213.162C479.21 213.722 479.092 214.219 478.857 214.653C478.621 215.088 478.273 215.43 477.812 215.68C477.352 215.928 476.786 216.051 476.112 216.051H473.943V214.751H475.899C476.291 214.751 476.612 214.683 476.862 214.547C477.112 214.411 477.297 214.223 477.416 213.984C477.538 213.746 477.599 213.472 477.599 213.162C477.599 212.852 477.538 212.58 477.416 212.344C477.297 212.108 477.111 211.925 476.858 211.794C476.608 211.661 476.286 211.594 475.891 211.594H474.442V219H472.861ZM480.515 219V212.455H482.058V219H480.515ZM481.291 211.526C481.047 211.526 480.836 211.445 480.66 211.283C480.484 211.118 480.396 210.92 480.396 210.69C480.396 210.457 480.484 210.26 480.66 210.098C480.836 209.933 481.047 209.851 481.291 209.851C481.538 209.851 481.748 209.933 481.922 210.098C482.098 210.26 482.186 210.457 482.186 210.69C482.186 210.92 482.098 211.118 481.922 211.283C481.748 211.445 481.538 211.526 481.291 211.526ZM488.817 214.185L487.411 214.338C487.371 214.196 487.302 214.062 487.202 213.938C487.106 213.812 486.975 213.712 486.81 213.635C486.646 213.558 486.444 213.52 486.205 213.52C485.884 213.52 485.614 213.589 485.396 213.729C485.18 213.868 485.073 214.048 485.076 214.27C485.073 214.46 485.143 214.615 485.285 214.734C485.43 214.854 485.668 214.952 486.001 215.028L487.117 215.267C487.737 215.401 488.197 215.612 488.498 215.902C488.802 216.192 488.955 216.571 488.958 217.04C488.955 217.452 488.835 217.815 488.596 218.131C488.36 218.443 488.032 218.687 487.612 218.864C487.191 219.04 486.708 219.128 486.163 219.128C485.362 219.128 484.717 218.96 484.228 218.625C483.739 218.287 483.448 217.817 483.354 217.214L484.859 217.07C484.927 217.365 485.072 217.588 485.293 217.739C485.515 217.889 485.803 217.964 486.158 217.964C486.525 217.964 486.819 217.889 487.04 217.739C487.265 217.588 487.377 217.402 487.377 217.18C487.377 216.993 487.305 216.838 487.16 216.716C487.018 216.594 486.796 216.5 486.495 216.435L485.379 216.2C484.751 216.07 484.286 215.849 483.985 215.54C483.684 215.227 483.535 214.832 483.538 214.355C483.535 213.952 483.644 213.602 483.866 213.307C484.09 213.009 484.401 212.778 484.799 212.616C485.2 212.452 485.661 212.369 486.184 212.369C486.951 212.369 487.555 212.533 487.995 212.859C488.438 213.186 488.712 213.628 488.817 214.185ZM493.085 219.128C492.446 219.128 491.892 218.987 491.423 218.706C490.955 218.425 490.591 218.031 490.332 217.526C490.077 217.02 489.949 216.429 489.949 215.753C489.949 215.077 490.077 214.484 490.332 213.976C490.591 213.467 490.955 213.072 491.423 212.791C491.892 212.51 492.446 212.369 493.085 212.369C493.724 212.369 494.278 212.51 494.747 212.791C495.216 213.072 495.578 213.467 495.834 213.976C496.092 214.484 496.222 215.077 496.222 215.753C496.222 216.429 496.092 217.02 495.834 217.526C495.578 218.031 495.216 218.425 494.747 218.706C494.278 218.987 493.724 219.128 493.085 219.128ZM493.094 217.892C493.44 217.892 493.73 217.797 493.963 217.607C494.196 217.413 494.369 217.155 494.483 216.831C494.599 216.507 494.658 216.146 494.658 215.749C494.658 215.348 494.599 214.986 494.483 214.662C494.369 214.335 494.196 214.075 493.963 213.882C493.73 213.689 493.44 213.592 493.094 213.592C492.739 213.592 492.443 213.689 492.207 213.882C491.974 214.075 491.8 214.335 491.683 214.662C491.57 214.986 491.513 215.348 491.513 215.749C491.513 216.146 491.57 216.507 491.683 216.831C491.8 217.155 491.974 217.413 492.207 217.607C492.443 217.797 492.739 217.892 493.094 217.892ZM503.797 219L505.229 210.273H506.422L504.99 219H503.797ZM499.864 216.75L500.064 215.557H506.78L506.58 216.75H499.864ZM500.729 219L502.161 210.273H503.354L501.922 219H500.729ZM500.371 213.716L500.567 212.523H507.283L507.087 213.716H500.371ZM511.439 219.166C510.737 219.166 510.135 218.989 509.632 218.634C509.132 218.276 508.747 217.76 508.477 217.087C508.21 216.411 508.077 215.597 508.077 214.645C508.08 213.693 508.214 212.884 508.482 212.216C508.751 211.545 509.136 211.034 509.636 210.682C510.139 210.33 510.74 210.153 511.439 210.153C512.138 210.153 512.739 210.33 513.241 210.682C513.744 211.034 514.129 211.545 514.396 212.216C514.666 212.886 514.801 213.696 514.801 214.645C514.801 215.599 514.666 216.415 514.396 217.091C514.129 217.764 513.744 218.278 513.241 218.634C512.741 218.989 512.141 219.166 511.439 219.166ZM511.439 217.832C511.984 217.832 512.415 217.564 512.73 217.027C513.048 216.487 513.207 215.693 513.207 214.645C513.207 213.952 513.135 213.369 512.99 212.898C512.845 212.426 512.641 212.071 512.376 211.832C512.112 211.591 511.8 211.47 511.439 211.47C510.896 211.47 510.467 211.74 510.152 212.28C509.837 212.817 509.678 213.605 509.675 214.645C509.672 215.341 509.741 215.926 509.884 216.401C510.028 216.875 510.233 217.233 510.497 217.474C510.761 217.713 511.075 217.832 511.439 217.832ZM519.349 219.119C518.735 219.119 518.19 219.014 517.713 218.804C517.238 218.594 516.863 218.301 516.588 217.926C516.312 217.551 516.166 217.118 516.149 216.626H517.751C517.765 216.862 517.843 217.068 517.985 217.244C518.127 217.418 518.316 217.553 518.552 217.649C518.788 217.746 519.052 217.794 519.345 217.794C519.657 217.794 519.934 217.74 520.176 217.632C520.417 217.521 520.606 217.368 520.743 217.172C520.879 216.976 520.946 216.75 520.943 216.494C520.946 216.23 520.877 215.997 520.738 215.795C520.599 215.594 520.397 215.436 520.133 215.322C519.872 215.209 519.556 215.152 519.187 215.152H518.416V213.933H519.187C519.491 213.933 519.757 213.881 519.984 213.776C520.214 213.67 520.395 213.523 520.525 213.332C520.656 213.139 520.72 212.916 520.717 212.663C520.72 212.416 520.664 212.202 520.551 212.02C520.44 211.835 520.282 211.692 520.078 211.589C519.876 211.487 519.639 211.436 519.366 211.436C519.099 211.436 518.852 211.484 518.625 211.581C518.397 211.678 518.214 211.815 518.075 211.994C517.936 212.17 517.862 212.381 517.853 212.625H516.332C516.343 212.136 516.484 211.707 516.754 211.338C517.027 210.966 517.39 210.676 517.845 210.469C518.299 210.259 518.809 210.153 519.375 210.153C519.957 210.153 520.463 210.263 520.892 210.482C521.324 210.697 521.657 210.989 521.893 211.355C522.129 211.722 522.247 212.126 522.247 212.57C522.25 213.061 522.105 213.473 521.812 213.805C521.522 214.138 521.142 214.355 520.67 214.457V214.526C521.284 214.611 521.754 214.838 522.081 215.207C522.41 215.574 522.574 216.03 522.571 216.575C522.571 217.064 522.431 217.501 522.153 217.888C521.877 218.271 521.497 218.572 521.011 218.791C520.528 219.01 519.974 219.119 519.349 219.119Z" fill="#41413F"/>
<rect opacity="0.5" x="54.5" y="69.5" width="22" height="109" fill="#1E1E1E" stroke="#41413F"/>
<rect opacity="0.5" x="138.5" y="189.5" width="66" height="7" fill="#1E1E1E" stroke="#41413F"/>
<rect opacity="0.5" x="160.5" y="207.5" width="9" height="4" fill="#1E1E1E" stroke="#41413F"/>
<rect opacity="0.5" x="177.5" y="207.5" width="9" height="4" fill="#1E1E1E" stroke="#41413F"/>
<rect opacity="0.5" x="194.5" y="207.5" width="10" height="4" fill="#1E1E1E" stroke="#41413F"/>
<rect opacity="0.5" x="59" y="194" width="24" height="5" fill="#606060"/>
<rect opacity="0.5" x="104" y="194" width="24" height="5" fill="#606060"/>
<line x1="273.5" y1="169" x2="273.5" y2="189" stroke="#41413F"/>
<line x1="274.5" y1="169" x2="274.5" y2="189" stroke="#41413F"/>
<line x1="289" y1="163.5" x2="305" y2="163.5" stroke="#262626"/>
<line x1="235" y1="188.5" x2="248" y2="188.5" stroke="#41413F"/>
<g opacity="0.5">
<mask id="path-217-inside-67_21_541" fill="white">
<path d="M63 319H80V346H63V319Z"/>
</mask>
<path d="M63 319H80V346H63V319Z" fill="#1E1E1E"/>
<path d="M80 319H79V346H80H81V319H80ZM63 346H64V319H63H62V346H63Z" fill="#41413F" mask="url(#path-217-inside-67_21_541)"/>
</g>
<g opacity="0.5">
<mask id="path-219-inside-68_21_541" fill="white">
<path d="M163 269H180V296H163V269Z"/>
</mask>
<path d="M163 269H180V296H163V269Z" fill="#1E1E1E"/>
<path d="M180 269H179V296H180H181V269H180ZM163 296H164V269H163H162V296H163Z" fill="#41413F" mask="url(#path-219-inside-68_21_541)"/>
</g>
<g opacity="0.5">
<mask id="path-221-inside-69_21_541" fill="white">
<path d="M138 269H155V296H138V269Z"/>
</mask>
<path d="M138 269H155V296H138V269Z" fill="#1E1E1E"/>
<path d="M155 269H154V296H155H156V269H155ZM138 296H139V269H138H137V296H138Z" fill="#41413F" mask="url(#path-221-inside-69_21_541)"/>
</g>
<g opacity="0.5">
<mask id="path-223-inside-70_21_541" fill="white">
<path d="M113 269H130V296H113V269Z"/>
</mask>
<path d="M113 269H130V296H113V269Z" fill="#1E1E1E"/>
<path d="M130 269H129V296H130H131V269H130ZM113 296H114V269H113H112V296H113Z" fill="#41413F" mask="url(#path-223-inside-70_21_541)"/>
</g>
<g opacity="0.5">
<mask id="path-225-inside-71_21_541" fill="white">
<path d="M88 269H105V296H88V269Z"/>
</mask>
<path d="M88 269H105V296H88V269Z" fill="#1E1E1E"/>
<path d="M105 269H104V296H105H106V269H105ZM88 296H89V269H88H87V296H88Z" fill="#41413F" mask="url(#path-225-inside-71_21_541)"/>
</g>
<g opacity="0.5">
<mask id="path-227-inside-72_21_541" fill="white">
<path d="M63 269H80V296H63V269Z"/>
</mask>
<path d="M63 269H80V296H63V269Z" fill="#1E1E1E"/>
<path d="M80 269H79V296H80H81V269H80ZM63 296H64V269H63H62V296H63Z" fill="#41413F" mask="url(#path-227-inside-72_21_541)"/>
</g>
<g opacity="0.5">
<mask id="path-229-inside-73_21_541" fill="white">
<path d="M188 319H205V346H188V319Z"/>
</mask>
<path d="M188 319H205V346H188V319Z" fill="#1E1E1E"/>
<path d="M205 319H204V346H205H206V319H205ZM188 346H189V319H188H187V346H188Z" fill="#41413F" mask="url(#path-229-inside-73_21_541)"/>
</g>
<g opacity="0.5">
<mask id="path-231-inside-74_21_541" fill="white">
<path d="M163 319H180V346H163V319Z"/>
</mask>
<path d="M163 319H180V346H163V319Z" fill="#1E1E1E"/>
<path d="M180 319H179V346H180H181V319H180ZM163 346H164V319H163H162V346H163Z" fill="#41413F" mask="url(#path-231-inside-74_21_541)"/>
</g>
<g opacity="0.5">
<mask id="path-233-inside-75_21_541" fill="white">
<path d="M138 319H155V346H138V319Z"/>
</mask>
<path d="M138 319H155V346H138V319Z" fill="#1E1E1E"/>
<path d="M155 319H154V346H155H156V319H155ZM138 346H139V319H138H137V346H138Z" fill="#41413F" mask="url(#path-233-inside-75_21_541)"/>
</g>
<g opacity="0.5">
<mask id="path-235-inside-76_21_541" fill="white">
<path d="M113 319H130V346H113V319Z"/>
</mask>
<path d="M113 319H130V346H113V319Z" fill="#1E1E1E"/>
<path d="M130 319H129V346H130H131V319H130ZM113 346H114V319H113H112V346H113Z" fill="#41413F" mask="url(#path-235-inside-76_21_541)"/>
</g>
<g opacity="0.5">
<mask id="path-237-inside-77_21_541" fill="white">
<path d="M88 319H105V346H88V319Z"/>
</mask>
<path d="M88 319H105V346H88V319Z" fill="#1E1E1E"/>
<path d="M105 319H104V346H105H106V319H105ZM88 346H89V319H88H87V346H88Z" fill="#41413F" mask="url(#path-237-inside-77_21_541)"/>
</g>
</svg>
