<svg width="700" height="450" viewBox="0 0 700 450" fill="none" xmlns="http://www.w3.org/2000/svg">
<rect width="700" height="450" fill="#282929"/>
<rect opacity="0.5" x="54.5" y="189.5" width="255" height="164" fill="#1A1A1A" stroke="#41413F"/>
<rect x="54.5" y="93.5" width="206" height="96" fill="#262626" stroke="#41413F"/>
<g opacity="0.5">
<g opacity="0.5">
<mask id="path-4-inside-1_22_971" fill="white">
<path d="M54 189.943H212V251H54V189.943Z"/>
</mask>
<path d="M54 189.943H212V251H54V189.943Z" fill="#262626"/>
<path d="M212 251V252H213V251H212ZM54 251H53V252H54V251ZM212 189.943H211V251H212H213V189.943H212ZM212 251V250H54V251V252H212V251ZM54 251H55V189.943H54H53V251H54Z" fill="#41413F" mask="url(#path-4-inside-1_22_971)"/>
</g>
<line x1="131.5" y1="189.943" x2="131.5" y2="251" stroke="#41413F"/>
</g>
<rect opacity="0.5" x="58.5" y="193.5" width="25" height="53" fill="#1E1E1E" stroke="#41413F"/>
<rect opacity="0.5" x="86.5" y="214.5" width="14" height="32" fill="#1E1E1E" stroke="#41413F"/>
<rect opacity="0.5" x="103.5" y="193.5" width="25" height="53" fill="#1E1E1E" stroke="#41413F"/>
<line x1="211" y1="211.5" x2="157" y2="211.5" stroke="#41413F"/>
<line x1="132" y1="211.5" x2="144" y2="211.5" stroke="#41413F"/>
<mask id="path-12-inside-2_22_971" fill="white">
<path d="M265 168H283V189H265V168Z"/>
</mask>
<path d="M265 168H283V189H265V168Z" fill="#262626"/>
<path d="M265 168V167H264V168H265ZM283 168H284V167H283V168ZM265 168V169H283V168V167H265V168ZM283 168H282V189H283H284V168H283ZM265 189H266V168H265H264V189H265Z" fill="#41413F" mask="url(#path-12-inside-2_22_971)"/>
<mask id="path-14-inside-3_22_971" fill="white">
<path d="M288 148H306V190H288V148Z"/>
</mask>
<path d="M288 148H306V190H288V148Z" fill="#262626"/>
<path d="M288 148V147H287V148H288ZM306 148H307V147H306V148ZM288 148V149H306V148V147H288V148ZM306 148H305V190H306H307V148H306ZM288 190H289V148H288H287V190H288Z" fill="#41413F" mask="url(#path-14-inside-3_22_971)"/>
<mask id="path-16-inside-4_22_971" fill="white">
<path d="M267 148H306V164H267V148Z"/>
</mask>
<path d="M267 148H306V164H267V148Z" fill="#262626"/>
<path d="M306 148H307V147H306V148ZM306 164V165H307V164H306ZM267 148V149H306V148V147H267V148ZM306 148H305V164H306H307V148H306ZM306 164V163H267V164V165H306V164Z" fill="#41413F" mask="url(#path-16-inside-4_22_971)"/>
<rect x="270" y="150" width="2" height="12" fill="#41413F"/>
<rect x="274" y="150" width="2" height="12" fill="#41413F"/>
<rect x="278" y="150" width="2" height="12" fill="#41413F"/>
<rect x="282" y="150" width="2" height="12" fill="#41413F"/>
<rect x="286" y="150" width="2" height="12" fill="#41413F"/>
<rect x="290" y="164" width="14" height="2" fill="#41413F"/>
<rect x="290" y="168" width="14" height="2" fill="#41413F"/>
<rect x="290" y="172" width="14" height="2" fill="#41413F"/>
<rect x="290" y="176" width="14" height="2" fill="#41413F"/>
<rect x="290" y="180" width="14" height="2" fill="#41413F"/>
<rect x="290" y="184" width="14" height="2" fill="#41413F"/>
<rect x="646.68" y="288.137" width="297" height="148" transform="rotate(179.86 646.68 288.137)" fill="#262626" stroke="#41413F"/>
<mask id="path-30-inside-5_22_971" fill="white">
<path d="M646.179 287.639L350.18 288.361L350.043 232.361L646.042 231.639L646.179 287.639Z"/>
</mask>
<path d="M646.179 287.639L350.18 288.361L350.043 232.361L646.042 231.639L646.179 287.639Z" fill="#1A1A1A"/>
<path d="M350.043 232.361L350.046 233.361L646.045 232.639L646.042 231.639L646.04 230.639L350.041 231.361L350.043 232.361Z" fill="#41413F" mask="url(#path-30-inside-5_22_971)"/>
<mask id="path-32-inside-6_22_971" fill="white">
<path d="M646.15 275.639L603.15 275.744L603.042 231.744L646.042 231.639L646.15 275.639Z"/>
</mask>
<path d="M646.15 275.639L603.15 275.744L603.042 231.744L646.042 231.639L646.15 275.639Z" fill="#262626"/>
<path d="M603.15 275.744L602.15 275.746L602.152 276.746L603.152 276.744L603.15 275.744ZM646.15 275.639L646.147 274.639L603.147 274.744L603.15 275.744L603.152 276.744L646.152 276.639L646.15 275.639ZM603.15 275.744L604.15 275.741L604.042 231.741L603.042 231.744L602.042 231.746L602.15 275.746L603.15 275.744Z" fill="#41413F" mask="url(#path-32-inside-6_22_971)"/>
<mask id="path-34-inside-7_22_971" fill="white">
<path d="M393.15 276.256L350.151 276.361L350.043 232.361L393.043 232.256L393.15 276.256Z"/>
</mask>
<path d="M393.15 276.256L350.151 276.361L350.043 232.361L393.043 232.256L393.15 276.256Z" fill="#262626"/>
<path d="M393.15 276.256L393.153 277.256L394.153 277.254L394.15 276.254L393.15 276.256ZM393.15 276.256L393.148 275.256L350.148 275.361L350.151 276.361L350.153 277.361L393.153 277.256L393.15 276.256ZM393.043 232.256L392.043 232.259L392.15 276.258L393.15 276.256L394.15 276.254L394.043 232.254L393.043 232.256Z" fill="#41413F" mask="url(#path-34-inside-7_22_971)"/>
<mask id="path-36-inside-8_22_971" fill="white">
<path d="M551.13 267.871L446.131 268.127L446.043 232.127L551.043 231.871L551.13 267.871Z"/>
</mask>
<path d="M551.13 267.871L446.131 268.127L446.043 232.127L551.043 231.871L551.13 267.871Z" fill="#262626"/>
<path d="M551.13 267.871L551.133 268.871L552.133 268.868L552.13 267.868L551.13 267.871ZM446.131 268.127L445.131 268.129L445.133 269.129L446.133 269.127L446.131 268.127ZM551.13 267.871L551.128 266.871L446.128 267.127L446.131 268.127L446.133 269.127L551.133 268.871L551.13 267.871ZM446.131 268.127L447.131 268.124L447.043 232.124L446.043 232.127L445.043 232.129L445.131 268.129L446.131 268.127ZM551.043 231.871L550.043 231.873L550.13 267.873L551.13 267.871L552.13 267.868L552.043 231.868L551.043 231.871Z" fill="#41413F" mask="url(#path-36-inside-8_22_971)"/>
<mask id="path-38-inside-9_22_971" fill="white">
<path d="M640.969 201.651L611.969 201.722L611.83 144.722L640.83 144.651L640.969 201.651Z"/>
</mask>
<path d="M640.969 201.651L611.969 201.722L611.83 144.722L640.83 144.651L640.969 201.651Z" fill="#41413F"/>
<path d="M640.969 201.651L640.972 202.651L641.972 202.649L641.969 201.649L640.969 201.651ZM611.969 201.722L610.969 201.724L610.972 202.724L611.972 202.722L611.969 201.722ZM611.83 144.722L611.828 143.722L610.828 143.724L610.83 144.724L611.83 144.722ZM640.83 144.651L641.83 144.649L641.828 143.649L640.828 143.651L640.83 144.651ZM640.969 201.651L640.967 200.651L611.967 200.722L611.969 201.722L611.972 202.722L640.972 202.651L640.969 201.651ZM611.969 201.722L612.969 201.719L612.83 144.72L611.83 144.722L610.83 144.724L610.969 201.724L611.969 201.722ZM611.83 144.722L611.833 145.722L640.832 145.651L640.83 144.651L640.828 143.651L611.828 143.722L611.83 144.722ZM640.83 144.651L639.83 144.654L639.969 201.654L640.969 201.651L641.969 201.649L641.83 144.649L640.83 144.651Z" fill="#1E1E1E" mask="url(#path-38-inside-9_22_971)"/>
<mask id="path-40-inside-10_22_971" fill="white">
<path d="M606.969 201.734L577.969 201.805L577.83 144.805L606.83 144.734L606.969 201.734Z"/>
</mask>
<path d="M606.969 201.734L577.969 201.805L577.83 144.805L606.83 144.734L606.969 201.734Z" fill="#41413F"/>
<path d="M606.969 201.734L606.972 202.734L607.972 202.732L607.969 201.732L606.969 201.734ZM577.969 201.805L576.969 201.807L576.972 202.807L577.972 202.805L577.969 201.805ZM577.83 144.805L577.828 143.805L576.828 143.807L576.83 144.807L577.83 144.805ZM606.83 144.734L607.83 144.732L607.828 143.732L606.828 143.734L606.83 144.734ZM606.969 201.734L606.967 200.734L577.967 200.805L577.969 201.805L577.972 202.805L606.972 202.734L606.969 201.734ZM577.969 201.805L578.969 201.802L578.83 144.803L577.83 144.805L576.83 144.807L576.969 201.807L577.969 201.805ZM577.83 144.805L577.833 145.805L606.833 145.734L606.83 144.734L606.828 143.734L577.828 143.805L577.83 144.805ZM606.83 144.734L605.83 144.737L605.969 201.736L606.969 201.734L607.969 201.732L607.83 144.732L606.83 144.734Z" fill="#1E1E1E" mask="url(#path-40-inside-10_22_971)"/>
<mask id="path-42-inside-11_22_971" fill="white">
<path d="M572.969 201.817L543.969 201.888L543.83 144.888L572.83 144.817L572.969 201.817Z"/>
</mask>
<path d="M572.969 201.817L543.969 201.888L543.83 144.888L572.83 144.817L572.969 201.817Z" fill="#41413F"/>
<path d="M572.969 201.817L572.972 202.817L573.972 202.815L573.969 201.815L572.969 201.817ZM543.969 201.888L542.969 201.89L542.972 202.89L543.972 202.888L543.969 201.888ZM543.83 144.888L543.828 143.888L542.828 143.89L542.83 144.89L543.83 144.888ZM572.83 144.817L573.83 144.815L573.828 143.815L572.828 143.817L572.83 144.817ZM572.969 201.817L572.967 200.817L543.967 200.888L543.969 201.888L543.972 202.888L572.972 202.817L572.969 201.817ZM543.969 201.888L544.969 201.885L544.83 144.886L543.83 144.888L542.83 144.89L542.969 201.89L543.969 201.888ZM543.83 144.888L543.833 145.888L572.833 145.817L572.83 144.817L572.828 143.817L543.828 143.888L543.83 144.888ZM572.83 144.817L571.83 144.82L571.969 201.819L572.969 201.817L573.969 201.815L573.83 144.815L572.83 144.817Z" fill="#1E1E1E" mask="url(#path-42-inside-11_22_971)"/>
<mask id="path-44-inside-12_22_971" fill="white">
<path d="M453.139 202L424.139 202.071L424 145.071L453 145L453.139 202Z"/>
</mask>
<path d="M453.139 202L424.139 202.071L424 145.071L453 145L453.139 202Z" fill="#41413F"/>
<path d="M453.139 202L453.141 203L454.141 202.997L454.139 201.997L453.139 202ZM424.139 202.071L423.139 202.073L423.141 203.073L424.141 203.071L424.139 202.071ZM424 145.071L423.997 144.071L422.997 144.073L423 145.073L424 145.071ZM453 145L454 144.998L453.997 143.998L452.997 144L453 145ZM453.139 202L453.136 201L424.136 201.071L424.139 202.071L424.141 203.071L453.141 203L453.139 202ZM424.139 202.071L425.139 202.068L425 145.068L424 145.071L423 145.073L423.139 202.073L424.139 202.071ZM424 145.071L424.002 146.071L453.002 146L453 145L452.997 144L423.997 144.071L424 145.071ZM453 145L452 145.002L452.139 202.002L453.139 202L454.139 201.997L454 144.998L453 145Z" fill="#1E1E1E" mask="url(#path-44-inside-12_22_971)"/>
<mask id="path-46-inside-13_22_971" fill="white">
<path d="M419.139 202.083L390.139 202.154L390 145.154L419 145.083L419.139 202.083Z"/>
</mask>
<path d="M419.139 202.083L390.139 202.154L390 145.154L419 145.083L419.139 202.083Z" fill="#41413F"/>
<path d="M419.139 202.083L419.141 203.083L420.141 203.08L420.139 202.08L419.139 202.083ZM390.139 202.154L389.139 202.156L389.141 203.156L390.141 203.154L390.139 202.154ZM390 145.154L389.997 144.154L388.997 144.156L389 145.156L390 145.154ZM419 145.083L420 145.081L419.997 144.081L418.997 144.083L419 145.083ZM419.139 202.083L419.136 201.083L390.137 201.154L390.139 202.154L390.141 203.154L419.141 203.083L419.139 202.083ZM390.139 202.154L391.139 202.151L391 145.151L390 145.154L389 145.156L389.139 202.156L390.139 202.154ZM390 145.154L390.002 146.154L419.002 146.083L419 145.083L418.997 144.083L389.997 144.154L390 145.154ZM419 145.083L418 145.085L418.139 202.085L419.139 202.083L420.139 202.08L420 145.081L419 145.083Z" fill="#1E1E1E" mask="url(#path-46-inside-13_22_971)"/>
<mask id="path-48-inside-14_22_971" fill="white">
<path d="M385.139 202.166L356.139 202.237L356 145.237L385 145.166L385.139 202.166Z"/>
</mask>
<path d="M385.139 202.166L356.139 202.237L356 145.237L385 145.166L385.139 202.166Z" fill="#41413F"/>
<path d="M385.139 202.166L385.141 203.166L386.141 203.163L386.139 202.163L385.139 202.166ZM356.139 202.237L355.139 202.239L355.142 203.239L356.142 203.237L356.139 202.237ZM356 145.237L355.998 144.237L354.998 144.239L355 145.239L356 145.237ZM385 145.166L386 145.164L385.997 144.164L384.997 144.166L385 145.166ZM385.139 202.166L385.137 201.166L356.137 201.237L356.139 202.237L356.142 203.237L385.141 203.166L385.139 202.166ZM356.139 202.237L357.139 202.234L357 145.234L356 145.237L355 145.239L355.139 202.239L356.139 202.237ZM356 145.237L356.002 146.237L385.002 146.166L385 145.166L384.997 144.166L355.998 144.237L356 145.237ZM385 145.166L384 145.168L384.139 202.168L385.139 202.166L386.139 202.163L386 145.164L385 145.166Z" fill="#1E1E1E" mask="url(#path-48-inside-14_22_971)"/>
<mask id="path-50-inside-15_22_971" fill="white">
<path d="M544.058 256L528.059 256.039L528 232.039L544 232L544.058 256Z"/>
</mask>
<path d="M544.058 256L528.059 256.039L528 232.039L544 232L544.058 256Z" fill="#282929"/>
<path d="M544.058 256L544.061 257L545.061 256.997L545.058 255.997L544.058 256ZM528.059 256.039L527.059 256.041L527.061 257.041L528.061 257.039L528.059 256.039ZM528 232.039L527.998 231.039L526.998 231.041L527 232.041L528 232.039ZM544 232L545 231.998L544.997 230.998L543.997 231L544 232ZM544.058 256L544.056 255L528.056 255.039L528.059 256.039L528.061 257.039L544.061 257L544.058 256ZM528.059 256.039L529.059 256.037L529 232.037L528 232.039L527 232.041L527.059 256.041L528.059 256.039ZM528 232.039L528.002 233.039L544.002 233L544 232L543.997 231L527.998 231.039L528 232.039ZM544 232L543 232.002L543.058 256.002L544.058 256L545.058 255.997L545 231.998L544 232Z" fill="#41413F" mask="url(#path-50-inside-15_22_971)"/>
<mask id="path-52-inside-16_22_971" fill="white">
<path d="M526.059 256.044L510.059 256.083L510 232.083L526 232.044L526.059 256.044Z"/>
</mask>
<path d="M526.059 256.044L510.059 256.083L510 232.083L526 232.044L526.059 256.044Z" fill="#282929"/>
<path d="M526.059 256.044L526.061 257.044L527.061 257.041L527.059 256.041L526.059 256.044ZM510.059 256.083L509.059 256.085L509.061 257.085L510.061 257.083L510.059 256.083ZM510 232.083L509.998 231.083L508.998 231.085L509 232.085L510 232.083ZM526 232.044L527 232.041L526.998 231.041L525.998 231.044L526 232.044ZM526.059 256.044L526.056 255.044L510.056 255.083L510.059 256.083L510.061 257.083L526.061 257.044L526.059 256.044ZM510.059 256.083L511.059 256.08L511 232.081L510 232.083L509 232.085L509.059 256.085L510.059 256.083ZM510 232.083L510.002 233.083L526.002 233.044L526 232.044L525.998 231.044L509.998 231.083L510 232.083ZM526 232.044L525 232.046L525.059 256.046L526.059 256.044L527.059 256.041L527 232.041L526 232.044Z" fill="#41413F" mask="url(#path-52-inside-16_22_971)"/>
<rect x="537.099" y="255.044" width="2" height="22" transform="rotate(179.86 537.099 255.044)" fill="#41413F"/>
<rect x="519.099" y="255.088" width="2" height="22" transform="rotate(179.86 519.099 255.088)" fill="#41413F"/>
<line x1="620.966" y1="200.2" x2="615.966" y2="200.212" stroke="#1E1E1E"/>
<line x1="581.966" y1="200.295" x2="586.966" y2="200.283" stroke="#1E1E1E"/>
<line x1="568.966" y1="200.327" x2="563.966" y2="200.339" stroke="#1E1E1E"/>
<line x1="379.966" y1="200.788" x2="374.966" y2="200.8" stroke="#1E1E1E"/>
<line x1="413.001" y1="200.5" x2="408.001" y2="200.512" stroke="#1E1E1E"/>
<line x1="447.001" y1="200.5" x2="442.001" y2="200.512" stroke="#1E1E1E"/>
<path d="M620.503 175.767C620.094 175.767 619.731 175.697 619.413 175.557C619.096 175.417 618.846 175.222 618.663 174.972C618.479 174.722 618.381 174.433 618.37 174.105H619.438C619.448 174.263 619.5 174.4 619.594 174.517C619.689 174.633 619.815 174.723 619.972 174.787C620.129 174.852 620.306 174.884 620.501 174.884C620.709 174.884 620.894 174.848 621.055 174.776C621.216 174.702 621.341 174.6 621.432 174.469C621.523 174.338 621.568 174.188 621.566 174.017C621.568 173.841 621.522 173.686 621.43 173.551C621.337 173.417 621.202 173.312 621.026 173.236C620.852 173.16 620.642 173.122 620.395 173.122H619.881V172.31H620.395C620.598 172.31 620.775 172.275 620.927 172.205C621.08 172.135 621.2 172.036 621.288 171.909C621.375 171.781 621.417 171.632 621.415 171.463C621.417 171.299 621.38 171.156 621.305 171.034C621.231 170.911 621.126 170.816 620.989 170.747C620.855 170.679 620.697 170.645 620.515 170.645C620.337 170.645 620.172 170.677 620.02 170.742C619.869 170.806 619.747 170.898 619.654 171.017C619.561 171.135 619.512 171.275 619.506 171.438H618.492C618.5 171.112 618.593 170.826 618.773 170.58C618.955 170.332 619.198 170.139 619.501 170C619.804 169.86 620.144 169.79 620.52 169.79C620.909 169.79 621.246 169.863 621.532 170.009C621.82 170.153 622.042 170.347 622.199 170.591C622.357 170.835 622.435 171.105 622.435 171.401C622.437 171.728 622.341 172.003 622.145 172.225C621.952 172.446 621.699 172.591 621.384 172.659V172.705C621.793 172.762 622.107 172.913 622.324 173.159C622.544 173.404 622.653 173.708 622.651 174.071C622.651 174.397 622.558 174.689 622.373 174.946C622.189 175.202 621.935 175.403 621.611 175.549C621.289 175.694 620.92 175.767 620.503 175.767ZM625.777 175.799C625.309 175.799 624.908 175.68 624.572 175.443C624.239 175.205 623.982 174.861 623.802 174.412C623.624 173.961 623.535 173.419 623.535 172.784C623.537 172.15 623.627 171.61 623.805 171.165C623.985 170.718 624.242 170.377 624.575 170.142C624.91 169.907 625.311 169.79 625.777 169.79C626.243 169.79 626.643 169.907 626.979 170.142C627.314 170.377 627.57 170.718 627.748 171.165C627.928 171.612 628.018 172.152 628.018 172.784C628.018 173.421 627.928 173.964 627.748 174.415C627.57 174.864 627.314 175.207 626.979 175.443C626.645 175.68 626.245 175.799 625.777 175.799ZM625.777 174.909C626.141 174.909 626.427 174.73 626.638 174.372C626.85 174.013 626.956 173.483 626.956 172.784C626.956 172.322 626.908 171.934 626.811 171.62C626.714 171.305 626.578 171.068 626.402 170.909C626.226 170.748 626.017 170.668 625.777 170.668C625.415 170.668 625.129 170.848 624.919 171.208C624.709 171.566 624.603 172.091 624.601 172.784C624.599 173.248 624.645 173.639 624.74 173.955C624.837 174.271 624.973 174.51 625.149 174.671C625.325 174.83 625.534 174.909 625.777 174.909ZM631.329 169.87V175.688H630.275V170.895H630.241L628.88 171.764V170.799L630.326 169.87H631.329Z" fill="#262626"/>
<path d="M552.504 175.933C552.095 175.933 551.731 175.863 551.413 175.723C551.096 175.583 550.846 175.388 550.663 175.138C550.479 174.888 550.382 174.599 550.37 174.271H551.438C551.448 174.428 551.5 174.566 551.595 174.683C551.689 174.799 551.815 174.889 551.972 174.953C552.13 175.018 552.306 175.05 552.501 175.05C552.709 175.05 552.894 175.014 553.055 174.942C553.216 174.868 553.342 174.766 553.433 174.635C553.524 174.504 553.568 174.354 553.566 174.183C553.568 174.007 553.523 173.852 553.43 173.717C553.337 173.583 553.203 173.478 553.026 173.402C552.852 173.326 552.642 173.288 552.396 173.288H551.882V172.476H552.396C552.598 172.476 552.775 172.441 552.927 172.371C553.08 172.301 553.201 172.202 553.288 172.075C553.375 171.946 553.417 171.798 553.416 171.629C553.417 171.464 553.381 171.321 553.305 171.2C553.231 171.077 553.126 170.982 552.989 170.913C552.855 170.845 552.697 170.811 552.515 170.811C552.337 170.811 552.172 170.843 552.021 170.908C551.869 170.972 551.747 171.064 551.654 171.183C551.561 171.301 551.512 171.441 551.507 171.604H550.492C550.5 171.278 550.594 170.992 550.774 170.746C550.955 170.498 551.198 170.304 551.501 170.166C551.804 170.026 552.144 169.956 552.521 169.956C552.909 169.956 553.246 170.029 553.532 170.175C553.82 170.319 554.042 170.513 554.2 170.757C554.357 171.001 554.435 171.271 554.435 171.567C554.437 171.894 554.341 172.169 554.146 172.391C553.953 172.612 553.699 172.757 553.384 172.825V172.871C553.793 172.928 554.107 173.079 554.325 173.325C554.544 173.57 554.653 173.874 554.651 174.237C554.651 174.563 554.559 174.855 554.373 175.112C554.189 175.368 553.935 175.569 553.612 175.714C553.29 175.86 552.92 175.933 552.504 175.933ZM557.777 175.964C557.309 175.964 556.908 175.846 556.573 175.609C556.239 175.371 555.983 175.027 555.803 174.578C555.625 174.127 555.536 173.585 555.536 172.95C555.538 172.316 555.627 171.776 555.806 171.331C555.985 170.884 556.242 170.543 556.575 170.308C556.911 170.073 557.311 169.956 557.777 169.956C558.243 169.956 558.644 170.073 558.979 170.308C559.314 170.543 559.571 170.884 559.749 171.331C559.929 171.778 560.019 172.318 560.019 172.95C560.019 173.587 559.929 174.13 559.749 174.581C559.571 175.03 559.314 175.373 558.979 175.609C558.645 175.846 558.245 175.964 557.777 175.964ZM557.777 175.075C558.141 175.075 558.428 174.896 558.638 174.538C558.85 174.178 558.956 173.649 558.956 172.95C558.956 172.488 558.908 172.1 558.811 171.786C558.715 171.471 558.578 171.234 558.402 171.075C558.226 170.914 558.018 170.834 557.777 170.834C557.415 170.834 557.129 171.014 556.919 171.374C556.709 171.732 556.603 172.257 556.601 172.95C556.599 173.414 556.645 173.804 556.74 174.121C556.837 174.437 556.973 174.676 557.149 174.837C557.325 174.996 557.535 175.075 557.777 175.075ZM563.051 175.933C562.641 175.933 562.278 175.863 561.96 175.723C561.643 175.583 561.393 175.388 561.21 175.138C561.026 174.888 560.928 174.599 560.917 174.271H561.985C561.995 174.428 562.047 174.566 562.141 174.683C562.236 174.799 562.362 174.889 562.519 174.953C562.676 175.018 562.853 175.05 563.048 175.05C563.256 175.05 563.441 175.014 563.602 174.942C563.763 174.868 563.889 174.766 563.98 174.635C564.07 174.504 564.115 174.354 564.113 174.183C564.115 174.007 564.069 173.852 563.977 173.717C563.884 173.583 563.749 173.478 563.573 173.402C563.399 173.326 563.189 173.288 562.943 173.288H562.428V172.476H562.943C563.145 172.476 563.322 172.441 563.474 172.371C563.627 172.301 563.748 172.202 563.835 172.075C563.922 171.946 563.964 171.798 563.962 171.629C563.964 171.464 563.927 171.321 563.852 171.2C563.778 171.077 563.673 170.982 563.536 170.913C563.402 170.845 563.244 170.811 563.062 170.811C562.884 170.811 562.719 170.843 562.568 170.908C562.416 170.972 562.294 171.064 562.201 171.183C562.108 171.301 562.059 171.441 562.053 171.604H561.039C561.047 171.278 561.141 170.992 561.32 170.746C561.502 170.498 561.745 170.304 562.048 170.166C562.351 170.026 562.691 169.956 563.068 169.956C563.456 169.956 563.793 170.029 564.079 170.175C564.367 170.319 564.589 170.513 564.747 170.757C564.904 171.001 564.982 171.271 564.982 171.567C564.984 171.894 564.888 172.169 564.693 172.391C564.499 172.612 564.246 172.757 563.931 172.825V172.871C564.34 172.928 564.654 173.079 564.872 173.325C565.091 173.57 565.2 173.874 565.198 174.237C565.198 174.563 565.105 174.855 564.92 175.112C564.736 175.368 564.482 175.569 564.159 175.714C563.837 175.86 563.467 175.933 563.051 175.933Z" fill="#262626"/>
<path d="M365.605 175.933C365.196 175.933 364.832 175.863 364.514 175.723C364.198 175.583 363.948 175.388 363.764 175.138C363.58 174.888 363.483 174.599 363.472 174.271H364.54C364.549 174.428 364.601 174.566 364.696 174.683C364.791 174.799 364.917 174.889 365.074 174.953C365.231 175.018 365.407 175.05 365.602 175.05C365.811 175.05 365.995 175.014 366.156 174.942C366.317 174.868 366.443 174.766 366.534 174.635C366.625 174.504 366.67 174.354 366.668 174.183C366.67 174.007 366.624 173.852 366.531 173.717C366.438 173.583 366.304 173.478 366.128 173.402C365.954 173.326 365.743 173.288 365.497 173.288H364.983V172.476H365.497C365.7 172.476 365.877 172.441 366.028 172.371C366.182 172.301 366.302 172.202 366.389 172.075C366.476 171.946 366.519 171.798 366.517 171.629C366.519 171.464 366.482 171.321 366.406 171.2C366.332 171.077 366.227 170.982 366.091 170.913C365.956 170.845 365.798 170.811 365.616 170.811C365.438 170.811 365.274 170.843 365.122 170.908C364.971 170.972 364.848 171.064 364.756 171.183C364.663 171.301 364.614 171.441 364.608 171.604H363.594C363.601 171.278 363.695 170.992 363.875 170.746C364.057 170.498 364.299 170.304 364.602 170.166C364.905 170.026 365.245 169.956 365.622 169.956C366.01 169.956 366.348 170.029 366.634 170.175C366.921 170.319 367.144 170.513 367.301 170.757C367.458 171.001 367.537 171.271 367.537 171.567C367.539 171.894 367.442 172.169 367.247 172.391C367.054 172.612 366.8 172.757 366.486 172.825V172.871C366.895 172.928 367.208 173.079 367.426 173.325C367.646 173.57 367.755 173.874 367.753 174.237C367.753 174.563 367.66 174.855 367.474 175.112C367.291 175.368 367.037 175.569 366.713 175.714C366.391 175.86 366.022 175.933 365.605 175.933ZM370.879 175.964C370.411 175.964 370.009 175.846 369.674 175.609C369.341 175.371 369.084 175.027 368.904 174.578C368.726 174.127 368.637 173.585 368.637 172.95C368.639 172.316 368.729 171.776 368.907 171.331C369.087 170.884 369.344 170.543 369.677 170.308C370.012 170.073 370.413 169.956 370.879 169.956C371.344 169.956 371.745 170.073 372.08 170.308C372.415 170.543 372.672 170.884 372.85 171.331C373.03 171.778 373.12 172.318 373.12 172.95C373.12 173.587 373.03 174.13 372.85 174.581C372.672 175.03 372.415 175.373 372.08 175.609C371.747 175.846 371.346 175.964 370.879 175.964ZM370.879 175.075C371.242 175.075 371.529 174.896 371.739 174.538C371.951 174.178 372.058 173.649 372.058 172.95C372.058 172.488 372.009 172.1 371.913 171.786C371.816 171.471 371.68 171.234 371.504 171.075C371.327 170.914 371.119 170.834 370.879 170.834C370.517 170.834 370.231 171.014 370.021 171.374C369.81 171.732 369.704 172.257 369.702 172.95C369.701 173.414 369.747 173.804 369.842 174.121C369.938 174.437 370.075 174.676 370.251 174.837C370.427 174.996 370.636 175.075 370.879 175.075ZM376.195 175.933C375.916 175.931 375.644 175.883 375.379 175.788C375.114 175.692 374.875 175.536 374.663 175.32C374.451 175.102 374.283 174.813 374.158 174.453C374.033 174.091 373.971 173.643 373.973 173.109C373.973 172.611 374.026 172.167 374.132 171.777C374.238 171.387 374.391 171.057 374.589 170.788C374.788 170.518 375.028 170.311 375.308 170.169C375.59 170.027 375.906 169.956 376.254 169.956C376.62 169.956 376.944 170.028 377.226 170.172C377.51 170.316 377.739 170.513 377.913 170.763C378.088 171.011 378.196 171.291 378.237 171.604H377.2C377.147 171.38 377.038 171.202 376.874 171.07C376.711 170.935 376.504 170.868 376.254 170.868C375.851 170.868 375.54 171.043 375.322 171.393C375.107 171.744 374.998 172.225 374.996 172.837H375.036C375.128 172.67 375.249 172.527 375.396 172.408C375.544 172.288 375.711 172.196 375.896 172.132C376.084 172.066 376.282 172.033 376.49 172.033C376.831 172.033 377.137 172.114 377.408 172.277C377.68 172.44 377.896 172.664 378.055 172.95C378.214 173.234 378.293 173.56 378.291 173.928C378.293 174.31 378.206 174.654 378.03 174.959C377.854 175.262 377.608 175.5 377.294 175.675C376.98 175.849 376.613 175.935 376.195 175.933ZM376.189 175.081C376.395 175.081 376.58 175.031 376.743 174.93C376.906 174.83 377.035 174.695 377.129 174.524C377.224 174.354 377.27 174.162 377.268 173.95C377.27 173.742 377.225 173.553 377.132 173.385C377.041 173.216 376.915 173.083 376.754 172.984C376.593 172.886 376.41 172.837 376.203 172.837C376.05 172.837 375.907 172.866 375.774 172.925C375.642 172.983 375.526 173.065 375.428 173.169C375.329 173.271 375.251 173.391 375.195 173.527C375.14 173.661 375.111 173.805 375.109 173.959C375.111 174.161 375.159 174.348 375.251 174.518C375.344 174.689 375.472 174.825 375.635 174.928C375.798 175.03 375.982 175.081 376.189 175.081Z" fill="#262626"/>
<path d="M433.605 176.08C433.196 176.08 432.832 176.009 432.514 175.869C432.198 175.729 431.948 175.534 431.764 175.284C431.58 175.034 431.483 174.745 431.472 174.418H432.54C432.549 174.575 432.601 174.712 432.696 174.83C432.791 174.945 432.917 175.035 433.074 175.099C433.231 175.164 433.407 175.196 433.602 175.196C433.811 175.196 433.995 175.16 434.156 175.088C434.317 175.014 434.443 174.912 434.534 174.781C434.625 174.651 434.67 174.5 434.668 174.33C434.67 174.153 434.624 173.998 434.531 173.864C434.438 173.729 434.304 173.624 434.128 173.548C433.954 173.473 433.743 173.435 433.497 173.435H432.983V172.622H433.497C433.7 172.622 433.877 172.587 434.028 172.517C434.182 172.447 434.302 172.348 434.389 172.222C434.476 172.093 434.519 171.944 434.517 171.776C434.519 171.611 434.482 171.468 434.406 171.347C434.332 171.223 434.227 171.128 434.091 171.06C433.956 170.991 433.798 170.957 433.616 170.957C433.438 170.957 433.274 170.99 433.122 171.054C432.971 171.118 432.848 171.21 432.756 171.33C432.663 171.447 432.614 171.587 432.608 171.75H431.594C431.601 171.424 431.695 171.138 431.875 170.892C432.057 170.644 432.299 170.451 432.602 170.312C432.905 170.172 433.245 170.102 433.622 170.102C434.01 170.102 434.348 170.175 434.634 170.321C434.921 170.465 435.144 170.659 435.301 170.903C435.458 171.148 435.537 171.418 435.537 171.713C435.539 172.041 435.442 172.315 435.247 172.537C435.054 172.759 434.8 172.903 434.486 172.972V173.017C434.895 173.074 435.208 173.225 435.426 173.472C435.646 173.716 435.755 174.02 435.753 174.384C435.753 174.709 435.66 175.001 435.474 175.259C435.291 175.514 435.037 175.715 434.713 175.861C434.391 176.007 434.022 176.08 433.605 176.08ZM438.879 176.111C438.411 176.111 438.009 175.992 437.674 175.756C437.341 175.517 437.084 175.173 436.904 174.724C436.726 174.274 436.637 173.731 436.637 173.097C436.639 172.462 436.729 171.922 436.907 171.477C437.087 171.03 437.344 170.689 437.677 170.455C438.012 170.22 438.413 170.102 438.879 170.102C439.344 170.102 439.745 170.22 440.08 170.455C440.415 170.689 440.672 171.03 440.85 171.477C441.03 171.924 441.12 172.464 441.12 173.097C441.12 173.733 441.03 174.277 440.85 174.727C440.672 175.176 440.415 175.519 440.08 175.756C439.747 175.992 439.346 176.111 438.879 176.111ZM438.879 175.222C439.242 175.222 439.529 175.043 439.739 174.685C439.951 174.325 440.058 173.795 440.058 173.097C440.058 172.634 440.009 172.246 439.913 171.932C439.816 171.617 439.68 171.381 439.504 171.222C439.327 171.061 439.119 170.98 438.879 170.98C438.517 170.98 438.231 171.16 438.021 171.52C437.81 171.878 437.704 172.403 437.702 173.097C437.701 173.561 437.747 173.951 437.842 174.267C437.938 174.583 438.075 174.822 438.251 174.983C438.427 175.142 438.636 175.222 438.879 175.222ZM441.959 174.92V174.082L444.428 170.182H445.126V171.375H444.7L443.038 174.009V174.054H446.484V174.92H441.959ZM444.734 176V174.665L444.746 174.29V170.182H445.74V176H444.734Z" fill="#262626"/>
<path d="M401.605 176.08C401.196 176.08 400.832 176.009 400.514 175.869C400.198 175.729 399.948 175.534 399.764 175.284C399.58 175.034 399.483 174.745 399.472 174.418H400.54C400.549 174.575 400.601 174.712 400.696 174.83C400.791 174.945 400.917 175.035 401.074 175.099C401.231 175.164 401.407 175.196 401.602 175.196C401.811 175.196 401.995 175.16 402.156 175.088C402.317 175.014 402.443 174.912 402.534 174.781C402.625 174.651 402.67 174.5 402.668 174.33C402.67 174.153 402.624 173.998 402.531 173.864C402.438 173.729 402.304 173.624 402.128 173.548C401.954 173.473 401.743 173.435 401.497 173.435H400.983V172.622H401.497C401.7 172.622 401.877 172.587 402.028 172.517C402.182 172.447 402.302 172.348 402.389 172.222C402.476 172.093 402.519 171.944 402.517 171.776C402.519 171.611 402.482 171.468 402.406 171.347C402.332 171.223 402.227 171.128 402.091 171.06C401.956 170.991 401.798 170.957 401.616 170.957C401.438 170.957 401.274 170.99 401.122 171.054C400.971 171.118 400.848 171.21 400.756 171.33C400.663 171.447 400.614 171.587 400.608 171.75H399.594C399.601 171.424 399.695 171.138 399.875 170.892C400.057 170.644 400.299 170.451 400.602 170.312C400.905 170.172 401.245 170.102 401.622 170.102C402.01 170.102 402.348 170.175 402.634 170.321C402.921 170.465 403.144 170.659 403.301 170.903C403.458 171.148 403.537 171.418 403.537 171.713C403.539 172.041 403.442 172.315 403.247 172.537C403.054 172.759 402.8 172.903 402.486 172.972V173.017C402.895 173.074 403.208 173.225 403.426 173.472C403.646 173.716 403.755 174.02 403.753 174.384C403.753 174.709 403.66 175.001 403.474 175.259C403.291 175.514 403.037 175.715 402.713 175.861C402.391 176.007 402.022 176.08 401.605 176.08ZM406.879 176.111C406.411 176.111 406.009 175.992 405.674 175.756C405.341 175.517 405.084 175.173 404.904 174.724C404.726 174.274 404.637 173.731 404.637 173.097C404.639 172.462 404.729 171.922 404.907 171.477C405.087 171.03 405.344 170.689 405.677 170.455C406.012 170.22 406.413 170.102 406.879 170.102C407.344 170.102 407.745 170.22 408.08 170.455C408.415 170.689 408.672 171.03 408.85 171.477C409.03 171.924 409.12 172.464 409.12 173.097C409.12 173.733 409.03 174.277 408.85 174.727C408.672 175.176 408.415 175.519 408.08 175.756C407.747 175.992 407.346 176.111 406.879 176.111ZM406.879 175.222C407.242 175.222 407.529 175.043 407.739 174.685C407.951 174.325 408.058 173.795 408.058 173.097C408.058 172.634 408.009 172.246 407.913 171.932C407.816 171.617 407.68 171.381 407.504 171.222C407.327 171.061 407.119 170.98 406.879 170.98C406.517 170.98 406.231 171.16 406.021 171.52C405.81 171.878 405.704 172.403 405.702 173.097C405.701 173.561 405.747 173.951 405.842 174.267C405.938 174.583 406.075 174.822 406.251 174.983C406.427 175.142 406.636 175.222 406.879 175.222ZM412.087 176.08C411.708 176.08 411.369 176.009 411.07 175.866C410.77 175.723 410.533 175.526 410.357 175.276C410.182 175.026 410.089 174.74 410.078 174.418H411.101C411.12 174.656 411.223 174.851 411.411 175.003C411.598 175.152 411.823 175.227 412.087 175.227C412.293 175.227 412.477 175.18 412.638 175.085C412.799 174.991 412.926 174.859 413.018 174.69C413.111 174.522 413.157 174.33 413.155 174.114C413.157 173.894 413.11 173.699 413.016 173.528C412.921 173.358 412.791 173.224 412.626 173.128C412.462 173.029 412.272 172.98 412.058 172.98C411.884 172.978 411.713 173.01 411.544 173.077C411.375 173.143 411.242 173.23 411.143 173.338L410.192 173.182L410.496 170.182H413.871V171.062H411.368L411.2 172.605H411.234C411.342 172.478 411.495 172.373 411.692 172.29C411.889 172.205 412.105 172.162 412.339 172.162C412.692 172.162 413.006 172.245 413.283 172.412C413.559 172.577 413.777 172.804 413.936 173.094C414.095 173.384 414.175 173.715 414.175 174.088C414.175 174.473 414.086 174.815 413.908 175.116C413.732 175.416 413.486 175.652 413.172 175.824C412.859 175.994 412.498 176.08 412.087 176.08Z" fill="#262626"/>
<path d="M586.504 175.85C586.094 175.85 585.731 175.78 585.413 175.64C585.096 175.5 584.846 175.305 584.663 175.055C584.479 174.805 584.381 174.516 584.37 174.188H585.438C585.448 174.346 585.5 174.483 585.594 174.6C585.689 174.716 585.815 174.806 585.972 174.87C586.129 174.935 586.306 174.967 586.501 174.967C586.709 174.967 586.894 174.931 587.055 174.859C587.216 174.785 587.342 174.683 587.433 174.552C587.523 174.421 587.568 174.271 587.566 174.1C587.568 173.924 587.522 173.769 587.43 173.634C587.337 173.5 587.202 173.395 587.026 173.319C586.852 173.243 586.642 173.205 586.396 173.205H585.881V172.393H586.396C586.598 172.393 586.775 172.358 586.927 172.288C587.08 172.218 587.201 172.119 587.288 171.992C587.375 171.864 587.417 171.715 587.415 171.546C587.417 171.382 587.38 171.239 587.305 171.117C587.231 170.994 587.126 170.899 586.989 170.83C586.855 170.762 586.697 170.728 586.515 170.728C586.337 170.728 586.172 170.76 586.021 170.825C585.869 170.889 585.747 170.981 585.654 171.1C585.561 171.218 585.512 171.358 585.506 171.521H584.492C584.5 171.195 584.594 170.909 584.773 170.663C584.955 170.415 585.198 170.221 585.501 170.083C585.804 169.943 586.144 169.873 586.521 169.873C586.909 169.873 587.246 169.946 587.532 170.092C587.82 170.236 588.042 170.43 588.2 170.674C588.357 170.918 588.435 171.188 588.435 171.484C588.437 171.811 588.341 172.086 588.146 172.308C587.952 172.529 587.699 172.674 587.384 172.742V172.788C587.793 172.845 588.107 172.996 588.325 173.242C588.544 173.487 588.653 173.791 588.651 174.154C588.651 174.48 588.558 174.772 588.373 175.029C588.189 175.285 587.935 175.486 587.612 175.632C587.29 175.777 586.92 175.85 586.504 175.85ZM591.777 175.882C591.309 175.882 590.908 175.763 590.572 175.526C590.239 175.288 589.982 174.944 589.803 174.495C589.625 174.044 589.536 173.502 589.536 172.867C589.537 172.233 589.627 171.693 589.805 171.248C589.985 170.801 590.242 170.46 590.575 170.225C590.911 169.99 591.311 169.873 591.777 169.873C592.243 169.873 592.643 169.99 592.979 170.225C593.314 170.46 593.571 170.801 593.749 171.248C593.929 171.695 594.018 172.235 594.018 172.867C594.018 173.504 593.929 174.047 593.749 174.498C593.571 174.947 593.314 175.29 592.979 175.526C592.645 175.763 592.245 175.882 591.777 175.882ZM591.777 174.992C592.141 174.992 592.428 174.813 592.638 174.455C592.85 174.096 592.956 173.566 592.956 172.867C592.956 172.405 592.908 172.017 592.811 171.703C592.714 171.388 592.578 171.151 592.402 170.992C592.226 170.831 592.018 170.751 591.777 170.751C591.415 170.751 591.129 170.931 590.919 171.291C590.709 171.649 590.603 172.174 590.601 172.867C590.599 173.331 590.645 173.721 590.74 174.038C590.837 174.354 590.973 174.593 591.149 174.754C591.325 174.913 591.535 174.992 591.777 174.992ZM594.962 175.771V175.009L596.982 173.029C597.175 172.834 597.336 172.661 597.465 172.509C597.594 172.358 597.691 172.211 597.755 172.069C597.819 171.927 597.852 171.775 597.852 171.614C597.852 171.431 597.81 171.274 597.727 171.143C597.643 171.01 597.529 170.908 597.383 170.836C597.237 170.764 597.071 170.728 596.886 170.728C596.694 170.728 596.527 170.768 596.383 170.847C596.239 170.925 596.127 171.036 596.048 171.18C595.97 171.324 595.931 171.495 595.931 171.694H594.928C594.928 171.325 595.013 171.004 595.181 170.731C595.35 170.458 595.582 170.247 595.877 170.097C596.174 169.948 596.515 169.873 596.9 169.873C597.29 169.873 597.633 169.946 597.928 170.092C598.224 170.238 598.453 170.437 598.616 170.691C598.781 170.945 598.863 171.235 598.863 171.56C598.863 171.778 598.821 171.992 598.738 172.203C598.655 172.413 598.508 172.646 598.298 172.901C598.089 173.157 597.797 173.467 597.42 173.83L596.417 174.85V174.89H598.951V175.771H594.962Z" fill="#262626"/>
<mask id="path-68-inside-17_22_971" fill="white">
<path d="M392.873 276.257L350.151 276.361L350.043 232.361L392.765 232.257L392.873 276.257Z"/>
</mask>
<path d="M392.873 276.257L350.151 276.361L350.043 232.361L392.765 232.257L392.873 276.257Z" fill="#262626"/>
<path d="M392.873 276.257L392.875 277.257L393.875 277.254L393.873 276.254L392.873 276.257ZM392.873 276.257L392.87 275.257L350.148 275.361L350.151 276.361L350.153 277.361L392.875 277.257L392.873 276.257ZM392.765 232.257L391.765 232.259L391.873 276.259L392.873 276.257L393.873 276.254L393.765 232.254L392.765 232.257Z" fill="#41413F" mask="url(#path-68-inside-17_22_971)"/>
<circle cx="468" cy="253" r="4.5" fill="#1E1E1E" stroke="#41413F"/>
<circle cx="490" cy="253" r="4.5" fill="#1E1E1E" stroke="#41413F"/>
<circle cx="468" cy="237" r="4.5" fill="#1E1E1E" stroke="#41413F"/>
<circle cx="490" cy="237" r="4.5" fill="#1E1E1E" stroke="#41413F"/>
<mask id="path-74-inside-18_22_971" fill="white">
<path d="M646.15 275.639L603.235 275.743L603.128 231.743L646.042 231.639L646.15 275.639Z"/>
</mask>
<path d="M646.15 275.639L603.235 275.743L603.128 231.743L646.042 231.639L646.15 275.639Z" fill="#262626"/>
<path d="M603.235 275.743L602.235 275.746L602.238 276.746L603.238 276.743L603.235 275.743ZM646.15 275.639L646.147 274.639L603.233 274.743L603.235 275.743L603.238 276.743L646.152 276.639L646.15 275.639ZM603.235 275.743L604.235 275.741L604.128 231.741L603.128 231.743L602.128 231.746L602.235 275.746L603.235 275.743Z" fill="#41413F" mask="url(#path-74-inside-18_22_971)"/>
<mask id="path-76-inside-19_22_971" fill="white">
<path d="M636.098 272L616.098 272.049L616 232.049L636 232L636.098 272Z"/>
</mask>
<path d="M636.098 272L616.098 272.049L616 232.049L636 232L636.098 272Z" fill="#282929"/>
<path d="M616.098 272.049L617.098 272.046L617 232.046L616 232.049L615 232.051L615.098 272.051L616.098 272.049ZM636 232L635 232.002L635.098 272.002L636.098 272L637.098 271.997L637 231.998L636 232Z" fill="#41413F" mask="url(#path-76-inside-19_22_971)"/>
<mask id="path-78-inside-20_22_971" fill="white">
<path d="M634.012 237.005L618.012 237.044L618.007 235.044L634.007 235.005L634.012 237.005Z"/>
</mask>
<path d="M634.012 237.005L618.012 237.044L618.007 235.044L634.007 235.005L634.012 237.005Z" fill="#262626"/>
<path d="M634.012 237.005L634.015 238.005L635.015 238.002L635.012 237.002L634.012 237.005ZM618.012 237.044L617.012 237.046L617.015 238.046L618.015 238.044L618.012 237.044ZM618.007 235.044L618.005 234.044L617.005 234.046L617.007 235.046L618.007 235.044ZM634.007 235.005L635.007 235.002L635.005 234.002L634.005 234.005L634.007 235.005ZM634.012 237.005L634.01 236.005L618.01 236.044L618.012 237.044L618.015 238.044L634.015 238.005L634.012 237.005ZM618.012 237.044L619.012 237.041L619.007 235.041L618.007 235.044L617.007 235.046L617.012 237.046L618.012 237.044ZM618.007 235.044L618.01 236.044L634.01 236.005L634.007 235.005L634.005 234.005L618.005 234.044L618.007 235.044ZM634.007 235.005L633.007 235.007L633.012 237.007L634.012 237.005L635.012 237.002L635.007 235.002L634.007 235.005Z" fill="#41413F" mask="url(#path-78-inside-20_22_971)"/>
<mask id="path-80-inside-21_22_971" fill="white">
<path d="M634.046 251.005L618.046 251.044L618.051 253.044L634.051 253.005L634.046 251.005Z"/>
</mask>
<path d="M634.046 251.005L618.046 251.044L618.051 253.044L634.051 253.005L634.046 251.005Z" fill="#262626"/>
<path d="M634.046 251.005L634.044 250.005L635.044 250.002L635.046 251.002L634.046 251.005ZM618.046 251.044L617.046 251.046L617.044 250.046L618.044 250.044L618.046 251.044ZM618.051 253.044L618.054 254.044L617.054 254.046L617.051 253.046L618.051 253.044ZM634.051 253.005L635.051 253.002L635.054 254.002L634.054 254.005L634.051 253.005ZM634.046 251.005L634.049 252.005L618.049 252.044L618.046 251.044L618.044 250.044L634.044 250.005L634.046 251.005ZM618.046 251.044L619.046 251.041L619.051 253.041L618.051 253.044L617.051 253.046L617.046 251.046L618.046 251.044ZM618.051 253.044L618.049 252.044L634.049 252.005L634.051 253.005L634.054 254.005L618.054 254.044L618.051 253.044ZM634.051 253.005L633.051 253.007L633.046 251.007L634.046 251.005L635.046 251.002L635.051 253.002L634.051 253.005Z" fill="#41413F" mask="url(#path-80-inside-21_22_971)"/>
<mask id="path-82-inside-22_22_971" fill="white">
<path d="M634.041 249.005L618.041 249.044L618.037 247.044L634.037 247.005L634.041 249.005Z"/>
</mask>
<path d="M634.041 249.005L618.041 249.044L618.037 247.044L634.037 247.005L634.041 249.005Z" fill="#262626"/>
<path d="M634.041 249.005L634.044 250.005L635.044 250.002L635.041 249.002L634.041 249.005ZM618.041 249.044L617.041 249.046L617.044 250.046L618.044 250.044L618.041 249.044ZM618.037 247.044L618.034 246.044L617.034 246.046L617.037 247.046L618.037 247.044ZM634.037 247.005L635.037 247.002L635.034 246.002L634.034 246.005L634.037 247.005ZM634.041 249.005L634.039 248.005L618.039 248.044L618.041 249.044L618.044 250.044L634.044 250.005L634.041 249.005ZM618.041 249.044L619.041 249.041L619.037 247.041L618.037 247.044L617.037 247.046L617.041 249.046L618.041 249.044ZM618.037 247.044L618.039 248.044L634.039 248.005L634.037 247.005L634.034 246.005L618.034 246.044L618.037 247.044ZM634.037 247.005L633.037 247.007L633.041 249.007L634.041 249.005L635.041 249.002L635.037 247.002L634.037 247.005Z" fill="#41413F" mask="url(#path-82-inside-22_22_971)"/>
<mask id="path-84-inside-23_22_971" fill="white">
<path d="M634.032 245.005L618.032 245.044L618.027 243.044L634.027 243.005L634.032 245.005Z"/>
</mask>
<path d="M634.032 245.005L618.032 245.044L618.027 243.044L634.027 243.005L634.032 245.005Z" fill="#262626"/>
<path d="M634.032 245.005L634.034 246.005L635.034 246.002L635.032 245.002L634.032 245.005ZM618.032 245.044L617.032 245.046L617.034 246.046L618.034 246.044L618.032 245.044ZM618.027 243.044L618.024 242.044L617.024 242.046L617.027 243.046L618.027 243.044ZM634.027 243.005L635.027 243.002L635.024 242.002L634.024 242.005L634.027 243.005ZM634.032 245.005L634.029 244.005L618.029 244.044L618.032 245.044L618.034 246.044L634.034 246.005L634.032 245.005ZM618.032 245.044L619.032 245.041L619.027 243.041L618.027 243.044L617.027 243.046L617.032 245.046L618.032 245.044ZM618.027 243.044L618.029 244.044L634.029 244.005L634.027 243.005L634.024 242.005L618.024 242.044L618.027 243.044ZM634.027 243.005L633.027 243.007L633.032 245.007L634.032 245.005L635.032 245.002L635.027 243.002L634.027 243.005Z" fill="#41413F" mask="url(#path-84-inside-23_22_971)"/>
<mask id="path-86-inside-24_22_971" fill="white">
<path d="M634.022 241.005L618.022 241.044L618.017 239.044L634.017 239.005L634.022 241.005Z"/>
</mask>
<path d="M634.022 241.005L618.022 241.044L618.017 239.044L634.017 239.005L634.022 241.005Z" fill="#262626"/>
<path d="M634.022 241.005L634.024 242.005L635.024 242.002L635.022 241.002L634.022 241.005ZM618.022 241.044L617.022 241.046L617.024 242.046L618.024 242.044L618.022 241.044ZM618.017 239.044L618.015 238.044L617.015 238.046L617.017 239.046L618.017 239.044ZM634.017 239.005L635.017 239.002L635.015 238.002L634.015 238.005L634.017 239.005ZM634.022 241.005L634.019 240.005L618.02 240.044L618.022 241.044L618.024 242.044L634.024 242.005L634.022 241.005ZM618.022 241.044L619.022 241.041L619.017 239.041L618.017 239.044L617.017 239.046L617.022 241.046L618.022 241.044ZM618.017 239.044L618.02 240.044L634.019 240.005L634.017 239.005L634.015 238.005L618.015 238.044L618.017 239.044ZM634.017 239.005L633.017 239.007L633.022 241.007L634.022 241.005L635.022 241.002L635.017 239.002L634.017 239.005Z" fill="#41413F" mask="url(#path-86-inside-24_22_971)"/>
<mask id="path-88-inside-25_22_971" fill="white">
<path d="M634.061 257.005L618.061 257.044L618.056 255.044L634.056 255.005L634.061 257.005Z"/>
</mask>
<path d="M634.061 257.005L618.061 257.044L618.056 255.044L634.056 255.005L634.061 257.005Z" fill="#262626"/>
<path d="M634.061 257.005L634.063 258.005L635.063 258.002L635.061 257.002L634.061 257.005ZM618.061 257.044L617.061 257.046L617.063 258.046L618.063 258.044L618.061 257.044ZM618.056 255.044L618.054 254.044L617.054 254.046L617.056 255.046L618.056 255.044ZM634.056 255.005L635.056 255.002L635.054 254.002L634.054 254.005L634.056 255.005ZM634.061 257.005L634.058 256.005L618.059 256.044L618.061 257.044L618.063 258.044L634.063 258.005L634.061 257.005ZM618.061 257.044L619.061 257.041L619.056 255.041L618.056 255.044L617.056 255.046L617.061 257.046L618.061 257.044ZM618.056 255.044L618.059 256.044L634.058 256.005L634.056 255.005L634.054 254.005L618.054 254.044L618.056 255.044ZM634.056 255.005L633.056 255.007L633.061 257.007L634.061 257.005L635.061 257.002L635.056 255.002L634.056 255.005Z" fill="#41413F" mask="url(#path-88-inside-25_22_971)"/>
<mask id="path-90-inside-26_22_971" fill="white">
<path d="M634.09 269.005L618.09 269.044L618.085 267.044L634.085 267.005L634.09 269.005Z"/>
</mask>
<path d="M634.09 269.005L618.09 269.044L618.085 267.044L634.085 267.005L634.09 269.005Z" fill="#262626"/>
<path d="M634.09 269.005L634.093 270.005L635.093 270.002L635.09 269.002L634.09 269.005ZM618.09 269.044L617.09 269.046L617.093 270.046L618.093 270.044L618.09 269.044ZM618.085 267.044L618.083 266.044L617.083 266.046L617.085 267.046L618.085 267.044ZM634.085 267.005L635.085 267.002L635.083 266.002L634.083 266.005L634.085 267.005ZM634.09 269.005L634.088 268.005L618.088 268.044L618.09 269.044L618.093 270.044L634.093 270.005L634.09 269.005ZM618.09 269.044L619.09 269.041L619.085 267.041L618.085 267.044L617.085 267.046L617.09 269.046L618.09 269.044ZM618.085 267.044L618.088 268.044L634.088 268.005L634.085 267.005L634.083 266.005L618.083 266.044L618.085 267.044ZM634.085 267.005L633.085 267.007L633.09 269.007L634.09 269.005L635.09 269.002L635.085 267.002L634.085 267.005Z" fill="#41413F" mask="url(#path-90-inside-26_22_971)"/>
<mask id="path-92-inside-27_22_971" fill="white">
<path d="M634.08 265.005L618.08 265.044L618.076 263.044L634.076 263.005L634.08 265.005Z"/>
</mask>
<path d="M634.08 265.005L618.08 265.044L618.076 263.044L634.076 263.005L634.08 265.005Z" fill="#262626"/>
<path d="M634.08 265.005L634.083 266.005L635.083 266.002L635.08 265.002L634.08 265.005ZM618.08 265.044L617.08 265.046L617.083 266.046L618.083 266.044L618.08 265.044ZM618.076 263.044L618.073 262.044L617.073 262.046L617.076 263.046L618.076 263.044ZM634.076 263.005L635.076 263.002L635.073 262.002L634.073 262.005L634.076 263.005ZM634.08 265.005L634.078 264.005L618.078 264.044L618.08 265.044L618.083 266.044L634.083 266.005L634.08 265.005ZM618.08 265.044L619.08 265.041L619.076 263.041L618.076 263.044L617.076 263.046L617.08 265.046L618.08 265.044ZM618.076 263.044L618.078 264.044L634.078 264.005L634.076 263.005L634.073 262.005L618.073 262.044L618.076 263.044ZM634.076 263.005L633.076 263.007L633.08 265.007L634.08 265.005L635.08 265.002L635.076 263.002L634.076 263.005Z" fill="#41413F" mask="url(#path-92-inside-27_22_971)"/>
<mask id="path-94-inside-28_22_971" fill="white">
<path d="M634.071 261.005L618.071 261.044L618.066 259.044L634.066 259.005L634.071 261.005Z"/>
</mask>
<path d="M634.071 261.005L618.071 261.044L618.066 259.044L634.066 259.005L634.071 261.005Z" fill="#262626"/>
<path d="M634.071 261.005L634.073 262.005L635.073 262.002L635.071 261.002L634.071 261.005ZM618.071 261.044L617.071 261.046L617.073 262.046L618.073 262.044L618.071 261.044ZM618.066 259.044L618.063 258.044L617.063 258.046L617.066 259.046L618.066 259.044ZM634.066 259.005L635.066 259.002L635.063 258.002L634.063 258.005L634.066 259.005ZM634.071 261.005L634.068 260.005L618.068 260.044L618.071 261.044L618.073 262.044L634.073 262.005L634.071 261.005ZM618.071 261.044L619.071 261.041L619.066 259.041L618.066 259.044L617.066 259.046L617.071 261.046L618.071 261.044ZM618.066 259.044L618.068 260.044L634.068 260.005L634.066 259.005L634.063 258.005L618.063 258.044L618.066 259.044ZM634.066 259.005L633.066 259.007L633.071 261.007L634.071 261.005L635.071 261.002L635.066 259.002L634.066 259.005Z" fill="#41413F" mask="url(#path-94-inside-28_22_971)"/>
<mask id="path-96-inside-29_22_971" fill="white">
<path d="M381.098 272L361.098 272.049L361 232.049L381 232L381.098 272Z"/>
</mask>
<path d="M381.098 272L361.098 272.049L361 232.049L381 232L381.098 272Z" fill="#282929"/>
<path d="M361.098 272.049L362.098 272.046L362 232.046L361 232.049L360 232.051L360.098 272.051L361.098 272.049ZM381 232L380 232.002L380.098 272.002L381.098 272L382.098 271.997L382 231.998L381 232Z" fill="#41413F" mask="url(#path-96-inside-29_22_971)"/>
<mask id="path-98-inside-30_22_971" fill="white">
<path d="M379.012 237.005L363.012 237.044L363.007 235.044L379.007 235.005L379.012 237.005Z"/>
</mask>
<path d="M379.012 237.005L363.012 237.044L363.007 235.044L379.007 235.005L379.012 237.005Z" fill="#262626"/>
<path d="M379.012 237.005L379.015 238.005L380.015 238.002L380.012 237.002L379.012 237.005ZM363.012 237.044L362.012 237.046L362.015 238.046L363.015 238.044L363.012 237.044ZM363.007 235.044L363.005 234.044L362.005 234.046L362.007 235.046L363.007 235.044ZM379.007 235.005L380.007 235.002L380.005 234.002L379.005 234.005L379.007 235.005ZM379.012 237.005L379.01 236.005L363.01 236.044L363.012 237.044L363.015 238.044L379.015 238.005L379.012 237.005ZM363.012 237.044L364.012 237.041L364.007 235.041L363.007 235.044L362.007 235.046L362.012 237.046L363.012 237.044ZM363.007 235.044L363.01 236.044L379.01 236.005L379.007 235.005L379.005 234.005L363.005 234.044L363.007 235.044ZM379.007 235.005L378.007 235.007L378.012 237.007L379.012 237.005L380.012 237.002L380.007 235.002L379.007 235.005Z" fill="#41413F" mask="url(#path-98-inside-30_22_971)"/>
<mask id="path-100-inside-31_22_971" fill="white">
<path d="M379.046 251.005L363.046 251.044L363.051 253.044L379.051 253.005L379.046 251.005Z"/>
</mask>
<path d="M379.046 251.005L363.046 251.044L363.051 253.044L379.051 253.005L379.046 251.005Z" fill="#262626"/>
<path d="M379.046 251.005L379.044 250.005L380.044 250.002L380.046 251.002L379.046 251.005ZM363.046 251.044L362.046 251.046L362.044 250.046L363.044 250.044L363.046 251.044ZM363.051 253.044L363.054 254.044L362.054 254.046L362.051 253.046L363.051 253.044ZM379.051 253.005L380.051 253.002L380.054 254.002L379.054 254.005L379.051 253.005ZM379.046 251.005L379.049 252.005L363.049 252.044L363.046 251.044L363.044 250.044L379.044 250.005L379.046 251.005ZM363.046 251.044L364.046 251.041L364.051 253.041L363.051 253.044L362.051 253.046L362.046 251.046L363.046 251.044ZM363.051 253.044L363.049 252.044L379.049 252.005L379.051 253.005L379.054 254.005L363.054 254.044L363.051 253.044ZM379.051 253.005L378.051 253.007L378.046 251.007L379.046 251.005L380.046 251.002L380.051 253.002L379.051 253.005Z" fill="#41413F" mask="url(#path-100-inside-31_22_971)"/>
<mask id="path-102-inside-32_22_971" fill="white">
<path d="M379.041 249.005L363.041 249.044L363.037 247.044L379.037 247.005L379.041 249.005Z"/>
</mask>
<path d="M379.041 249.005L363.041 249.044L363.037 247.044L379.037 247.005L379.041 249.005Z" fill="#262626"/>
<path d="M379.041 249.005L379.044 250.005L380.044 250.002L380.041 249.002L379.041 249.005ZM363.041 249.044L362.041 249.046L362.044 250.046L363.044 250.044L363.041 249.044ZM363.037 247.044L363.034 246.044L362.034 246.046L362.037 247.046L363.037 247.044ZM379.037 247.005L380.037 247.002L380.034 246.002L379.034 246.005L379.037 247.005ZM379.041 249.005L379.039 248.005L363.039 248.044L363.041 249.044L363.044 250.044L379.044 250.005L379.041 249.005ZM363.041 249.044L364.041 249.041L364.037 247.041L363.037 247.044L362.037 247.046L362.041 249.046L363.041 249.044ZM363.037 247.044L363.039 248.044L379.039 248.005L379.037 247.005L379.034 246.005L363.034 246.044L363.037 247.044ZM379.037 247.005L378.037 247.007L378.041 249.007L379.041 249.005L380.041 249.002L380.037 247.002L379.037 247.005Z" fill="#41413F" mask="url(#path-102-inside-32_22_971)"/>
<mask id="path-104-inside-33_22_971" fill="white">
<path d="M379.032 245.005L363.032 245.044L363.027 243.044L379.027 243.005L379.032 245.005Z"/>
</mask>
<path d="M379.032 245.005L363.032 245.044L363.027 243.044L379.027 243.005L379.032 245.005Z" fill="#262626"/>
<path d="M379.032 245.005L379.034 246.005L380.034 246.002L380.032 245.002L379.032 245.005ZM363.032 245.044L362.032 245.046L362.034 246.046L363.034 246.044L363.032 245.044ZM363.027 243.044L363.024 242.044L362.024 242.046L362.027 243.046L363.027 243.044ZM379.027 243.005L380.027 243.002L380.024 242.002L379.024 242.005L379.027 243.005ZM379.032 245.005L379.029 244.005L363.029 244.044L363.032 245.044L363.034 246.044L379.034 246.005L379.032 245.005ZM363.032 245.044L364.032 245.041L364.027 243.041L363.027 243.044L362.027 243.046L362.032 245.046L363.032 245.044ZM363.027 243.044L363.029 244.044L379.029 244.005L379.027 243.005L379.024 242.005L363.024 242.044L363.027 243.044ZM379.027 243.005L378.027 243.007L378.032 245.007L379.032 245.005L380.032 245.002L380.027 243.002L379.027 243.005Z" fill="#41413F" mask="url(#path-104-inside-33_22_971)"/>
<mask id="path-106-inside-34_22_971" fill="white">
<path d="M379.022 241.005L363.022 241.044L363.017 239.044L379.017 239.005L379.022 241.005Z"/>
</mask>
<path d="M379.022 241.005L363.022 241.044L363.017 239.044L379.017 239.005L379.022 241.005Z" fill="#262626"/>
<path d="M379.022 241.005L379.024 242.005L380.024 242.002L380.022 241.002L379.022 241.005ZM363.022 241.044L362.022 241.046L362.024 242.046L363.024 242.044L363.022 241.044ZM363.017 239.044L363.015 238.044L362.015 238.046L362.017 239.046L363.017 239.044ZM379.017 239.005L380.017 239.002L380.015 238.002L379.015 238.005L379.017 239.005ZM379.022 241.005L379.019 240.005L363.019 240.044L363.022 241.044L363.024 242.044L379.024 242.005L379.022 241.005ZM363.022 241.044L364.022 241.041L364.017 239.041L363.017 239.044L362.017 239.046L362.022 241.046L363.022 241.044ZM363.017 239.044L363.019 240.044L379.019 240.005L379.017 239.005L379.015 238.005L363.015 238.044L363.017 239.044ZM379.017 239.005L378.017 239.007L378.022 241.007L379.022 241.005L380.022 241.002L380.017 239.002L379.017 239.005Z" fill="#41413F" mask="url(#path-106-inside-34_22_971)"/>
<mask id="path-108-inside-35_22_971" fill="white">
<path d="M379.061 257.005L363.061 257.044L363.056 255.044L379.056 255.005L379.061 257.005Z"/>
</mask>
<path d="M379.061 257.005L363.061 257.044L363.056 255.044L379.056 255.005L379.061 257.005Z" fill="#262626"/>
<path d="M379.061 257.005L379.063 258.005L380.063 258.002L380.061 257.002L379.061 257.005ZM363.061 257.044L362.061 257.046L362.063 258.046L363.063 258.044L363.061 257.044ZM363.056 255.044L363.054 254.044L362.054 254.046L362.056 255.046L363.056 255.044ZM379.056 255.005L380.056 255.002L380.054 254.002L379.054 254.005L379.056 255.005ZM379.061 257.005L379.059 256.005L363.059 256.044L363.061 257.044L363.063 258.044L379.063 258.005L379.061 257.005ZM363.061 257.044L364.061 257.041L364.056 255.041L363.056 255.044L362.056 255.046L362.061 257.046L363.061 257.044ZM363.056 255.044L363.059 256.044L379.059 256.005L379.056 255.005L379.054 254.005L363.054 254.044L363.056 255.044ZM379.056 255.005L378.056 255.007L378.061 257.007L379.061 257.005L380.061 257.002L380.056 255.002L379.056 255.005Z" fill="#41413F" mask="url(#path-108-inside-35_22_971)"/>
<mask id="path-110-inside-36_22_971" fill="white">
<path d="M379.09 269.005L363.09 269.044L363.085 267.044L379.085 267.005L379.09 269.005Z"/>
</mask>
<path d="M379.09 269.005L363.09 269.044L363.085 267.044L379.085 267.005L379.09 269.005Z" fill="#262626"/>
<path d="M379.09 269.005L379.093 270.005L380.093 270.002L380.09 269.002L379.09 269.005ZM363.09 269.044L362.09 269.046L362.093 270.046L363.093 270.044L363.09 269.044ZM363.085 267.044L363.083 266.044L362.083 266.046L362.085 267.046L363.085 267.044ZM379.085 267.005L380.085 267.002L380.083 266.002L379.083 266.005L379.085 267.005ZM379.09 269.005L379.088 268.005L363.088 268.044L363.09 269.044L363.093 270.044L379.093 270.005L379.09 269.005ZM363.09 269.044L364.09 269.041L364.085 267.041L363.085 267.044L362.085 267.046L362.09 269.046L363.09 269.044ZM363.085 267.044L363.088 268.044L379.088 268.005L379.085 267.005L379.083 266.005L363.083 266.044L363.085 267.044ZM379.085 267.005L378.085 267.007L378.09 269.007L379.09 269.005L380.09 269.002L380.085 267.002L379.085 267.005Z" fill="#41413F" mask="url(#path-110-inside-36_22_971)"/>
<mask id="path-112-inside-37_22_971" fill="white">
<path d="M379.08 265.005L363.08 265.044L363.076 263.044L379.076 263.005L379.08 265.005Z"/>
</mask>
<path d="M379.08 265.005L363.08 265.044L363.076 263.044L379.076 263.005L379.08 265.005Z" fill="#262626"/>
<path d="M379.08 265.005L379.083 266.005L380.083 266.002L380.08 265.002L379.08 265.005ZM363.08 265.044L362.08 265.046L362.083 266.046L363.083 266.044L363.08 265.044ZM363.076 263.044L363.073 262.044L362.073 262.046L362.076 263.046L363.076 263.044ZM379.076 263.005L380.076 263.002L380.073 262.002L379.073 262.005L379.076 263.005ZM379.08 265.005L379.078 264.005L363.078 264.044L363.08 265.044L363.083 266.044L379.083 266.005L379.08 265.005ZM363.08 265.044L364.08 265.041L364.076 263.041L363.076 263.044L362.076 263.046L362.08 265.046L363.08 265.044ZM363.076 263.044L363.078 264.044L379.078 264.005L379.076 263.005L379.073 262.005L363.073 262.044L363.076 263.044ZM379.076 263.005L378.076 263.007L378.08 265.007L379.08 265.005L380.08 265.002L380.076 263.002L379.076 263.005Z" fill="#41413F" mask="url(#path-112-inside-37_22_971)"/>
<mask id="path-114-inside-38_22_971" fill="white">
<path d="M379.071 261.005L363.071 261.044L363.066 259.044L379.066 259.005L379.071 261.005Z"/>
</mask>
<path d="M379.071 261.005L363.071 261.044L363.066 259.044L379.066 259.005L379.071 261.005Z" fill="#262626"/>
<path d="M379.071 261.005L379.073 262.005L380.073 262.002L380.071 261.002L379.071 261.005ZM363.071 261.044L362.071 261.046L362.073 262.046L363.073 262.044L363.071 261.044ZM363.066 259.044L363.063 258.044L362.063 258.046L362.066 259.046L363.066 259.044ZM379.066 259.005L380.066 259.002L380.063 258.002L379.063 258.005L379.066 259.005ZM379.071 261.005L379.068 260.005L363.068 260.044L363.071 261.044L363.073 262.044L379.073 262.005L379.071 261.005ZM363.071 261.044L364.071 261.041L364.066 259.041L363.066 259.044L362.066 259.046L362.071 261.046L363.071 261.044ZM363.066 259.044L363.068 260.044L379.068 260.005L379.066 259.005L379.063 258.005L363.063 258.044L363.066 259.044ZM379.066 259.005L378.066 259.007L378.071 261.007L379.071 261.005L380.071 261.002L380.066 259.002L379.066 259.005Z" fill="#41413F" mask="url(#path-114-inside-38_22_971)"/>
<g opacity="0.5">
<mask id="path-116-inside-39_22_971" fill="white">
<path d="M310 203H349V225H310V203Z"/>
</mask>
<path d="M310 203H349V225H310V203Z" fill="#262626"/>
<path d="M310 203V204H349V203V202H310V203ZM349 225V224H310V225V226H349V225Z" fill="#41413F" mask="url(#path-116-inside-39_22_971)"/>
</g>
<g opacity="0.5">
<mask id="path-118-inside-40_22_971" fill="white">
<path d="M452 289H543V385H452V289Z"/>
</mask>
<path d="M452 289H543V385H452V289Z" fill="#262626"/>
<path d="M543 385V386H544V385H543ZM452 385H451V386H452V385ZM543 289H542V385H543H544V289H543ZM543 385V384H452V385V386H543V385ZM452 385H453V289H452H451V385H452Z" fill="#41413F" mask="url(#path-118-inside-40_22_971)"/>
<mask id="path-120-inside-41_22_971" fill="white">
<path d="M455 380H540V382H455V380Z"/>
</mask>
<path d="M455 380H540V382H455V380Z" fill="#262626"/>
<path d="M455 380V379H454V380H455ZM540 380H541V379H540V380ZM540 382V383H541V382H540ZM455 382H454V383H455V382ZM455 380V381H540V380V379H455V380ZM540 380H539V382H540H541V380H540ZM540 382V381H455V382V383H540V382ZM455 382H456V380H455H454V382H455Z" fill="#41413F" mask="url(#path-120-inside-41_22_971)"/>
<mask id="path-122-inside-42_22_971" fill="white">
<path d="M455 375H540V377H455V375Z"/>
</mask>
<path d="M455 375H540V377H455V375Z" fill="#262626"/>
<path d="M455 375V374H454V375H455ZM540 375H541V374H540V375ZM540 377V378H541V377H540ZM455 377H454V378H455V377ZM455 375V376H540V375V374H455V375ZM540 375H539V377H540H541V375H540ZM540 377V376H455V377V378H540V377ZM455 377H456V375H455H454V377H455Z" fill="#41413F" mask="url(#path-122-inside-42_22_971)"/>
<mask id="path-124-inside-43_22_971" fill="white">
<path d="M455 360H540V362H455V360Z"/>
</mask>
<path d="M455 360H540V362H455V360Z" fill="#262626"/>
<path d="M455 360V359H454V360H455ZM540 360H541V359H540V360ZM540 362V363H541V362H540ZM455 362H454V363H455V362ZM455 360V361H540V360V359H455V360ZM540 360H539V362H540H541V360H540ZM540 362V361H455V362V363H540V362ZM455 362H456V360H455H454V362H455Z" fill="#41413F" mask="url(#path-124-inside-43_22_971)"/>
<mask id="path-126-inside-44_22_971" fill="white">
<path d="M455 370H540V372H455V370Z"/>
</mask>
<path d="M455 370H540V372H455V370Z" fill="#262626"/>
<path d="M455 370V369H454V370H455ZM540 370H541V369H540V370ZM540 372V373H541V372H540ZM455 372H454V373H455V372ZM455 370V371H540V370V369H455V370ZM540 370H539V372H540H541V370H540ZM540 372V371H455V372V373H540V372ZM455 372H456V370H455H454V372H455Z" fill="#41413F" mask="url(#path-126-inside-44_22_971)"/>
<mask id="path-128-inside-45_22_971" fill="white">
<path d="M455 365H540V367H455V365Z"/>
</mask>
<path d="M455 365H540V367H455V365Z" fill="#262626"/>
<path d="M455 365V364H454V365H455ZM540 365H541V364H540V365ZM540 367V368H541V367H540ZM455 367H454V368H455V367ZM455 365V366H540V365V364H455V365ZM540 365H539V367H540H541V365H540ZM540 367V366H455V367V368H540V367ZM455 367H456V365H455H454V367H455Z" fill="#41413F" mask="url(#path-128-inside-45_22_971)"/>
<mask id="path-130-inside-46_22_971" fill="white">
<path d="M310 300H452V322H310V300Z"/>
</mask>
<path d="M310 300H452V322H310V300Z" fill="#262626"/>
<path d="M310 300V301H452V300V299H310V300ZM452 322V321H310V322V323H452V322Z" fill="#41413F" mask="url(#path-130-inside-46_22_971)"/>
</g>
<path d="M472.861 219V210.273H476.134C476.804 210.273 477.366 210.398 477.821 210.648C478.278 210.898 478.624 211.241 478.857 211.679C479.092 212.114 479.21 212.608 479.21 213.162C479.21 213.722 479.092 214.219 478.857 214.653C478.621 215.088 478.273 215.43 477.812 215.68C477.352 215.928 476.786 216.051 476.112 216.051H473.943V214.751H475.899C476.291 214.751 476.612 214.683 476.862 214.547C477.112 214.411 477.297 214.223 477.416 213.984C477.538 213.746 477.599 213.472 477.599 213.162C477.599 212.852 477.538 212.58 477.416 212.344C477.297 212.108 477.111 211.925 476.858 211.794C476.608 211.661 476.286 211.594 475.891 211.594H474.442V219H472.861ZM480.515 219V212.455H482.058V219H480.515ZM481.291 211.526C481.047 211.526 480.836 211.445 480.66 211.283C480.484 211.118 480.396 210.92 480.396 210.69C480.396 210.457 480.484 210.26 480.66 210.098C480.836 209.933 481.047 209.851 481.291 209.851C481.538 209.851 481.748 209.933 481.922 210.098C482.098 210.26 482.186 210.457 482.186 210.69C482.186 210.92 482.098 211.118 481.922 211.283C481.748 211.445 481.538 211.526 481.291 211.526ZM488.817 214.185L487.411 214.338C487.371 214.196 487.302 214.062 487.202 213.938C487.106 213.812 486.975 213.712 486.81 213.635C486.646 213.558 486.444 213.52 486.205 213.52C485.884 213.52 485.614 213.589 485.396 213.729C485.18 213.868 485.073 214.048 485.076 214.27C485.073 214.46 485.143 214.615 485.285 214.734C485.43 214.854 485.668 214.952 486.001 215.028L487.117 215.267C487.737 215.401 488.197 215.612 488.498 215.902C488.802 216.192 488.955 216.571 488.958 217.04C488.955 217.452 488.835 217.815 488.596 218.131C488.36 218.443 488.032 218.687 487.612 218.864C487.191 219.04 486.708 219.128 486.163 219.128C485.362 219.128 484.717 218.96 484.228 218.625C483.739 218.287 483.448 217.817 483.354 217.214L484.859 217.07C484.927 217.365 485.072 217.588 485.293 217.739C485.515 217.889 485.803 217.964 486.158 217.964C486.525 217.964 486.819 217.889 487.04 217.739C487.265 217.588 487.377 217.402 487.377 217.18C487.377 216.993 487.305 216.838 487.16 216.716C487.018 216.594 486.796 216.5 486.495 216.435L485.379 216.2C484.751 216.07 484.286 215.849 483.985 215.54C483.684 215.227 483.535 214.832 483.538 214.355C483.535 213.952 483.644 213.602 483.866 213.307C484.09 213.009 484.401 212.778 484.799 212.616C485.2 212.452 485.661 212.369 486.184 212.369C486.951 212.369 487.555 212.533 487.995 212.859C488.438 213.186 488.712 213.628 488.817 214.185ZM493.085 219.128C492.446 219.128 491.892 218.987 491.423 218.706C490.955 218.425 490.591 218.031 490.332 217.526C490.077 217.02 489.949 216.429 489.949 215.753C489.949 215.077 490.077 214.484 490.332 213.976C490.591 213.467 490.955 213.072 491.423 212.791C491.892 212.51 492.446 212.369 493.085 212.369C493.724 212.369 494.278 212.51 494.747 212.791C495.216 213.072 495.578 213.467 495.834 213.976C496.092 214.484 496.222 215.077 496.222 215.753C496.222 216.429 496.092 217.02 495.834 217.526C495.578 218.031 495.216 218.425 494.747 218.706C494.278 218.987 493.724 219.128 493.085 219.128ZM493.094 217.892C493.44 217.892 493.73 217.797 493.963 217.607C494.196 217.413 494.369 217.155 494.483 216.831C494.599 216.507 494.658 216.146 494.658 215.749C494.658 215.348 494.599 214.986 494.483 214.662C494.369 214.335 494.196 214.075 493.963 213.882C493.73 213.689 493.44 213.592 493.094 213.592C492.739 213.592 492.443 213.689 492.207 213.882C491.974 214.075 491.8 214.335 491.683 214.662C491.57 214.986 491.513 215.348 491.513 215.749C491.513 216.146 491.57 216.507 491.683 216.831C491.8 217.155 491.974 217.413 492.207 217.607C492.443 217.797 492.739 217.892 493.094 217.892ZM503.797 219L505.229 210.273H506.422L504.99 219H503.797ZM499.864 216.75L500.064 215.557H506.78L506.58 216.75H499.864ZM500.729 219L502.161 210.273H503.354L501.922 219H500.729ZM500.371 213.716L500.567 212.523H507.283L507.087 213.716H500.371ZM511.439 219.166C510.737 219.166 510.135 218.989 509.632 218.634C509.132 218.276 508.747 217.76 508.477 217.087C508.21 216.411 508.077 215.597 508.077 214.645C508.08 213.693 508.214 212.884 508.482 212.216C508.751 211.545 509.136 211.034 509.636 210.682C510.139 210.33 510.74 210.153 511.439 210.153C512.138 210.153 512.739 210.33 513.241 210.682C513.744 211.034 514.129 211.545 514.396 212.216C514.666 212.886 514.801 213.696 514.801 214.645C514.801 215.599 514.666 216.415 514.396 217.091C514.129 217.764 513.744 218.278 513.241 218.634C512.741 218.989 512.141 219.166 511.439 219.166ZM511.439 217.832C511.984 217.832 512.415 217.564 512.73 217.027C513.048 216.487 513.207 215.693 513.207 214.645C513.207 213.952 513.135 213.369 512.99 212.898C512.845 212.426 512.641 212.071 512.376 211.832C512.112 211.591 511.8 211.47 511.439 211.47C510.896 211.47 510.467 211.74 510.152 212.28C509.837 212.817 509.678 213.605 509.675 214.645C509.672 215.341 509.741 215.926 509.884 216.401C510.028 216.875 510.233 217.233 510.497 217.474C510.761 217.713 511.075 217.832 511.439 217.832ZM519.767 210.273V219H518.186V211.811H518.135L516.093 213.115V211.666L518.262 210.273H519.767Z" fill="#41413F"/>
<rect opacity="0.5" x="138.5" y="189.5" width="66" height="7" fill="#1E1E1E" stroke="#41413F"/>
<rect opacity="0.5" x="160.5" y="207.5" width="9" height="4" fill="#1E1E1E" stroke="#41413F"/>
<rect opacity="0.5" x="177.5" y="207.5" width="9" height="4" fill="#1E1E1E" stroke="#41413F"/>
<rect opacity="0.5" x="194.5" y="207.5" width="10" height="4" fill="#1E1E1E" stroke="#41413F"/>
<rect opacity="0.5" x="59" y="194" width="24" height="5" fill="#606060"/>
<rect opacity="0.5" x="104" y="194" width="24" height="5" fill="#606060"/>
<line x1="273.5" y1="169" x2="273.5" y2="189" stroke="#41413F"/>
<line x1="274.5" y1="169" x2="274.5" y2="189" stroke="#41413F"/>
<line x1="289" y1="163.5" x2="305" y2="163.5" stroke="#262626"/>
<g opacity="0.5">
<mask id="path-142-inside-47_22_971" fill="white">
<path d="M63 319H80V346H63V319Z"/>
</mask>
<path d="M63 319H80V346H63V319Z" fill="#1E1E1E"/>
<path d="M80 319H79V346H80H81V319H80ZM63 346H64V319H63H62V346H63Z" fill="#41413F" mask="url(#path-142-inside-47_22_971)"/>
</g>
<g opacity="0.5">
<mask id="path-144-inside-48_22_971" fill="white">
<path d="M163 269H180V296H163V269Z"/>
</mask>
<path d="M163 269H180V296H163V269Z" fill="#1E1E1E"/>
<path d="M180 269H179V296H180H181V269H180ZM163 296H164V269H163H162V296H163Z" fill="#41413F" mask="url(#path-144-inside-48_22_971)"/>
</g>
<g opacity="0.5">
<mask id="path-146-inside-49_22_971" fill="white">
<path d="M138 269H155V296H138V269Z"/>
</mask>
<path d="M138 269H155V296H138V269Z" fill="#1E1E1E"/>
<path d="M155 269H154V296H155H156V269H155ZM138 296H139V269H138H137V296H138Z" fill="#41413F" mask="url(#path-146-inside-49_22_971)"/>
</g>
<g opacity="0.5">
<mask id="path-148-inside-50_22_971" fill="white">
<path d="M113 269H130V296H113V269Z"/>
</mask>
<path d="M113 269H130V296H113V269Z" fill="#1E1E1E"/>
<path d="M130 269H129V296H130H131V269H130ZM113 296H114V269H113H112V296H113Z" fill="#41413F" mask="url(#path-148-inside-50_22_971)"/>
</g>
<g opacity="0.5">
<mask id="path-150-inside-51_22_971" fill="white">
<path d="M88 269H105V296H88V269Z"/>
</mask>
<path d="M88 269H105V296H88V269Z" fill="#1E1E1E"/>
<path d="M105 269H104V296H105H106V269H105ZM88 296H89V269H88H87V296H88Z" fill="#41413F" mask="url(#path-150-inside-51_22_971)"/>
</g>
<g opacity="0.5">
<mask id="path-152-inside-52_22_971" fill="white">
<path d="M63 269H80V296H63V269Z"/>
</mask>
<path d="M63 269H80V296H63V269Z" fill="#1E1E1E"/>
<path d="M80 269H79V296H80H81V269H80ZM63 296H64V269H63H62V296H63Z" fill="#41413F" mask="url(#path-152-inside-52_22_971)"/>
</g>
<g opacity="0.5">
<mask id="path-154-inside-53_22_971" fill="white">
<path d="M188 319H205V346H188V319Z"/>
</mask>
<path d="M188 319H205V346H188V319Z" fill="#1E1E1E"/>
<path d="M205 319H204V346H205H206V319H205ZM188 346H189V319H188H187V346H188Z" fill="#41413F" mask="url(#path-154-inside-53_22_971)"/>
</g>
<g opacity="0.5">
<mask id="path-156-inside-54_22_971" fill="white">
<path d="M163 319H180V346H163V319Z"/>
</mask>
<path d="M163 319H180V346H163V319Z" fill="#1E1E1E"/>
<path d="M180 319H179V346H180H181V319H180ZM163 346H164V319H163H162V346H163Z" fill="#41413F" mask="url(#path-156-inside-54_22_971)"/>
</g>
<g opacity="0.5">
<mask id="path-158-inside-55_22_971" fill="white">
<path d="M138 319H155V346H138V319Z"/>
</mask>
<path d="M138 319H155V346H138V319Z" fill="#1E1E1E"/>
<path d="M155 319H154V346H155H156V319H155ZM138 346H139V319H138H137V346H138Z" fill="#41413F" mask="url(#path-158-inside-55_22_971)"/>
</g>
<g opacity="0.5">
<mask id="path-160-inside-56_22_971" fill="white">
<path d="M113 319H130V346H113V319Z"/>
</mask>
<path d="M113 319H130V346H113V319Z" fill="#1E1E1E"/>
<path d="M130 319H129V346H130H131V319H130ZM113 346H114V319H113H112V346H113Z" fill="#41413F" mask="url(#path-160-inside-56_22_971)"/>
</g>
<g opacity="0.5">
<mask id="path-162-inside-57_22_971" fill="white">
<path d="M88 319H105V346H88V319Z"/>
</mask>
<path d="M88 319H105V346H88V319Z" fill="#1E1E1E"/>
<path d="M105 319H104V346H105H106V319H105ZM88 346H89V319H88H87V346H88Z" fill="#41413F" mask="url(#path-162-inside-57_22_971)"/>
</g>
<rect x="473.5" y="153.5" width="9" height="41" fill="#41413F" stroke="#1E1E1E"/>
<rect x="519.5" y="153.5" width="9" height="41" fill="#41413F" stroke="#1E1E1E"/>
<rect x="492.5" y="159.5" width="17" height="29" fill="#41413F" stroke="#1E1E1E"/>
<line x1="493" y1="174.5" x2="509" y2="174.5" stroke="#1E1E1E"/>
<rect x="56.5" y="95.5" width="66" height="42" fill="#41413F" stroke="#262626"/>
<rect x="124.5" y="95.5" width="63" height="42" fill="#41413F" stroke="#262626"/>
<rect x="118.5" y="158.5" width="33" height="30" fill="#41413F" stroke="#262626"/>
<rect x="152.5" y="158.5" width="33" height="30" fill="#41413F" stroke="#262626"/>
<rect x="185.5" y="158.5" width="33" height="30" fill="#41413F" stroke="#262626"/>
<rect x="62.5" y="159.5" width="15" height="27" fill="#1E1E1E" stroke="#41413F"/>
<rect x="90.5" y="159.5" width="15" height="27" fill="#1E1E1E" stroke="#41413F"/>
<path d="M66.5739 170.182H67.8636L69.5909 174.398H69.6591L71.3864 170.182H72.6761V176H71.6648V172.003H71.6108L70.0028 175.983H69.2472L67.6392 171.994H67.5852V176H66.5739V170.182Z" fill="#41413F"/>
<path d="M95.5739 176V170.182H99.3011V171.065H96.6278V172.645H99.0455V173.528H96.6278V176H95.5739Z" fill="#41413F"/>
<rect x="130" y="170" width="10" height="14" fill="#262626"/>
<rect x="164" y="170" width="10" height="14" fill="#262626"/>
<rect x="198" y="170" width="10" height="14" fill="#262626"/>
<path d="M130.722 168L131.676 162.182H132.472L131.517 168H130.722ZM128.099 166.5L128.233 165.705H132.71L132.577 166.5H128.099ZM128.676 168L129.631 162.182H130.426L129.472 168H128.676ZM128.438 164.477L128.568 163.682H133.045L132.915 164.477H128.438ZM135.816 168.111C135.348 168.111 134.947 167.992 134.612 167.756C134.278 167.517 134.022 167.173 133.842 166.724C133.664 166.274 133.575 165.731 133.575 165.097C133.576 164.462 133.666 163.922 133.844 163.477C134.024 163.03 134.281 162.689 134.614 162.455C134.95 162.22 135.35 162.102 135.816 162.102C136.282 162.102 136.683 162.22 137.018 162.455C137.353 162.689 137.61 163.03 137.788 163.477C137.968 163.924 138.058 164.464 138.058 165.097C138.058 165.733 137.968 166.277 137.788 166.727C137.61 167.176 137.353 167.519 137.018 167.756C136.684 167.992 136.284 168.111 135.816 168.111ZM135.816 167.222C136.18 167.222 136.467 167.043 136.677 166.685C136.889 166.325 136.995 165.795 136.995 165.097C136.995 164.634 136.947 164.246 136.85 163.932C136.754 163.617 136.617 163.381 136.441 163.222C136.265 163.061 136.057 162.98 135.816 162.98C135.454 162.98 135.168 163.16 134.958 163.52C134.748 163.878 134.642 164.403 134.64 165.097C134.638 165.561 134.684 165.951 134.779 166.267C134.876 166.583 135.012 166.822 135.188 166.983C135.364 167.142 135.574 167.222 135.816 167.222ZM141.368 162.182V168H140.314V163.207H140.28L138.919 164.077V163.111L140.365 162.182H141.368Z" fill="#1E1E1E"/>
<path d="M163.722 168L164.676 162.182H165.472L164.517 168H163.722ZM161.099 166.5L161.233 165.705H165.71L165.577 166.5H161.099ZM161.676 168L162.631 162.182H163.426L162.472 168H161.676ZM161.438 164.477L161.568 163.682H166.045L165.915 164.477H161.438ZM168.816 168.111C168.348 168.111 167.947 167.992 167.612 167.756C167.278 167.517 167.022 167.173 166.842 166.724C166.664 166.274 166.575 165.731 166.575 165.097C166.576 164.462 166.666 163.922 166.844 163.477C167.024 163.03 167.281 162.689 167.614 162.455C167.95 162.22 168.35 162.102 168.816 162.102C169.282 162.102 169.683 162.22 170.018 162.455C170.353 162.689 170.61 163.03 170.788 163.477C170.968 163.924 171.058 164.464 171.058 165.097C171.058 165.733 170.968 166.277 170.788 166.727C170.61 167.176 170.353 167.519 170.018 167.756C169.684 167.992 169.284 168.111 168.816 168.111ZM168.816 167.222C169.18 167.222 169.467 167.043 169.677 166.685C169.889 166.325 169.995 165.795 169.995 165.097C169.995 164.634 169.947 164.246 169.85 163.932C169.754 163.617 169.617 163.381 169.441 163.222C169.265 163.061 169.057 162.98 168.816 162.98C168.454 162.98 168.168 163.16 167.958 163.52C167.748 163.878 167.642 164.403 167.64 165.097C167.638 165.561 167.684 165.951 167.779 166.267C167.876 166.583 168.012 166.822 168.188 166.983C168.364 167.142 168.574 167.222 168.816 167.222ZM172.001 168V167.239L174.021 165.259C174.214 165.063 174.375 164.89 174.504 164.739C174.633 164.587 174.73 164.44 174.794 164.298C174.858 164.156 174.891 164.005 174.891 163.844C174.891 163.66 174.849 163.503 174.766 163.372C174.682 163.24 174.568 163.137 174.422 163.065C174.276 162.993 174.11 162.957 173.925 162.957C173.733 162.957 173.566 162.997 173.422 163.077C173.278 163.154 173.166 163.265 173.087 163.409C173.009 163.553 172.97 163.724 172.97 163.923H171.967C171.967 163.554 172.052 163.233 172.22 162.96C172.389 162.687 172.621 162.476 172.916 162.327C173.214 162.177 173.554 162.102 173.939 162.102C174.329 162.102 174.672 162.175 174.967 162.321C175.263 162.467 175.492 162.667 175.655 162.92C175.82 163.174 175.902 163.464 175.902 163.79C175.902 164.008 175.86 164.222 175.777 164.432C175.694 164.642 175.547 164.875 175.337 165.131C175.128 165.386 174.836 165.696 174.459 166.06L173.456 167.08V167.119H175.99V168H172.001Z" fill="#1E1E1E"/>
<path d="M197.722 168L198.676 162.182H199.472L198.517 168H197.722ZM195.099 166.5L195.233 165.705H199.71L199.577 166.5H195.099ZM195.676 168L196.631 162.182H197.426L196.472 168H195.676ZM195.438 164.477L195.568 163.682H200.045L199.915 164.477H195.438ZM202.816 168.111C202.348 168.111 201.947 167.992 201.612 167.756C201.278 167.517 201.022 167.173 200.842 166.724C200.664 166.274 200.575 165.731 200.575 165.097C200.576 164.462 200.666 163.922 200.844 163.477C201.024 163.03 201.281 162.689 201.614 162.455C201.95 162.22 202.35 162.102 202.816 162.102C203.282 162.102 203.683 162.22 204.018 162.455C204.353 162.689 204.61 163.03 204.788 163.477C204.968 163.924 205.058 164.464 205.058 165.097C205.058 165.733 204.968 166.277 204.788 166.727C204.61 167.176 204.353 167.519 204.018 167.756C203.684 167.992 203.284 168.111 202.816 168.111ZM202.816 167.222C203.18 167.222 203.467 167.043 203.677 166.685C203.889 166.325 203.995 165.795 203.995 165.097C203.995 164.634 203.947 164.246 203.85 163.932C203.754 163.617 203.617 163.381 203.441 163.222C203.265 163.061 203.057 162.98 202.816 162.98C202.454 162.98 202.168 163.16 201.958 163.52C201.748 163.878 201.642 164.403 201.64 165.097C201.638 165.561 201.684 165.951 201.779 166.267C201.876 166.583 202.012 166.822 202.188 166.983C202.364 167.142 202.574 167.222 202.816 167.222ZM208.089 168.08C207.68 168.08 207.317 168.009 206.999 167.869C206.682 167.729 206.432 167.534 206.249 167.284C206.065 167.034 205.967 166.745 205.956 166.418H207.024C207.034 166.575 207.086 166.712 207.18 166.83C207.275 166.945 207.401 167.035 207.558 167.099C207.715 167.164 207.892 167.196 208.087 167.196C208.295 167.196 208.48 167.16 208.641 167.088C208.802 167.014 208.928 166.912 209.018 166.781C209.109 166.651 209.154 166.5 209.152 166.33C209.154 166.153 209.108 165.998 209.016 165.864C208.923 165.729 208.788 165.624 208.612 165.548C208.438 165.473 208.228 165.435 207.982 165.435H207.467V164.622H207.982C208.184 164.622 208.361 164.587 208.513 164.517C208.666 164.447 208.786 164.348 208.874 164.222C208.961 164.093 209.003 163.944 209.001 163.776C209.003 163.611 208.966 163.468 208.891 163.347C208.817 163.223 208.712 163.128 208.575 163.06C208.441 162.991 208.283 162.957 208.101 162.957C207.923 162.957 207.758 162.99 207.607 163.054C207.455 163.118 207.333 163.21 207.24 163.33C207.147 163.447 207.098 163.587 207.092 163.75H206.078C206.086 163.424 206.179 163.138 206.359 162.892C206.541 162.644 206.784 162.451 207.087 162.312C207.39 162.172 207.73 162.102 208.107 162.102C208.495 162.102 208.832 162.175 209.118 162.321C209.406 162.465 209.628 162.659 209.786 162.903C209.943 163.148 210.021 163.418 210.021 163.713C210.023 164.041 209.927 164.315 209.732 164.537C209.538 164.759 209.285 164.903 208.97 164.972V165.017C209.379 165.074 209.693 165.225 209.911 165.472C210.13 165.716 210.239 166.02 210.237 166.384C210.237 166.709 210.144 167.001 209.959 167.259C209.775 167.514 209.521 167.715 209.197 167.861C208.875 168.007 208.506 168.08 208.089 168.08Z" fill="#1E1E1E"/>
<rect x="129" y="98" width="56" height="5" fill="#262626"/>
<rect x="180" y="98" width="5" height="33" fill="#262626"/>
<circle cx="96" cy="107" r="4" fill="#262626"/>
<circle cx="110" cy="107" r="4" fill="#262626"/>
<circle cx="96" cy="122" r="4" fill="#262626"/>
<circle cx="110" cy="122" r="4" fill="#262626"/>
<circle cx="68" cy="107" r="4" fill="#262626"/>
<circle cx="82" cy="107" r="4" fill="#262626"/>
<circle cx="68" cy="122" r="4" fill="#262626"/>
<circle cx="82" cy="122" r="4" fill="#262626"/>
</svg>
