<svg width="700" height="450" viewBox="0 0 700 450" fill="none" xmlns="http://www.w3.org/2000/svg">
<rect width="700" height="450" fill="#282929"/>
<rect x="54.5" y="189.5" width="255" height="164" fill="#1A1A1A" stroke="#41413F"/>
<rect x="54.5" y="58.5" width="206" height="131" fill="#262626" stroke="#41413F"/>
<rect x="88" y="157" width="43" height="16" fill="#262626" stroke="#41413F"/>
<rect x="88" y="76" width="43" height="16" fill="#262626" stroke="#41413F"/>
<rect x="88" y="103" width="43" height="16" fill="#262626" stroke="#41413F"/>
<rect x="88" y="130" width="43" height="16" fill="#262626" stroke="#41413F"/>
<rect x="198" y="157" width="43" height="16" fill="#262626" stroke="#41413F"/>
<rect x="198" y="76" width="43" height="16" fill="#262626" stroke="#41413F"/>
<rect x="198" y="103" width="43" height="16" fill="#262626" stroke="#41413F"/>
<rect x="198" y="130" width="43" height="16" fill="#262626" stroke="#41413F"/>
<rect x="143" y="157" width="43" height="16" fill="#262626" stroke="#41413F"/>
<rect x="143" y="76" width="43" height="16" fill="#262626" stroke="#41413F"/>
<rect x="143" y="103" width="43" height="16" fill="#262626" stroke="#41413F"/>
<rect x="143" y="130" width="43" height="16" fill="#262626" stroke="#41413F"/>
<mask id="path-16-inside-1_12_925" fill="white">
<path d="M54 189.943H212V251H54V189.943Z"/>
</mask>
<path d="M54 189.943H212V251H54V189.943Z" fill="#262626"/>
<path d="M212 251V252H213V251H212ZM54 251H53V252H54V251ZM212 189.943H211V251H212H213V189.943H212ZM212 251V250H54V251V252H212V251ZM54 251H55V189.943H54H53V251H54Z" fill="#41413F" mask="url(#path-16-inside-1_12_925)"/>
<line x1="131.5" y1="189.943" x2="131.5" y2="251" stroke="#41413F"/>
<rect x="58.5" y="193.5" width="25" height="53" fill="#1E1E1E" stroke="#41413F"/>
<rect x="86.5" y="214.5" width="14" height="32" fill="#1E1E1E" stroke="#41413F"/>
<rect x="103.5" y="193.5" width="25" height="53" fill="#1E1E1E" stroke="#41413F"/>
<line x1="109.5" y1="76" x2="109.5" y2="92" stroke="#41413F"/>
<line x1="109.5" y1="103" x2="109.5" y2="119" stroke="#41413F"/>
<line x1="109.5" y1="130" x2="109.5" y2="146" stroke="#41413F"/>
<line x1="109.5" y1="157" x2="109.5" y2="173" stroke="#41413F"/>
<line x1="164.5" y1="76" x2="164.5" y2="92" stroke="#41413F"/>
<line x1="164.5" y1="103" x2="164.5" y2="119" stroke="#41413F"/>
<line x1="164.5" y1="157" x2="164.5" y2="173" stroke="#41413F"/>
<line x1="164.5" y1="130" x2="164.5" y2="146" stroke="#41413F"/>
<line x1="219.5" y1="76" x2="219.5" y2="92" stroke="#41413F"/>
<line x1="219.5" y1="103" x2="219.5" y2="119" stroke="#41413F"/>
<line x1="219.5" y1="130" x2="219.5" y2="146" stroke="#41413F"/>
<line x1="219.5" y1="157" x2="219.5" y2="172" stroke="#41413F"/>
<line x1="211" y1="211.5" x2="157" y2="211.5" stroke="#41413F"/>
<line x1="132" y1="211.5" x2="144" y2="211.5" stroke="#41413F"/>
<mask id="path-36-inside-2_12_925" fill="white">
<path d="M265 168H283V189H265V168Z"/>
</mask>
<path d="M265 168H283V189H265V168Z" fill="#262626"/>
<path d="M265 168V167H264V168H265ZM283 168H284V167H283V168ZM265 168V169H283V168V167H265V168ZM283 168H282V189H283H284V168H283ZM265 189H266V168H265H264V189H265Z" fill="#41413F" mask="url(#path-36-inside-2_12_925)"/>
<mask id="path-38-inside-3_12_925" fill="white">
<path d="M288 148H306V190H288V148Z"/>
</mask>
<path d="M288 148H306V190H288V148Z" fill="#262626"/>
<path d="M288 148V147H287V148H288ZM306 148H307V147H306V148ZM288 148V149H306V148V147H288V148ZM306 148H305V190H306H307V148H306ZM288 190H289V148H288H287V190H288Z" fill="#41413F" mask="url(#path-38-inside-3_12_925)"/>
<mask id="path-40-inside-4_12_925" fill="white">
<path d="M267 148H306V164H267V148Z"/>
</mask>
<path d="M267 148H306V164H267V148Z" fill="#262626"/>
<path d="M306 148H307V147H306V148ZM306 164V165H307V164H306ZM267 148V149H306V148V147H267V148ZM306 148H305V164H306H307V148H306ZM306 164V163H267V164V165H306V164Z" fill="#41413F" mask="url(#path-40-inside-4_12_925)"/>
<rect x="270" y="150" width="2" height="12" fill="#41413F"/>
<rect x="274" y="150" width="2" height="12" fill="#41413F"/>
<rect x="278" y="150" width="2" height="12" fill="#41413F"/>
<rect x="282" y="150" width="2" height="12" fill="#41413F"/>
<rect x="286" y="150" width="2" height="12" fill="#41413F"/>
<rect x="290" y="164" width="14" height="2" fill="#41413F"/>
<rect x="290" y="168" width="14" height="2" fill="#41413F"/>
<rect x="290" y="172" width="14" height="2" fill="#41413F"/>
<rect x="290" y="176" width="14" height="2" fill="#41413F"/>
<rect x="290" y="180" width="14" height="2" fill="#41413F"/>
<rect x="290" y="184" width="14" height="2" fill="#41413F"/>
<rect x="349.5" y="140.5" width="297" height="148" fill="#262626" stroke="#41413F"/>
<path d="M67.5739 219.182H68.8636L70.5909 223.398H70.6591L72.3864 219.182H73.6761V225H72.6648V221.003H72.6108L71.0028 224.983H70.2472L68.6392 220.994H68.5852V225H67.5739V219.182Z" fill="#41413F"/>
<path d="M114.574 225V219.182H118.301V220.065H115.628V221.645H118.045V222.528H115.628V225H114.574Z" fill="#41413F"/>
<mask id="path-56-inside-5_12_925" fill="white">
<path d="M350 141H646V197H350V141Z"/>
</mask>
<path d="M350 141H646V197H350V141Z" fill="#1A1A1A"/>
<path d="M646 197V196H350V197V198H646V197Z" fill="#41413F" mask="url(#path-56-inside-5_12_925)"/>
<mask id="path-58-inside-6_12_925" fill="white">
<path d="M350 153H404V197H350V153Z"/>
</mask>
<path d="M350 153H404V197H350V153Z" fill="#262626"/>
<path d="M404 153H405V152H404V153ZM350 153V154H404V153V152H350V153ZM404 153H403V197H404H405V153H404Z" fill="#41413F" mask="url(#path-58-inside-6_12_925)"/>
<mask id="path-60-inside-7_12_925" fill="white">
<path d="M592 153H646V197H592V153Z"/>
</mask>
<path d="M592 153H646V197H592V153Z" fill="#262626"/>
<path d="M592 153V152H591V153H592ZM592 153V154H646V153V152H592V153ZM592 197H593V153H592H591V197H592Z" fill="#41413F" mask="url(#path-60-inside-7_12_925)"/>
<mask id="path-62-inside-8_12_925" fill="white">
<path d="M445 161H550V197H445V161Z"/>
</mask>
<path d="M445 161H550V197H445V161Z" fill="#262626"/>
<path d="M445 161V160H444V161H445ZM550 161H551V160H550V161ZM445 161V162H550V161V160H445V161ZM550 161H549V197H550H551V161H550ZM445 197H446V161H445H444V197H445Z" fill="#41413F" mask="url(#path-62-inside-8_12_925)"/>
<mask id="path-64-inside-9_12_925" fill="white">
<path d="M452 166H504V197H452V166Z"/>
</mask>
<path d="M452 166H504V197H452V166Z" fill="#282929"/>
<path d="M452 166V165H451V166H452ZM504 166H505V165H504V166ZM504 197V198H505V197H504ZM452 197H451V198H452V197ZM452 166V167H504V166V165H452V166ZM504 166H503V197H504H505V166H504ZM504 197V196H452V197V198H504V197ZM452 197H453V166H452H451V197H452Z" fill="#41413F" mask="url(#path-64-inside-9_12_925)"/>
<mask id="path-66-inside-10_12_925" fill="white">
<path d="M509 173H525V197H509V173Z"/>
</mask>
<path d="M509 173H525V197H509V173Z" fill="#282929"/>
<path d="M509 173V172H508V173H509ZM525 173H526V172H525V173ZM525 197V198H526V197H525ZM509 197H508V198H509V197ZM509 173V174H525V173V172H509V173ZM525 173H524V197H525H526V173H525ZM525 197V196H509V197V198H525V197ZM509 197H510V173H509H508V197H509Z" fill="#41413F" mask="url(#path-66-inside-10_12_925)"/>
<mask id="path-68-inside-11_12_925" fill="white">
<path d="M527 173H543V197H527V173Z"/>
</mask>
<path d="M527 173H543V197H527V173Z" fill="#282929"/>
<path d="M527 173V172H526V173H527ZM543 173H544V172H543V173ZM543 197V198H544V197H543ZM527 197H526V198H527V197ZM527 173V174H543V173V172H527V173ZM543 173H542V197H543H544V173H543ZM543 197V196H527V197V198H543V197ZM527 197H528V173H527H526V197H527Z" fill="#41413F" mask="url(#path-68-inside-11_12_925)"/>
<mask id="path-70-inside-12_12_925" fill="white">
<path d="M355 227H384V284H355V227Z"/>
</mask>
<path d="M355 227H384V284H355V227Z" fill="#41413F"/>
<path d="M355 227V226H354V227H355ZM384 227H385V226H384V227ZM384 284V285H385V284H384ZM355 284H354V285H355V284ZM355 227V228H384V227V226H355V227ZM384 227H383V284H384H385V227H384ZM384 284V283H355V284V285H384V284ZM355 284H356V227H355H354V284H355Z" fill="#1E1E1E" mask="url(#path-70-inside-12_12_925)"/>
<mask id="path-72-inside-13_12_925" fill="white">
<path d="M389 227H418V284H389V227Z"/>
</mask>
<path d="M389 227H418V284H389V227Z" fill="#41413F"/>
<path d="M389 227V226H388V227H389ZM418 227H419V226H418V227ZM418 284V285H419V284H418ZM389 284H388V285H389V284ZM389 227V228H418V227V226H389V227ZM418 227H417V284H418H419V227H418ZM418 284V283H389V284V285H418V284ZM389 284H390V227H389H388V284H389Z" fill="#1E1E1E" mask="url(#path-72-inside-13_12_925)"/>
<mask id="path-74-inside-14_12_925" fill="white">
<path d="M423 227H452V284H423V227Z"/>
</mask>
<path d="M423 227H452V284H423V227Z" fill="#41413F"/>
<path d="M423 227V226H422V227H423ZM452 227H453V226H452V227ZM452 284V285H453V284H452ZM423 284H422V285H423V284ZM423 227V228H452V227V226H423V227ZM452 227H451V284H452H453V227H452ZM452 284V283H423V284V285H452V284ZM423 284H424V227H423H422V284H423Z" fill="#1E1E1E" mask="url(#path-74-inside-14_12_925)"/>
<path d="M364.605 260.08C364.196 260.08 363.832 260.009 363.514 259.869C363.198 259.729 362.948 259.534 362.764 259.284C362.58 259.034 362.483 258.745 362.472 258.418H363.54C363.549 258.575 363.601 258.712 363.696 258.83C363.791 258.945 363.917 259.035 364.074 259.099C364.231 259.164 364.407 259.196 364.602 259.196C364.811 259.196 364.995 259.16 365.156 259.088C365.317 259.014 365.443 258.912 365.534 258.781C365.625 258.651 365.67 258.5 365.668 258.33C365.67 258.153 365.624 257.998 365.531 257.864C365.438 257.729 365.304 257.624 365.128 257.548C364.954 257.473 364.743 257.435 364.497 257.435H363.983V256.622H364.497C364.7 256.622 364.877 256.587 365.028 256.517C365.182 256.447 365.302 256.348 365.389 256.222C365.476 256.093 365.519 255.944 365.517 255.776C365.519 255.611 365.482 255.468 365.406 255.347C365.332 255.223 365.227 255.128 365.091 255.06C364.956 254.991 364.798 254.957 364.616 254.957C364.438 254.957 364.274 254.99 364.122 255.054C363.971 255.118 363.848 255.21 363.756 255.33C363.663 255.447 363.614 255.587 363.608 255.75H362.594C362.601 255.424 362.695 255.138 362.875 254.892C363.057 254.644 363.299 254.451 363.602 254.312C363.905 254.172 364.245 254.102 364.622 254.102C365.01 254.102 365.348 254.175 365.634 254.321C365.921 254.465 366.144 254.659 366.301 254.903C366.458 255.148 366.537 255.418 366.537 255.713C366.539 256.041 366.442 256.315 366.247 256.537C366.054 256.759 365.8 256.903 365.486 256.972V257.017C365.895 257.074 366.208 257.225 366.426 257.472C366.646 257.716 366.755 258.02 366.753 258.384C366.753 258.709 366.66 259.001 366.474 259.259C366.291 259.514 366.037 259.715 365.713 259.861C365.391 260.007 365.022 260.08 364.605 260.08ZM370.094 254.182V260H369.04V255.207H369.006L367.646 256.077V255.111L369.092 254.182H370.094ZM373.702 260.08C373.424 260.078 373.152 260.029 372.887 259.935C372.622 259.838 372.383 259.682 372.171 259.466C371.959 259.248 371.79 258.959 371.665 258.599C371.54 258.238 371.479 257.79 371.481 257.256C371.481 256.758 371.534 256.313 371.64 255.923C371.746 255.533 371.898 255.204 372.097 254.935C372.296 254.664 372.536 254.457 372.816 254.315C373.098 254.173 373.414 254.102 373.762 254.102C374.128 254.102 374.451 254.174 374.734 254.318C375.018 254.462 375.247 254.659 375.421 254.909C375.595 255.157 375.703 255.438 375.745 255.75H374.708C374.655 255.527 374.546 255.348 374.381 255.216C374.219 255.081 374.012 255.014 373.762 255.014C373.359 255.014 373.048 255.189 372.83 255.54C372.614 255.89 372.505 256.371 372.504 256.983H372.543C372.636 256.816 372.756 256.673 372.904 256.554C373.052 256.435 373.219 256.343 373.404 256.278C373.592 256.212 373.79 256.179 373.998 256.179C374.339 256.179 374.645 256.26 374.915 256.423C375.188 256.586 375.404 256.811 375.563 257.097C375.722 257.381 375.801 257.706 375.799 258.074C375.801 258.456 375.714 258.8 375.538 259.105C375.362 259.408 375.116 259.647 374.802 259.821C374.487 259.995 374.121 260.081 373.702 260.08ZM373.697 259.227C373.903 259.227 374.088 259.177 374.251 259.077C374.414 258.976 374.542 258.841 374.637 258.67C374.732 258.5 374.778 258.309 374.776 258.097C374.778 257.888 374.733 257.7 374.64 257.531C374.549 257.363 374.423 257.229 374.262 257.131C374.101 257.032 373.917 256.983 373.711 256.983C373.558 256.983 373.415 257.012 373.282 257.071C373.149 257.13 373.034 257.211 372.935 257.315C372.837 257.418 372.759 257.537 372.702 257.673C372.647 257.808 372.619 257.952 372.617 258.105C372.619 258.308 372.666 258.494 372.759 258.665C372.852 258.835 372.98 258.972 373.143 259.074C373.306 259.176 373.49 259.227 373.697 259.227Z" fill="#262626"/>
<path d="M399.605 260.08C399.196 260.08 398.832 260.009 398.514 259.869C398.198 259.729 397.948 259.534 397.764 259.284C397.58 259.034 397.483 258.745 397.472 258.418H398.54C398.549 258.575 398.601 258.712 398.696 258.83C398.791 258.945 398.917 259.035 399.074 259.099C399.231 259.164 399.407 259.196 399.602 259.196C399.811 259.196 399.995 259.16 400.156 259.088C400.317 259.014 400.443 258.912 400.534 258.781C400.625 258.651 400.67 258.5 400.668 258.33C400.67 258.153 400.624 257.998 400.531 257.864C400.438 257.729 400.304 257.624 400.128 257.548C399.954 257.473 399.743 257.435 399.497 257.435H398.983V256.622H399.497C399.7 256.622 399.877 256.587 400.028 256.517C400.182 256.447 400.302 256.348 400.389 256.222C400.476 256.093 400.519 255.944 400.517 255.776C400.519 255.611 400.482 255.468 400.406 255.347C400.332 255.223 400.227 255.128 400.091 255.06C399.956 254.991 399.798 254.957 399.616 254.957C399.438 254.957 399.274 254.99 399.122 255.054C398.971 255.118 398.848 255.21 398.756 255.33C398.663 255.447 398.614 255.587 398.608 255.75H397.594C397.601 255.424 397.695 255.138 397.875 254.892C398.057 254.644 398.299 254.451 398.602 254.312C398.905 254.172 399.245 254.102 399.622 254.102C400.01 254.102 400.348 254.175 400.634 254.321C400.921 254.465 401.144 254.659 401.301 254.903C401.458 255.148 401.537 255.418 401.537 255.713C401.539 256.041 401.442 256.315 401.247 256.537C401.054 256.759 400.8 256.903 400.486 256.972V257.017C400.895 257.074 401.208 257.225 401.426 257.472C401.646 257.716 401.755 258.02 401.753 258.384C401.753 258.709 401.66 259.001 401.474 259.259C401.291 259.514 401.037 259.715 400.713 259.861C400.391 260.007 400.022 260.08 399.605 260.08ZM405.094 254.182V260H404.04V255.207H404.006L402.646 256.077V255.111L404.092 254.182H405.094ZM406.785 260L409.259 255.102V255.062H406.387V254.182H410.35V255.082L407.879 260H406.785Z" fill="#262626"/>
<path d="M433.605 260.08C433.196 260.08 432.832 260.009 432.514 259.869C432.198 259.729 431.948 259.534 431.764 259.284C431.58 259.034 431.483 258.745 431.472 258.418H432.54C432.549 258.575 432.601 258.712 432.696 258.83C432.791 258.945 432.917 259.035 433.074 259.099C433.231 259.164 433.407 259.196 433.602 259.196C433.811 259.196 433.995 259.16 434.156 259.088C434.317 259.014 434.443 258.912 434.534 258.781C434.625 258.651 434.67 258.5 434.668 258.33C434.67 258.153 434.624 257.998 434.531 257.864C434.438 257.729 434.304 257.624 434.128 257.548C433.954 257.473 433.743 257.435 433.497 257.435H432.983V256.622H433.497C433.7 256.622 433.877 256.587 434.028 256.517C434.182 256.447 434.302 256.348 434.389 256.222C434.476 256.093 434.519 255.944 434.517 255.776C434.519 255.611 434.482 255.468 434.406 255.347C434.332 255.223 434.227 255.128 434.091 255.06C433.956 254.991 433.798 254.957 433.616 254.957C433.438 254.957 433.274 254.99 433.122 255.054C432.971 255.118 432.848 255.21 432.756 255.33C432.663 255.447 432.614 255.587 432.608 255.75H431.594C431.601 255.424 431.695 255.138 431.875 254.892C432.057 254.644 432.299 254.451 432.602 254.312C432.905 254.172 433.245 254.102 433.622 254.102C434.01 254.102 434.348 254.175 434.634 254.321C434.921 254.465 435.144 254.659 435.301 254.903C435.458 255.148 435.537 255.418 435.537 255.713C435.539 256.041 435.442 256.315 435.247 256.537C435.054 256.759 434.8 256.903 434.486 256.972V257.017C434.895 257.074 435.208 257.225 435.426 257.472C435.646 257.716 435.755 258.02 435.753 258.384C435.753 258.709 435.66 259.001 435.474 259.259C435.291 259.514 435.037 259.715 434.713 259.861C434.391 260.007 434.022 260.08 433.605 260.08ZM439.094 254.182V260H438.04V255.207H438.006L436.646 256.077V255.111L438.092 254.182H439.094ZM442.64 260.08C442.218 260.08 441.843 260.009 441.515 259.866C441.189 259.724 440.933 259.53 440.748 259.284C440.564 259.036 440.473 258.755 440.475 258.44C440.473 258.196 440.526 257.972 440.634 257.767C440.742 257.562 440.888 257.392 441.072 257.256C441.257 257.117 441.464 257.029 441.691 256.991V256.952C441.392 256.885 441.149 256.733 440.964 256.494C440.78 256.254 440.689 255.976 440.691 255.662C440.689 255.363 440.772 255.096 440.941 254.861C441.11 254.626 441.341 254.441 441.634 254.307C441.928 254.17 442.263 254.102 442.64 254.102C443.013 254.102 443.345 254.17 443.637 254.307C443.931 254.441 444.162 254.626 444.33 254.861C444.501 255.096 444.586 255.363 444.586 255.662C444.586 255.976 444.492 256.254 444.305 256.494C444.119 256.733 443.879 256.885 443.586 256.952V256.991C443.813 257.029 444.018 257.117 444.2 257.256C444.383 257.392 444.529 257.562 444.637 257.767C444.747 257.972 444.802 258.196 444.802 258.44C444.802 258.755 444.709 259.036 444.523 259.284C444.338 259.53 444.082 259.724 443.756 259.866C443.433 260.009 443.06 260.08 442.64 260.08ZM442.64 259.267C442.858 259.267 443.047 259.23 443.208 259.156C443.369 259.08 443.494 258.974 443.583 258.838C443.672 258.702 443.718 258.545 443.719 258.366C443.718 258.181 443.669 258.017 443.575 257.875C443.482 257.731 443.354 257.618 443.191 257.537C443.03 257.455 442.846 257.415 442.64 257.415C442.432 257.415 442.246 257.455 442.083 257.537C441.92 257.618 441.791 257.731 441.697 257.875C441.604 258.017 441.558 258.181 441.56 258.366C441.558 258.545 441.602 258.702 441.691 258.838C441.78 258.973 441.905 259.078 442.066 259.153C442.229 259.229 442.42 259.267 442.64 259.267ZM442.64 256.616C442.818 256.616 442.975 256.58 443.112 256.509C443.25 256.437 443.359 256.336 443.438 256.207C443.518 256.079 443.558 255.93 443.56 255.761C443.558 255.595 443.519 255.449 443.441 255.324C443.363 255.197 443.255 255.099 443.117 255.031C442.979 254.961 442.82 254.926 442.64 254.926C442.456 254.926 442.294 254.961 442.154 255.031C442.016 255.099 441.908 255.197 441.83 255.324C441.754 255.449 441.718 255.595 441.719 255.761C441.718 255.93 441.755 256.079 441.833 256.207C441.913 256.334 442.022 256.435 442.16 256.509C442.3 256.58 442.46 256.616 442.64 256.616Z" fill="#262626"/>
<mask id="path-79-inside-15_12_925" fill="white">
<path d="M543 227H572V282H543V227Z"/>
</mask>
<path d="M543 227H572V282H543V227Z" fill="#41413F"/>
<path d="M543 227V226H542V227H543ZM572 227H573V226H572V227ZM572 282V283H573V282H572ZM543 282H542V283H543V282ZM543 227V228H572V227V226H543V227ZM572 227H571V282H572H573V227H572ZM572 282V281H543V282V283H572V282ZM543 282H544V227H543H542V282H543Z" fill="#1E1E1E" mask="url(#path-79-inside-15_12_925)"/>
<mask id="path-81-inside-16_12_925" fill="white">
<path d="M577 227H606V282H577V227Z"/>
</mask>
<path d="M577 227H606V282H577V227Z" fill="#41413F"/>
<path d="M577 227V226H576V227H577ZM606 227H607V226H606V227ZM606 282V283H607V282H606ZM577 282H576V283H577V282ZM577 227V228H606V227V226H577V227ZM606 227H605V282H606H607V227H606ZM606 282V281H577V282V283H606V282ZM577 282H578V227H577H576V282H577Z" fill="#1E1E1E" mask="url(#path-81-inside-16_12_925)"/>
<mask id="path-83-inside-17_12_925" fill="white">
<path d="M612 227H641V282H612V227Z"/>
</mask>
<path d="M612 227H641V282H612V227Z" fill="#41413F"/>
<path d="M612 227V226H611V227H612ZM641 227H642V226H641V227ZM641 282V283H642V282H641ZM612 282H611V283H612V282ZM612 227V228H641V227V226H612V227ZM641 227H640V282H641H642V227H641ZM641 282V281H612V282V283H641V282ZM612 282H613V227H612H611V282H612Z" fill="#1E1E1E" mask="url(#path-83-inside-17_12_925)"/>
<mask id="path-85-inside-18_12_925" fill="white">
<path d="M379 157H399V197H379V157Z"/>
</mask>
<path d="M379 157H399V197H379V157Z" fill="#282929"/>
<path d="M399 157H398V197H399H400V157H399ZM379 197H380V157H379H378V197H379Z" fill="#41413F" mask="url(#path-85-inside-18_12_925)"/>
<mask id="path-87-inside-19_12_925" fill="white">
<path d="M381 192H397V194H381V192Z"/>
</mask>
<path d="M381 192H397V194H381V192Z" fill="#262626"/>
<path d="M381 192V191H380V192H381ZM397 192H398V191H397V192ZM397 194V195H398V194H397ZM381 194H380V195H381V194ZM381 192V193H397V192V191H381V192ZM397 192H396V194H397H398V192H397ZM397 194V193H381V194V195H397V194ZM381 194H382V192H381H380V194H381Z" fill="#41413F" mask="url(#path-87-inside-19_12_925)"/>
<mask id="path-89-inside-20_12_925" fill="white">
<path d="M381 178H397V176H381V178Z"/>
</mask>
<path d="M381 178H397V176H381V178Z" fill="#262626"/>
<path d="M381 178V179H380V178H381ZM397 178H398V179H397V178ZM397 176V175H398V176H397ZM381 176H380V175H381V176ZM381 178V177H397V178V179H381V178ZM397 178H396V176H397H398V178H397ZM397 176V177H381V176V175H397V176ZM381 176H382V178H381H380V176H381Z" fill="#41413F" mask="url(#path-89-inside-20_12_925)"/>
<mask id="path-91-inside-21_12_925" fill="white">
<path d="M381 180H397V182H381V180Z"/>
</mask>
<path d="M381 180H397V182H381V180Z" fill="#262626"/>
<path d="M381 180V179H380V180H381ZM397 180H398V179H397V180ZM397 182V183H398V182H397ZM381 182H380V183H381V182ZM381 180V181H397V180V179H381V180ZM397 180H396V182H397H398V180H397ZM397 182V181H381V182V183H397V182ZM381 182H382V180H381H380V182H381Z" fill="#41413F" mask="url(#path-91-inside-21_12_925)"/>
<mask id="path-93-inside-22_12_925" fill="white">
<path d="M381 184H397V186H381V184Z"/>
</mask>
<path d="M381 184H397V186H381V184Z" fill="#262626"/>
<path d="M381 184V183H380V184H381ZM397 184H398V183H397V184ZM397 186V187H398V186H397ZM381 186H380V187H381V186ZM381 184V185H397V184V183H381V184ZM397 184H396V186H397H398V184H397ZM397 186V185H381V186V187H397V186ZM381 186H382V184H381H380V186H381Z" fill="#41413F" mask="url(#path-93-inside-22_12_925)"/>
<mask id="path-95-inside-23_12_925" fill="white">
<path d="M381 188H397V190H381V188Z"/>
</mask>
<path d="M381 188H397V190H381V188Z" fill="#262626"/>
<path d="M381 188V187H380V188H381ZM397 188H398V187H397V188ZM397 190V191H398V190H397ZM381 190H380V191H381V190ZM381 188V189H397V188V187H381V188ZM397 188H396V190H397H398V188H397ZM397 190V189H381V190V191H397V190ZM381 190H382V188H381H380V190H381Z" fill="#41413F" mask="url(#path-95-inside-23_12_925)"/>
<mask id="path-97-inside-24_12_925" fill="white">
<path d="M381 172H397V174H381V172Z"/>
</mask>
<path d="M381 172H397V174H381V172Z" fill="#262626"/>
<path d="M381 172V171H380V172H381ZM397 172H398V171H397V172ZM397 174V175H398V174H397ZM381 174H380V175H381V174ZM381 172V173H397V172V171H381V172ZM397 172H396V174H397H398V172H397ZM397 174V173H381V174V175H397V174ZM381 174H382V172H381H380V174H381Z" fill="#41413F" mask="url(#path-97-inside-24_12_925)"/>
<mask id="path-99-inside-25_12_925" fill="white">
<path d="M381 160H397V162H381V160Z"/>
</mask>
<path d="M381 160H397V162H381V160Z" fill="#262626"/>
<path d="M381 160V159H380V160H381ZM397 160H398V159H397V160ZM397 162V163H398V162H397ZM381 162H380V163H381V162ZM381 160V161H397V160V159H381V160ZM397 160H396V162H397H398V160H397ZM397 162V161H381V162V163H397V162ZM381 162H382V160H381H380V162H381Z" fill="#41413F" mask="url(#path-99-inside-25_12_925)"/>
<mask id="path-101-inside-26_12_925" fill="white">
<path d="M381 164H397V166H381V164Z"/>
</mask>
<path d="M381 164H397V166H381V164Z" fill="#262626"/>
<path d="M381 164V163H380V164H381ZM397 164H398V163H397V164ZM397 166V167H398V166H397ZM381 166H380V167H381V166ZM381 164V165H397V164V163H381V164ZM397 164H396V166H397H398V164H397ZM397 166V165H381V166V167H397V166ZM381 166H382V164H381H380V166H381Z" fill="#41413F" mask="url(#path-101-inside-26_12_925)"/>
<mask id="path-103-inside-27_12_925" fill="white">
<path d="M381 168H397V170H381V168Z"/>
</mask>
<path d="M381 168H397V170H381V168Z" fill="#262626"/>
<path d="M381 168V167H380V168H381ZM397 168H398V167H397V168ZM397 170V171H398V170H397ZM381 170H380V171H381V170ZM381 168V169H397V168V167H381V168ZM397 168H396V170H397H398V168H397ZM397 170V169H381V170V171H397V170ZM381 170H382V168H381H380V170H381Z" fill="#41413F" mask="url(#path-103-inside-27_12_925)"/>
<mask id="path-105-inside-28_12_925" fill="white">
<path d="M621 157H641V197H621V157Z"/>
</mask>
<path d="M621 157H641V197H621V157Z" fill="#282929"/>
<path d="M641 157H640V197H641H642V157H641ZM621 197H622V157H621H620V197H621Z" fill="#41413F" mask="url(#path-105-inside-28_12_925)"/>
<mask id="path-107-inside-29_12_925" fill="white">
<path d="M623 192H639V194H623V192Z"/>
</mask>
<path d="M623 192H639V194H623V192Z" fill="#262626"/>
<path d="M623 192V191H622V192H623ZM639 192H640V191H639V192ZM639 194V195H640V194H639ZM623 194H622V195H623V194ZM623 192V193H639V192V191H623V192ZM639 192H638V194H639H640V192H639ZM639 194V193H623V194V195H639V194ZM623 194H624V192H623H622V194H623Z" fill="#41413F" mask="url(#path-107-inside-29_12_925)"/>
<mask id="path-109-inside-30_12_925" fill="white">
<path d="M623 178H639V176H623V178Z"/>
</mask>
<path d="M623 178H639V176H623V178Z" fill="#262626"/>
<path d="M623 178V179H622V178H623ZM639 178H640V179H639V178ZM639 176V175H640V176H639ZM623 176H622V175H623V176ZM623 178V177H639V178V179H623V178ZM639 178H638V176H639H640V178H639ZM639 176V177H623V176V175H639V176ZM623 176H624V178H623H622V176H623Z" fill="#41413F" mask="url(#path-109-inside-30_12_925)"/>
<mask id="path-111-inside-31_12_925" fill="white">
<path d="M623 180H639V182H623V180Z"/>
</mask>
<path d="M623 180H639V182H623V180Z" fill="#262626"/>
<path d="M623 180V179H622V180H623ZM639 180H640V179H639V180ZM639 182V183H640V182H639ZM623 182H622V183H623V182ZM623 180V181H639V180V179H623V180ZM639 180H638V182H639H640V180H639ZM639 182V181H623V182V183H639V182ZM623 182H624V180H623H622V182H623Z" fill="#41413F" mask="url(#path-111-inside-31_12_925)"/>
<mask id="path-113-inside-32_12_925" fill="white">
<path d="M623 184H639V186H623V184Z"/>
</mask>
<path d="M623 184H639V186H623V184Z" fill="#262626"/>
<path d="M623 184V183H622V184H623ZM639 184H640V183H639V184ZM639 186V187H640V186H639ZM623 186H622V187H623V186ZM623 184V185H639V184V183H623V184ZM639 184H638V186H639H640V184H639ZM639 186V185H623V186V187H639V186ZM623 186H624V184H623H622V186H623Z" fill="#41413F" mask="url(#path-113-inside-32_12_925)"/>
<mask id="path-115-inside-33_12_925" fill="white">
<path d="M623 188H639V190H623V188Z"/>
</mask>
<path d="M623 188H639V190H623V188Z" fill="#262626"/>
<path d="M623 188V187H622V188H623ZM639 188H640V187H639V188ZM639 190V191H640V190H639ZM623 190H622V191H623V190ZM623 188V189H639V188V187H623V188ZM639 188H638V190H639H640V188H639ZM639 190V189H623V190V191H639V190ZM623 190H624V188H623H622V190H623Z" fill="#41413F" mask="url(#path-115-inside-33_12_925)"/>
<mask id="path-117-inside-34_12_925" fill="white">
<path d="M623 172H639V174H623V172Z"/>
</mask>
<path d="M623 172H639V174H623V172Z" fill="#262626"/>
<path d="M623 172V171H622V172H623ZM639 172H640V171H639V172ZM639 174V175H640V174H639ZM623 174H622V175H623V174ZM623 172V173H639V172V171H623V172ZM639 172H638V174H639H640V172H639ZM639 174V173H623V174V175H639V174ZM623 174H624V172H623H622V174H623Z" fill="#41413F" mask="url(#path-117-inside-34_12_925)"/>
<mask id="path-119-inside-35_12_925" fill="white">
<path d="M623 160H639V162H623V160Z"/>
</mask>
<path d="M623 160H639V162H623V160Z" fill="#262626"/>
<path d="M623 160V159H622V160H623ZM639 160H640V159H639V160ZM639 162V163H640V162H639ZM623 162H622V163H623V162ZM623 160V161H639V160V159H623V160ZM639 160H638V162H639H640V160H639ZM639 162V161H623V162V163H639V162ZM623 162H624V160H623H622V162H623Z" fill="#41413F" mask="url(#path-119-inside-35_12_925)"/>
<mask id="path-121-inside-36_12_925" fill="white">
<path d="M623 164H639V166H623V164Z"/>
</mask>
<path d="M623 164H639V166H623V164Z" fill="#262626"/>
<path d="M623 164V163H622V164H623ZM639 164H640V163H639V164ZM639 166V167H640V166H639ZM623 166H622V167H623V166ZM623 164V165H639V164V163H623V164ZM639 164H638V166H639H640V164H639ZM639 166V165H623V166V167H639V166ZM623 166H624V164H623H622V166H623Z" fill="#41413F" mask="url(#path-121-inside-36_12_925)"/>
<mask id="path-123-inside-37_12_925" fill="white">
<path d="M623 168H639V170H623V168Z"/>
</mask>
<path d="M623 168H639V170H623V168Z" fill="#262626"/>
<path d="M623 168V167H622V168H623ZM639 168H640V167H639V168ZM639 170V171H640V170H639ZM623 170H622V171H623V170ZM623 168V169H639V168V167H623V168ZM639 168H638V170H639H640V168H639ZM639 170V169H623V170V171H639V170ZM623 170H624V168H623H622V170H623Z" fill="#41413F" mask="url(#path-123-inside-37_12_925)"/>
<mask id="path-125-inside-38_12_925" fill="white">
<path d="M355 157H375V197H355V157Z"/>
</mask>
<path d="M355 157H375V197H355V157Z" fill="#282929"/>
<path d="M375 157H374V197H375H376V157H375ZM355 197H356V157H355H354V197H355Z" fill="#41413F" mask="url(#path-125-inside-38_12_925)"/>
<mask id="path-127-inside-39_12_925" fill="white">
<path d="M357 192H373V194H357V192Z"/>
</mask>
<path d="M357 192H373V194H357V192Z" fill="#262626"/>
<path d="M357 192V191H356V192H357ZM373 192H374V191H373V192ZM373 194V195H374V194H373ZM357 194H356V195H357V194ZM357 192V193H373V192V191H357V192ZM373 192H372V194H373H374V192H373ZM373 194V193H357V194V195H373V194ZM357 194H358V192H357H356V194H357Z" fill="#41413F" mask="url(#path-127-inside-39_12_925)"/>
<mask id="path-129-inside-40_12_925" fill="white">
<path d="M357 178H373V176H357V178Z"/>
</mask>
<path d="M357 178H373V176H357V178Z" fill="#262626"/>
<path d="M357 178V179H356V178H357ZM373 178H374V179H373V178ZM373 176V175H374V176H373ZM357 176H356V175H357V176ZM357 178V177H373V178V179H357V178ZM373 178H372V176H373H374V178H373ZM373 176V177H357V176V175H373V176ZM357 176H358V178H357H356V176H357Z" fill="#41413F" mask="url(#path-129-inside-40_12_925)"/>
<mask id="path-131-inside-41_12_925" fill="white">
<path d="M357 180H373V182H357V180Z"/>
</mask>
<path d="M357 180H373V182H357V180Z" fill="#262626"/>
<path d="M357 180V179H356V180H357ZM373 180H374V179H373V180ZM373 182V183H374V182H373ZM357 182H356V183H357V182ZM357 180V181H373V180V179H357V180ZM373 180H372V182H373H374V180H373ZM373 182V181H357V182V183H373V182ZM357 182H358V180H357H356V182H357Z" fill="#41413F" mask="url(#path-131-inside-41_12_925)"/>
<mask id="path-133-inside-42_12_925" fill="white">
<path d="M357 184H373V186H357V184Z"/>
</mask>
<path d="M357 184H373V186H357V184Z" fill="#262626"/>
<path d="M357 184V183H356V184H357ZM373 184H374V183H373V184ZM373 186V187H374V186H373ZM357 186H356V187H357V186ZM357 184V185H373V184V183H357V184ZM373 184H372V186H373H374V184H373ZM373 186V185H357V186V187H373V186ZM357 186H358V184H357H356V186H357Z" fill="#41413F" mask="url(#path-133-inside-42_12_925)"/>
<mask id="path-135-inside-43_12_925" fill="white">
<path d="M357 188H373V190H357V188Z"/>
</mask>
<path d="M357 188H373V190H357V188Z" fill="#262626"/>
<path d="M357 188V187H356V188H357ZM373 188H374V187H373V188ZM373 190V191H374V190H373ZM357 190H356V191H357V190ZM357 188V189H373V188V187H357V188ZM373 188H372V190H373H374V188H373ZM373 190V189H357V190V191H373V190ZM357 190H358V188H357H356V190H357Z" fill="#41413F" mask="url(#path-135-inside-43_12_925)"/>
<mask id="path-137-inside-44_12_925" fill="white">
<path d="M357 172H373V174H357V172Z"/>
</mask>
<path d="M357 172H373V174H357V172Z" fill="#262626"/>
<path d="M357 172V171H356V172H357ZM373 172H374V171H373V172ZM373 174V175H374V174H373ZM357 174H356V175H357V174ZM357 172V173H373V172V171H357V172ZM373 172H372V174H373H374V172H373ZM373 174V173H357V174V175H373V174ZM357 174H358V172H357H356V174H357Z" fill="#41413F" mask="url(#path-137-inside-44_12_925)"/>
<mask id="path-139-inside-45_12_925" fill="white">
<path d="M357 160H373V162H357V160Z"/>
</mask>
<path d="M357 160H373V162H357V160Z" fill="#262626"/>
<path d="M357 160V159H356V160H357ZM373 160H374V159H373V160ZM373 162V163H374V162H373ZM357 162H356V163H357V162ZM357 160V161H373V160V159H357V160ZM373 160H372V162H373H374V160H373ZM373 162V161H357V162V163H373V162ZM357 162H358V160H357H356V162H357Z" fill="#41413F" mask="url(#path-139-inside-45_12_925)"/>
<mask id="path-141-inside-46_12_925" fill="white">
<path d="M357 164H373V166H357V164Z"/>
</mask>
<path d="M357 164H373V166H357V164Z" fill="#262626"/>
<path d="M357 164V163H356V164H357ZM373 164H374V163H373V164ZM373 166V167H374V166H373ZM357 166H356V167H357V166ZM357 164V165H373V164V163H357V164ZM373 164H372V166H373H374V164H373ZM373 166V165H357V166V167H373V166ZM357 166H358V164H357H356V166H357Z" fill="#41413F" mask="url(#path-141-inside-46_12_925)"/>
<mask id="path-143-inside-47_12_925" fill="white">
<path d="M357 168H373V170H357V168Z"/>
</mask>
<path d="M357 168H373V170H357V168Z" fill="#262626"/>
<path d="M357 168V167H356V168H357ZM373 168H374V167H373V168ZM373 170V171H374V170H373ZM357 170H356V171H357V170ZM357 168V169H373V168V167H357V168ZM373 168H372V170H373H374V168H373ZM373 170V169H357V170V171H373V170ZM357 170H358V168H357H356V170H357Z" fill="#41413F" mask="url(#path-143-inside-47_12_925)"/>
<mask id="path-145-inside-48_12_925" fill="white">
<path d="M596 157H616V197H596V157Z"/>
</mask>
<path d="M596 157H616V197H596V157Z" fill="#282929"/>
<path d="M616 157H615V197H616H617V157H616ZM596 197H597V157H596H595V197H596Z" fill="#41413F" mask="url(#path-145-inside-48_12_925)"/>
<mask id="path-147-inside-49_12_925" fill="white">
<path d="M598 192H614V194H598V192Z"/>
</mask>
<path d="M598 192H614V194H598V192Z" fill="#262626"/>
<path d="M598 192V191H597V192H598ZM614 192H615V191H614V192ZM614 194V195H615V194H614ZM598 194H597V195H598V194ZM598 192V193H614V192V191H598V192ZM614 192H613V194H614H615V192H614ZM614 194V193H598V194V195H614V194ZM598 194H599V192H598H597V194H598Z" fill="#41413F" mask="url(#path-147-inside-49_12_925)"/>
<mask id="path-149-inside-50_12_925" fill="white">
<path d="M598 178H614V176H598V178Z"/>
</mask>
<path d="M598 178H614V176H598V178Z" fill="#262626"/>
<path d="M598 178V179H597V178H598ZM614 178H615V179H614V178ZM614 176V175H615V176H614ZM598 176H597V175H598V176ZM598 178V177H614V178V179H598V178ZM614 178H613V176H614H615V178H614ZM614 176V177H598V176V175H614V176ZM598 176H599V178H598H597V176H598Z" fill="#41413F" mask="url(#path-149-inside-50_12_925)"/>
<mask id="path-151-inside-51_12_925" fill="white">
<path d="M598 180H614V182H598V180Z"/>
</mask>
<path d="M598 180H614V182H598V180Z" fill="#262626"/>
<path d="M598 180V179H597V180H598ZM614 180H615V179H614V180ZM614 182V183H615V182H614ZM598 182H597V183H598V182ZM598 180V181H614V180V179H598V180ZM614 180H613V182H614H615V180H614ZM614 182V181H598V182V183H614V182ZM598 182H599V180H598H597V182H598Z" fill="#41413F" mask="url(#path-151-inside-51_12_925)"/>
<mask id="path-153-inside-52_12_925" fill="white">
<path d="M598 184H614V186H598V184Z"/>
</mask>
<path d="M598 184H614V186H598V184Z" fill="#262626"/>
<path d="M598 184V183H597V184H598ZM614 184H615V183H614V184ZM614 186V187H615V186H614ZM598 186H597V187H598V186ZM598 184V185H614V184V183H598V184ZM614 184H613V186H614H615V184H614ZM614 186V185H598V186V187H614V186ZM598 186H599V184H598H597V186H598Z" fill="#41413F" mask="url(#path-153-inside-52_12_925)"/>
<mask id="path-155-inside-53_12_925" fill="white">
<path d="M598 188H614V190H598V188Z"/>
</mask>
<path d="M598 188H614V190H598V188Z" fill="#262626"/>
<path d="M598 188V187H597V188H598ZM614 188H615V187H614V188ZM614 190V191H615V190H614ZM598 190H597V191H598V190ZM598 188V189H614V188V187H598V188ZM614 188H613V190H614H615V188H614ZM614 190V189H598V190V191H614V190ZM598 190H599V188H598H597V190H598Z" fill="#41413F" mask="url(#path-155-inside-53_12_925)"/>
<mask id="path-157-inside-54_12_925" fill="white">
<path d="M598 172H614V174H598V172Z"/>
</mask>
<path d="M598 172H614V174H598V172Z" fill="#262626"/>
<path d="M598 172V171H597V172H598ZM614 172H615V171H614V172ZM614 174V175H615V174H614ZM598 174H597V175H598V174ZM598 172V173H614V172V171H598V172ZM614 172H613V174H614H615V172H614ZM614 174V173H598V174V175H614V174ZM598 174H599V172H598H597V174H598Z" fill="#41413F" mask="url(#path-157-inside-54_12_925)"/>
<mask id="path-159-inside-55_12_925" fill="white">
<path d="M598 160H614V162H598V160Z"/>
</mask>
<path d="M598 160H614V162H598V160Z" fill="#262626"/>
<path d="M598 160V159H597V160H598ZM614 160H615V159H614V160ZM614 162V163H615V162H614ZM598 162H597V163H598V162ZM598 160V161H614V160V159H598V160ZM614 160H613V162H614H615V160H614ZM614 162V161H598V162V163H614V162ZM598 162H599V160H598H597V162H598Z" fill="#41413F" mask="url(#path-159-inside-55_12_925)"/>
<mask id="path-161-inside-56_12_925" fill="white">
<path d="M598 164H614V166H598V164Z"/>
</mask>
<path d="M598 164H614V166H598V164Z" fill="#262626"/>
<path d="M598 164V163H597V164H598ZM614 164H615V163H614V164ZM614 166V167H615V166H614ZM598 166H597V167H598V166ZM598 164V165H614V164V163H598V164ZM614 164H613V166H614H615V164H614ZM614 166V165H598V166V167H614V166ZM598 166H599V164H598H597V166H598Z" fill="#41413F" mask="url(#path-161-inside-56_12_925)"/>
<mask id="path-163-inside-57_12_925" fill="white">
<path d="M598 168H614V170H598V168Z"/>
</mask>
<path d="M598 168H614V170H598V168Z" fill="#262626"/>
<path d="M598 168V167H597V168H598ZM614 168H615V167H614V168ZM614 170V171H615V170H614ZM598 170H597V171H598V170ZM598 168V169H614V168V167H598V168ZM614 168H613V170H614H615V168H614ZM614 170V169H598V170V171H614V170ZM598 170H599V168H598H597V170H598Z" fill="#41413F" mask="url(#path-163-inside-57_12_925)"/>
<mask id="path-165-inside-58_12_925" fill="white">
<path d="M452 289H543V385H452V289Z"/>
</mask>
<path d="M452 289H543V385H452V289Z" fill="#262626"/>
<path d="M543 385V386H544V385H543ZM452 385H451V386H452V385ZM543 289H542V385H543H544V289H543ZM543 385V384H452V385V386H543V385ZM452 385H453V289H452H451V385H452Z" fill="#41413F" mask="url(#path-165-inside-58_12_925)"/>
<mask id="path-167-inside-59_12_925" fill="white">
<path d="M455 380H540V382H455V380Z"/>
</mask>
<path d="M455 380H540V382H455V380Z" fill="#262626"/>
<path d="M455 380V379H454V380H455ZM540 380H541V379H540V380ZM540 382V383H541V382H540ZM455 382H454V383H455V382ZM455 380V381H540V380V379H455V380ZM540 380H539V382H540H541V380H540ZM540 382V381H455V382V383H540V382ZM455 382H456V380H455H454V382H455Z" fill="#41413F" mask="url(#path-167-inside-59_12_925)"/>
<mask id="path-169-inside-60_12_925" fill="white">
<path d="M455 375H540V377H455V375Z"/>
</mask>
<path d="M455 375H540V377H455V375Z" fill="#262626"/>
<path d="M455 375V374H454V375H455ZM540 375H541V374H540V375ZM540 377V378H541V377H540ZM455 377H454V378H455V377ZM455 375V376H540V375V374H455V375ZM540 375H539V377H540H541V375H540ZM540 377V376H455V377V378H540V377ZM455 377H456V375H455H454V377H455Z" fill="#41413F" mask="url(#path-169-inside-60_12_925)"/>
<mask id="path-171-inside-61_12_925" fill="white">
<path d="M455 360H540V362H455V360Z"/>
</mask>
<path d="M455 360H540V362H455V360Z" fill="#262626"/>
<path d="M455 360V359H454V360H455ZM540 360H541V359H540V360ZM540 362V363H541V362H540ZM455 362H454V363H455V362ZM455 360V361H540V360V359H455V360ZM540 360H539V362H540H541V360H540ZM540 362V361H455V362V363H540V362ZM455 362H456V360H455H454V362H455Z" fill="#41413F" mask="url(#path-171-inside-61_12_925)"/>
<mask id="path-173-inside-62_12_925" fill="white">
<path d="M455 370H540V372H455V370Z"/>
</mask>
<path d="M455 370H540V372H455V370Z" fill="#262626"/>
<path d="M455 370V369H454V370H455ZM540 370H541V369H540V370ZM540 372V373H541V372H540ZM455 372H454V373H455V372ZM455 370V371H540V370V369H455V370ZM540 370H539V372H540H541V370H540ZM540 372V371H455V372V373H540V372ZM455 372H456V370H455H454V372H455Z" fill="#41413F" mask="url(#path-173-inside-62_12_925)"/>
<mask id="path-175-inside-63_12_925" fill="white">
<path d="M455 365H540V367H455V365Z"/>
</mask>
<path d="M455 365H540V367H455V365Z" fill="#262626"/>
<path d="M455 365V364H454V365H455ZM540 365H541V364H540V365ZM540 367V368H541V367H540ZM455 367H454V368H455V367ZM455 365V366H540V365V364H455V365ZM540 365H539V367H540H541V365H540ZM540 367V366H455V367V368H540V367ZM455 367H456V365H455H454V367H455Z" fill="#41413F" mask="url(#path-175-inside-63_12_925)"/>
<mask id="path-177-inside-64_12_925" fill="white">
<path d="M310 300H452V322H310V300Z"/>
</mask>
<path d="M310 300H452V322H310V300Z" fill="#262626"/>
<path d="M310 300V301H452V300V299H310V300ZM452 322V321H310V322V323H452V322Z" fill="#41413F" mask="url(#path-177-inside-64_12_925)"/>
<mask id="path-179-inside-65_12_925" fill="white">
<path d="M310 203H349V225H310V203Z"/>
</mask>
<path d="M310 203H349V225H310V203Z" fill="#262626"/>
<path d="M310 203V204H349V203V202H310V203ZM349 225V224H310V225V226H349V225Z" fill="#41413F" mask="url(#path-179-inside-65_12_925)"/>
<path d="M472.861 219V210.273H476.134C476.804 210.273 477.366 210.398 477.821 210.648C478.278 210.898 478.624 211.241 478.857 211.679C479.092 212.114 479.21 212.608 479.21 213.162C479.21 213.722 479.092 214.219 478.857 214.653C478.621 215.088 478.273 215.43 477.812 215.68C477.352 215.928 476.786 216.051 476.112 216.051H473.943V214.751H475.899C476.291 214.751 476.612 214.683 476.862 214.547C477.112 214.411 477.297 214.223 477.416 213.984C477.538 213.746 477.599 213.472 477.599 213.162C477.599 212.852 477.538 212.58 477.416 212.344C477.297 212.108 477.111 211.925 476.858 211.794C476.608 211.661 476.286 211.594 475.891 211.594H474.442V219H472.861ZM480.515 219V212.455H482.058V219H480.515ZM481.291 211.526C481.047 211.526 480.836 211.445 480.66 211.283C480.484 211.118 480.396 210.92 480.396 210.69C480.396 210.457 480.484 210.26 480.66 210.098C480.836 209.933 481.047 209.851 481.291 209.851C481.538 209.851 481.748 209.933 481.922 210.098C482.098 210.26 482.186 210.457 482.186 210.69C482.186 210.92 482.098 211.118 481.922 211.283C481.748 211.445 481.538 211.526 481.291 211.526ZM488.817 214.185L487.411 214.338C487.371 214.196 487.302 214.062 487.202 213.938C487.106 213.812 486.975 213.712 486.81 213.635C486.646 213.558 486.444 213.52 486.205 213.52C485.884 213.52 485.614 213.589 485.396 213.729C485.18 213.868 485.073 214.048 485.076 214.27C485.073 214.46 485.143 214.615 485.285 214.734C485.43 214.854 485.668 214.952 486.001 215.028L487.117 215.267C487.737 215.401 488.197 215.612 488.498 215.902C488.802 216.192 488.955 216.571 488.958 217.04C488.955 217.452 488.835 217.815 488.596 218.131C488.36 218.443 488.032 218.687 487.612 218.864C487.191 219.04 486.708 219.128 486.163 219.128C485.362 219.128 484.717 218.96 484.228 218.625C483.739 218.287 483.448 217.817 483.354 217.214L484.859 217.07C484.927 217.365 485.072 217.588 485.293 217.739C485.515 217.889 485.803 217.964 486.158 217.964C486.525 217.964 486.819 217.889 487.04 217.739C487.265 217.588 487.377 217.402 487.377 217.18C487.377 216.993 487.305 216.838 487.16 216.716C487.018 216.594 486.796 216.5 486.495 216.435L485.379 216.2C484.751 216.07 484.286 215.849 483.985 215.54C483.684 215.227 483.535 214.832 483.538 214.355C483.535 213.952 483.644 213.602 483.866 213.307C484.09 213.009 484.401 212.778 484.799 212.616C485.2 212.452 485.661 212.369 486.184 212.369C486.951 212.369 487.555 212.533 487.995 212.859C488.438 213.186 488.712 213.628 488.817 214.185ZM493.085 219.128C492.446 219.128 491.892 218.987 491.423 218.706C490.955 218.425 490.591 218.031 490.332 217.526C490.077 217.02 489.949 216.429 489.949 215.753C489.949 215.077 490.077 214.484 490.332 213.976C490.591 213.467 490.955 213.072 491.423 212.791C491.892 212.51 492.446 212.369 493.085 212.369C493.724 212.369 494.278 212.51 494.747 212.791C495.216 213.072 495.578 213.467 495.834 213.976C496.092 214.484 496.222 215.077 496.222 215.753C496.222 216.429 496.092 217.02 495.834 217.526C495.578 218.031 495.216 218.425 494.747 218.706C494.278 218.987 493.724 219.128 493.085 219.128ZM493.094 217.892C493.44 217.892 493.73 217.797 493.963 217.607C494.196 217.413 494.369 217.155 494.483 216.831C494.599 216.507 494.658 216.146 494.658 215.749C494.658 215.348 494.599 214.986 494.483 214.662C494.369 214.335 494.196 214.075 493.963 213.882C493.73 213.689 493.44 213.592 493.094 213.592C492.739 213.592 492.443 213.689 492.207 213.882C491.974 214.075 491.8 214.335 491.683 214.662C491.57 214.986 491.513 215.348 491.513 215.749C491.513 216.146 491.57 216.507 491.683 216.831C491.8 217.155 491.974 217.413 492.207 217.607C492.443 217.797 492.739 217.892 493.094 217.892ZM503.797 219L505.229 210.273H506.422L504.99 219H503.797ZM499.864 216.75L500.064 215.557H506.78L506.58 216.75H499.864ZM500.729 219L502.161 210.273H503.354L501.922 219H500.729ZM500.371 213.716L500.567 212.523H507.283L507.087 213.716H500.371ZM511.439 219.166C510.737 219.166 510.135 218.989 509.632 218.634C509.132 218.276 508.747 217.76 508.477 217.087C508.21 216.411 508.077 215.597 508.077 214.645C508.08 213.693 508.214 212.884 508.482 212.216C508.751 211.545 509.136 211.034 509.636 210.682C510.139 210.33 510.74 210.153 511.439 210.153C512.138 210.153 512.739 210.33 513.241 210.682C513.744 211.034 514.129 211.545 514.396 212.216C514.666 212.886 514.801 213.696 514.801 214.645C514.801 215.599 514.666 216.415 514.396 217.091C514.129 217.764 513.744 218.278 513.241 218.634C512.741 218.989 512.141 219.166 511.439 219.166ZM511.439 217.832C511.984 217.832 512.415 217.564 512.73 217.027C513.048 216.487 513.207 215.693 513.207 214.645C513.207 213.952 513.135 213.369 512.99 212.898C512.845 212.426 512.641 212.071 512.376 211.832C512.112 211.591 511.8 211.47 511.439 211.47C510.896 211.47 510.467 211.74 510.152 212.28C509.837 212.817 509.678 213.605 509.675 214.645C509.672 215.341 509.741 215.926 509.884 216.401C510.028 216.875 510.233 217.233 510.497 217.474C510.761 217.713 511.075 217.832 511.439 217.832ZM516.059 217.381V216.124L519.762 210.273H520.811V212.062H520.172L517.679 216.013V216.081H522.848V217.381H516.059ZM520.223 219V216.997L520.24 216.435V210.273H521.731V219H520.223Z" fill="#41413F"/>
<rect x="54.5" y="69.5" width="22" height="109" fill="#1E1E1E" stroke="#41413F"/>
<rect x="138.5" y="189.5" width="66" height="7" fill="#1E1E1E" stroke="#41413F"/>
<rect x="160.5" y="207.5" width="9" height="4" fill="#1E1E1E" stroke="#41413F"/>
<rect x="177.5" y="207.5" width="9" height="4" fill="#1E1E1E" stroke="#41413F"/>
<rect x="194.5" y="207.5" width="10" height="4" fill="#1E1E1E" stroke="#41413F"/>
<rect x="59" y="194" width="24" height="5" fill="#606060"/>
<rect x="104" y="194" width="24" height="5" fill="#606060"/>
<rect x="458.5" y="188.5" width="30" height="8" fill="#262626" stroke="#41413F"/>
<line x1="273.5" y1="169" x2="273.5" y2="189" stroke="#41413F"/>
<line x1="274.5" y1="169" x2="274.5" y2="189" stroke="#41413F"/>
<line x1="289" y1="163.5" x2="305" y2="163.5" stroke="#262626"/>
<line x1="235" y1="188.5" x2="248" y2="188.5" stroke="#41413F"/>
<mask id="path-194-inside-66_12_925" fill="white">
<path d="M63 319H80V346H63V319Z"/>
</mask>
<path d="M63 319H80V346H63V319Z" fill="#1E1E1E"/>
<path d="M80 319H79V346H80H81V319H80ZM63 346H64V319H63H62V346H63Z" fill="#41413F" mask="url(#path-194-inside-66_12_925)"/>
<mask id="path-196-inside-67_12_925" fill="white">
<path d="M163 269H180V296H163V269Z"/>
</mask>
<path d="M163 269H180V296H163V269Z" fill="#1E1E1E"/>
<path d="M180 269H179V296H180H181V269H180ZM163 296H164V269H163H162V296H163Z" fill="#41413F" mask="url(#path-196-inside-67_12_925)"/>
<mask id="path-198-inside-68_12_925" fill="white">
<path d="M138 269H155V296H138V269Z"/>
</mask>
<path d="M138 269H155V296H138V269Z" fill="#1E1E1E"/>
<path d="M155 269H154V296H155H156V269H155ZM138 296H139V269H138H137V296H138Z" fill="#41413F" mask="url(#path-198-inside-68_12_925)"/>
<mask id="path-200-inside-69_12_925" fill="white">
<path d="M113 269H130V296H113V269Z"/>
</mask>
<path d="M113 269H130V296H113V269Z" fill="#1E1E1E"/>
<path d="M130 269H129V296H130H131V269H130ZM113 296H114V269H113H112V296H113Z" fill="#41413F" mask="url(#path-200-inside-69_12_925)"/>
<mask id="path-202-inside-70_12_925" fill="white">
<path d="M88 269H105V296H88V269Z"/>
</mask>
<path d="M88 269H105V296H88V269Z" fill="#1E1E1E"/>
<path d="M105 269H104V296H105H106V269H105ZM88 296H89V269H88H87V296H88Z" fill="#41413F" mask="url(#path-202-inside-70_12_925)"/>
<mask id="path-204-inside-71_12_925" fill="white">
<path d="M63 269H80V296H63V269Z"/>
</mask>
<path d="M63 269H80V296H63V269Z" fill="#1E1E1E"/>
<path d="M80 269H79V296H80H81V269H80ZM63 296H64V269H63H62V296H63Z" fill="#41413F" mask="url(#path-204-inside-71_12_925)"/>
<mask id="path-206-inside-72_12_925" fill="white">
<path d="M188 319H205V346H188V319Z"/>
</mask>
<path d="M188 319H205V346H188V319Z" fill="#1E1E1E"/>
<path d="M205 319H204V346H205H206V319H205ZM188 346H189V319H188H187V346H188Z" fill="#41413F" mask="url(#path-206-inside-72_12_925)"/>
<mask id="path-208-inside-73_12_925" fill="white">
<path d="M163 319H180V346H163V319Z"/>
</mask>
<path d="M163 319H180V346H163V319Z" fill="#1E1E1E"/>
<path d="M180 319H179V346H180H181V319H180ZM163 346H164V319H163H162V346H163Z" fill="#41413F" mask="url(#path-208-inside-73_12_925)"/>
<mask id="path-210-inside-74_12_925" fill="white">
<path d="M138 319H155V346H138V319Z"/>
</mask>
<path d="M138 319H155V346H138V319Z" fill="#1E1E1E"/>
<path d="M155 319H154V346H155H156V319H155ZM138 346H139V319H138H137V346H138Z" fill="#41413F" mask="url(#path-210-inside-74_12_925)"/>
<mask id="path-212-inside-75_12_925" fill="white">
<path d="M113 319H130V346H113V319Z"/>
</mask>
<path d="M113 319H130V346H113V319Z" fill="#1E1E1E"/>
<path d="M130 319H129V346H130H131V319H130ZM113 346H114V319H113H112V346H113Z" fill="#41413F" mask="url(#path-212-inside-75_12_925)"/>
<mask id="path-214-inside-76_12_925" fill="white">
<path d="M88 319H105V346H88V319Z"/>
</mask>
<path d="M88 319H105V346H88V319Z" fill="#1E1E1E"/>
<path d="M105 319H104V346H105H106V319H105ZM88 346H89V319H88H87V346H88Z" fill="#41413F" mask="url(#path-214-inside-76_12_925)"/>
<rect x="516" y="174" width="2" height="22" fill="#41413F"/>
<rect x="534" y="174" width="2" height="22" fill="#41413F"/>
<line x1="375" y1="228.5" x2="380" y2="228.5" stroke="#1E1E1E"/>
<line x1="414" y1="228.5" x2="409" y2="228.5" stroke="#1E1E1E"/>
<line x1="427" y1="228.5" x2="432" y2="228.5" stroke="#1E1E1E"/>
<line x1="547" y1="228.5" x2="552" y2="228.5" stroke="#1E1E1E"/>
<line x1="597" y1="228.5" x2="602" y2="228.5" stroke="#1E1E1E"/>
<line x1="616" y1="228.5" x2="621" y2="228.5" stroke="#1E1E1E"/>
</svg>
